<?xml version="1.0" encoding="UTF-8"?><svg id="Calque_1" xmlns="http://www.w3.org/2000/svg" xmlns:xlink="http://www.w3.org/1999/xlink" viewBox="0 0 28.83 21.64"><defs><style>.cls-1{fill:none;stroke:#1a1a1a;stroke-linecap:round;stroke-linejoin:round;}.cls-2{fill:url(#Dégradé_sans_nom_8);}.cls-2,.cls-3,.cls-4,.cls-5,.cls-6,.cls-7,.cls-8,.cls-9{stroke-width:0px;}.cls-3{fill:url(#Dégradé_sans_nom_7);}.cls-4{fill:url(#Dégradé_sans_nom_2);}.cls-5{fill:url(#Dégradé_sans_nom_3);}.cls-6{fill:url(#Dégradé_sans_nom_7-2);}.cls-7{fill:url(#Dégradé_sans_nom_2-2);}.cls-8{fill:url(#Dégradé_sans_nom_8-3);}.cls-9{fill:url(#Dégradé_sans_nom_8-2);}</style><radialGradient id="Dégradé_sans_nom_2" cx="7.99" cy="18.12" fx="7.99" fy="18.12" r="5.67" gradientTransform="translate(0 23.86) scale(1 -1)" gradientUnits="userSpaceOnUse"><stop offset="0" stop-color="#8e5daa"/><stop offset=".27" stop-color="#8c5ba7"/><stop offset=".48" stop-color="#84569d"/><stop offset=".68" stop-color="#774e8c"/><stop offset=".87" stop-color="#654174"/><stop offset=".93" stop-color="#5e3d6b"/></radialGradient><radialGradient id="Dégradé_sans_nom_2-2" cx="-141.92" cy="17.97" fx="-141.92" fy="17.97" r="5.67" gradientTransform="translate(-121.06 23.86) rotate(-180)" xlink:href="#Dégradé_sans_nom_2"/><radialGradient id="Dégradé_sans_nom_3" cx="14.59" cy="11" fx="14.59" fy="11" r="10.57" gradientTransform="translate(0 23.86) scale(1 -1)" gradientUnits="userSpaceOnUse"><stop offset="0" stop-color="#8e5daa"/><stop offset=".46" stop-color="#8d5ca8"/><stop offset=".62" stop-color="#8759a1"/><stop offset=".74" stop-color="#7e5396"/><stop offset=".83" stop-color="#724a85"/><stop offset=".91" stop-color="#613f6f"/><stop offset=".93" stop-color="#5e3d6b"/></radialGradient><linearGradient id="Dégradé_sans_nom_7" x1="8.21" y1="17.83" x2="6.15" y2="21.28" gradientTransform="translate(0 23.86) scale(1 -1)" gradientUnits="userSpaceOnUse"><stop offset="0" stop-color="#b490c7"/><stop offset=".85" stop-color="#735d7b"/></linearGradient><linearGradient id="Dégradé_sans_nom_8" x1="14.33" y1="16.71" x2="14.37" y2="19.54" gradientTransform="translate(0 23.86) scale(1 -1)" gradientUnits="userSpaceOnUse"><stop offset="0" stop-color="#b490c7"/><stop offset=".28" stop-color="#a685b6"/><stop offset=".82" stop-color="#81688b"/><stop offset="1" stop-color="#735d7b"/></linearGradient><linearGradient id="Dégradé_sans_nom_8-2" x1="11.66" y1="17.72" x2="11.49" y2="18.8" xlink:href="#Dégradé_sans_nom_8"/><linearGradient id="Dégradé_sans_nom_7-2" x1="-22.99" y1="17.75" x2="-25.05" y2="21.2" gradientTransform="translate(-2.07 23.86) rotate(-180)" xlink:href="#Dégradé_sans_nom_7"/><linearGradient id="Dégradé_sans_nom_8-3" x1="103.82" y1="17.71" x2="103.65" y2="18.8" gradientTransform="translate(121.3 23.86) rotate(-180)" xlink:href="#Dégradé_sans_nom_8"/></defs><g id="fond"><polygon class="cls-4" points="4.71 10.99 3.14 5.55 4.34 1.07 6.07 .5 10.19 2.25 12.84 4.74 4.71 10.99"/><polygon class="cls-7" points="24.15 11.14 25.72 5.7 24.51 1.22 22.78 .65 18.67 2.4 16.01 4.89 24.15 11.14"/><path class="cls-5" d="m24.8,12.86c.02.15.39,3.46-1.82,5.95-2.15,2.43-5.32,2.48-8.38,2.54-2.77.05-5.1.09-7.22-1.6-1.98-1.57-3.37-4.33-2.98-6.89.2-1.32.87-2.72,1.82-4.24.81-1.3,1.14-1.95,2.12-2.73,2.01-1.6,4.59-1.5,6.26-1.52,1.67-.01,4.08-.03,6.17,1.57,1.26.96,1.86,2.4,2.48,3.47.64,1.1,1.36,1.96,1.54,3.45Z"/></g><g id="couleur"><path class="cls-3" d="m10.98,4.63c-1.83-1.43-4.21-2.91-4.89-2.25-.77.74-.94,1.98-.77,3.5.11,1.02.5,2.32.88,2.81.47-.63.85-1.76,2.07-2.7,1.12-.87,2.19-1.32,2.71-1.36Z"/><path class="cls-2" d="m13.26,4.4c.03.23.17,3.01,1.12,3.02,1.12.01,1.09-2.82,1.12-3.05"/><path class="cls-9" d="m10.98,5.07c.01.48.15,1.42.84,1.25.3-.14.32-.97.14-1.6"/><path class="cls-6" d="m18.15,4.71c1.83-1.43,4.21-2.91,4.89-2.25.77.74.94,1.98.77,3.5-.11,1.02-.5,2.32-.88,2.81-.47-.63-.85-1.76-2.07-2.7-1.12-.87-2.19-1.32-2.71-1.36Z"/><path class="cls-8" d="m18.16,5.08c-.01.48-.15,1.42-.84,1.25-.3-.14-.32-.97-.14-1.6"/></g><g id="contour"><path class="cls-1" d="m5.17,9.57c-.13.31-2.1,5.11.55,8.65,2.17,2.9,5.9,2.91,8.57,2.92,2.44,0,7.7.03,9.78-3.75,1.36-2.46.67-5.27.1-6.79-.19-.51-.36-.88-.44-1.03"/><path class="cls-1" d="m16.19,4.17C19.61,1.1,22.77-.19,24.24.86c.63.45.81,1.23,1.02,2.2.66,3.07-.25,5.84-1.03,7.54"/><path class="cls-1" d="m12.63,4.17C9.21,1.1,6.05-.19,4.58.86c-.63.45-.81,1.23-1.02,2.2-.66,3.07.25,5.84,1.03,7.54"/><path class="cls-1" d="m11.33,4.74c.61-.29,1.81-.77,3.39-.74,1.45.02,2.56.46,3.16.74"/><ellipse class="cls-1" cx="14.61" cy="11.19" rx=".69" ry=".19"/><path class="cls-1" d="m14.61,11.68c0,1.46-.5,2.43-1.03,2.49-.43.04-.83-.53-.94-.69"/><path class="cls-1" d="m14.6,11.76c0,1.46.5,2.43,1.03,2.49.43.04.83-.53.94-.69"/><line class="cls-1" x1="9.08" y1="10.99" x2="9.08" y2="12.36"/><line class="cls-1" x1="19.53" y1="10.99" x2="19.53" y2="12.36"/><path class="cls-1" d="m.63,15.05c.6-.46,1.78-1.23,3.4-1.41,1.87-.21,3.31.49,3.95.86"/><path class="cls-1" d="m.5,17.31c.5-.61,1.53-1.68,3.16-2.31,1.89-.72,3.56-.46,4.33-.28"/><path class="cls-1" d="m.75,19.98c.39-.73,1.22-2.04,2.78-3.07,1.79-1.19,3.58-1.35,4.41-1.37"/><path class="cls-1" d="m28.2,14.45c-.6-.46-1.78-1.23-3.4-1.41-1.87-.21-3.31.49-3.95.86"/><path class="cls-1" d="m28.33,16.71c-.5-.61-1.53-1.68-3.16-2.31-1.89-.72-3.56-.46-4.33-.28"/><path class="cls-1" d="m28.08,19.38c-.39-.73-1.22-2.04-2.78-3.07-1.79-1.19-3.58-1.35-4.41-1.37"/></g></svg>