<?xml version="1.0" encoding="UTF-8"?><svg id="Calque_1" xmlns="http://www.w3.org/2000/svg" xmlns:xlink="http://www.w3.org/1999/xlink" viewBox="0 0 1920 1080"><defs><style>.cls-1{fill:#fbfbfb;stroke:#000;stroke-linecap:round;stroke-linejoin:round;}.cls-2{clip-path:url(#clippath);}.cls-3{fill:none;stroke-width:0px;}</style><clipPath id="clippath"><rect class="cls-3" x=".25" y="666" width="1919.5" height="414"/></clipPath></defs><g class="cls-2"><path class="cls-1" d="m1928.23,944.5c0-.33.03-.67.03-1,0-46.39-78.78-84-175.95-84-57.56,0-108.67,13.2-140.77,33.6-11.01-8.11-25.85-13.1-42.18-13.1-30.07,0-55.08,16.86-60.42,39.12-18.87-13.79-47.93-22.62-80.55-22.62-18.18,0-35.25,2.75-50.08,7.57.72-4.58,1.09-9.28,1.09-14.07,0-49.98-40.51-90.5-90.48-90.5-39.4,0-72.91,25.19-85.33,60.35-18.51-7.18-40.52-11.35-64.14-11.35-29.65,0-56.77,6.57-77.6,17.43-15.98-29.57-45.53-49.43-79.36-49.43-36.61,0-68.23,23.26-83.03,56.93-18.21-15.39-43.49-24.93-71.43-24.93-6.11,0-12.09.47-17.89,1.34-8.09-64.03-70.39-113.84-146.06-113.84-69.27,0-127.33,41.74-142.87,97.92-39.43-21.04-98.51-34.42-164.55-34.42-118.71,0-214.94,43.2-214.94,96.5,0,.72.03,1.44.06,2.15-9-1.08-18.39-1.65-28.05-1.65-58.04,0-106.45,20.61-117.57,48h-133.37v239H2008.23v-239h-80.01.01Z"/></g></svg>