<?xml version="1.0" encoding="UTF-8"?><svg id="Calque_1" xmlns="http://www.w3.org/2000/svg" viewBox="0 0 1920 1080"><defs><style>.cls-1{fill:#fbfbfb;stroke:#fbfbfb;stroke-miterlimit:10;}</style></defs><polygon class="cls-1" points="337.27 581.89 336.4 586.77 332.01 587.99 336.4 589.52 337.34 594.25 338.47 589.36 342.79 588.22 338.53 586.92 337.27 581.89"/><polygon class="cls-1" points="340.5 575.46 340.01 578.32 337.56 579.03 340.01 579.92 340.53 582.69 341.16 579.83 343.58 579.17 341.2 578.41 340.5 575.46"/><polygon class="cls-1" points="344.2 579.78 343.5 583.37 340 584.27 343.5 585.39 344.25 588.87 345.15 585.28 348.59 584.44 345.2 583.48 344.2 579.78"/><polygon class="cls-1" points="1671.98 42.45 1674.36 62.48 1682.22 55.13 1676.33 64.13 1691.76 67.25 1676.47 70.01 1682.5 79.38 1674.64 72.21 1672.26 90.04 1670.01 72.4 1662.3 79.38 1667.77 69.64 1652.62 67.44 1667.63 65.05 1662.44 54.94 1669.87 61.74 1671.98 42.45"/><polygon class="cls-1" points="1249.97 74.94 1247.48 72.44 1250.28 74.76 1249.56 72.58 1250.66 74.62 1250.87 71.28 1251.08 74.55 1252.18 72.62 1251.46 74.76 1254.15 72.44 1251.66 75.04 1254.01 74.34 1251.9 75.32 1255.5 75.54 1251.63 75.75 1254.19 76.84 1251.66 76.06 1254.12 78.67 1251.42 76.41 1252.22 78.63 1251.11 76.52 1250.87 80 1250.73 76.52 1249.66 78.49 1250.32 76.34 1247.55 78.74 1250 76.13 1247.72 76.87 1249.94 75.78 1246.03 75.61 1249.9 75.39 1247.69 74.37 1249.97 74.94"/><path class="cls-1" d="m559.63,445.38c.1.89.26,2.3.38,4.04.25,3.63.07,4.46.69,5.26.55.73,1.78.88,4.2,1.14,1.37.15,2.5.21,3.26.23-.73.12-1.86.28-3.26.38-2.79.21-3.48-.04-4.14.69-.32.36-.57.88-.88,4.81-.13,1.67-.21,3.06-.25,4.04-.02-.99-.06-2.38-.19-4.04-.31-3.97-.71-4.55-.94-4.81-.6-.68-1.24-.62-3.76-.84-1.7-.15-3.09-.33-4.01-.46.43-.02,1.96-.11,4.08-.23,2.76-.15,3.32-.18,3.83-.76.48-.55.6-1.24.82-5.34.09-1.63.15-3.03.19-4.12h-.02Z"/><path class="cls-1" d="m116.81,244.99c.06.45.14,1.17.21,2.05.14,1.84.04,2.26.38,2.67.31.37.99.44,2.34.58.77.08,1.4.1,1.82.12-.41.06-1.04.14-1.82.19-1.56.11-1.94-.02-2.31.35-.18.18-.32.45-.49,2.44-.07.85-.12,1.56-.14,2.05,0-.5-.03-1.21-.1-2.05-.17-2.01-.4-2.31-.52-2.44-.33-.35-.69-.31-2.1-.43-.95-.08-1.72-.17-2.24-.23.24-.01,1.09-.06,2.27-.12,1.54-.08,1.85-.09,2.13-.39.27-.28.33-.63.45-2.71.05-.83.08-1.54.1-2.09h.02Z"/><path class="cls-1" d="m119.37,255.82c.05.36.13.94.19,1.66.12,1.49.04,1.83.34,2.17.27.3.88.36,2.07.47.68.06,1.23.08,1.61.09-.36.05-.92.11-1.61.16-1.38.09-1.72-.02-2.04.28-.16.15-.28.36-.43,1.98-.07.69-.1,1.26-.12,1.66,0-.41-.03-.98-.09-1.66-.15-1.63-.35-1.87-.46-1.98-.3-.28-.61-.25-1.85-.35-.84-.06-1.52-.13-1.98-.19.21-.01.96-.05,2.01-.09,1.36-.06,1.63-.07,1.89-.31.24-.23.3-.51.4-2.2.04-.67.07-1.25.09-1.69h-.02Z"/><path class="cls-1" d="m124.4,249.22c.03.25.08.65.12,1.14.08,1.02.02,1.26.21,1.48.17.21.55.25,1.29.32.42.04.77.06,1,.06-.22.03-.57.08-1,.11-.86.06-1.07-.01-1.27.19-.1.1-.17.25-.27,1.35-.04.47-.06.86-.08,1.14,0-.28-.02-.67-.06-1.14-.09-1.12-.22-1.28-.29-1.35-.18-.19-.38-.17-1.16-.24-.52-.04-.95-.09-1.23-.13.13,0,.6-.03,1.25-.06.85-.04,1.02-.05,1.17-.21s.18-.35.25-1.5c.03-.46.04-.85.06-1.16h.01Z"/><polygon class="cls-1" points="71.82 691.64 71.52 695.04 68.6 693.72 71.08 695.72 68.6 697.62 71.49 696.33 71.82 699.52 72.16 696.33 74.97 697.62 72.49 695.72 75.05 693.82 72.18 695.07 71.82 691.64"/><polygon class="cls-1" points="296.08 928.36 295.78 931.76 292.86 930.44 295.34 932.43 292.86 934.33 295.75 933.04 296.08 936.23 296.42 933.04 299.23 934.33 296.75 932.43 299.31 930.53 296.44 931.79 296.08 928.36"/><polygon class="cls-1" points="1634.79 908.51 1635.29 906.3 1637.76 905.75 1635.29 905.06 1634.76 902.92 1634.12 905.13 1631.68 905.65 1634.09 906.23 1634.79 908.51"/><polygon class="cls-1" points="1632.98 911.42 1633.25 910.13 1634.64 909.81 1633.25 909.4 1632.96 908.15 1632.6 909.44 1631.24 909.75 1632.58 910.09 1632.98 911.42"/><polygon class="cls-1" points="1630.89 909.47 1631.29 907.84 1633.26 907.44 1631.29 906.93 1630.86 905.35 1630.36 906.98 1628.41 907.36 1630.33 907.79 1630.89 909.47"/><polygon class="cls-1" points="1263.96 1028.55 1263.36 1024.78 1261.38 1026.17 1262.87 1024.47 1258.98 1023.89 1262.83 1023.37 1261.31 1021.61 1263.29 1022.95 1263.89 1019.6 1264.46 1022.92 1266.4 1021.61 1265.02 1023.44 1268.84 1023.85 1265.06 1024.3 1266.37 1026.2 1264.49 1024.92 1263.96 1028.55"/><polygon class="cls-1" points="611.11 1011.83 613.09 1014.01 610.86 1011.98 611.44 1013.88 610.56 1012.11 610.39 1015.02 610.23 1012.17 609.34 1013.85 609.92 1011.98 607.77 1014.01 609.76 1011.74 607.88 1012.35 609.56 1011.49 606.7 1011.31 609.79 1011.13 607.74 1010.18 609.76 1010.85 607.8 1008.58 609.95 1010.54 609.32 1008.61 610.2 1010.45 610.39 1007.42 610.5 1010.45 611.36 1008.74 610.83 1010.6 613.04 1008.52 611.08 1010.79 612.9 1010.14 611.14 1011.09 614.25 1011.25 611.16 1011.43 612.93 1012.32 611.11 1011.83"/><path class="cls-1" d="m1443.97,904.93c-.06-.4-.14-1.04-.21-1.83-.14-1.64-.04-2.02-.39-2.38-.31-.33-1-.4-2.37-.52-.77-.07-1.41-.09-1.84-.1.41-.05,1.05-.13,1.84-.17,1.57-.09,1.96.02,2.33-.31.18-.16.32-.4.49-2.18.08-.76.12-1.39.14-1.83,0,.45.03,1.08.11,1.83.17,1.8.4,2.06.53,2.18.34.31.7.28,2.12.38.96.07,1.74.15,2.26.21-.24.01-1.1.05-2.3.1-1.55.07-1.87.08-2.16.35-.27.25-.34.56-.46,2.42-.05.74-.08,1.37-.11,1.87l.02-.02Z"/><polygon class="cls-1" points="919.89 1036.98 920.19 1033.57 923.12 1034.89 920.63 1032.9 923.12 1031 920.22 1032.29 919.89 1029.1 919.56 1032.29 916.75 1031 919.23 1032.9 916.66 1034.8 919.53 1033.54 919.89 1036.98"/><polygon class="cls-1" points="1802.6 314.72 1802.98 310.89 1806.73 312.37 1803.55 310.13 1806.73 307.99 1803.02 309.44 1802.6 305.84 1802.17 309.44 1798.57 307.99 1801.75 310.13 1798.46 312.27 1802.14 310.85 1802.6 314.72"/><polygon class="cls-1" points="1732.63 683.42 1733.13 681.21 1735.6 680.66 1733.13 679.97 1732.6 677.83 1731.96 680.04 1729.52 680.56 1731.93 681.14 1732.63 683.42"/><polygon class="cls-1" points="1730.82 686.33 1731.09 685.04 1732.47 684.72 1731.09 684.31 1730.8 683.06 1730.44 684.35 1729.08 684.66 1730.42 685 1730.82 686.33"/><polygon class="cls-1" points="1728.73 684.38 1729.12 682.75 1731.1 682.34 1729.12 681.84 1728.7 680.26 1728.2 681.89 1726.25 682.27 1728.17 682.7 1728.73 684.38"/><polygon class="cls-1" points="1388.87 831.1 1388.27 827.33 1386.29 828.71 1387.78 827.02 1383.89 826.43 1387.74 825.92 1386.22 824.15 1388.2 825.5 1388.8 822.15 1389.37 825.47 1391.31 824.15 1389.93 825.98 1393.75 826.4 1389.97 826.85 1391.28 828.75 1389.4 827.47 1388.87 831.1"/><polygon class="cls-1" points="920.6 1010.66 922.59 1012.84 920.35 1010.82 920.93 1012.72 920.05 1010.94 919.88 1013.85 919.72 1011 918.84 1012.69 919.41 1010.82 917.26 1012.84 919.25 1010.57 917.37 1011.18 919.06 1010.33 916.19 1010.14 919.28 1009.96 917.24 1009.01 919.25 1009.68 917.29 1007.42 919.44 1009.38 918.81 1007.45 919.69 1009.28 919.88 1006.25 919.99 1009.28 920.85 1007.57 920.32 1009.44 922.53 1007.35 920.57 1009.62 922.39 1008.98 920.63 1009.93 923.74 1010.08 920.66 1010.26 922.42 1011.15 920.6 1010.66"/><path class="cls-1" d="m1846.88,346.48c-.06-.4-.14-1.04-.21-1.83-.14-1.64-.04-2.02-.39-2.38-.31-.33-1-.4-2.37-.52-.77-.07-1.41-.09-1.84-.1.41-.05,1.05-.13,1.84-.17,1.57-.09,1.96.02,2.33-.31.18-.16.32-.4.49-2.18.08-.76.12-1.39.14-1.83,0,.45.03,1.08.11,1.83.17,1.8.4,2.06.53,2.18.34.31.7.28,2.12.38.96.07,1.74.15,2.26.21-.24.01-1.1.05-2.3.1-1.55.07-1.87.08-2.16.35-.27.25-.34.56-.46,2.42-.05.74-.08,1.37-.11,1.87l.02-.02Z"/><path class="cls-1" d="m1812.54,890.25c-.04-.28-.1-.73-.15-1.29-.1-1.16-.03-1.42-.28-1.68-.22-.23-.71-.28-1.69-.36-.55-.05-1.01-.07-1.31-.07.29-.04.75-.09,1.31-.12,1.12-.07,1.4.01,1.66-.22.13-.11.23-.28.35-1.53.05-.53.08-.98.1-1.29,0,.31.02.76.08,1.29.12,1.27.29,1.45.38,1.53.24.22.5.2,1.51.27.68.05,1.24.1,1.61.15-.17,0-.79.04-1.64.07-1.11.05-1.33.06-1.54.24-.19.18-.24.4-.33,1.7-.03.52-.06.97-.08,1.31h.02Z"/><path class="cls-1" d="m1810.7,883.45c-.04-.23-.09-.59-.13-1.04-.09-.94-.03-1.15-.24-1.36-.2-.19-.63-.23-1.49-.3-.49-.04-.89-.05-1.16-.06.26-.03.66-.07,1.16-.1.99-.05,1.24.01,1.47-.18.11-.09.2-.23.31-1.24.05-.43.07-.79.09-1.04,0,.25.02.61.07,1.04.11,1.03.25,1.17.33,1.24.21.18.44.16,1.34.22.6.04,1.1.08,1.42.12-.15,0-.69.03-1.45.06-.98.04-1.18.05-1.36.2-.17.14-.21.32-.29,1.38-.03.42-.05.78-.07,1.06h0Z"/><path class="cls-1" d="m1807.08,887.59c-.02-.16-.06-.41-.08-.72-.06-.64-.02-.79-.15-.93-.12-.13-.39-.16-.93-.2-.3-.03-.55-.04-.72-.04.16-.02.41-.05.72-.07.62-.04.77,0,.91-.12.07-.06.12-.16.19-.85.03-.3.05-.54.06-.72,0,.17.01.42.04.72.07.7.16.8.21.85.13.12.27.11.83.15.38.03.68.06.89.08-.1,0-.43.02-.9.04-.61.03-.73.03-.85.13-.11.1-.13.22-.18.94-.02.29-.03.54-.04.73h0Z"/><polygon class="cls-1" points="1140.05 257.72 1140.44 253.89 1144.19 255.37 1141.01 253.13 1144.19 250.98 1140.48 252.44 1140.05 248.84 1139.63 252.44 1136.02 250.98 1139.2 253.13 1135.92 255.27 1139.59 253.85 1140.05 257.72"/><polygon class="cls-1" points="1800.69 101.41 1801.07 96.69 1804.74 98.52 1801.63 95.75 1804.74 93.12 1801.11 94.9 1800.69 90.48 1800.28 94.9 1796.76 93.12 1799.87 95.75 1796.65 98.39 1800.25 96.65 1800.69 101.41"/><polygon class="cls-1" points="325.4 195.55 324.71 199.07 321.27 199.95 324.71 201.05 325.44 204.46 326.33 200.94 329.72 200.12 326.38 199.18 325.4 195.55"/><polygon class="cls-1" points="327.92 190.92 327.54 192.97 325.62 193.49 327.54 194.13 327.95 196.13 328.44 194.07 330.33 193.59 328.47 193.04 327.92 190.92"/><polygon class="cls-1" points="330.82 194.03 330.27 196.62 327.53 197.27 330.27 198.08 330.86 200.58 331.56 198 334.26 197.39 331.6 196.7 330.82 194.03"/><polygon class="cls-1" points="132.07 76.55 132.9 82.55 135.65 80.35 133.59 83.04 138.99 83.98 133.64 84.8 135.75 87.61 133 85.46 132.17 90.8 131.38 85.52 128.68 87.61 130.6 84.69 125.29 84.03 130.55 83.32 128.73 80.29 131.33 82.33 132.07 76.55"/><polygon class="cls-1" points="1350.54 144.89 1348.05 142.39 1350.85 144.71 1350.12 142.53 1351.23 144.57 1351.44 141.23 1351.64 144.5 1352.75 142.57 1352.02 144.71 1354.72 142.39 1352.23 145 1354.58 144.29 1352.47 145.28 1356.07 145.49 1352.2 145.7 1354.75 146.79 1352.23 146.02 1354.68 148.62 1351.99 146.37 1352.78 148.58 1351.68 146.47 1351.44 149.96 1351.3 146.47 1350.23 148.44 1350.88 146.3 1348.12 148.69 1350.57 146.09 1348.29 146.82 1350.5 145.73 1346.6 145.56 1350.47 145.35 1348.26 144.33 1350.54 144.89"/><path class="cls-1" d="m602.02,114.86c.08.64.2,1.66.29,2.92.2,2.62.06,3.21.54,3.8.43.53,1.39.63,3.29.83,1.07.11,1.96.15,2.55.17-.57.08-1.46.2-2.55.28-2.19.15-2.73-.03-3.24.5-.25.26-.44.63-.69,3.47-.1,1.21-.16,2.21-.2,2.92-.01-.71-.05-1.72-.15-2.92-.24-2.86-.56-3.28-.74-3.47-.47-.49-.97-.44-2.95-.61-1.33-.11-2.42-.24-3.14-.33.34-.02,1.53-.08,3.19-.17,2.16-.11,2.6-.13,3-.55.37-.4.47-.89.64-3.85.07-1.17.11-2.18.15-2.97v-.02Z"/><path class="cls-1" d="m1554.95,183.96c.04.29.1.75.15,1.31.1,1.18.03,1.45.27,1.71.22.24.7.28,1.65.37.54.05.98.07,1.28.07-.29.04-.73.09-1.28.12-1.1.07-1.37-.01-1.62.22-.13.12-.22.28-.34,1.56-.05.54-.08.99-.1,1.31,0-.32-.02-.77-.07-1.31-.12-1.29-.28-1.48-.37-1.56-.24-.22-.49-.2-1.48-.27-.67-.05-1.21-.11-1.58-.15.17,0,.77-.04,1.6-.07,1.08-.05,1.3-.06,1.5-.25.19-.18.24-.4.32-1.73.03-.53.06-.98.07-1.34h0Z"/><path class="cls-1" d="m1556.76,190.89c.04.23.09.6.13,1.06.09.95.03,1.17.24,1.38.19.19.62.23,1.46.3.48.04.87.05,1.13.06-.25.03-.65.07-1.13.1-.97.05-1.21-.01-1.44.18-.11.09-.2.23-.3,1.26-.05.44-.07.81-.09,1.06,0-.26-.02-.63-.07-1.06-.11-1.04-.25-1.2-.33-1.26-.21-.18-.43-.16-1.31-.22-.59-.04-1.07-.09-1.39-.12.15,0,.68-.03,1.41-.06.96-.04,1.15-.05,1.33-.2.17-.15.21-.33.28-1.4.03-.43.05-.8.07-1.08h.01Z"/><path class="cls-1" d="m1560.29,186.67c.02.16.06.41.08.73.05.65.02.8.15.95.12.13.38.16.91.21.3.03.54.04.7.04-.16.02-.4.05-.7.07-.6.04-.75,0-.89.12-.07.06-.12.16-.19.87-.03.3-.04.55-.05.73,0-.18-.01-.43-.04-.73-.07-.72-.15-.82-.2-.87-.13-.12-.27-.11-.81-.15-.37-.03-.67-.06-.87-.08.09,0,.42-.02.88-.04.6-.03.72-.03.83-.14.1-.1.13-.22.18-.96.02-.29.03-.55.04-.74h-.02Z"/><polygon class="cls-1" points="155.35 970.18 155.04 973.58 152.12 972.26 154.6 974.25 152.12 976.15 155.02 974.86 155.35 978.05 155.68 974.86 158.49 976.15 156.01 974.25 158.57 972.35 155.71 973.61 155.35 970.18"/><polygon class="cls-1" points="827.2 869.5 826.51 877.96 819.86 874.68 825.51 879.64 819.86 884.37 826.45 881.17 827.2 889.1 827.95 881.17 834.35 884.37 828.71 879.64 834.54 874.91 828.02 878.04 827.2 869.5"/><polygon class="cls-1" points="128.77 763.18 130.75 765.35 128.52 763.33 129.1 765.23 128.21 763.45 128.05 766.36 127.88 763.51 127 765.2 127.58 763.33 125.43 765.35 127.41 763.09 125.54 763.7 127.22 762.84 124.35 762.66 127.44 762.47 125.4 761.52 127.41 762.2 125.46 759.93 127.61 761.89 126.97 759.96 127.86 761.8 128.05 758.77 128.16 761.8 129.01 760.08 128.49 761.95 130.7 759.87 128.74 762.14 130.56 761.49 128.79 762.44 131.91 762.6 128.82 762.78 130.59 763.67 128.77 763.18"/><path class="cls-1" d="m1783.44,437.88c-.06-.4-.14-1.04-.21-1.83-.14-1.64-.04-2.02-.39-2.38-.31-.33-1-.4-2.37-.52-.77-.07-1.41-.09-1.84-.1.41-.05,1.05-.13,1.84-.17,1.57-.09,1.96.02,2.33-.31.18-.16.32-.4.49-2.18.08-.76.12-1.39.14-1.83,0,.45.03,1.08.11,1.83.17,1.8.4,2.06.53,2.18.34.31.7.28,2.12.38.96.07,1.74.15,2.26.21-.24.01-1.1.05-2.3.1-1.55.07-1.87.08-2.16.35-.27.25-.34.56-.46,2.42-.05.74-.08,1.37-.11,1.87l.02-.02Z"/><polygon class="cls-1" points="1380.31 424.08 1380.69 420.17 1384.35 421.69 1381.24 419.4 1384.35 417.22 1380.72 418.69 1380.31 415.04 1379.89 418.69 1376.37 417.22 1379.48 419.4 1376.26 421.58 1379.86 420.14 1380.31 424.08"/><polygon class="cls-1" points="1504.92 483.4 1505.31 479.57 1509.06 481.05 1505.88 478.81 1509.06 476.67 1505.35 478.12 1504.92 474.52 1504.5 478.12 1500.89 476.67 1504.08 478.81 1500.79 480.95 1504.46 479.53 1504.92 483.4"/><polygon class="cls-1" points="658.12 156.86 654.58 152.95 658.56 156.58 657.53 153.17 659.1 156.36 659.4 151.14 659.69 156.25 661.26 153.23 660.23 156.58 664.06 152.95 660.53 157.03 663.87 155.92 660.87 157.47 665.98 157.8 660.48 158.13 664.11 159.83 660.53 158.62 664.01 162.69 660.18 159.17 661.31 162.64 659.74 159.34 659.4 164.78 659.2 159.34 657.68 162.42 658.61 159.06 654.68 162.8 658.17 158.73 654.93 159.89 658.07 158.18 652.52 157.91 658.02 157.58 654.88 155.98 658.12 156.86"/><polygon class="cls-1" points="978.73 97.08 978.04 105.54 971.39 102.26 977.04 107.22 971.39 111.95 977.98 108.75 978.73 116.68 979.48 108.75 985.88 111.95 980.24 107.22 986.07 102.49 979.55 105.62 978.73 97.08"/><polygon class="cls-1" points="1562.11 308.59 1557.6 303.17 1562.68 308.21 1561.36 303.48 1563.37 307.9 1563.75 300.65 1564.12 307.75 1566.13 303.55 1564.81 308.21 1569.7 303.17 1565.19 308.82 1569.45 307.29 1565.63 309.43 1572.15 309.88 1565.13 310.34 1569.77 312.71 1565.19 311.03 1569.64 316.67 1564.75 311.79 1566.19 316.6 1564.18 312.02 1563.75 319.57 1563.49 312.02 1561.55 316.29 1562.74 311.64 1557.72 316.83 1562.18 311.18 1558.04 312.78 1562.05 310.42 1554.96 310.04 1561.99 309.58 1557.98 307.37 1562.11 308.59"/><polygon class="cls-1" points="375.95 861.42 375.65 864.82 372.72 863.51 375.2 865.5 372.72 867.4 375.62 866.11 375.95 869.3 376.28 866.11 379.09 867.4 376.61 865.5 379.18 863.6 376.31 864.85 375.95 861.42"/><polygon class="cls-1" points="1739.16 406.12 1739.54 402.28 1743.29 403.77 1740.11 401.52 1743.29 399.38 1739.58 400.83 1739.16 397.24 1738.73 400.83 1735.13 399.38 1738.31 401.52 1735.02 403.67 1738.7 402.25 1739.16 406.12"/></svg>