<?xml version="1.0" encoding="UTF-8"?><svg id="Calque_1" xmlns="http://www.w3.org/2000/svg" viewBox="0 0 340.62 373.21"><defs><style>.cls-1{fill:#4d4d4d;stroke:#1a1a1a;stroke-linejoin:round;stroke-width:4px;}</style></defs><path class="cls-1" d="m338.41,56.62c-5.79-1.08-11.57-2.17-17.36-3.23-29.24-5.34-58.55-10.2-88.11-13.49-21.63-2.41-43.28-2.26-64.96-.75-20.7,1.44-41.14,4.45-61.16,9.94-24.84,6.81-48.3,16.53-68.39,33.14-3.65,3.02-6.96,6.45-10.45,9.72-5.26-3.37-10.56-6.96-16.04-10.23C2.64,76.18-.23,68.17,3.74,57.99c2.74-7.03,7.63-12.4,13.41-17.02,12.65-10.09,27.31-16.27,42.46-21.35,25.54-8.57,51.72-14.27,78.59-16.53,34.27-2.89,68.07,0,101.42,8.43,26.49,6.7,51.72,16.58,75.56,29.91,6.8,3.8,13.31,8.12,19.93,12.24,1.22.76,2.34,1.69,3.51,2.55-.07.14-.14.27-.21.41Z"/><path class="cls-1" d="m282.51,82.82c-10.48.28-20.42.5-30.34.83-24.31.82-48.56,2.5-72.72,5.41-26.86,3.23-53.45,7.85-79.3,15.99-15.79,4.97-31.09,11.11-44.66,20.84-3.12,2.24-6.1,4.76-8.8,7.49-2.63,2.66-4.83,5.75-7.36,8.83-5.36-5.22-9.47-11.49-10.61-19.35-1.6-11.13,3.08-19.8,11.06-27.05,5.77-5.24,12.87-8.1,19.92-11.06,19.5-8.17,39.55-14.61,60.23-19.01,17.87-3.8,35.95-5.95,54.24-6.26,24.04-.42,47.69,2.21,70.9,8.59,12.54,3.44,24.67,7.96,36.24,13.92.27.14.51.35,1.2.82Z"/><path class="cls-1" d="m212.55,208.41c-4.47,3.84-9,7.61-13.4,11.53-18.77,16.72-35.84,34.95-49.73,56-1.31,1.99-2.43,4.1-3.76,6.07-.38.57-1.23,1.26-1.8,1.21-4.69-.47-9.27-1.48-13.26-4.15-5.29-3.54-7.05-9.03-3.63-14.82,3.13-5.3,7.09-10.26,11.35-14.73,17.81-18.73,39.34-31.51,64.04-38.98,3.28-.99,6.64-1.74,9.96-2.6.08.16.15.32.23.48Z"/><path class="cls-1" d="m224.48,230.43c-3.42,2.83-6.96,5.48-10.17,8.47-11.26,10.5-20.21,22.88-28.12,35.98-5.85,9.68-11.06,19.75-16.64,29.59-.43.76-1.55,1.5-2.42,1.58-9.52.85-15.84-8-12.01-16.99,6.89-16.18,17.18-29.8,31.16-40.55,10.86-8.36,22.89-14.4,36.16-17.89.47-.12.95-.24,1.43-.31.2-.03.41.08.6.13Z"/><path class="cls-1" d="m226.43,251.45c-2.05,2.87-3.86,5.33-5.6,7.84-13.11,19-25.56,38.4-35.27,59.42-1.27,2.75-2.43,5.57-3.43,8.43-.73,2.1-1.75,1.87-3.04.7-2.37-2.14-3.46-4.93-3.94-8.01-.75-4.8,1.03-9.02,2.98-13.24,6.65-14.39,14.6-27.95,25.67-39.44,6.13-6.36,12.91-11.91,21.25-15.25.29-.12.59-.2,1.39-.47Z"/><path class="cls-1" d="m223.22,286.99c0,.86.12,1.43-.02,1.93-4.64,16.65-10.54,32.79-19.51,47.65-1.5,2.49-3.55,4.69-5.55,6.83-1.57,1.68-3.14,1.22-4.51-.56-2.34-3.05-3.36-6.29-2.13-10.11,5.62-17.36,15.12-32.13,29.16-43.88.74-.62,1.56-1.14,2.55-1.86Z"/><path class="cls-1" d="m220.37,371.21c.72-5.01-1.89-7.81-5.56-9.99-1.97-1.17-4.1-2.16-5.84-3.61-.88-.74-1.7-2.45-1.46-3.49,2.5-11.07,7.37-20.99,14.97-29.5.37-.41.8-.76,1.43-1.34,4.91,11.53,8.55,23.01,5.24,35.48-1.34,5.03-4.13,9.2-8.77,12.45Z"/><path class="cls-1" d="m203.95,141.43c-.4-.03-.84,0-1.32.04-15.55,1.64-30.82,4.71-45.86,8.92-23.64,6.62-46.23,15.87-67.74,27.71-7.47,4.11-15.16,7.89-21.6,13.66-9.25,8.29-10.03,19.39-1.51,28.39,3.11,3.29,7.08,5.78,10.8,8.44,1.61,1.15,3.57,1.8,5.25,2.62,1.76-2.75,3.18-5.25,4.87-7.56,9.04-12.34,20.53-22.1,32.9-30.89,23.57-16.75,49.47-29.08,76.18-39.85l34.1-12.34c-.04-.13-26.07.86-26.07.86Z"/><path class="cls-1" d="m191.85,173.78c-.76.14-28.21,8.72-28.29,8.59-4.08,2.07-8.08,3.97-11.96,6.1-19.01,10.44-35.12,24.44-49.37,40.67-3.49,3.97-6.47,8.29-8.09,13.4-2.19,6.88.07,11.97,6.69,14.8,5.09,2.18,10.51,2.45,15.95,2.4.64,0,1.52-.61,1.88-1.19,10.42-16.59,23.07-31.33,37.32-44.7,14.32-13.44,30.05-24.97,47.52-34.02,5-2.59,10.1-4.97,15.45-7.6-9.48-.88-27.11,1.52-27.11,1.52Z"/><path class="cls-1" d="m245.9,117.1l11.71-.92s-46.14-6.5-58.98-7.2c-26.62-1.46-53,.49-79.03,6.45-18.74,4.29-36.71,10.67-53.44,20.23-9.06,5.18-17.29,11.42-22.88,20.49-5.69,9.22-4.71,18.32,2.86,26.04,2.06,2.1,4.43,3.91,6.8,5.66,3.17,2.33,3.24,2.24,6.11-.55.53-.51,1.07-1.02,1.62-1.51,13.6-12.22,28.96-21.84,45.22-30.02,37.69-18.98,77.87-29.77,119.39-36.12,4.34-.66,8.68-1.29,13.14-1.96,0,0,7.44-.52,7.48-.59Z"/></svg>