<?xml version="1.0" encoding="UTF-8"?><svg id="Calque_1" xmlns="http://www.w3.org/2000/svg" xmlns:xlink="http://www.w3.org/1999/xlink" viewBox="0 0 1920 1080"><defs><style>.cls-1{clip-path:url(#clippath);}.cls-2,.cls-3,.cls-4{fill:none;}.cls-2,.cls-5,.cls-6,.cls-7,.cls-8{stroke-width:0px;}.cls-9{fill:#9d69e6;}.cls-9,.cls-10,.cls-11,.cls-12,.cls-13,.cls-3,.cls-4,.cls-14,.cls-15,.cls-16{stroke:#1a1a1a;}.cls-9,.cls-11,.cls-12,.cls-13,.cls-3,.cls-14,.cls-15,.cls-16{stroke-linecap:round;stroke-linejoin:round;}.cls-9,.cls-3{stroke-width:2px;}.cls-10{fill:#d694e6;}.cls-10,.cls-11,.cls-4{stroke-width:4px;}.cls-10,.cls-4{stroke-miterlimit:10;}.cls-11{fill:#de979e;}.cls-12{stroke-width:4px;}.cls-12,.cls-13{fill:#decc4b;}.cls-13{stroke-width:4px;}.cls-14{fill:#006800;}.cls-14,.cls-15,.cls-16{stroke-width:3px;}.cls-15{fill:#008600;}.cls-16{fill:#00b300;}.cls-6{fill:#febfb3;}.cls-7{fill:#fff4f5;}.cls-8{fill:#ff1d32;}</style><clipPath id="clippath"><rect class="cls-2" x="-.5" y="626.81" width="1921" height="453"/></clipPath></defs><g id="champi"><polygon class="cls-8" points="291.72 940.94 285.79 936.11 283.75 923.93 284.71 914.38 289.24 902.75 295.1 897.33 309.75 883.27 315.75 877.78 321.75 866.79 330.75 854.7 344.75 840.41 357.75 832.72 368.75 830.52 377.37 831.91 389.75 839.31 397.75 847.01 406.94 859.54 412.75 872.28 418.76 885.73 427.75 893.16 434.5 901.02 438.75 910.75 440.76 920.21 440.76 931.33 438.07 941.46 432.31 947.38 291.72 940.94"/><polygon class="cls-6" points="341.79 954.54 313.75 950.31 296.22 944.76 290.77 936.11 293.68 932.75 301.1 931.33 323.33 936.11 344.57 938.5 380.05 938.5 395.75 937.12 414.26 936.11 427.34 937.76 432.31 941.46 431.05 946.94 420.67 952.95 402.75 954.7 378.75 955.8 379.75 968.99 381.89 989.08 388.07 1012.75 389.75 1025.04 387.75 1033.83 380.75 1038.23 372.75 1039.32 359.82 1038.22 348.08 1039.32 335.78 1038.22 327.44 1028.45 325.99 1007 341.75 959.1 341.79 954.54"/><ellipse class="cls-7" cx="371.25" cy="890.97" rx="6.5" ry="7.69"/><ellipse class="cls-7" cx="423.25" cy="908.55" rx="5.5" ry="6.59"/><ellipse class="cls-7" cx="388.75" cy="863.49" rx="6" ry="7.69"/><ellipse class="cls-7" cx="337.75" cy="860.74" rx="5" ry="6.04"/><ellipse class="cls-7" cx="335.25" cy="906.35" rx="6.5" ry="7.69"/><polygon class="cls-7" points="307.75 895.36 307.07 899.42 305.75 903.05 302.75 905.25 297.75 904.15 295.33 899.89 295.1 897.33 298.75 892.06 302.38 888.95 304.98 890.6 307.07 893.82 307.75 895.36"/><path class="cls-5" d="m370.3,829.42c.74.1,1.49.19,2.23.29,4.55.63,8.82,2.36,12.86,4.89,4.63,2.91,8.72,6.7,12.46,11.05,5.92,6.87,10.75,14.74,15.04,23.12,2.46,4.82,4.69,9.78,6.74,14.87.52,1.3,1.41,2.13,2.4,2.85,6.91,5.06,12.55,11.62,16.54,20.12,2.08,4.43,3.44,9.15,3.99,14.2.07.66.13,1.32.2,1.98v4.54c-.12,1.04-.2,2.09-.35,3.13-.58,3.92-1.43,7.72-3.44,11-1.96,3.21-4.52,5.55-7.43,7.38-3.4,2.15-7.04,3.52-10.78,4.54-4.18,1.14-8.41,1.86-12.68,2.23-3.86.33-7.72.58-11.58.74-4.35.18-8.7.22-13.05.34-.98.03-1.97.11-2.95.14-.28,0-.38.11-.39.45-.24,5.03-.12,10.05.32,15.06.72,8.07,2.18,15.94,4.23,23.66,1.32,4.97,2.77,9.89,4.12,14.84,1.26,4.62,2.13,9.32,2,14.22-.08,2.77-.44,5.45-1.55,7.93-1.45,3.22-3.74,5.16-6.59,6.26-1.59.61-3.23.93-4.89,1.07-.16.01-.31.06-.47.09h-4.32c-.19-.03-.37-.07-.56-.09-1.52-.17-3.05-.28-4.57-.51-2.97-.46-5.95-.5-8.94-.28s-5.99.47-8.98.69c-1.05.08-2.11.13-3.17.19h-1.94c-.79-.07-1.58-.13-2.37-.21-2.82-.27-5.56-.92-8.1-2.48-3.41-2.1-5.64-5.43-7-9.65-.92-2.87-1.41-5.87-1.68-8.92-.64-7.26.37-14.29,2.16-21.2,1.5-5.82,3.52-11.4,5.57-16.96,2.16-5.85,4.41-11.65,6.15-17.7.69-2.37,1.23-4.8,1.86-7.19.1-.38-.01-.58-.28-.7-.2-.09-.42-.16-.64-.17-4.57-.19-9.13-.61-13.65-1.44-5.31-.98-10.63-1.97-15.91-3.22-5.33-1.26-10.6-2.89-15.62-5.47-2.84-1.46-5.5-3.27-7.75-5.86-2.8-3.22-4.33-7.16-4.71-11.76-.02-.21-.06-.41-.09-.61v-3.59c.11-.99.21-1.98.33-2.97.82-6.55,3-12.41,6.24-17.75,2.88-4.73,6.38-8.72,10.21-12.32,4.16-3.91,8.63-7.25,13.19-10.44.24-.17.47-.42.63-.7,3.3-5.65,6.68-11.23,10.33-16.56,4.36-6.37,9.04-12.36,14.36-17.6,4.51-4.45,9.38-8.23,14.74-11.06,3.4-1.79,6.91-3.16,10.56-4.02.92-.22,1.87-.26,2.8-.38.2-.03.4-.06.61-.1h3.53l.03.04Zm46.58,53.93c.3-.63.05-1.03-.12-1.42-1.83-4-3.58-8.07-5.54-11.99-3.9-7.82-8.47-15.04-13.94-21.41-3.71-4.32-7.67-8.26-12.15-11.4-5.9-4.13-12.28-5.81-19.09-5.04-5.31.6-10.27,2.62-15,5.5-5.77,3.51-10.91,8.08-15.66,13.3-6.92,7.6-12.81,16.21-17.83,25.69-.06.12-.11.25-.24.53,1.01-.38,1.89-.71,2.76-1.05,1.54-.58,3.07-1.19,4.62-1.74.44-.15.92-.13,1.38-.18,0,.05.01.09.02.14-7.55,4.48-15.18,8.79-21.94,14.91.66.64,1.32,1.2,1.9,1.85,1.27,1.42,2.17,3.12,2.29,5.25.21,3.74-1.29,6.42-3.92,8.19-2.23,1.5-4.5,1.44-6.68-.27-1.05-.83-1.83-1.97-2.46-3.26-.26-.53-.49-1.07-.78-1.71-.34.33-.69.59-.96.94-1.65,2.11-3.13,4.38-4.39,6.85-3.04,5.94-4.81,12.29-4.36,19.36.31,4.77,1.86,8.85,4.81,12.13.18.2.42.3.64.45-.01-.28,0-.56-.03-.84-.06-.47-.14-.93-.22-1.4-.31-1.83.31-3.19,1.51-4.23,1.86-1.61,3.99-2.16,6.24-2.22,2.53-.06,5.02.38,7.49.9,3.67.77,7.33,1.67,11,2.48,8.11,1.8,16.28,2.97,24.51,3.41,5.9.31,11.81.47,17.72.6,3.41.07,6.82-.03,10.23-.11,3.48-.09,6.97-.21,10.45-.39,4.48-.23,8.96-.53,13.44-.8,2.91-.18,5.82-.34,8.72-.56,5.45-.41,10.89-.77,16.35-.5,3.07.15,6.13.45,9.12,1.38,1.57.49,3.09,1.14,4.4,2.35,1.1,1.02,1.8,2.33,1.82,4.03,0,.81-.14,1.63-.21,2.43-.03,0,0,.01.02,0,.1-.07.2-.15.3-.23,2.82-2.31,4.79-5.42,6.03-9.19,1.74-5.28,1.92-10.74,1.32-16.29-.76-6.98-3.3-12.98-6.99-18.36-3.07-4.49-6.74-8.18-10.72-11.45-3.58-2.94-7.36-5.48-11.21-7.87-.59-.37-1.19-.74-1.78-1.1.31-.12.59-.13.88-.12,1.25.04,2.37.61,3.5,1.18.9.45,1.82.86,2.74,1.29h.01Zm-37.09,56.65h-.62c-3.47-.02-6.94-.05-10.41-.04-3.31.01-6.62.12-9.92.11-3.95,0-7.91-.07-11.86-.14-1.11-.02-1.52.36-1.55,1.68-.11,4.5-.73,8.91-1.66,13.26-1.38,6.43-3.39,12.6-5.56,18.69-1.86,5.22-3.81,10.39-5.63,15.62-2.3,6.62-4.18,13.4-4.86,20.57-.44,4.64-.39,9.26.5,13.83.53,2.74,1.38,5.33,2.75,7.64,1.89,3.19,4.57,4.93,7.65,5.9,3.43,1.09,6.93,1,10.43.7,2.58-.22,5.16-.53,7.74-.68,5.15-.31,10.29-.02,15.41.73,2.49.36,4.97.52,7.47.01,4.82-.98,7.98-4.62,8.93-10.34.57-3.46.38-6.92-.36-10.29-.76-3.48-1.72-6.89-2.64-10.32-1.9-7-3.78-14-5.18-21.17-1.82-9.25-2.63-18.63-2.36-28.13.12-4.19.43-8.35,1-12.48.23-1.69.5-3.38.76-5.17l-.03.02Zm17.99-1.52c.1.22.16.36.22.5.78,1.7,1.16,3.52,1.15,5.46-.02,3.16-.96,5.97-2.36,8.59-.14.26-.28.51-.42.77.08.05.1.08.13.08.35.03.7.06,1.06.08,4.42.2,8.32-1.2,11.47-5.12,1.54-1.91,1.96-4.06,1.42-6.54-.58-2.64-2.33-4.37-4.38-4.32-2.01.05-4.03.13-6.04.23-.73.04-1.45.17-2.24.27h-.01Zm-10.9,15.76s.05.11.07.16c2.14-.11,4.28-.24,6.42-.31.74-.02,1.28-.41,1.78-.97,2.97-3.31,3.71-9.8,1.59-13.97-.25-.49-.6-.67-1.03-.65-1.83.08-3.67.18-5.5.29-.8.05-1.6.15-2.44.23,1.75,5.29,1.62,10.36-.9,15.23h.01Zm-62.66-16.56c-.18-.05-.29-.08-.4-.11-2.54-.46-5.08-.92-7.62-1.36-.41-.07-.89-.18-1.25-.01-2.02.97-3.91,3.43-2.77,6.9,1.14,3.46,3.36,5.65,6.28,6.62,1.97.65,4.06.82,6.19,1.22-.52-1.12-1-2.06-1.41-3.05-.87-2.12-1.27-4.34-.68-6.68.33-1.3.92-2.42,1.67-3.53h-.01Zm19.15,5.55v-2.48c0-.67-.14-.91-.68-1.08-.21-.07-.43-.09-.65-.11-1.91-.14-3.82-.26-5.72-.4-.73-.05-1.31.25-1.8.89-.97,1.26-1.43,2.77-1.6,4.42-.21,2.09-.11,4.15.75,6.05.58,1.28,1.46,2.04,2.71,2.09,1.09.05,2.17.13,3.26.2.6.04,1.2.12,1.8.13.59,0,.75-.16.9-.82.69-2.97.95-6,1.03-8.91v.02Zm63.57,9.59c.93.32,1.91.27,2.89.09,2.77-.51,5.32-1.74,7.69-3.48,1.27-.93,2.46-1.99,3.35-3.45.94-1.56.96-3.05-.07-4.54-1.4-2.03-3.25-3.22-5.4-3.53-1.68-.24-3.4-.11-5.11-.11-.25,0-.5.21-.74.32-.02.07-.04.14-.05.21.14.12.31.22.43.37,1.51,1.89,2.16,4.1,1.68,6.71-.34,1.85-1.11,3.44-2.21,4.78-.76.94-1.63,1.75-2.46,2.64h0Zm-93.96-17.18c-.39-.15-.72-.32-1.06-.4-1.53-.36-3.06-.7-4.59-1.04-2.01-.44-3.8.15-5.29,1.83-.89,1.01-1.36,2.47-.48,4.15.35.67.72,1.34,1.18,1.89,2.8,3.39,6.21,5.48,10.08,6.54.5.14,1.02.16,1.49.23-.82-1.18-1.69-2.25-2.4-3.47-1.62-2.78-1.53-5.7.15-8.41.26-.42.56-.81.92-1.33h0Zm-5.92-38.83c-.04-.44-.06-.94-.14-1.42-.42-2.46-1.59-4.09-3.66-4.74-.39-.12-.75-.11-1.08.22-1.92,1.97-3.85,3.91-5.75,5.91-.8.84-.9,1.68-.48,2.85.51,1.44,1.42,2.48,2.47,3.36.9.76,1.87,1.16,3.02,1.05.89-.08,1.76-.14,2.55-.67,2.14-1.42,2.93-3.74,3.07-6.56h0Zm26.04,55.23s.04-.11.06-.16c-2.15-4.41-1.78-8.7.46-12.92-.14-.03-.23-.05-.31-.06-2.09-.27-4.17-.54-6.26-.81-1.02-.13-1.84.27-2.48,1.23-1.41,2.11-1.54,4.43-.82,6.9.48,1.66,1.46,2.9,2.39,4.2.41.57.91.91,1.55.98.67.08,1.33.27,2,.35,1.13.13,2.27.2,3.41.3h0Zm46.95,2.41c.4.04.7.09.99.08.91-.02,1.83-.15,2.73-.09,1.17.09,1.95-.53,2.55-1.63.05-.09.11-.17.15-.26,1.98-3.71,1.91-7.68.95-11.72-.23-.96-.91-1.42-1.72-1.48-.78-.06-1.56-.05-2.33.03-1.27.12-1.66.6-1.86,2.11-.37,2.81-.76,5.62-1.09,8.44-.17,1.47-.24,2.96-.37,4.53h0Zm37.2-3.25l.04.21c.25,0,.5.03.75,0,.39-.06.78-.16,1.17-.25,2.88-.69,5.66-1.73,8.17-3.64,1.23-.94,2.41-1.95,3.23-3.45.75-1.36.58-2.45-.61-3.22-.92-.59-1.92-1.06-2.92-1.45-1.92-.75-3.88-1.3-5.91-1.32-.53,0-1.06.05-1.55.46.22.23.43.42.62.63.48.54.98,1.06,1.42,1.65,1.06,1.43,1.27,3,.55,4.77-.62,1.52-1.56,2.66-2.67,3.64-.76.66-1.53,1.31-2.29,1.96h0Zm-125.42-15.03s-.07.04-.11.07c.23.56.41,1.15.7,1.66.87,1.53,2.02,2.74,3.27,3.8,2.18,1.85,4.63,3.03,7.16,3.99.55.21,1.09.42,1.64.58.14.04.32-.07.48-.11-.07-.18-.11-.38-.21-.53-.09-.13-.24-.2-.36-.3-1.47-1.22-2.83-2.58-3.76-4.44-.97-1.93-.82-3.79.5-5.38.42-.51.96-.87,1.41-1.34.18-.19.39-.55.34-.76-.04-.21-.39-.33-.6-.48-.05-.03-.12-.01-.17-.02-.92-.06-1.85-.18-2.77-.15-1.3.04-2.61.1-3.9.3-1.11.18-2.15.73-3,1.65-.36.39-.6.86-.61,1.46h-.01Z"/><path class="cls-5" d="m370.94,882.65c2.72.02,4.76.9,6.2,3.25,2.44,3.97,1.58,10.37-2.3,12.65-2.45,1.44-6.86,1.37-9.03-2.26-2.07-3.47-1.74-8.75.83-11.66,1.3-1.47,2.89-2.02,4.3-1.98h0Zm-5.39,8.38c-.01,4.01,2.51,6.93,6.03,6.96,3.3.03,5.76-2.97,5.79-7.08.03-3.74-2.53-6.72-5.78-6.73-3.63-.01-6.02,2.7-6.04,6.85Z"/><path class="cls-5" d="m335.59,915.13c-4.02.01-6.94-3.51-6.95-8.39-.01-4.87,2.8-8.29,6.77-8.32,4.41-.04,6.93,3.69,6.98,8.36.06,4.85-2.81,8.35-6.79,8.36h0Zm5.72-8.64c-.11-4.42-3.11-6.87-6.36-6.59-3.18.28-5.36,3.35-5.14,7.23.25,4.44,3.02,6.55,5.89,6.42,3.5-.16,5.71-3.16,5.6-7.07h0Z"/><path class="cls-5" d="m388.81,871.15c-3.88-.02-6.54-3.22-6.53-7.85.02-4.48,2.72-7.72,6.42-7.7,3.77.02,6.5,3.33,6.48,7.84-.02,4.57-2.63,7.73-6.38,7.71h.01Zm-.1-14.22c-3.06.05-5.31,2.89-5.26,6.64.05,3.79,2.21,6.21,5.5,6.15,2.97-.05,5.11-2.72,5.08-6.32-.04-3.69-2.36-6.52-5.32-6.47h0Z"/><path class="cls-5" d="m417.56,908.31c0-3.25,1.45-5.8,3.88-6.83,2.54-1.08,5.44-.21,6.99,2.1,2.55,3.79,1.29,10.05-2.42,11.65-4.16,1.8-8.44-1.2-8.46-6.92h.01Zm6.09-5.89c-3.01-.1-4.87,2.72-4.89,5.91-.02,3.53,2.08,6.06,5,6.05,2.75-.01,4.8-2.58,4.81-6.06.01-3.49-2-5.9-4.92-5.9h0Z"/><path class="cls-5" d="m337.68,867.86c-3.37-.02-5.82-3.05-5.8-7.18.02-4.04,2.47-6.88,5.89-6.83,3.37.04,5.82,2.99,5.81,6.99-.01,4.12-2.47,7.05-5.9,7.02h0Zm.08-12.6c-2.74-.01-4.77,2.33-4.8,5.54-.03,3.21,1.98,5.63,4.7,5.65,2.74.02,4.82-2.38,4.83-5.57,0-3.22-2-5.61-4.73-5.62Z"/><polygon class="cls-8" points="1408.16 964.24 1402.23 959.42 1400.19 947.24 1401.15 937.69 1405.68 926.05 1411.54 920.64 1426.19 906.58 1432.19 901.08 1438.19 890.09 1447.19 878 1461.19 863.72 1474.19 856.03 1485.19 853.83 1493.81 855.21 1506.19 862.62 1514.19 870.31 1523.38 882.84 1529.19 895.59 1535.2 909.04 1544.19 916.47 1550.94 924.32 1555.19 934.05 1557.2 943.51 1557.2 954.63 1554.51 964.77 1548.75 970.69 1408.16 964.24"/><polygon class="cls-6" points="1458.23 977.85 1430.19 973.61 1412.66 968.07 1407.21 959.42 1410.12 956.06 1417.54 954.63 1439.77 959.42 1461.01 961.8 1496.49 961.8 1512.19 960.43 1530.7 959.42 1543.78 961.07 1548.75 964.77 1547.49 970.24 1537.11 976.26 1519.19 978.01 1495.19 979.11 1496.19 992.3 1498.33 1012.38 1504.51 1036.06 1506.19 1048.34 1504.19 1057.13 1497.19 1061.53 1489.19 1062.63 1476.25 1061.52 1464.52 1062.63 1452.22 1061.52 1443.88 1051.76 1442.43 1030.31 1458.19 982.41 1458.23 977.85"/><ellipse class="cls-7" cx="1487.69" cy="914.27" rx="6.5" ry="7.69"/><ellipse class="cls-7" cx="1539.69" cy="931.85" rx="5.5" ry="6.59"/><ellipse class="cls-7" cx="1505.19" cy="886.8" rx="6" ry="7.69"/><ellipse class="cls-7" cx="1454.19" cy="884.05" rx="5" ry="6.04"/><ellipse class="cls-7" cx="1451.69" cy="929.66" rx="6.5" ry="7.69"/><polygon class="cls-7" points="1424.19 918.67 1423.5 922.73 1422.19 926.36 1419.19 928.56 1414.19 927.46 1411.77 923.19 1411.54 920.64 1415.19 915.37 1418.82 912.26 1421.42 913.9 1423.5 917.12 1424.19 918.67"/><path class="cls-5" d="m1486.73,852.73c.74.1,1.49.19,2.23.29,4.55.63,8.82,2.36,12.86,4.89,4.63,2.91,8.72,6.7,12.46,11.05,5.92,6.87,10.75,14.74,15.04,23.12,2.46,4.82,4.69,9.78,6.74,14.87.52,1.3,1.41,2.13,2.4,2.85,6.91,5.06,12.55,11.62,16.54,20.12,2.08,4.43,3.44,9.15,3.99,14.2.07.66.13,1.32.2,1.98v4.54c-.12,1.04-.2,2.09-.35,3.13-.58,3.92-1.43,7.72-3.44,11-1.96,3.21-4.52,5.55-7.43,7.38-3.4,2.15-7.04,3.52-10.78,4.54-4.18,1.14-8.41,1.86-12.68,2.23-3.86.33-7.72.58-11.58.74-4.35.18-8.7.22-13.05.34-.98.03-1.97.11-2.95.14-.28,0-.38.11-.39.45-.24,5.03-.12,10.05.32,15.06.72,8.07,2.18,15.94,4.23,23.66,1.32,4.97,2.77,9.89,4.12,14.84,1.26,4.62,2.13,9.32,2,14.22-.08,2.77-.44,5.45-1.55,7.93-1.45,3.22-3.74,5.16-6.59,6.26-1.59.61-3.23.93-4.89,1.07-.16.01-.31.06-.47.09h-4.32c-.19-.03-.37-.07-.56-.09-1.52-.17-3.05-.28-4.57-.51-2.97-.46-5.95-.5-8.94-.28s-5.99.47-8.98.69c-1.05.08-2.11.13-3.17.19h-1.94c-.79-.07-1.58-.13-2.37-.21-2.82-.27-5.56-.92-8.1-2.48-3.41-2.1-5.64-5.43-7-9.65-.92-2.87-1.41-5.87-1.68-8.92-.64-7.26.37-14.29,2.16-21.2,1.5-5.82,3.52-11.4,5.57-16.96,2.16-5.85,4.41-11.65,6.15-17.7.69-2.37,1.23-4.8,1.86-7.19.1-.38-.01-.58-.28-.7-.2-.09-.42-.16-.64-.17-4.57-.19-9.13-.61-13.65-1.44-5.31-.98-10.63-1.97-15.91-3.22-5.33-1.26-10.6-2.89-15.62-5.47-2.84-1.46-5.5-3.27-7.75-5.86-2.8-3.22-4.33-7.16-4.71-11.76-.02-.21-.06-.41-.09-.61v-3.59c.11-.99.21-1.98.33-2.97.82-6.55,3-12.41,6.24-17.75,2.88-4.73,6.38-8.72,10.21-12.32,4.16-3.91,8.63-7.25,13.19-10.44.24-.17.47-.42.63-.7,3.3-5.65,6.68-11.23,10.33-16.56,4.36-6.37,9.04-12.36,14.36-17.6,4.51-4.45,9.38-8.23,14.74-11.06,3.4-1.79,6.91-3.16,10.56-4.02.92-.22,1.87-.26,2.8-.38.2-.03.4-.06.61-.1h3.53l.03.04Zm46.58,53.93c.3-.63.05-1.03-.12-1.42-1.83-4-3.58-8.07-5.54-11.99-3.9-7.82-8.47-15.04-13.94-21.41-3.71-4.32-7.67-8.26-12.15-11.4-5.9-4.13-12.28-5.81-19.09-5.04-5.31.6-10.27,2.62-15,5.5-5.77,3.51-10.91,8.08-15.66,13.3-6.92,7.6-12.81,16.21-17.83,25.69-.06.12-.11.25-.24.53,1.01-.38,1.89-.71,2.76-1.05,1.54-.58,3.07-1.19,4.62-1.74.44-.15.92-.13,1.38-.18,0,.05.01.09.02.14-7.55,4.48-15.18,8.79-21.94,14.91.66.64,1.32,1.2,1.9,1.85,1.27,1.42,2.17,3.12,2.29,5.25.21,3.74-1.29,6.42-3.92,8.19-2.23,1.5-4.5,1.44-6.68-.27-1.05-.83-1.83-1.97-2.46-3.26-.26-.53-.49-1.07-.78-1.71-.34.33-.69.59-.96.94-1.65,2.11-3.13,4.38-4.39,6.85-3.04,5.94-4.81,12.29-4.36,19.36.31,4.77,1.86,8.85,4.81,12.13.18.2.42.3.64.45-.01-.28,0-.56-.03-.84-.06-.47-.14-.93-.22-1.4-.31-1.83.31-3.19,1.51-4.23,1.86-1.61,3.99-2.16,6.24-2.22,2.53-.06,5.02.38,7.49.9,3.67.77,7.33,1.67,11,2.48,8.11,1.8,16.28,2.97,24.51,3.41,5.9.31,11.81.47,17.72.6,3.41.07,6.82-.03,10.23-.11,3.48-.09,6.97-.21,10.45-.39,4.48-.23,8.96-.53,13.44-.8,2.91-.18,5.82-.34,8.72-.56,5.45-.41,10.89-.77,16.35-.5,3.07.15,6.13.45,9.12,1.38,1.57.49,3.09,1.14,4.4,2.35,1.1,1.02,1.8,2.33,1.82,4.03,0,.81-.14,1.63-.21,2.43-.03,0,0,.01.02,0,.1-.07.2-.15.3-.23,2.82-2.31,4.79-5.42,6.03-9.19,1.74-5.28,1.92-10.74,1.32-16.29-.76-6.98-3.3-12.98-6.99-18.36-3.07-4.49-6.74-8.18-10.72-11.45-3.58-2.94-7.36-5.48-11.21-7.87-.59-.37-1.19-.74-1.78-1.1.31-.12.59-.13.88-.12,1.25.04,2.37.61,3.5,1.18.9.45,1.82.86,2.74,1.29h0Zm-37.09,56.65h-.62c-3.47-.02-6.94-.05-10.41-.04-3.31.01-6.62.12-9.92.11-3.95,0-7.91-.07-11.86-.14-1.11-.02-1.52.36-1.55,1.68-.11,4.5-.73,8.91-1.66,13.26-1.38,6.43-3.39,12.6-5.56,18.69-1.86,5.22-3.81,10.39-5.63,15.62-2.3,6.62-4.18,13.4-4.86,20.57-.44,4.64-.39,9.26.5,13.83.53,2.74,1.38,5.33,2.75,7.64,1.89,3.19,4.57,4.93,7.65,5.9,3.43,1.09,6.93,1,10.43.7,2.58-.22,5.16-.53,7.74-.68,5.15-.31,10.29-.02,15.41.73,2.49.36,4.97.52,7.47.01,4.82-.98,7.98-4.62,8.93-10.34.57-3.46.38-6.92-.36-10.29-.76-3.48-1.72-6.89-2.64-10.32-1.9-7-3.78-14-5.18-21.17-1.82-9.25-2.63-18.63-2.36-28.13.12-4.19.43-8.35,1-12.48.23-1.69.5-3.38.76-5.17l-.03.02Zm17.99-1.52c.1.22.16.36.22.5.78,1.7,1.16,3.52,1.15,5.46-.02,3.16-.96,5.97-2.36,8.59-.14.26-.28.51-.42.77.08.05.1.08.13.08.35.03.7.06,1.06.08,4.42.2,8.32-1.2,11.47-5.12,1.54-1.91,1.96-4.06,1.42-6.54-.58-2.64-2.33-4.37-4.38-4.32-2.01.05-4.03.13-6.04.23-.73.04-1.45.17-2.24.27h-.01Zm-10.9,15.76s.05.11.07.16c2.14-.11,4.28-.24,6.42-.31.74-.02,1.28-.41,1.78-.97,2.97-3.31,3.71-9.8,1.59-13.97-.25-.49-.6-.67-1.03-.65-1.83.08-3.67.18-5.5.29-.8.05-1.6.15-2.44.23,1.75,5.29,1.62,10.36-.9,15.23h.01Zm-62.66-16.56c-.18-.05-.29-.08-.4-.11-2.54-.46-5.08-.92-7.62-1.36-.41-.07-.89-.18-1.25-.01-2.02.97-3.91,3.43-2.77,6.9,1.14,3.46,3.36,5.65,6.28,6.62,1.97.65,4.06.82,6.19,1.22-.52-1.12-1-2.06-1.41-3.05-.87-2.12-1.27-4.34-.68-6.68.33-1.3.92-2.42,1.67-3.53h0Zm19.15,5.55v-2.48c0-.67-.14-.91-.68-1.08-.21-.07-.43-.09-.65-.11-1.91-.14-3.82-.26-5.72-.4-.73-.05-1.31.25-1.8.89-.97,1.26-1.43,2.77-1.6,4.42-.21,2.09-.11,4.15.75,6.05.58,1.28,1.46,2.04,2.71,2.09,1.09.05,2.17.13,3.26.2.6.04,1.2.12,1.8.13.59,0,.75-.16.9-.82.69-2.97.95-6,1.03-8.91v.02Zm63.57,9.59c.93.32,1.91.27,2.89.09,2.77-.51,5.32-1.74,7.69-3.48,1.27-.93,2.46-1.99,3.35-3.45.94-1.56.96-3.05-.07-4.54-1.4-2.03-3.25-3.22-5.4-3.53-1.68-.24-3.4-.11-5.11-.11-.25,0-.5.21-.74.32-.02.07-.04.14-.05.21.14.12.31.22.43.37,1.51,1.89,2.16,4.1,1.68,6.71-.34,1.85-1.11,3.44-2.21,4.78-.76.94-1.63,1.75-2.46,2.64h0Zm-93.96-17.18c-.39-.15-.72-.32-1.06-.4-1.53-.36-3.06-.7-4.59-1.04-2.01-.44-3.8.15-5.29,1.83-.89,1.01-1.36,2.47-.48,4.15.35.67.72,1.34,1.18,1.89,2.8,3.39,6.21,5.48,10.08,6.54.5.14,1.02.16,1.49.23-.82-1.18-1.69-2.25-2.4-3.47-1.62-2.78-1.53-5.7.15-8.41.26-.42.56-.81.92-1.33h0Zm-5.92-38.83c-.04-.44-.06-.94-.14-1.42-.42-2.46-1.59-4.09-3.66-4.74-.39-.12-.75-.11-1.08.22-1.92,1.97-3.85,3.91-5.75,5.91-.8.84-.9,1.68-.48,2.85.51,1.44,1.42,2.48,2.47,3.36.9.76,1.87,1.16,3.02,1.05.89-.08,1.76-.14,2.55-.67,2.14-1.42,2.93-3.74,3.07-6.56h0Zm26.04,55.23s.04-.11.06-.16c-2.15-4.41-1.78-8.7.46-12.92-.14-.03-.23-.05-.31-.06-2.09-.27-4.17-.54-6.26-.81-1.02-.13-1.84.27-2.48,1.23-1.41,2.11-1.54,4.43-.82,6.9.48,1.66,1.46,2.9,2.39,4.2.41.57.91.91,1.55.98.67.08,1.33.27,2,.35,1.13.13,2.27.2,3.41.3h0Zm46.95,2.41c.4.04.7.09.99.08.91-.02,1.83-.15,2.73-.09,1.17.09,1.95-.53,2.55-1.63.05-.09.11-.17.15-.26,1.98-3.71,1.91-7.68.95-11.72-.23-.96-.91-1.42-1.72-1.48-.78-.06-1.56-.05-2.33.03-1.27.12-1.66.6-1.86,2.11-.37,2.81-.76,5.62-1.09,8.44-.17,1.47-.24,2.96-.37,4.53h0Zm37.2-3.25l.04.21c.25,0,.5.03.75,0,.39-.06.78-.16,1.17-.25,2.88-.69,5.66-1.73,8.17-3.64,1.23-.94,2.41-1.95,3.23-3.45.75-1.36.58-2.45-.61-3.22-.92-.59-1.92-1.06-2.92-1.45-1.92-.75-3.88-1.3-5.91-1.32-.53,0-1.06.05-1.55.46.22.23.43.42.62.63.48.54.98,1.06,1.42,1.65,1.06,1.43,1.27,3,.55,4.77-.62,1.52-1.56,2.66-2.67,3.64-.76.66-1.53,1.31-2.29,1.96h0Zm-125.42-15.03s-.07.04-.11.07c.23.56.41,1.15.7,1.66.87,1.53,2.02,2.74,3.27,3.8,2.18,1.85,4.63,3.03,7.16,3.99.55.21,1.09.42,1.64.58.14.04.32-.07.48-.11-.07-.18-.11-.38-.21-.53-.09-.13-.24-.2-.36-.3-1.47-1.22-2.83-2.58-3.76-4.44-.97-1.93-.82-3.79.5-5.38.42-.51.96-.87,1.41-1.34.18-.19.39-.55.34-.76-.04-.21-.39-.33-.6-.48-.05-.03-.12-.01-.17-.02-.92-.06-1.85-.18-2.77-.15-1.3.04-2.61.1-3.9.3-1.11.18-2.15.73-3,1.65-.36.39-.6.86-.61,1.46h-.01Z"/><path class="cls-5" d="m1487.38,905.96c2.72.02,4.76.9,6.2,3.25,2.44,3.97,1.58,10.37-2.3,12.65-2.45,1.44-6.86,1.37-9.03-2.26-2.07-3.47-1.74-8.75.83-11.66,1.3-1.47,2.89-2.02,4.3-1.98h0Zm-5.39,8.38c-.01,4.01,2.51,6.93,6.03,6.96,3.3.03,5.76-2.97,5.79-7.08.03-3.74-2.53-6.72-5.78-6.73-3.63-.01-6.02,2.7-6.04,6.85Z"/><path class="cls-5" d="m1452.03,938.44c-4.02.01-6.94-3.51-6.95-8.39-.01-4.87,2.8-8.29,6.77-8.32,4.41-.04,6.93,3.69,6.98,8.36.06,4.85-2.81,8.35-6.79,8.36h-.01Zm5.72-8.64c-.11-4.42-3.11-6.87-6.36-6.59-3.18.28-5.36,3.35-5.14,7.23.25,4.44,3.02,6.55,5.89,6.42,3.5-.16,5.71-3.16,5.6-7.07h.01Z"/><path class="cls-5" d="m1505.25,894.45c-3.88-.02-6.54-3.22-6.53-7.85.02-4.48,2.72-7.72,6.42-7.7,3.77.02,6.5,3.33,6.48,7.84-.02,4.57-2.63,7.73-6.38,7.71h.01Zm-.1-14.22c-3.06.05-5.31,2.89-5.26,6.64.05,3.79,2.21,6.21,5.5,6.15,2.97-.05,5.11-2.72,5.08-6.32-.04-3.69-2.36-6.52-5.32-6.47h0Z"/><path class="cls-5" d="m1534,931.62c0-3.25,1.45-5.8,3.88-6.83,2.54-1.08,5.44-.21,6.99,2.1,2.55,3.79,1.29,10.05-2.42,11.65-4.16,1.8-8.44-1.2-8.46-6.92h.01Zm6.09-5.89c-3.01-.1-4.87,2.72-4.89,5.91-.02,3.53,2.08,6.06,5,6.05,2.75-.01,4.8-2.58,4.81-6.06.01-3.49-2-5.9-4.92-5.9h0Z"/><path class="cls-5" d="m1454.12,891.17c-3.37-.02-5.82-3.05-5.8-7.18.02-4.04,2.47-6.88,5.89-6.83,3.37.04,5.82,2.99,5.81,6.99-.01,4.12-2.47,7.05-5.9,7.02Zm.08-12.6c-2.74-.01-4.77,2.33-4.8,5.54-.03,3.21,1.98,5.63,4.7,5.65,2.74.02,4.82-2.38,4.83-5.57,0-3.22-2-5.61-4.73-5.62h0Z"/><polygon class="cls-8" points="768.05 969.05 764.17 965.86 762.84 957.82 763.47 951.51 766.43 943.83 770.26 940.26 779.83 930.98 783.75 927.35 787.68 920.09 793.56 912.11 802.71 902.68 811.2 897.6 818.39 896.15 824.02 897.06 832.11 901.95 837.34 907.03 843.35 915.31 847.14 923.72 851.07 932.6 856.95 937.51 861.36 942.69 864.14 949.11 865.45 955.36 865.45 962.7 863.69 969.39 859.93 973.3 768.05 969.05"/><polygon class="cls-6" points="800.77 978.03 782.45 975.23 770.99 971.57 767.43 965.86 769.33 963.64 774.18 962.7 788.71 965.86 802.59 967.44 825.78 967.44 836.04 966.53 848.13 965.86 856.68 966.95 859.93 969.39 859.11 973.01 852.32 976.98 840.61 978.14 824.93 978.86 825.58 987.57 826.98 1000.83 831.02 1016.46 832.11 1024.57 830.81 1030.38 826.23 1033.28 821 1034 812.55 1033.27 804.88 1034 796.85 1033.27 791.4 1026.83 790.45 1012.66 800.75 981.04 800.77 978.03"/><ellipse class="cls-7" cx="820.02" cy="936.05" rx="4.25" ry="5.08"/><ellipse class="cls-7" cx="854.01" cy="947.66" rx="3.59" ry="4.35"/><ellipse class="cls-7" cx="831.46" cy="917.92" rx="3.92" ry="5.08"/><ellipse class="cls-7" cx="798.13" cy="916.1" rx="3.27" ry="3.99"/><ellipse class="cls-7" cx="796.5" cy="946.21" rx="4.25" ry="5.08"/><polygon class="cls-7" points="778.53 938.96 778.08 941.64 777.22 944.04 775.26 945.49 771.99 944.76 770.41 941.94 770.26 940.26 772.65 936.78 775.01 934.73 776.72 935.81 778.08 937.94 778.53 938.96"/><path class="cls-5" d="m819.4,895.42c.49.06.97.12,1.46.19,2.97.42,5.76,1.56,8.4,3.23,3.03,1.92,5.7,4.42,8.14,7.29,3.87,4.53,7.03,9.73,9.83,15.27,1.61,3.18,3.07,6.46,4.4,9.82.34.86.92,1.4,1.57,1.88,4.52,3.34,8.2,7.67,10.81,13.28,1.36,2.92,2.25,6.04,2.61,9.37.05.44.09.87.13,1.31v3c-.08.69-.13,1.38-.23,2.06-.38,2.59-.93,5.1-2.25,7.26-1.28,2.12-2.96,3.66-4.86,4.87-2.22,1.42-4.6,2.32-7.04,3-2.73.75-5.5,1.23-8.29,1.47-2.52.22-5.04.38-7.57.49-2.84.12-5.69.15-8.53.22-.64.02-1.29.07-1.93.09-.18,0-.25.07-.26.3-.16,3.32-.08,6.63.21,9.94.47,5.32,1.43,10.52,2.77,15.62.86,3.28,1.81,6.53,2.69,9.8.82,3.05,1.39,6.15,1.31,9.39-.05,1.83-.29,3.6-1.02,5.24-.95,2.12-2.44,3.41-4.31,4.13-1.04.4-2.11.61-3.19.71-.1,0-.2.04-.31.06h-2.83c-.12-.02-.24-.05-.37-.06-.99-.11-1.99-.18-2.98-.34-1.94-.3-3.89-.33-5.84-.19-1.96.15-3.91.31-5.87.46-.69.05-1.38.09-2.07.13h-1.27c-.52-.04-1.03-.08-1.55-.14-1.84-.18-3.64-.61-5.3-1.64-2.23-1.38-3.69-3.59-4.57-6.37-.6-1.89-.92-3.87-1.1-5.89-.42-4.79.24-9.43,1.41-13.99.98-3.84,2.3-7.52,3.64-11.2,1.41-3.86,2.88-7.69,4.02-11.68.45-1.57.81-3.17,1.22-4.75.07-.25,0-.38-.18-.46-.13-.06-.28-.11-.42-.11-2.99-.12-5.97-.4-8.92-.95-3.47-.65-6.95-1.3-10.39-2.12-3.48-.83-6.93-1.91-10.21-3.61-1.86-.96-3.59-2.16-5.06-3.87-1.83-2.13-2.83-4.73-3.08-7.77-.01-.14-.04-.27-.06-.41v-2.37c.07-.65.14-1.31.22-1.96.53-4.32,1.96-8.2,4.08-11.72,1.88-3.12,4.17-5.76,6.67-8.14,2.72-2.58,5.64-4.79,8.62-6.89.16-.11.31-.28.41-.46,2.16-3.73,4.37-7.41,6.75-10.94,2.85-4.2,5.91-8.16,9.38-11.62,2.95-2.94,6.13-5.44,9.63-7.3,2.22-1.18,4.52-2.09,6.9-2.66.6-.14,1.22-.17,1.83-.25.13-.02.26-.04.4-.06h2.31l.04.04Zm30.44,35.6c.19-.42.03-.68-.08-.94-1.2-2.64-2.34-5.33-3.62-7.92-2.55-5.16-5.54-9.93-9.11-14.13-2.42-2.85-5.01-5.45-7.94-7.53-3.85-2.73-8.03-3.84-12.48-3.33-3.47.4-6.71,1.73-9.8,3.63-3.77,2.32-7.13,5.34-10.24,8.78-4.52,5.01-8.37,10.7-11.65,16.96-.04.08-.07.17-.15.35.66-.25,1.23-.47,1.81-.69,1.01-.39,2.01-.79,3.02-1.15.29-.1.6-.08.9-.12,0,.03,0,.06.01.09-4.93,2.96-9.92,5.81-14.34,9.84.43.42.86.79,1.24,1.22.83.94,1.42,2.06,1.5,3.47.14,2.47-.84,4.24-2.56,5.41-1.46.99-2.94.95-4.36-.18-.69-.55-1.2-1.3-1.61-2.15-.17-.35-.32-.71-.51-1.13-.22.22-.45.39-.63.62-1.08,1.39-2.05,2.89-2.87,4.52-1.98,3.92-3.14,8.12-2.85,12.78.2,3.15,1.22,5.84,3.14,8.01.12.13.28.2.42.3,0-.18,0-.37-.02-.55-.04-.31-.09-.62-.14-.92-.2-1.21.2-2.1.99-2.79,1.22-1.06,2.61-1.43,4.08-1.46,1.65-.04,3.28.25,4.9.59,2.4.51,4.79,1.1,7.19,1.64,5.3,1.19,10.64,1.96,16.02,2.25,3.86.21,7.72.31,11.58.39,2.23.05,4.46-.02,6.69-.07,2.28-.06,4.55-.14,6.83-.26,2.93-.15,5.85-.35,8.78-.53,1.9-.12,3.8-.22,5.7-.37,3.56-.27,7.12-.51,10.69-.33,2.01.1,4.01.29,5.96.91,1.03.32,2.02.75,2.87,1.55.72.67,1.18,1.54,1.19,2.66,0,.54-.09,1.07-.14,1.61-.02,0,0,0,.02,0,.07-.05.13-.1.19-.15,1.84-1.52,3.13-3.58,3.94-6.07,1.14-3.48,1.26-7.09.86-10.76-.5-4.61-2.16-8.57-4.57-12.12-2.01-2.96-4.4-5.4-7-7.56-2.34-1.94-4.81-3.62-7.32-5.2-.39-.24-.77-.49-1.16-.73.2-.08.39-.09.57-.08.82.03,1.55.41,2.29.78.59.3,1.19.57,1.79.85h-.02Zm-24.24,37.4h-.4c-2.27-.01-4.53-.04-6.8-.03-2.16,0-4.32.08-6.49.08-2.58,0-5.17-.05-7.75-.09-.72-.01-.99.24-1.01,1.11-.07,2.97-.47,5.88-1.08,8.76-.9,4.25-2.22,8.32-3.63,12.34-1.21,3.45-2.49,6.86-3.68,10.32-1.51,4.37-2.73,8.84-3.18,13.58-.29,3.06-.25,6.11.33,9.13.35,1.81.9,3.52,1.8,5.05,1.24,2.11,2.98,3.25,5,3.9,2.24.72,4.53.66,6.82.46,1.69-.15,3.37-.35,5.06-.45,3.37-.2,6.72-.01,10.07.48,1.63.24,3.25.34,4.88,0,3.15-.65,5.22-3.05,5.83-6.82.37-2.29.25-4.57-.24-6.8-.5-2.29-1.12-4.55-1.73-6.81-1.24-4.62-2.47-9.24-3.39-13.98-1.19-6.11-1.72-12.3-1.54-18.57.08-2.76.28-5.51.65-8.24.15-1.12.32-2.23.5-3.41h-.02Zm11.76-1c.06.15.1.24.14.33.51,1.12.76,2.32.75,3.6-.01,2.09-.63,3.94-1.54,5.67-.09.17-.18.34-.27.51.05.03.07.05.08.06.23.02.46.04.69.05,2.89.13,5.44-.79,7.5-3.38,1-1.26,1.28-2.68.93-4.32-.38-1.75-1.53-2.88-2.86-2.85-1.32.03-2.63.08-3.95.15-.48.02-.95.11-1.46.18h-.01Zm-7.12,10.4s.03.07.05.11c1.4-.07,2.8-.16,4.2-.21.48-.02.83-.27,1.17-.64,1.94-2.19,2.42-6.47,1.04-9.22-.16-.32-.39-.44-.67-.43-1.2.06-2.4.12-3.6.19-.52.03-1.04.1-1.6.15,1.15,3.49,1.06,6.84-.59,10.05Zm-40.95-10.93c-.12-.03-.19-.06-.26-.07-1.66-.3-3.32-.61-4.98-.9-.27-.05-.58-.12-.82,0-1.32.64-2.56,2.26-1.81,4.56.74,2.28,2.19,3.73,4.1,4.37,1.29.43,2.65.54,4.04.8-.34-.74-.66-1.36-.92-2.01-.57-1.4-.83-2.86-.45-4.41.21-.86.6-1.6,1.09-2.33h.01Zm12.52,3.66v-1.64c0-.44-.09-.6-.44-.71-.14-.04-.28-.06-.43-.07-1.25-.09-2.49-.17-3.74-.26-.48-.04-.85.16-1.18.59-.63.83-.94,1.83-1.04,2.92-.14,1.38-.07,2.74.49,4,.38.84.95,1.34,1.77,1.38.71.03,1.42.09,2.13.13.39.03.79.08,1.18.08s.49-.11.59-.54c.45-1.96.62-3.96.67-5.88h0Zm41.54,6.33c.61.21,1.25.18,1.89.06,1.81-.34,3.47-1.15,5.03-2.3.83-.62,1.61-1.31,2.19-2.28.61-1.03.62-2.02-.04-3-.91-1.34-2.13-2.13-3.53-2.33-1.1-.16-2.22-.07-3.34-.07-.16,0-.32.14-.49.21-.01.05-.02.09-.03.14.09.08.2.15.28.24.99,1.25,1.41,2.71,1.1,4.43-.22,1.22-.73,2.27-1.44,3.16-.5.62-1.06,1.16-1.61,1.74h-.01Zm-61.4-11.34c-.26-.1-.47-.21-.69-.26-1-.24-2-.46-3-.69-1.32-.29-2.48.1-3.46,1.21-.58.67-.89,1.63-.32,2.74.23.44.47.88.77,1.25,1.83,2.24,4.06,3.62,6.59,4.32.33.09.66.11.97.15-.54-.78-1.11-1.49-1.57-2.29-1.06-1.84-1-3.76.1-5.55.17-.28.36-.53.6-.88h.01Zm-3.87-25.64c-.03-.29-.04-.62-.09-.94-.27-1.62-1.04-2.7-2.39-3.13-.25-.08-.49-.08-.7.15-1.25,1.3-2.52,2.58-3.75,3.9-.52.56-.59,1.11-.31,1.88.34.95.93,1.64,1.61,2.22.59.5,1.22.76,1.97.69.58-.05,1.15-.09,1.67-.44,1.4-.93,1.92-2.47,2-4.33h0Zm17.02,36.46s.03-.07.04-.11c-1.4-2.91-1.16-5.74.3-8.53-.09-.02-.15-.03-.2-.04-1.36-.18-2.73-.36-4.09-.54-.66-.09-1.2.18-1.62.81-.92,1.39-1.01,2.92-.54,4.56.31,1.1.95,1.92,1.56,2.77.27.38.59.6,1.01.65.44.05.87.18,1.31.23.74.08,1.48.13,2.23.2h0Zm30.68,1.59c.26.02.46.06.65.06.6-.02,1.19-.1,1.78-.06.76.06,1.28-.35,1.67-1.08.03-.06.07-.11.1-.17,1.29-2.45,1.25-5.07.62-7.74-.15-.63-.6-.94-1.12-.98-.51-.04-1.02-.03-1.52.02-.83.08-1.08.4-1.21,1.39-.24,1.86-.5,3.71-.72,5.57-.11.97-.16,1.96-.24,2.99h-.01Zm24.31-2.15l.02.14c.16,0,.33.02.49,0,.26-.04.51-.1.77-.16,1.89-.45,3.7-1.14,5.34-2.4.8-.62,1.58-1.29,2.11-2.28.49-.9.38-1.62-.4-2.12-.6-.39-1.25-.7-1.91-.96-1.25-.5-2.53-.86-3.86-.87-.34,0-.69.03-1.01.31.15.15.28.28.41.42.31.36.64.7.93,1.09.7.94.83,1.98.36,3.15-.4,1.01-1.02,1.76-1.75,2.4-.5.44-1,.86-1.5,1.29h0Zm-81.96-9.93s-.05.03-.07.04c.15.37.27.76.46,1.1.57,1.01,1.32,1.81,2.14,2.51,1.42,1.22,3.02,2,4.68,2.63.36.14.71.27,1.07.38.09.03.21-.05.32-.07-.05-.12-.08-.25-.14-.35-.06-.09-.15-.13-.23-.2-.96-.8-1.85-1.7-2.46-2.93-.63-1.27-.53-2.5.33-3.55.27-.33.63-.57.92-.89.12-.12.25-.36.22-.5s-.25-.22-.39-.32c-.03-.02-.08,0-.11-.01-.6-.04-1.21-.12-1.81-.1-.85.02-1.71.06-2.55.2-.73.12-1.4.48-1.96,1.09-.24.26-.39.57-.4.97h-.02Z"/><path class="cls-5" d="m819.82,930.56c1.78.01,3.11.6,4.05,2.14,1.6,2.62,1.03,6.85-1.5,8.35-1.6.95-4.49.9-5.9-1.49-1.35-2.29-1.14-5.78.54-7.7.85-.97,1.89-1.34,2.81-1.31h0Zm-3.52,5.53c0,2.65,1.64,4.58,3.94,4.59,2.16.02,3.76-1.96,3.78-4.67.02-2.47-1.65-4.44-3.78-4.45-2.37,0-3.94,1.78-3.95,4.52h.01Z"/><path class="cls-5" d="m796.72,952.01c-2.63,0-4.54-2.32-4.54-5.54s1.83-5.47,4.42-5.5c2.88-.03,4.53,2.43,4.56,5.52.04,3.2-1.84,5.51-4.44,5.52h0Zm3.74-5.7c-.07-2.92-2.03-4.53-4.15-4.35-2.08.18-3.5,2.21-3.36,4.77.16,2.93,1.98,4.33,3.85,4.24,2.29-.1,3.73-2.09,3.66-4.67h0Z"/><path class="cls-5" d="m831.5,922.97c-2.54-.01-4.28-2.13-4.27-5.18,0-2.96,1.78-5.1,4.2-5.08,2.46.02,4.25,2.2,4.24,5.18-.01,3.02-1.72,5.1-4.17,5.09h0Zm-.07-9.39c-2,.03-3.47,1.91-3.44,4.38.03,2.51,1.44,4.1,3.59,4.06,1.94-.03,3.34-1.79,3.32-4.17-.02-2.44-1.54-4.31-3.48-4.27h0Z"/><path class="cls-5" d="m850.29,947.51c0-2.15.95-3.83,2.54-4.51,1.66-.71,3.56-.14,4.57,1.38,1.67,2.5.84,6.64-1.58,7.69-2.72,1.19-5.51-.79-5.53-4.57h0Zm3.98-3.89c-1.97-.06-3.18,1.8-3.19,3.9-.01,2.33,1.36,4,3.27,3.99,1.8,0,3.13-1.71,3.14-4,0-2.31-1.3-3.9-3.22-3.9h0Z"/><path class="cls-5" d="m798.09,920.8c-2.2-.01-3.8-2.02-3.79-4.74.01-2.67,1.61-4.54,3.85-4.51,2.21.03,3.8,1.97,3.8,4.61s-1.61,4.65-3.86,4.64Zm.05-8.32c-1.79,0-3.12,1.54-3.13,3.66-.02,2.12,1.3,3.72,3.07,3.73,1.79.01,3.15-1.57,3.16-3.68,0-2.12-1.31-3.7-3.09-3.71h0Z"/></g><path class="cls-4" d="m202,886.31c-8.41,10-17.03,22.29-24.26,37.04-24.58,50.09-18.07,97.63-12.87,120.9"/><ellipse class="cls-13" cx="232.32" cy="848.76" rx="8.65" ry="15" transform="translate(-618.89 625.57) rotate(-60)"/><path class="cls-11" d="m201.96,816.03c-3.32,2.32-15.97,11.76-19.96,29.28-5.35,23.5,9.47,41.41,11.19,43.41,5.15-7.22,10.67-16.01,15.81-26.41,6.05-12.24,10.05-23.62,12.74-33.24-.27-1.15-1.81-7.11-7.74-10.76-5.36-3.3-10.71-2.52-12.04-2.28Z"/><path class="cls-11" d="m264.46,901.67c-3.33,2.3-16.57,10.89-34.39,8.55-23.9-3.14-35.54-23.26-36.82-25.56,8.55-2.32,18.72-4.45,30.25-5.66,13.58-1.42,25.64-1.22,35.6-.41.99.66,6.04,4.16,7.4,11,1.23,6.17-1.36,10.92-2.04,12.09h0Z"/><path class="cls-11" d="m271.76,862.86c-1.44,3.78-7.51,18.35-23.54,26.49-21.49,10.92-42.47.9-44.83-.27,5.74-6.75,12.93-14.25,21.76-21.77,10.39-8.85,20.46-15.5,29.13-20.46,1.19-.02,7.33.02,12.32,4.89,4.5,4.39,5.05,9.78,5.15,11.12h0Z"/><path class="cls-11" d="m211.37,830.98c-3.5,1.61-16.92,8.22-22.43,22.54-7.39,19.21,5.77,35.81,7.3,37.67,5.76-5.53,12.03-12.35,18.05-20.56,7.09-9.66,12.08-18.81,15.61-26.62-.17-1-1.17-6.16-6.75-9.85-5.04-3.33-10.43-3.23-11.78-3.18h0Z"/><path class="cls-11" d="m257.95,859.01c-1.44,3.78-7.51,18.35-23.54,26.49-21.49,10.92-38.06,3.99-40.42,2.82,5.74-6.75,9.17-15.48,18-23,10.39-8.85,19.81-17.36,28.48-22.32,1.19-.02,7.33.02,12.32,4.89,4.5,4.39,5.05,9.78,5.15,11.12h.01Z"/><path class="cls-4" d="m1226.18,886.32c-8.41,10-17.03,22.29-24.26,37.04-24.58,50.09-18.07,97.63-12.87,120.9"/><path class="cls-4" d="m769.68,843.31c-8.41,11.7-17.03,26.09-24.26,43.35-24.58,58.63-18.07,114.27-12.87,141.51"/><path class="cls-10" d="m1214.58,917.41c.07.35.19.86.37,1.47,1.18,4.03,4.75,10.99,9.92,11.24,2.78.14,3.02-1.82,8.34-3.25,5.38-1.44,6.51.18,8.93-1.31,4.6-2.83,4.51-11.14,3.26-15.96-.16-.61-.32-1.11-.44-1.45l-.14-.14c-1.66-3.82-23.21-21.91-23.21-21.91-1.36,4.39-2.66,9.07-3.81,14.03-1.42,6.12-2.46,11.89-3.21,17.27h-.01Z"/><path class="cls-10" d="m1192.74,903.1c-.19.3-.48.74-.78,1.3-2.01,3.69-4.41,11.13-.94,14.96,1.87,2.07,3.42.85,8.19,3.61,4.82,2.78,4.48,4.73,7.24,5.39,5.26,1.25,11.07-4.69,13.59-8.98.32-.54.56-1.01.71-1.34v-.2c1.53-3.88-.92-31.9-.92-31.9-4.07,2.14-8.29,4.54-12.61,7.22-5.33,3.32-10.15,6.67-14.48,9.94h0Z"/><path class="cls-10" d="m1187.43,877.55c-.35.07-.86.19-1.47.37-4.03,1.18-10.99,4.75-11.24,9.92-.14,2.78,1.82,3.02,3.25,8.34,1.44,5.38-.18,6.51,1.31,8.93,2.83,4.6,11.14,4.51,15.96,3.26.61-.16,1.11-.32,1.45-.44l.14-.14c3.82-1.66,21.91-23.21,21.91-23.21-4.39-1.36-9.07-2.66-14.03-3.81-6.12-1.42-11.89-2.46-17.27-3.21h-.01Z"/><path class="cls-10" d="m1201.74,855.71c-.3-.19-.74-.48-1.3-.78-3.69-2.01-11.13-4.41-14.96-.94-2.07,1.87-.85,3.42-3.61,8.19-2.78,4.82-4.73,4.48-5.39,7.24-1.25,5.26,4.69,11.07,8.98,13.59.54.32,1.01.56,1.34.71h.2c3.88,1.53,31.9-.92,31.9-.92-2.14-4.07-4.54-8.29-7.22-12.61-3.32-5.33-6.67-10.15-9.94-14.48h0Z"/><path class="cls-10" d="m1227.29,850.39c-.07-.35-.19-.86-.37-1.47-1.18-4.03-4.75-10.99-9.92-11.24-2.78-.14-3.02,1.82-8.34,3.25-5.38,1.44-6.51-.18-8.93,1.31-4.6,2.83-4.51,11.14-3.26,15.96.16.61.32,1.11.44,1.45l.14.14c1.66,3.82,23.21,21.91,23.21,21.91,1.36-4.39,2.66-9.07,3.81-14.03,1.42-6.12,2.46-11.89,3.21-17.27h.01Z"/><path class="cls-10" d="m1249.12,864.7c.19-.3.48-.74.78-1.3,2.01-3.69,4.41-11.13.94-14.96-1.87-2.07-3.42-.85-8.19-3.61-4.82-2.78-4.48-4.73-7.24-5.39-5.26-1.25-11.07,4.69-13.59,8.98-.32.54-.56,1.01-.71,1.34v.2c-1.53,3.88.92,31.9.92,31.9,4.07-2.14,8.29-4.54,12.61-7.22,5.33-3.32,10.15-6.67,14.48-9.94h0Z"/><path class="cls-10" d="m1254.44,890.26c.35-.07.86-.19,1.47-.37,4.03-1.18,10.99-4.75,11.24-9.92.14-2.78-1.82-3.02-3.25-8.34-1.44-5.38.18-6.51-1.31-8.93-2.83-4.6-11.14-4.51-15.96-3.26-.61.16-1.11.32-1.45.44l-.14.14c-3.82,1.66-21.91,23.21-21.91,23.21,4.39,1.36,9.07,2.66,14.03,3.81,6.12,1.42,11.89,2.46,17.27,3.21h.01Z"/><path class="cls-10" d="m1240.13,912.09c.3.19.74.48,1.3.78,3.69,2.01,11.13,4.41,14.96.94,2.07-1.87.85-3.42,3.61-8.19,2.78-4.82,4.73-4.48,5.39-7.24,1.25-5.26-4.69-11.07-8.98-13.59-.54-.32-1.01-.56-1.34-.71h-.2c-3.88-1.53-31.9.92-31.9.92,2.14,4.07,4.54,8.29,7.22,12.61,3.32,5.33,6.67,10.15,9.94,14.48h0Z"/><path class="cls-9" d="m767.85,861.31c.97,3.49,3.21,5.92,5.01,5.42s2.46-3.74,1.49-7.23c.97,3.49,3.21,5.92,5.01,5.42s2.46-3.74,1.49-7.23c-.74-2.65-11.73-16.98-11.73-16.98,0,0-2.02,17.94-1.28,20.59h.01Z"/><path class="cls-9" d="m755.95,856.62c-1.27,3.4-.88,6.68.87,7.33s4.19-1.57,5.46-4.97c-1.27,3.4-.88,6.68.87,7.33s4.19-1.57,5.46-4.97c.96-2.58.49-20.63.49-20.63,0,0-12.18,13.33-13.14,15.91h-.01Z"/><path class="cls-9" d="m749.09,845.84c-3.02,2-4.64,4.89-3.61,6.44s4.31,1.19,7.34-.81c-3.02,2-4.64,4.89-3.61,6.44s4.31,1.19,7.34-.81c2.29-1.52,12.52-16.4,12.52-16.4,0,0-17.69,3.63-19.98,5.15h0Z"/><path class="cls-9" d="m749.87,833.08c-3.62-.16-6.62,1.23-6.7,3.09s2.79,3.5,6.41,3.65c-3.62-.16-6.62,1.23-6.7,3.09s2.79,3.5,6.41,3.65c2.75.12,19.77-5.91,19.77-5.91,0,0-16.44-7.46-19.19-7.58h0Z"/><path class="cls-9" d="m758,823.21c-2.84-2.25-6.08-2.9-7.24-1.44s.2,4.47,3.04,6.73c-2.84-2.25-6.08-2.9-7.24-1.44s.2,4.47,3.04,6.73c2.15,1.71,19.46,6.84,19.46,6.84,0,0-8.91-15.7-11.07-17.41h.01Z"/><path class="cls-9" d="m770.38,820.01c-.97-3.49-3.21-5.92-5.01-5.42s-2.46,3.74-1.49,7.23c-.97-3.49-3.21-5.92-5.01-5.42s-2.46,3.74-1.49,7.23c.74,2.65,11.73,16.98,11.73,16.98,0,0,2.02-17.94,1.28-20.59h-.01Z"/><path class="cls-9" d="m782.27,824.7c1.27-3.4.88-6.68-.87-7.33s-4.19,1.57-5.46,4.97c1.27-3.4.88-6.68-.87-7.33s-4.19,1.57-5.46,4.97c-.96,2.58-.49,20.63-.49,20.63,0,0,12.18-13.33,13.14-15.91h.01Z"/><path class="cls-9" d="m789.14,835.48c3.02-2,4.64-4.89,3.61-6.44s-4.31-1.19-7.34.81c3.02-2,4.64-4.89,3.61-6.44s-4.31-1.19-7.34.81c-2.29,1.52-12.52,16.4-12.52,16.4,0,0,17.69-3.63,19.98-5.15h0Z"/><path class="cls-9" d="m788.36,848.24c3.62.16,6.62-1.23,6.7-3.09s-2.79-3.5-6.41-3.65c3.62.16,6.62-1.23,6.7-3.09s-2.79-3.5-6.41-3.65c-2.75-.12-19.77,5.91-19.77,5.91,0,0,16.44,7.46,19.19,7.58h0Z"/><path class="cls-9" d="m780.23,858.1c2.84,2.25,6.08,2.9,7.24,1.44s-.2-4.47-3.04-6.73c2.84,2.25,6.08,2.9,7.24,1.44s-.2-4.47-3.04-6.73c-2.15-1.71-19.46-6.84-19.46-6.84,0,0,8.91,15.7,11.07,17.41h-.01Z"/><line class="cls-3" x1="769.11" y1="840.66" x2="785" y2="853.31"/><path class="cls-4" d="m1649.3,889.74c8.41,10,17.03,22.29,24.26,37.04,24.58,50.09,18.07,97.63,12.87,120.9"/><ellipse class="cls-12" cx="1618.98" cy="852.18" rx="15" ry="8.65" transform="translate(-209.19 923.66) rotate(-30)"/><path class="cls-11" d="m1649.34,819.45c3.32,2.32,15.97,11.76,19.96,29.28,5.35,23.5-9.47,41.41-11.19,43.41-5.15-7.22-10.67-16.01-15.81-26.41-6.05-12.24-10.05-23.62-12.74-33.24.27-1.15,1.81-7.11,7.74-10.76,5.36-3.3,10.71-2.52,12.04-2.28Z"/><path class="cls-11" d="m1586.84,905.09c3.33,2.3,16.57,10.89,34.39,8.55,23.9-3.14,35.54-23.26,36.82-25.56-8.55-2.32-18.72-4.45-30.25-5.66-13.58-1.42-25.64-1.22-35.6-.41-.99.66-6.04,4.16-7.4,11-1.23,6.17,1.36,10.92,2.04,12.09h0Z"/><path class="cls-11" d="m1579.54,866.28c1.44,3.78,7.51,18.35,23.54,26.49,21.49,10.92,42.47.9,44.83-.27-5.74-6.75-12.93-14.25-21.76-21.77-10.39-8.85-20.46-15.5-29.13-20.46-1.19-.02-7.33.02-12.32,4.89-4.5,4.39-5.05,9.78-5.15,11.12h-.01Z"/><path class="cls-11" d="m1639.93,834.41c3.5,1.61,16.92,8.22,22.43,22.54,7.39,19.21-5.77,35.81-7.3,37.67-5.76-5.53-12.03-12.35-18.05-20.56-7.09-9.66-12.08-18.81-15.61-26.62.17-1,1.17-6.16,6.75-9.85,5.04-3.33,10.43-3.23,11.78-3.18Z"/><path class="cls-11" d="m1593.35,862.43c1.44,3.78,7.51,18.35,23.54,26.49,21.49,10.92,38.06,3.99,40.42,2.82-5.74-6.75-9.17-15.48-18-23-10.39-8.85-19.81-17.36-28.48-22.32-1.19-.02-7.33.02-12.32,4.89-4.5,4.39-5.05,9.78-5.15,11.12h-.01Z"/><path class="cls-4" d="m625.12,889.74c8.41,10,17.03,22.29,24.26,37.04,24.58,50.09,18.07,97.63,12.87,120.9"/><path class="cls-4" d="m1081.62,846.74c8.41,11.7,17.03,26.09,24.26,43.35,24.58,58.63,18.07,114.27,12.87,141.51"/><path class="cls-10" d="m636.73,920.84c-.07.35-.19.86-.37,1.47-1.18,4.03-4.75,10.99-9.92,11.24-2.78.14-3.02-1.82-8.34-3.25-5.38-1.44-6.51.18-8.93-1.31-4.6-2.83-4.51-11.14-3.26-15.96.16-.61.32-1.11.44-1.45l.14-.14c1.66-3.82,23.21-21.91,23.21-21.91,1.36,4.39,2.66,9.07,3.81,14.03,1.42,6.12,2.46,11.89,3.21,17.27h0Z"/><path class="cls-10" d="m658.56,906.53c.19.3.48.74.78,1.3,2.01,3.69,4.41,11.13.94,14.96-1.87,2.07-3.42.85-8.19,3.61-4.82,2.78-4.48,4.73-7.24,5.39-5.26,1.25-11.07-4.69-13.59-8.98-.32-.54-.56-1.01-.71-1.34v-.2c-1.53-3.88.92-31.9.92-31.9,4.07,2.14,8.29,4.54,12.61,7.22,5.33,3.32,10.15,6.67,14.48,9.94h0Z"/><path class="cls-10" d="m663.88,880.97c.35.07.86.19,1.47.37,4.03,1.18,10.99,4.75,11.24,9.92.14,2.78-1.82,3.02-3.25,8.34-1.44,5.38.18,6.51-1.31,8.93-2.83,4.6-11.14,4.51-15.96,3.26-.61-.16-1.11-.32-1.45-.44l-.14-.14c-3.82-1.66-21.91-23.21-21.91-23.21,4.39-1.36,9.07-2.66,14.03-3.81,6.12-1.42,11.89-2.46,17.27-3.21h.01Z"/><path class="cls-10" d="m649.57,859.14c.3-.19.74-.48,1.3-.78,3.69-2.01,11.13-4.41,14.96-.94,2.07,1.87.85,3.42,3.61,8.19,2.78,4.82,4.73,4.48,5.39,7.24,1.25,5.26-4.69,11.07-8.98,13.59-.54.32-1.01.56-1.34.71h-.2c-3.88,1.53-31.9-.92-31.9-.92,2.14-4.07,4.54-8.29,7.22-12.61,3.32-5.33,6.67-10.15,9.94-14.48h0Z"/><path class="cls-10" d="m624.01,853.82c.07-.35.19-.86.37-1.47,1.18-4.03,4.75-10.99,9.92-11.24,2.78-.14,3.02,1.82,8.34,3.25,5.38,1.44,6.51-.18,8.93,1.31,4.6,2.83,4.51,11.14,3.26,15.96-.16.61-.32,1.11-.44,1.45l-.14.14c-1.66,3.82-23.21,21.91-23.21,21.91-1.36-4.39-2.66-9.07-3.81-14.03-1.42-6.12-2.46-11.89-3.21-17.27h0Z"/><path class="cls-10" d="m602.18,868.13c-.19-.3-.48-.74-.78-1.3-2.01-3.69-4.41-11.13-.94-14.96,1.87-2.07,3.42-.85,8.19-3.61,4.82-2.78,4.48-4.73,7.24-5.39,5.26-1.25,11.07,4.69,13.59,8.98.32.54.56,1.01.71,1.34v.2c1.53,3.88-.92,31.9-.92,31.9-4.07-2.14-8.29-4.54-12.61-7.22-5.33-3.32-10.15-6.67-14.48-9.94h0Z"/><path class="cls-10" d="m596.86,893.69c-.35-.07-.86-.19-1.47-.37-4.03-1.18-10.99-4.75-11.24-9.92-.14-2.78,1.82-3.02,3.25-8.34,1.44-5.38-.18-6.51,1.31-8.93,2.83-4.6,11.14-4.51,15.96-3.26.61.16,1.11.32,1.45.44l.14.14c3.82,1.66,21.91,23.21,21.91,23.21-4.39,1.36-9.07,2.66-14.03,3.81-6.12,1.42-11.89,2.46-17.27,3.21h-.01Z"/><path class="cls-10" d="m611.17,915.52c-.3.19-.74.48-1.3.78-3.69,2.01-11.13,4.41-14.96.94-2.07-1.87-.85-3.42-3.61-8.19-2.78-4.82-4.73-4.48-5.39-7.24-1.25-5.26,4.69-11.07,8.98-13.59.54-.32,1.01-.56,1.34-.71h.2c3.88-1.53,31.9.92,31.9.92-2.14,4.07-4.54,8.29-7.22,12.61-3.32,5.33-6.67,10.15-9.94,14.48h0Z"/><path class="cls-9" d="m1083.45,864.73c-.97,3.49-3.21,5.92-5.01,5.42s-2.46-3.74-1.49-7.23c-.97,3.49-3.21,5.92-5.01,5.42s-2.46-3.74-1.49-7.23c.74-2.65,11.73-16.98,11.73-16.98,0,0,2.02,17.94,1.28,20.59h-.01Z"/><path class="cls-9" d="m1095.35,860.04c1.27,3.4.88,6.68-.87,7.33s-4.19-1.57-5.46-4.97c1.27,3.4.88,6.68-.87,7.33s-4.19-1.57-5.46-4.97c-.96-2.58-.49-20.63-.49-20.63,0,0,12.18,13.33,13.14,15.91h0Z"/><path class="cls-9" d="m1102.22,849.26c3.02,2,4.64,4.89,3.61,6.44s-4.31,1.19-7.34-.81c3.02,2,4.64,4.89,3.61,6.44s-4.31,1.19-7.34-.81c-2.29-1.52-12.52-16.4-12.52-16.4,0,0,17.69,3.63,19.98,5.15h0Z"/><path class="cls-9" d="m1101.44,836.5c3.62-.16,6.62,1.23,6.7,3.09s-2.79,3.5-6.41,3.65c3.62-.16,6.62,1.23,6.7,3.09s-2.79,3.5-6.41,3.65c-2.75.12-19.77-5.91-19.77-5.91,0,0,16.44-7.46,19.19-7.58h0Z"/><path class="cls-9" d="m1093.3,826.64c2.84-2.25,6.08-2.9,7.24-1.44s-.2,4.47-3.04,6.73c2.84-2.25,6.08-2.9,7.24-1.44s-.2,4.47-3.04,6.73c-2.15,1.71-19.46,6.84-19.46,6.84,0,0,8.91-15.7,11.07-17.41h0Z"/><path class="cls-9" d="m1080.92,823.43c.97-3.49,3.21-5.92,5.01-5.42s2.46,3.74,1.49,7.23c.97-3.49,3.21-5.92,5.01-5.42s2.46,3.74,1.49,7.23c-.74,2.65-11.73,16.98-11.73,16.98,0,0-2.02-17.94-1.28-20.59h.01Z"/><path class="cls-9" d="m1069.03,828.12c-1.27-3.4-.88-6.68.87-7.33s4.19,1.57,5.46,4.97c-1.27-3.4-.88-6.68.87-7.33s4.19,1.57,5.46,4.97c.96,2.58.49,20.63.49,20.63,0,0-12.18-13.33-13.14-15.91h0Z"/><path class="cls-9" d="m1062.16,838.9c-3.02-2-4.64-4.89-3.61-6.44s4.31-1.19,7.34.81c-3.02-2-4.64-4.89-3.61-6.44s4.31-1.19,7.34.81c2.29,1.52,12.52,16.4,12.52,16.4,0,0-17.69-3.63-19.98-5.15h0Z"/><path class="cls-9" d="m1062.94,851.67c-3.62.16-6.62-1.23-6.7-3.09s2.79-3.5,6.41-3.65c-3.62.16-6.62-1.23-6.7-3.09s2.79-3.5,6.41-3.65c2.75-.12,19.77,5.91,19.77,5.91,0,0-16.44,7.46-19.19,7.58h0Z"/><path class="cls-9" d="m1071.08,861.53c-2.84,2.25-6.08,2.9-7.24,1.44s.2-4.47,3.04-6.73c-2.84,2.25-6.08,2.9-7.24,1.44s.2-4.47,3.04-6.73c2.15-1.71,19.46-6.84,19.46-6.84,0,0-8.91,15.7-11.07,17.41h0Z"/><line class="cls-3" x1="1082.19" y1="844.08" x2="1066.3" y2="856.74"/><path class="cls-4" d="m1783.25,922.06c8.41,10,17.03,22.29,24.26,37.04,24.58,50.09,18.07,97.63,12.87,120.9"/><ellipse class="cls-12" cx="1752.93" cy="884.5" rx="15" ry="8.65" transform="translate(-207.4 994.97) rotate(-30)"/><path class="cls-11" d="m1783.3,851.77c3.32,2.32,15.97,11.76,19.96,29.28,5.35,23.5-9.47,41.41-11.19,43.41-5.15-7.22-10.67-16.01-15.81-26.41-6.05-12.24-10.05-23.62-12.74-33.24.27-1.15,1.81-7.11,7.74-10.76,5.36-3.3,10.71-2.52,12.04-2.28Z"/><path class="cls-11" d="m1720.79,937.41c3.33,2.3,16.57,10.89,34.39,8.55,23.9-3.14,35.54-23.26,36.82-25.56-8.55-2.32-18.72-4.45-30.25-5.66-13.58-1.42-25.64-1.22-35.6-.41-.99.66-6.04,4.16-7.4,11-1.23,6.17,1.36,10.92,2.04,12.09h0Z"/><path class="cls-11" d="m1713.49,898.6c1.44,3.78,7.51,18.35,23.54,26.49,21.49,10.92,42.47.9,44.83-.27-5.74-6.75-12.93-14.25-21.76-21.77-10.39-8.85-20.46-15.5-29.13-20.46-1.19-.02-7.33.02-12.32,4.89-4.5,4.39-5.05,9.78-5.15,11.12h-.01Z"/><path class="cls-11" d="m1773.88,866.73c3.5,1.61,16.92,8.22,22.43,22.54,7.39,19.21-5.77,35.81-7.3,37.67-5.76-5.53-12.03-12.35-18.05-20.56-7.09-9.66-12.08-18.81-15.61-26.62.17-1,1.17-6.16,6.75-9.85,5.04-3.33,10.43-3.23,11.78-3.18Z"/><path class="cls-11" d="m1727.3,894.75c1.44,3.78,7.51,18.35,23.54,26.49,21.49,10.92,38.06,3.99,40.42,2.82-5.74-6.75-9.17-15.48-18-23-10.39-8.85-19.81-17.36-28.48-22.32-1.19-.02-7.33.02-12.32,4.89-4.5,4.39-5.05,9.78-5.15,11.12h-.01Z"/><path class="cls-4" d="m1031.25,929.06c8.41,9.37,17.03,20.88,24.26,34.69,24.58,46.92,18.07,91.45,12.87,113.25"/><ellipse class="cls-12" cx="1000.93" cy="891.5" rx="15" ry="8.65" transform="translate(-311.65 619.9) rotate(-30)"/><path class="cls-11" d="m1031.3,858.77c3.32,2.32,15.97,11.76,19.96,29.28,5.35,23.5-9.47,41.41-11.19,43.41-5.15-7.22-10.67-16.01-15.81-26.41-6.05-12.24-10.05-23.62-12.74-33.24.27-1.15,1.81-7.11,7.74-10.76,5.36-3.3,10.71-2.52,12.04-2.28Z"/><path class="cls-11" d="m968.79,944.41c3.33,2.3,16.57,10.89,34.39,8.55,23.9-3.14,35.54-23.26,36.82-25.56-8.55-2.32-18.72-4.45-30.25-5.66-13.58-1.42-25.64-1.22-35.6-.41-.99.66-6.04,4.16-7.4,11-1.23,6.17,1.36,10.92,2.04,12.09h0Z"/><path class="cls-11" d="m961.49,905.6c1.44,3.78,7.51,18.35,23.54,26.49,21.49,10.92,42.47.9,44.83-.27-5.74-6.75-12.93-14.25-21.76-21.77-10.39-8.85-20.46-15.5-29.13-20.46-1.19-.02-7.33.02-12.32,4.89-4.5,4.39-5.05,9.78-5.15,11.12h-.01Z"/><path class="cls-11" d="m1021.88,873.73c3.5,1.61,16.92,8.22,22.43,22.54,7.39,19.21-5.77,35.81-7.3,37.67-5.76-5.53-12.03-12.35-18.05-20.56-7.09-9.66-12.08-18.81-15.61-26.62.17-1,1.17-6.16,6.75-9.85,5.04-3.33,10.43-3.23,11.78-3.18Z"/><path class="cls-11" d="m975.3,901.75c1.44,3.78,7.51,18.35,23.54,26.49,21.49,10.92,38.06,3.99,40.42,2.82-5.74-6.75-9.17-15.48-18-23-10.39-8.85-19.81-17.36-28.48-22.32-1.19-.02-7.33.02-12.32,4.89-4.5,4.39-5.05,9.78-5.15,11.12h-.01Z"/><g id="herbes"><g class="cls-1"><path class="cls-14" d="m469.2,1079.31c-5.48-22.34-10.4-62.08,12.84-104.04,5.55-10.03,11.97-18.83,18.53-26.46-6.36,15.3-12.49,34.62-15.31,57.24-3.66,29.38-.53,54.54,3.73,73.26h-19.79Z"/><path class="cls-15" d="m490.44,1079.31c-4.88-19.44-9.25-54.03,11.42-90.54,4.94-8.73,10.65-16.39,16.49-23.03-5.66,13.31-11.11,30.13-13.62,49.81-3.26,25.57-.48,47.46,3.32,63.76h-17.61Z"/><path class="cls-15" d="m400.54,1079.31c4.88-16.28,9.25-45.24-11.42-75.8-4.94-7.31-10.65-13.72-16.49-19.28,5.66,11.15,11.11,25.23,13.62,41.7,3.26,21.41.48,39.74-3.32,53.38h17.61Z"/><path class="cls-15" d="m597.07,1079.31c-4.88-14.91-9.25-41.43,11.42-69.43,4.94-6.69,15.8-9.8,21.64-14.89-9.68,8-16.26,20.33-18.77,35.43-3.26,19.61-.48,36.39,3.32,48.89h-17.61Z"/><path class="cls-14" d="m581.41,1079.31c3.39-18.35,27.57-55.16,7.57-87.39-5.05-8.14-10.38-9.95-16.95-16,6.36,12.12,7.67,5.47,10.49,23.39,3.66,23.28-16.64,65.17-20.9,80.01h19.79Z"/><path class="cls-16" d="m365.68,1079.31c5.99-13.75,11.36-38.21-14.03-64.03-6.07-6.17-13.08-11.59-20.25-16.29,6.95,9.41,13.64,21.31,16.72,35.23,4,18.08.58,33.57-4.07,45.09h21.63Z"/><path class="cls-16" d="m546.28,1079.31c-5.99-13.75-11.36-38.21,14.03-64.03,6.07-6.17,13.08-11.59,20.25-16.29-6.95,9.41-13.64,21.31-16.72,35.23-4,18.08-.58,33.57,4.07,45.09h-21.63Z"/><path class="cls-16" d="m439.21,1079.31c2.98-15.01,5.65-41.72-6.97-69.92-3.02-6.74-6.5-12.65-10.07-17.79,3.46,10.28,6.78,23.27,8.31,38.47,1.99,19.75.29,36.65-2.02,49.24h10.75Z"/><path class="cls-15" d="m468.37,1079.31c3.82-19.44,7.24-54.03-8.94-90.54-3.87-8.73-8.33-16.39-12.9-23.03,4.43,13.31,8.69,30.13,10.66,49.81,2.55,25.57.37,47.46-2.59,63.76h13.78,0Z"/><path class="cls-14" d="m528.11,1079.31c-5.48-16.91-10.4-46.99,12.84-78.75,5.55-7.59,11.97-14.25,18.53-20.03-6.36,11.58-12.49,26.21-15.31,43.32-3.66,22.24-.53,41.28,3.73,55.46h-19.79Z"/><path class="cls-15" d="m529.91,1079.31c2.9-14.91,5.49-41.43-6.78-69.43-2.93-6.69-9.37-9.8-12.84-14.89,5.75,8,9.65,20.33,11.14,35.43,1.93,19.61.28,36.39-1.97,48.89h10.45Z"/><path class="cls-14" d="m506.62,1079.31c-4.87-18.17-9.24-50.51,11.41-84.64,4.94-8.16,10.63-15.32,16.47-21.53-5.66,12.44-11.09,28.16-13.6,46.56-3.26,23.9-.47,44.37,3.31,59.6h-17.59,0Z"/><path class="cls-15" d="m384.24,1079.31c4.88-14.91,9.25-41.43-11.42-69.43-4.94-6.69-15.8-9.8-21.64-14.89,9.68,8,16.26,20.33,18.77,35.43,3.26,19.61.48,36.39-3.32,48.89h17.61Z"/><path class="cls-14" d="m399.9,1079.31c-3.39-18.35-27.57-55.16-7.57-87.39,5.05-8.14,10.38-9.95,16.95-16-6.36,12.12-7.67,5.47-10.49,23.39-3.66,23.28,16.64,65.17,20.9,80.01h-19.79Z"/><path class="cls-16" d="m435.03,1079.31c5.99-13.75,11.36-38.21-14.03-64.03-6.07-6.17-13.08-11.59-20.25-16.29,6.95,9.41,13.64,21.31,16.72,35.23,4,18.08.58,33.57-4.07,45.09h21.63Z"/><path class="cls-14" d="m453.2,1079.31c5.48-16.91,10.4-46.99-12.84-78.75-5.55-7.59-11.97-14.25-18.53-20.03,6.36,11.58,12.49,26.21,15.31,43.32,3.66,22.24.53,41.28-3.73,55.46h19.79Z"/><path class="cls-14" d="m702.64,1079.31c-5.48-22.34-10.4-62.08,12.84-104.04,5.55-10.03,11.97-18.83,18.53-26.46-6.36,15.3-12.49,34.62-15.31,57.24-3.66,29.38-.53,54.54,3.73,73.26h-19.79Z"/><path class="cls-15" d="m723.88,1079.31c-4.88-19.44-9.25-54.03,11.42-90.54,4.94-8.73,10.65-16.39,16.49-23.03-5.66,13.31-11.11,30.13-13.62,49.81-3.26,25.57-.48,47.46,3.32,63.76h-17.61Z"/><path class="cls-15" d="m633.98,1079.31c4.88-16.28,9.25-45.24-11.42-75.8-4.94-7.31-10.65-13.72-16.49-19.28,5.66,11.15,11.11,25.23,13.62,41.7,3.26,21.41.48,39.74-3.32,53.38h17.61Z"/><path class="cls-15" d="m830.51,1079.31c-4.88-14.91-9.25-41.43,11.42-69.43,4.94-6.69,15.8-9.8,21.64-14.89-9.68,8-16.26,20.33-18.77,35.43-3.26,19.61-.48,36.39,3.32,48.89h-17.61Z"/><path class="cls-14" d="m814.84,1079.31c3.39-18.35,27.57-55.16,7.57-87.39-5.05-8.14-10.38-9.95-16.95-16,6.36,12.12,7.67,5.47,10.49,23.39,3.66,23.28-16.64,65.17-20.9,80.01h19.79Z"/><path class="cls-16" d="m599.11,1079.31c5.99-13.75,11.36-38.21-14.03-64.03-6.07-6.17-13.08-11.59-20.25-16.29,6.95,9.41,13.64,21.31,16.72,35.23,4,18.08.58,33.57-4.07,45.09h21.63Z"/><path class="cls-16" d="m779.71,1079.31c-5.99-13.75-11.36-38.21,14.03-64.03,6.07-6.17,13.08-11.59,20.25-16.29-6.95,9.41-13.64,21.31-16.72,35.23-4,18.08-.58,33.57,4.07,45.09h-21.63Z"/><path class="cls-16" d="m672.64,1079.31c2.98-15.01,5.65-41.72-6.97-69.92-3.02-6.74-6.5-12.65-10.07-17.79,3.46,10.28,6.78,23.27,8.31,38.47,1.99,19.75.29,36.65-2.02,49.24h10.75Z"/><path class="cls-15" d="m701.8,1079.31c3.82-19.44,7.24-54.03-8.94-90.54-3.87-8.73-8.33-16.39-12.9-23.03,4.43,13.31,8.69,30.13,10.66,49.81,2.55,25.57.37,47.46-2.59,63.76h13.78,0Z"/><path class="cls-14" d="m761.55,1079.31c-5.48-16.91-10.4-46.99,12.84-78.75,5.55-7.59,11.97-14.25,18.53-20.03-6.36,11.58-12.49,26.21-15.31,43.32-3.66,22.24-.53,41.28,3.73,55.46h-19.79Z"/><path class="cls-15" d="m763.34,1079.31c2.9-14.91,5.49-41.43-6.78-69.43-2.93-6.69-9.37-9.8-12.84-14.89,5.75,8,9.65,20.33,11.14,35.43,1.93,19.61.28,36.39-1.97,48.89h10.45Z"/><path class="cls-14" d="m740.06,1079.31c-4.87-18.17-9.24-50.51,11.41-84.64,4.94-8.16,10.63-15.32,16.47-21.53-5.66,12.44-11.09,28.16-13.6,46.56-3.26,23.9-.47,44.37,3.31,59.6h-17.59,0Z"/><path class="cls-15" d="m617.67,1079.31c4.88-14.91,9.25-41.43-11.42-69.43-4.94-6.69-15.8-9.8-21.64-14.89,9.68,8,16.26,20.33,18.77,35.43,3.26,19.61.48,36.39-3.32,48.89h17.61Z"/><path class="cls-14" d="m633.34,1079.31c-3.39-18.35-27.57-55.16-7.57-87.39,5.05-8.14,10.38-9.95,16.95-16-6.36,12.12-7.67,5.47-10.49,23.39-3.66,23.28,16.64,65.17,20.9,80.01h-19.79Z"/><path class="cls-16" d="m668.47,1079.31c5.99-13.75,11.36-38.21-14.03-64.03-6.07-6.17-13.08-11.59-20.25-16.29,6.95,9.41,13.64,21.31,16.72,35.23,4,18.08.58,33.57-4.07,45.09h21.63Z"/><path class="cls-14" d="m686.63,1079.31c5.48-16.91,10.4-46.99-12.84-78.75-5.55-7.59-11.97-14.25-18.53-20.03,6.36,11.58,12.49,26.21,15.31,43.32,3.66,22.24.53,41.28-3.73,55.46h19.79Z"/><path class="cls-14" d="m-.2,1079.31c-5.48-22.34-10.4-62.08,12.84-104.04,5.55-10.03,11.97-18.83,18.53-26.46-6.36,15.3-12.49,34.62-15.31,57.24-3.66,29.38-.53,54.54,3.73,73.26H-.2h0Z"/><path class="cls-15" d="m21.04,1079.31c-4.88-19.44-9.25-54.03,11.42-90.54,4.94-8.73,10.65-16.39,16.49-23.03-5.66,13.31-11.11,30.13-13.62,49.81-3.26,25.57-.48,47.46,3.32,63.76h-17.61Z"/><path class="cls-15" d="m127.67,1079.31c-4.88-14.91-9.25-41.43,11.42-69.43,4.94-6.69,15.8-9.8,21.64-14.89-9.68,8-16.26,20.33-18.77,35.43-3.26,19.61-.48,36.39,3.32,48.89h-17.61Z"/><path class="cls-14" d="m112.01,1079.31c3.39-18.35,27.57-55.16,7.57-87.39-5.05-8.14-10.38-9.95-16.95-16,6.36,12.12,7.67,5.47,10.49,23.39,3.66,23.28-16.64,65.17-20.9,80.01h19.79,0Z"/><path class="cls-16" d="m76.88,1079.31c-5.99-13.75-11.36-38.21,14.03-64.03,6.07-6.17,13.08-11.59,20.25-16.29-6.95,9.41-13.64,21.31-16.72,35.23-4,18.08-.58,33.57,4.07,45.09h-21.63Z"/><path class="cls-15" d="m-1.03,1079.31c3.82-19.44,7.24-54.03-8.94-90.54-3.87-8.73-8.33-16.39-12.9-23.03,4.43,13.31,8.69,30.13,10.66,49.81,2.55,25.57.37,47.46-2.59,63.76H-1.02h0Z"/><path class="cls-14" d="m58.71,1079.31c-5.48-16.91-10.4-46.99,12.84-78.75,5.55-7.59,11.97-14.25,18.53-20.03-6.36,11.58-12.49,26.21-15.31,43.32-3.66,22.24-.53,41.28,3.73,55.46h-19.79,0Z"/><path class="cls-15" d="m60.51,1079.31c2.9-14.91,5.49-41.43-6.78-69.43-2.93-6.69-9.37-9.8-12.84-14.89,5.75,8,9.65,20.33,11.14,35.43,1.93,19.61.28,36.39-1.97,48.89h10.45Z"/><path class="cls-14" d="m37.22,1079.31c-4.87-18.17-9.24-50.51,11.41-84.64,4.94-8.16,10.63-15.32,16.47-21.53-5.66,12.44-11.09,28.16-13.6,46.56-3.26,23.9-.47,44.37,3.31,59.6h-17.59Z"/><path class="cls-14" d="m233.24,1079.31c-5.48-22.34-10.4-62.08,12.84-104.04,5.55-10.03,11.97-18.83,18.53-26.46-6.36,15.3-12.49,34.62-15.31,57.24-3.66,29.38-.53,54.54,3.73,73.26h-19.79Z"/><path class="cls-15" d="m254.48,1079.31c-4.88-19.44-9.25-54.03,11.42-90.54,4.94-8.73,10.65-16.39,16.49-23.03-5.66,13.31-11.11,30.13-13.62,49.81-3.26,25.57-.48,47.46,3.32,63.76h-17.61Z"/><path class="cls-15" d="m164.58,1079.31c4.88-16.28,9.25-45.24-11.42-75.8-4.94-7.31-10.65-13.72-16.49-19.28,5.66,11.15,11.11,25.23,13.62,41.7,3.26,21.41.48,39.74-3.32,53.38h17.61Z"/><path class="cls-15" d="m361.11,1079.31c-4.88-14.91-9.25-41.43,11.42-69.43,4.94-6.69,15.8-9.8,21.64-14.89-9.68,8-16.26,20.33-18.77,35.43-3.26,19.61-.48,36.39,3.32,48.89h-17.61Z"/><path class="cls-14" d="m345.44,1079.31c3.39-18.35,27.57-55.16,7.57-87.39-5.05-8.14-10.38-9.95-16.95-16,6.36,12.12,7.67,5.47,10.49,23.39,3.66,23.28-16.64,65.17-20.9,80.01h19.79Z"/><path class="cls-16" d="m129.71,1079.31c5.99-13.75,11.36-38.21-14.03-64.03-6.07-6.17-13.08-11.59-20.25-16.29,6.95,9.41,13.64,21.31,16.72,35.23,4,18.08.58,33.57-4.07,45.09h21.63Z"/><path class="cls-16" d="m310.31,1079.31c-5.99-13.75-11.36-38.21,14.03-64.03,6.07-6.17,13.08-11.59,20.25-16.29-6.95,9.41-13.64,21.31-16.72,35.23-4,18.08-.58,33.57,4.07,45.09h-21.63Z"/><path class="cls-16" d="m203.24,1079.31c2.98-15.01,5.65-41.72-6.97-69.92-3.02-6.74-6.5-12.65-10.07-17.79,3.46,10.28,6.78,23.27,8.31,38.47,1.99,19.75.29,36.65-2.02,49.24h10.75Z"/><path class="cls-15" d="m232.4,1079.31c3.82-19.44,7.24-54.03-8.94-90.54-3.87-8.73-8.33-16.39-12.9-23.03,4.43,13.31,8.69,30.13,10.66,49.81,2.55,25.57.37,47.46-2.59,63.76h13.78-.01Z"/><path class="cls-14" d="m292.15,1079.31c-5.48-16.91-10.4-46.99,12.84-78.75,5.55-7.59,11.97-14.25,18.53-20.03-6.36,11.58-12.49,26.21-15.31,43.32-3.66,22.24-.53,41.28,3.73,55.46h-19.79Z"/><path class="cls-15" d="m293.94,1079.31c2.9-14.91,5.49-41.43-6.78-69.43-2.93-6.69-9.37-9.8-12.84-14.89,5.75,8,9.65,20.33,11.14,35.43,1.93,19.61.28,36.39-1.97,48.89h10.45,0Z"/><path class="cls-14" d="m270.66,1079.31c-4.87-18.17-9.24-50.51,11.41-84.64,4.94-8.16,10.63-15.32,16.47-21.53-5.66,12.44-11.09,28.16-13.6,46.56-3.26,23.9-.47,44.37,3.31,59.6h-17.59Z"/><path class="cls-15" d="m148.27,1079.31c4.88-14.91,9.25-41.43-11.42-69.43-4.94-6.69-15.8-9.8-21.64-14.89,9.68,8,16.26,20.33,18.77,35.43,3.26,19.61.48,36.39-3.32,48.89h17.61Z"/><path class="cls-14" d="m163.94,1079.31c-3.39-18.35-27.57-55.16-7.57-87.39,5.05-8.14,10.38-9.95,16.95-16-6.36,12.12-7.67,5.47-10.49,23.39-3.66,23.28,16.64,65.17,20.9,80.01h-19.79Z"/><path class="cls-16" d="m199.07,1079.31c5.99-13.75,11.36-38.21-14.03-64.03-6.07-6.17-13.08-11.59-20.25-16.29,6.95,9.41,13.64,21.31,16.72,35.23,4,18.08.58,33.57-4.07,45.09h21.63Z"/><path class="cls-14" d="m217.23,1079.31c5.48-16.91,10.4-46.99-12.84-78.75-5.55-7.59-11.97-14.25-18.53-20.03,6.36,11.58,12.49,26.21,15.31,43.32,3.66,22.24.53,41.28-3.73,55.46h19.79Z"/><path class="cls-14" d="m1405.5,1079.31c-5.48-22.34-10.4-62.08,12.84-104.04,5.55-10.03,11.97-18.83,18.53-26.46-6.36,15.3-12.49,34.62-15.31,57.24-3.66,29.38-.53,54.54,3.73,73.26h-19.79,0Z"/><path class="cls-15" d="m1426.74,1079.31c-4.88-19.44-9.25-54.03,11.42-90.54,4.94-8.73,10.65-16.39,16.49-23.03-5.66,13.31-11.11,30.13-13.62,49.81-3.26,25.57-.48,47.46,3.32,63.76h-17.61Z"/><path class="cls-15" d="m1336.84,1079.31c4.88-16.28,9.25-45.24-11.42-75.8-4.94-7.31-10.65-13.72-16.49-19.28,5.66,11.15,11.11,25.23,13.62,41.7,3.26,21.41.48,39.74-3.32,53.38h17.61Z"/><path class="cls-15" d="m1533.37,1079.31c-4.88-14.91-9.25-41.43,11.42-69.43,4.94-6.69,15.8-9.8,21.64-14.89-9.68,8-16.26,20.33-18.77,35.43-3.26,19.61-.48,36.39,3.32,48.89h-17.61Z"/><path class="cls-14" d="m1517.7,1079.31c3.39-18.35,27.57-55.16,7.57-87.39-5.05-8.14-10.38-9.95-16.95-16,6.36,12.12,7.67,5.47,10.49,23.39,3.66,23.28-16.64,65.17-20.9,80.01h19.79Z"/><path class="cls-16" d="m1301.97,1079.31c5.99-13.75,11.36-38.21-14.03-64.03-6.07-6.17-13.08-11.59-20.25-16.29,6.95,9.41,13.64,21.31,16.72,35.23,4,18.08.58,33.57-4.07,45.09h21.63Z"/><path class="cls-16" d="m1482.57,1079.31c-5.99-13.75-11.36-38.21,14.03-64.03,6.07-6.17,13.08-11.59,20.25-16.29-6.95,9.41-13.64,21.31-16.72,35.23-4,18.08-.58,33.57,4.07,45.09h-21.63Z"/><path class="cls-16" d="m1375.5,1079.31c2.98-15.01,5.65-41.72-6.97-69.92-3.02-6.74-6.5-12.65-10.07-17.79,3.46,10.28,6.78,23.27,8.31,38.47,1.99,19.75.29,36.65-2.02,49.24h10.75,0Z"/><path class="cls-15" d="m1404.66,1079.31c3.82-19.44,7.24-54.03-8.94-90.54-3.87-8.73-8.33-16.39-12.9-23.03,4.43,13.31,8.69,30.13,10.66,49.81,2.55,25.57.37,47.46-2.59,63.76h13.78-.01Z"/><path class="cls-14" d="m1464.41,1079.31c-5.48-16.91-10.4-46.99,12.84-78.75,5.55-7.59,11.97-14.25,18.53-20.03-6.36,11.58-12.49,26.21-15.31,43.32-3.66,22.24-.53,41.28,3.73,55.46h-19.79,0Z"/><path class="cls-15" d="m1466.2,1079.31c2.9-14.91,5.49-41.43-6.78-69.43-2.93-6.69-9.37-9.8-12.84-14.89,5.75,8,9.65,20.33,11.14,35.43,1.93,19.61.28,36.39-1.97,48.89h10.45Z"/><path class="cls-14" d="m1442.92,1079.31c-4.87-18.17-9.24-50.51,11.41-84.64,4.94-8.16,10.63-15.32,16.47-21.53-5.66,12.44-11.09,28.16-13.6,46.56-3.26,23.9-.47,44.37,3.31,59.6h-17.59Z"/><path class="cls-15" d="m1320.53,1079.31c4.88-14.91,9.25-41.43-11.42-69.43-4.94-6.69-15.8-9.8-21.64-14.89,9.68,8,16.26,20.33,18.77,35.43,3.26,19.61.48,36.39-3.32,48.89h17.61Z"/><path class="cls-14" d="m1336.2,1079.31c-3.39-18.35-27.57-55.16-7.57-87.39,5.05-8.14,10.38-9.95,16.95-16-6.36,12.12-7.67,5.47-10.49,23.39-3.66,23.28,16.64,65.17,20.9,80.01h-19.79Z"/><path class="cls-16" d="m1371.33,1079.31c5.99-13.75,11.36-38.21-14.03-64.03-6.07-6.17-13.08-11.59-20.25-16.29,6.95,9.41,13.64,21.31,16.72,35.23,4,18.08.58,33.57-4.07,45.09h21.63Z"/><path class="cls-14" d="m1389.49,1079.31c5.48-16.91,10.4-46.99-12.84-78.75-5.55-7.59-11.97-14.25-18.53-20.03,6.36,11.58,12.49,26.21,15.31,43.32,3.66,22.24.53,41.28-3.73,55.46h19.79,0Z"/><path class="cls-14" d="m1638.93,1079.31c-5.48-22.34-10.4-62.08,12.84-104.04,5.55-10.03,11.97-18.83,18.53-26.46-6.36,15.3-12.49,34.62-15.31,57.24-3.66,29.38-.53,54.54,3.73,73.26h-19.79,0Z"/><path class="cls-15" d="m1660.17,1079.31c-4.88-19.44-9.25-54.03,11.42-90.54,4.94-8.73,10.65-16.39,16.49-23.03-5.66,13.31-11.11,30.13-13.62,49.81-3.26,25.57-.48,47.46,3.32,63.76h-17.61Z"/><path class="cls-15" d="m1570.27,1079.31c4.88-16.28,9.25-45.24-11.42-75.8-4.94-7.31-10.65-13.72-16.49-19.28,5.66,11.15,11.11,25.23,13.62,41.7,3.26,21.41.48,39.74-3.32,53.38h17.61Z"/><path class="cls-15" d="m1766.8,1079.31c-4.88-14.91-9.25-41.43,11.42-69.43,4.94-6.69,15.8-9.8,21.64-14.89-9.68,8-16.26,20.33-18.77,35.43-3.26,19.61-.48,36.39,3.32,48.89h-17.61Z"/><path class="cls-14" d="m1751.14,1079.31c3.39-18.35,27.57-55.16,7.57-87.39-5.05-8.14-10.38-9.95-16.95-16,6.36,12.12,7.67,5.47,10.49,23.39,3.66,23.28-16.64,65.17-20.9,80.01h19.79Z"/><path class="cls-16" d="m1535.41,1079.31c5.99-13.75,11.36-38.21-14.03-64.03-6.07-6.17-13.08-11.59-20.25-16.29,6.95,9.41,13.64,21.31,16.72,35.23,4,18.08.58,33.57-4.07,45.09h21.63Z"/><path class="cls-16" d="m1716.01,1079.31c-5.99-13.75-11.36-38.21,14.03-64.03,6.07-6.17,13.08-11.59,20.25-16.29-6.95,9.41-13.64,21.31-16.72,35.23-4,18.08-.58,33.57,4.07,45.09h-21.63Z"/><path class="cls-16" d="m1608.94,1079.31c2.98-15.01,5.65-41.72-6.97-69.92-3.02-6.74-6.5-12.65-10.07-17.79,3.46,10.28,6.78,23.27,8.31,38.47,1.99,19.75.29,36.65-2.02,49.24h10.75,0Z"/><path class="cls-15" d="m1638.1,1079.31c3.82-19.44,7.24-54.03-8.94-90.54-3.87-8.73-8.33-16.39-12.9-23.03,4.43,13.31,8.69,30.13,10.66,49.81,2.55,25.57.37,47.46-2.59,63.76h13.78-.01Z"/><path class="cls-14" d="m1697.84,1079.31c-5.48-16.91-10.4-46.99,12.84-78.75,5.55-7.59,11.97-14.25,18.53-20.03-6.36,11.58-12.49,26.21-15.31,43.32-3.66,22.24-.53,41.28,3.73,55.46h-19.79,0Z"/><path class="cls-15" d="m1699.64,1079.31c2.9-14.91,5.49-41.43-6.78-69.43-2.93-6.69-9.37-9.8-12.84-14.89,5.75,8,9.65,20.33,11.14,35.43,1.93,19.61.28,36.39-1.97,48.89h10.45Z"/><path class="cls-14" d="m1676.35,1079.31c-4.87-18.17-9.24-50.51,11.41-84.64,4.94-8.16,10.63-15.32,16.47-21.53-5.66,12.44-11.09,28.16-13.6,46.56-3.26,23.9-.47,44.37,3.31,59.6h-17.59Z"/><path class="cls-15" d="m1553.97,1079.31c4.88-14.91,9.25-41.43-11.42-69.43-4.94-6.69-15.8-9.8-21.64-14.89,9.68,8,16.26,20.33,18.77,35.43,3.26,19.61.48,36.39-3.32,48.89h17.61Z"/><path class="cls-14" d="m1569.63,1079.31c-3.39-18.35-27.57-55.16-7.57-87.39,5.05-8.14,10.38-9.95,16.95-16-6.36,12.12-7.67,5.47-10.49,23.39-3.66,23.28,16.64,65.17,20.9,80.01h-19.79Z"/><path class="cls-16" d="m1604.76,1079.31c5.99-13.75,11.36-38.21-14.03-64.03-6.07-6.17-13.08-11.59-20.25-16.29,6.95,9.41,13.64,21.31,16.72,35.23,4,18.08.58,33.57-4.07,45.09h21.63Z"/><path class="cls-14" d="m1622.93,1079.31c5.48-16.91,10.4-46.99-12.84-78.75-5.55-7.59-11.97-14.25-18.53-20.03,6.36,11.58,12.49,26.21,15.31,43.32,3.66,22.24.53,41.28-3.73,55.46h19.79,0Z"/><path class="cls-14" d="m936.1,1079.31c-5.48-22.34-10.4-62.08,12.84-104.04,5.55-10.03,11.97-18.83,18.53-26.46-6.36,15.3-12.49,34.62-15.31,57.24-3.66,29.38-.53,54.54,3.73,73.26h-19.79,0Z"/><path class="cls-15" d="m957.34,1079.31c-4.88-19.44-9.25-54.03,11.42-90.54,4.94-8.73,10.65-16.39,16.49-23.03-5.66,13.31-11.11,30.13-13.62,49.81-3.26,25.57-.48,47.46,3.32,63.76h-17.61Z"/><path class="cls-15" d="m867.43,1079.31c4.88-16.28,9.25-45.24-11.42-75.8-4.94-7.31-10.65-13.72-16.49-19.28,5.66,11.15,11.11,25.23,13.62,41.7,3.26,21.41.48,39.74-3.32,53.38h17.61Z"/><path class="cls-15" d="m1063.97,1079.31c-4.88-14.91-9.25-41.43,11.42-69.43,4.94-6.69,15.8-9.8,21.64-14.89-9.68,8-16.26,20.33-18.77,35.43-3.26,19.61-.48,36.39,3.32,48.89h-17.61Z"/><path class="cls-14" d="m1048.3,1079.31c3.39-18.35,27.57-55.16,7.57-87.39-5.05-8.14-10.38-9.95-16.95-16,6.36,12.12,7.67,5.47,10.49,23.39,3.66,23.28-16.64,65.17-20.9,80.01h19.79Z"/><path class="cls-16" d="m832.57,1079.31c5.99-13.75,11.36-38.21-14.03-64.03-6.07-6.17-13.08-11.59-20.25-16.29,6.95,9.41,13.64,21.31,16.72,35.23,4,18.08.58,33.57-4.07,45.09h21.63Z"/><path class="cls-16" d="m1013.17,1079.31c-5.99-13.75-11.36-38.21,14.03-64.03,6.07-6.17,13.08-11.59,20.25-16.29-6.95,9.41-13.64,21.31-16.72,35.23-4,18.08-.58,33.57,4.07,45.09h-21.63Z"/><path class="cls-16" d="m906.1,1079.31c2.98-15.01,5.65-41.72-6.97-69.92-3.02-6.74-6.5-12.65-10.07-17.79,3.46,10.28,6.78,23.27,8.31,38.47,1.99,19.75.29,36.65-2.02,49.24h10.75,0Z"/><path class="cls-15" d="m935.26,1079.31c3.82-19.44,7.24-54.03-8.94-90.54-3.87-8.73-8.33-16.39-12.9-23.03,4.43,13.31,8.69,30.13,10.66,49.81,2.55,25.57.37,47.46-2.59,63.76h13.78-.01Z"/><path class="cls-14" d="m995.01,1079.31c-5.48-16.91-10.4-46.99,12.84-78.75,5.55-7.59,11.97-14.25,18.53-20.03-6.36,11.58-12.49,26.21-15.31,43.32-3.66,22.24-.53,41.28,3.73,55.46h-19.79,0Z"/><path class="cls-15" d="m996.8,1079.31c2.9-14.91,5.49-41.43-6.78-69.43-2.93-6.69-9.37-9.8-12.84-14.89,5.75,8,9.65,20.33,11.14,35.43,1.93,19.61.28,36.39-1.97,48.89h10.45Z"/><path class="cls-14" d="m973.52,1079.31c-4.87-18.17-9.24-50.51,11.41-84.64,4.94-8.16,10.63-15.32,16.47-21.53-5.66,12.44-11.09,28.16-13.6,46.56-3.26,23.9-.47,44.37,3.31,59.6h-17.59Z"/><path class="cls-15" d="m851.13,1079.31c4.88-14.91,9.25-41.43-11.42-69.43-4.94-6.69-15.8-9.8-21.64-14.89,9.68,8,16.26,20.33,18.77,35.43,3.26,19.61.48,36.39-3.32,48.89h17.61Z"/><path class="cls-14" d="m866.8,1079.31c-3.39-18.35-27.57-55.16-7.57-87.39,5.05-8.14,10.38-9.95,16.95-16-6.36,12.12-7.67,5.47-10.49,23.39-3.66,23.28,16.64,65.17,20.9,80.01h-19.79Z"/><path class="cls-16" d="m901.93,1079.31c5.99-13.75,11.36-38.21-14.03-64.03-6.07-6.17-13.08-11.59-20.25-16.29,6.95,9.41,13.64,21.31,16.72,35.23,4,18.08.58,33.57-4.07,45.09h21.63Z"/><path class="cls-14" d="m920.09,1079.31c5.48-16.91,10.4-46.99-12.84-78.75-5.55-7.59-11.97-14.25-18.53-20.03,6.36,11.58,12.49,26.21,15.31,43.32,3.66,22.24.53,41.28-3.73,55.46h19.79,0Z"/><path class="cls-14" d="m1169.53,1079.31c-5.48-22.34-10.4-62.08,12.84-104.04,5.55-10.03,11.97-18.83,18.53-26.46-6.36,15.3-12.49,34.62-15.31,57.24-3.66,29.38-.53,54.54,3.73,73.26h-19.79,0Z"/><path class="cls-15" d="m1190.77,1079.31c-4.88-19.44-9.25-54.03,11.42-90.54,4.94-8.73,10.65-16.39,16.49-23.03-5.66,13.31-11.11,30.13-13.62,49.81-3.26,25.57-.48,47.46,3.32,63.76h-17.61Z"/><path class="cls-15" d="m1100.87,1079.31c4.88-16.28,9.25-45.24-11.42-75.8-4.94-7.31-10.65-13.72-16.49-19.28,5.66,11.15,11.11,25.23,13.62,41.7,3.26,21.41.48,39.74-3.32,53.38h17.61Z"/><path class="cls-15" d="m1297.4,1079.31c-4.88-14.91-9.25-41.43,11.42-69.43,4.94-6.69,15.8-9.8,21.64-14.89-9.68,8-16.26,20.33-18.77,35.43-3.26,19.61-.48,36.39,3.32,48.89h-17.61Z"/><path class="cls-14" d="m1281.74,1079.31c3.39-18.35,27.57-55.16,7.57-87.39-5.05-8.14-10.38-9.95-16.95-16,6.36,12.12,7.67,5.47,10.49,23.39,3.66,23.28-16.64,65.17-20.9,80.01h19.79Z"/><path class="cls-16" d="m1066,1079.31c5.99-13.75,11.36-38.21-14.03-64.03-6.07-6.17-13.08-11.59-20.25-16.29,6.95,9.41,13.64,21.31,16.72,35.23,4,18.08.58,33.57-4.07,45.09h21.63Z"/><path class="cls-16" d="m1246.61,1079.31c-5.99-13.75-11.36-38.21,14.03-64.03,6.07-6.17,13.08-11.59,20.25-16.29-6.95,9.41-13.64,21.31-16.72,35.23-4,18.08-.58,33.57,4.07,45.09h-21.63Z"/><path class="cls-16" d="m1139.54,1079.31c2.98-15.01,5.65-41.72-6.97-69.92-3.02-6.74-6.5-12.65-10.07-17.79,3.46,10.28,6.78,23.27,8.31,38.47,1.99,19.75.29,36.65-2.02,49.24h10.75,0Z"/><path class="cls-15" d="m1168.7,1079.31c3.82-19.44,7.24-54.03-8.94-90.54-3.87-8.73-8.33-16.39-12.9-23.03,4.43,13.31,8.69,30.13,10.66,49.81,2.55,25.57.37,47.46-2.59,63.76h13.78-.01Z"/><path class="cls-14" d="m1228.44,1079.31c-5.48-16.91-10.4-46.99,12.84-78.75,5.55-7.59,11.97-14.25,18.53-20.03-6.36,11.58-12.49,26.21-15.31,43.32-3.66,22.24-.53,41.28,3.73,55.46h-19.79,0Z"/><path class="cls-15" d="m1230.24,1079.31c2.9-14.91,5.49-41.43-6.78-69.43-2.93-6.69-9.37-9.8-12.84-14.89,5.75,8,9.65,20.33,11.14,35.43,1.93,19.61.28,36.39-1.97,48.89h10.45Z"/><path class="cls-14" d="m1206.95,1079.31c-4.87-18.17-9.24-50.51,11.41-84.64,4.94-8.16,10.63-15.32,16.47-21.53-5.66,12.44-11.09,28.16-13.6,46.56-3.26,23.9-.47,44.37,3.31,59.6h-17.59Z"/><path class="cls-15" d="m1084.57,1079.31c4.88-14.91,9.25-41.43-11.42-69.43-4.94-6.69-15.8-9.8-21.64-14.89,9.68,8,16.26,20.33,18.77,35.43,3.26,19.61.48,36.39-3.32,48.89h17.61Z"/><path class="cls-14" d="m1100.23,1079.31c-3.39-18.35-27.57-55.16-7.57-87.39,5.05-8.14,10.38-9.95,16.95-16-6.36,12.12-7.67,5.47-10.49,23.39-3.66,23.28,16.64,65.17,20.9,80.01h-19.79Z"/><path class="cls-16" d="m1135.36,1079.31c5.99-13.75,11.36-38.21-14.03-64.03-6.07-6.17-13.08-11.59-20.25-16.29,6.95,9.41,13.64,21.31,16.72,35.23,4,18.08.58,33.57-4.07,45.09h21.63Z"/><path class="cls-14" d="m1153.52,1079.31c5.48-16.91,10.4-46.99-12.84-78.75-5.55-7.59-11.97-14.25-18.53-20.03,6.36,11.58,12.49,26.21,15.31,43.32,3.66,22.24.53,41.28-3.73,55.46h19.79,0Z"/><path class="cls-14" d="m1835.17,1079.31c-5.48-22.34-10.4-62.08,12.84-104.04,5.55-10.03,11.97-18.83,18.53-26.46-6.36,15.3-12.49,34.62-15.31,57.24-3.66,29.38-.53,54.54,3.73,73.26h-19.79,0Z"/><path class="cls-15" d="m1856.41,1079.31c-4.88-19.44-9.25-54.03,11.42-90.54,4.94-8.73,10.65-16.39,16.49-23.03-5.66,13.31-11.11,30.13-13.62,49.81-3.26,25.57-.48,47.46,3.32,63.76h-17.61Z"/><path class="cls-15" d="m1766.51,1079.31c4.88-16.28,9.25-45.24-11.42-75.8-4.94-7.31-10.65-13.72-16.49-19.28,5.66,11.15,11.11,25.23,13.62,41.7,3.26,21.41.48,39.74-3.32,53.38h17.61Z"/><path class="cls-16" d="m1912.25,1079.31c-5.99-13.75-11.36-38.21,14.03-64.03,6.07-6.17,13.08-11.59,20.25-16.29-6.95,9.41-13.64,21.31-16.72,35.23-4,18.08-.58,33.57,4.07,45.09h-21.63Z"/><path class="cls-16" d="m1805.18,1079.31c2.98-15.01,5.65-41.72-6.97-69.92-3.02-6.74-6.5-12.65-10.07-17.79,3.46,10.28,6.78,23.27,8.31,38.47,1.99,19.75.29,36.65-2.02,49.24h10.75,0Z"/><path class="cls-15" d="m1834.34,1079.31c3.82-19.44,7.24-54.03-8.94-90.54-3.87-8.73-8.33-16.39-12.9-23.03,4.43,13.31,8.69,30.13,10.66,49.81,2.55,25.57.37,47.46-2.59,63.76h13.78-.01Z"/><path class="cls-14" d="m1894.09,1079.31c-5.48-16.91-10.4-46.99,12.84-78.75,5.55-7.59,11.97-14.25,18.53-20.03-6.36,11.58-12.49,26.21-15.31,43.32-3.66,22.24-.53,41.28,3.73,55.46h-19.79,0Z"/><path class="cls-15" d="m1895.88,1079.31c2.9-14.91,5.49-41.43-6.78-69.43-2.93-6.69-9.37-9.8-12.84-14.89,5.75,8,9.65,20.33,11.14,35.43,1.93,19.61.28,36.39-1.97,48.89h10.45Z"/><path class="cls-14" d="m1872.59,1079.31c-4.87-18.17-9.24-50.51,11.41-84.64,4.94-8.16,10.63-15.32,16.47-21.53-5.66,12.44-11.09,28.16-13.6,46.56-3.26,23.9-.47,44.37,3.31,59.6h-17.59Z"/><path class="cls-15" d="m1750.21,1079.31c4.88-14.91,9.25-41.43-11.42-69.43-4.94-6.69-15.8-9.8-21.64-14.89,9.68,8,16.26,20.33,18.77,35.43,3.26,19.61.48,36.39-3.32,48.89h17.61Z"/><path class="cls-14" d="m1765.87,1079.31c-3.39-18.35-27.57-55.16-7.57-87.39,5.05-8.14,10.38-9.95,16.95-16-6.36,12.12-7.67,5.47-10.49,23.39-3.66,23.28,16.64,65.17,20.9,80.01h-19.79Z"/><path class="cls-16" d="m1801,1079.31c5.99-13.75,11.36-38.21-14.03-64.03-6.07-6.17-13.08-11.59-20.25-16.29,6.95,9.41,13.64,21.31,16.72,35.23,4,18.08.58,33.57-4.07,45.09h21.63Z"/><path class="cls-14" d="m1819.17,1079.31c5.48-16.91,10.4-46.99-12.84-78.75-5.55-7.59-11.97-14.25-18.53-20.03,6.36,11.58,12.49,26.21,15.31,43.32,3.66,22.24.53,41.28-3.73,55.46h19.79,0Z"/><path class="cls-15" d="m1727.08,1079.31c-4.88-14.91-9.25-41.43,11.42-69.43,4.94-6.69,15.8-9.8,21.64-14.89-9.68,8-16.26,20.33-18.77,35.43-3.26,19.61-.48,36.39,3.32,48.89h-17.61Z"/></g></g></svg>