<?xml version="1.0" encoding="UTF-8"?><svg id="Calque_1" xmlns="http://www.w3.org/2000/svg" xmlns:xlink="http://www.w3.org/1999/xlink" viewBox="0 0 1920 1080"><defs><style>.cls-1{clip-path:url(#clippath);}.cls-2{fill:none;}.cls-2,.cls-3{stroke-width:0px;}.cls-3{isolation:isolate;opacity:.7;}.cls-3,.cls-4{fill:#fbfbfb;}.cls-4,.cls-5{stroke:#fbfbfb;stroke-miterlimit:10;}.cls-5{fill:#fbd84f;}</style><clipPath id="clippath"><rect class="cls-2" x="-.31" y="-.35" width="1921" height="1080"/></clipPath></defs><g id="_étoiles"><polygon class="cls-4" points="372.84 583.99 371.97 588.87 367.58 590.09 371.97 591.62 372.91 596.35 374.04 591.46 378.36 590.32 374.1 589.02 372.84 583.99"/><polygon class="cls-4" points="376.07 577.56 375.58 580.42 373.13 581.13 375.58 582.02 376.1 584.79 376.73 581.93 379.15 581.27 376.77 580.51 376.07 577.56"/><polygon class="cls-4" points="379.77 581.88 379.07 585.47 375.57 586.37 379.07 587.49 379.82 590.97 380.72 587.38 384.16 586.54 380.77 585.58 379.77 581.88"/><polygon class="cls-4" points="1707.55 44.55 1709.93 64.58 1717.79 57.23 1711.9 66.23 1727.33 69.35 1712.04 72.11 1718.07 81.48 1710.21 74.31 1707.83 92.14 1705.58 74.5 1697.87 81.48 1703.34 71.74 1688.19 69.54 1703.2 67.15 1698.01 57.04 1705.44 63.84 1707.55 44.55"/><polygon class="cls-4" points="1285.54 77.04 1283.05 74.54 1285.85 76.86 1285.13 74.68 1286.23 76.72 1286.44 73.38 1286.65 76.65 1287.75 74.72 1287.03 76.86 1289.72 74.54 1287.23 77.14 1289.58 76.44 1287.47 77.42 1291.07 77.64 1287.2 77.85 1289.76 78.94 1287.23 78.16 1289.69 80.77 1286.99 78.51 1287.79 80.73 1286.68 78.62 1286.44 82.1 1286.3 78.62 1285.23 80.59 1285.89 78.44 1283.12 80.84 1285.57 78.23 1283.29 78.97 1285.51 77.88 1281.6 77.71 1285.47 77.49 1283.26 76.47 1285.54 77.04"/><path class="cls-4" d="m595.2,447.48c.1.89.26,2.3.38,4.04.25,3.63.07,4.46.69,5.26.55.73,1.78.88,4.2,1.14,1.37.15,2.5.21,3.26.23-.73.12-1.86.28-3.26.38-2.79.21-3.48-.04-4.14.69-.32.36-.57.88-.88,4.81-.13,1.67-.21,3.06-.25,4.04-.02-.99-.06-2.38-.19-4.04-.31-3.97-.71-4.55-.94-4.81-.6-.68-1.24-.62-3.76-.84-1.7-.15-3.09-.33-4.01-.46.43-.02,1.96-.11,4.08-.23,2.76-.15,3.32-.18,3.83-.76.48-.55.6-1.24.82-5.34.09-1.63.15-3.03.19-4.12h-.02Z"/><path class="cls-4" d="m152.38,247.09c.06.45.14,1.17.21,2.05.14,1.84.04,2.26.38,2.67.31.37.99.44,2.34.58.77.08,1.4.1,1.82.12-.41.06-1.04.14-1.82.19-1.56.11-1.94-.02-2.31.35-.18.18-.32.45-.49,2.44-.07.85-.12,1.56-.14,2.05,0-.5-.03-1.21-.1-2.05-.17-2.01-.4-2.31-.52-2.44-.33-.35-.69-.31-2.1-.43-.95-.08-1.72-.17-2.24-.23.24-.01,1.09-.06,2.27-.12,1.54-.08,1.85-.09,2.13-.39.27-.28.33-.63.45-2.71.05-.83.08-1.54.1-2.09h.02Z"/><path class="cls-4" d="m154.94,257.92c.05.36.13.94.19,1.66.12,1.49.04,1.83.34,2.17.27.3.88.36,2.07.47.68.06,1.23.08,1.61.09-.36.05-.92.11-1.61.16-1.38.09-1.72-.02-2.04.28-.16.15-.28.36-.43,1.98-.07.69-.1,1.26-.12,1.66,0-.41-.03-.98-.09-1.66-.15-1.63-.35-1.87-.46-1.98-.3-.28-.61-.25-1.85-.35-.84-.06-1.52-.13-1.98-.19.21-.01.96-.05,2.01-.09,1.36-.06,1.63-.07,1.89-.31.24-.23.3-.51.4-2.2.04-.67.07-1.25.09-1.69h-.02Z"/><path class="cls-4" d="m159.97,251.32c.03.25.08.65.12,1.14.08,1.02.02,1.26.21,1.48.17.21.55.25,1.29.32.42.04.77.06,1,.06-.22.03-.57.08-1,.11-.86.06-1.07-.01-1.27.19-.1.1-.17.25-.27,1.35-.04.47-.06.86-.08,1.14,0-.28-.02-.67-.06-1.14-.09-1.12-.22-1.28-.29-1.35-.18-.19-.38-.17-1.16-.24-.52-.04-.95-.09-1.23-.13.13,0,.6-.03,1.25-.06.85-.04,1.02-.05,1.17-.21.15-.16.18-.35.25-1.5.03-.46.04-.85.06-1.16h0Z"/><polygon class="cls-4" points="107.39 693.74 107.09 697.14 104.17 695.82 106.65 697.82 104.17 699.72 107.06 698.43 107.39 701.62 107.73 698.43 110.54 699.72 108.06 697.82 110.62 695.92 107.75 697.17 107.39 693.74"/><polygon class="cls-4" points="331.65 930.46 331.35 933.86 328.43 932.54 330.91 934.53 328.43 936.43 331.32 935.14 331.65 938.33 331.99 935.14 334.8 936.43 332.32 934.53 334.88 932.63 332.01 933.89 331.65 930.46"/><polygon class="cls-4" points="1670.36 910.61 1670.86 908.4 1673.33 907.85 1670.86 907.16 1670.33 905.02 1669.69 907.23 1667.25 907.75 1669.66 908.33 1670.36 910.61"/><polygon class="cls-4" points="1668.55 913.52 1668.82 912.23 1670.21 911.91 1668.82 911.5 1668.53 910.25 1668.17 911.54 1666.81 911.85 1668.15 912.19 1668.55 913.52"/><polygon class="cls-4" points="1666.46 911.57 1666.86 909.94 1668.83 909.54 1666.86 909.03 1666.43 907.45 1665.93 909.08 1663.98 909.46 1665.9 909.89 1666.46 911.57"/><polygon class="cls-4" points="1299.53 1030.65 1298.93 1026.88 1296.95 1028.27 1298.44 1026.57 1294.55 1025.99 1298.4 1025.47 1296.88 1023.71 1298.86 1025.05 1299.46 1021.7 1300.03 1025.02 1301.97 1023.71 1300.59 1025.54 1304.41 1025.95 1300.63 1026.4 1301.94 1028.3 1300.06 1027.02 1299.53 1030.65"/><polygon class="cls-4" points="646.68 1013.93 648.66 1016.11 646.43 1014.08 647.01 1015.98 646.13 1014.21 645.96 1017.12 645.8 1014.27 644.91 1015.95 645.49 1014.08 643.34 1016.11 645.33 1013.84 643.45 1014.45 645.13 1013.59 642.27 1013.41 645.36 1013.23 643.31 1012.28 645.33 1012.95 643.37 1010.68 645.52 1012.64 644.89 1010.71 645.77 1012.55 645.96 1009.52 646.07 1012.55 646.93 1010.84 646.4 1012.7 648.61 1010.62 646.65 1012.89 648.47 1012.24 646.71 1013.19 649.82 1013.35 646.73 1013.53 648.5 1014.42 646.68 1013.93"/><path class="cls-4" d="m1479.54,907.03c-.06-.4-.14-1.04-.21-1.83-.14-1.64-.04-2.02-.39-2.38-.31-.33-1-.4-2.37-.52-.77-.07-1.41-.09-1.84-.1.41-.05,1.05-.13,1.84-.17,1.57-.09,1.96.02,2.33-.31.18-.16.32-.4.49-2.18.08-.76.12-1.39.14-1.83,0,.45.03,1.08.11,1.83.17,1.8.4,2.06.53,2.18.34.31.7.28,2.12.38.96.07,1.74.15,2.26.21-.24.01-1.1.05-2.3.1-1.55.07-1.87.08-2.16.35-.27.25-.34.56-.46,2.42-.05.74-.08,1.37-.11,1.87l.02-.02Z"/><polygon class="cls-4" points="955.46 1039.08 955.76 1035.67 958.69 1036.99 956.2 1035 958.69 1033.1 955.79 1034.39 955.46 1031.2 955.13 1034.39 952.32 1033.1 954.8 1035 952.23 1036.9 955.1 1035.64 955.46 1039.08"/><polygon class="cls-4" points="1838.17 316.82 1838.55 312.99 1842.3 314.47 1839.12 312.23 1842.3 310.09 1838.59 311.54 1838.17 307.94 1837.74 311.54 1834.14 310.09 1837.32 312.23 1834.03 314.37 1837.71 312.95 1838.17 316.82"/><polygon class="cls-4" points="1768.2 685.52 1768.7 683.31 1771.17 682.76 1768.7 682.07 1768.17 679.93 1767.53 682.14 1765.09 682.66 1767.5 683.24 1768.2 685.52"/><polygon class="cls-4" points="1766.39 688.43 1766.66 687.14 1768.04 686.82 1766.66 686.41 1766.37 685.16 1766.01 686.45 1764.65 686.76 1765.99 687.1 1766.39 688.43"/><polygon class="cls-4" points="1764.3 686.48 1764.69 684.85 1766.67 684.44 1764.69 683.94 1764.27 682.36 1763.77 683.99 1761.82 684.37 1763.74 684.8 1764.3 686.48"/><polygon class="cls-4" points="1424.44 833.2 1423.84 829.43 1421.86 830.81 1423.35 829.12 1419.46 828.53 1423.31 828.02 1421.79 826.25 1423.77 827.6 1424.37 824.25 1424.94 827.57 1426.88 826.25 1425.5 828.08 1429.32 828.5 1425.54 828.95 1426.85 830.85 1424.97 829.57 1424.44 833.2"/><polygon class="cls-4" points="956.17 1012.76 958.16 1014.94 955.92 1012.92 956.5 1014.82 955.62 1013.04 955.45 1015.95 955.29 1013.1 954.41 1014.79 954.98 1012.92 952.83 1014.94 954.82 1012.67 952.94 1013.28 954.63 1012.43 951.76 1012.24 954.85 1012.06 952.81 1011.11 954.82 1011.78 952.86 1009.52 955.01 1011.48 954.38 1009.55 955.26 1011.38 955.45 1008.35 955.56 1011.38 956.42 1009.67 955.89 1011.54 958.1 1009.45 956.14 1011.72 957.96 1011.08 956.2 1012.03 959.31 1012.18 956.23 1012.36 957.99 1013.25 956.17 1012.76"/><path class="cls-4" d="m1882.45,348.58c-.06-.4-.14-1.04-.21-1.83-.14-1.64-.04-2.02-.39-2.38-.31-.33-1-.4-2.37-.52-.77-.07-1.41-.09-1.84-.1.41-.05,1.05-.13,1.84-.17,1.57-.09,1.96.02,2.33-.31.18-.16.32-.4.49-2.18.08-.76.12-1.39.14-1.83,0,.45.03,1.08.11,1.83.17,1.8.4,2.06.53,2.18.34.31.7.28,2.12.38.96.07,1.74.15,2.26.21-.24.01-1.1.05-2.3.1-1.55.07-1.87.08-2.16.35-.27.25-.34.56-.46,2.42-.05.74-.08,1.37-.11,1.87l.02-.02Z"/><path class="cls-4" d="m1848.11,892.35c-.04-.28-.1-.73-.15-1.29-.1-1.16-.03-1.42-.28-1.68-.22-.23-.71-.28-1.69-.36-.55-.05-1.01-.07-1.31-.07.29-.04.75-.09,1.31-.12,1.12-.07,1.4.01,1.66-.22.13-.11.23-.28.35-1.53.05-.53.08-.98.1-1.29,0,.31.02.76.08,1.29.12,1.27.29,1.45.38,1.53.24.22.5.2,1.51.27.68.05,1.24.1,1.61.15-.17,0-.79.04-1.64.07-1.11.05-1.33.06-1.54.24-.19.18-.24.4-.33,1.7-.03.52-.06.97-.08,1.31h.02Z"/><path class="cls-4" d="m1846.27,885.55c-.04-.23-.09-.59-.13-1.04-.09-.94-.03-1.15-.24-1.36-.2-.19-.63-.23-1.49-.3-.49-.04-.89-.05-1.16-.06.26-.03.66-.07,1.16-.1.99-.05,1.24.01,1.47-.18.11-.09.2-.23.31-1.24.05-.43.07-.79.09-1.04,0,.25.02.61.07,1.04.11,1.03.25,1.17.33,1.24.21.18.44.16,1.34.22.6.04,1.1.08,1.42.12-.15,0-.69.03-1.45.06-.98.04-1.18.05-1.36.2-.17.14-.21.32-.29,1.38-.03.42-.05.78-.07,1.06h0Z"/><path class="cls-4" d="m1842.65,889.69c-.02-.16-.06-.41-.08-.72-.06-.64-.02-.79-.15-.93-.12-.13-.39-.16-.93-.2-.3-.03-.55-.04-.72-.04.16-.02.41-.05.72-.07.62-.04.77,0,.91-.12.07-.06.12-.16.19-.85.03-.3.05-.54.06-.72,0,.17.01.42.04.72.07.7.16.8.21.85.13.12.27.11.83.15.38.03.68.06.89.08-.1,0-.43.02-.9.04-.61.03-.73.03-.85.13-.11.1-.13.22-.18.94-.02.29-.03.54-.04.73h0Z"/><polygon class="cls-4" points="1175.62 259.82 1176.01 255.99 1179.76 257.47 1176.58 255.23 1179.76 253.08 1176.05 254.54 1175.62 250.94 1175.2 254.54 1171.59 253.08 1174.77 255.23 1171.49 257.37 1175.16 255.95 1175.62 259.82"/><polygon class="cls-4" points="1836.26 103.51 1836.64 98.79 1840.31 100.62 1837.2 97.85 1840.31 95.22 1836.68 97 1836.26 92.58 1835.85 97 1832.33 95.22 1835.44 97.85 1832.22 100.49 1835.82 98.75 1836.26 103.51"/><polygon class="cls-4" points="360.97 197.65 360.28 201.17 356.84 202.05 360.28 203.15 361.01 206.56 361.9 203.04 365.29 202.22 361.95 201.28 360.97 197.65"/><polygon class="cls-4" points="363.49 193.02 363.11 195.07 361.19 195.59 363.11 196.23 363.52 198.23 364.01 196.17 365.9 195.69 364.04 195.14 363.49 193.02"/><polygon class="cls-4" points="366.39 196.13 365.84 198.72 363.1 199.37 365.84 200.18 366.43 202.68 367.13 200.1 369.83 199.49 367.17 198.8 366.39 196.13"/><polygon class="cls-4" points="167.64 78.65 168.47 84.65 171.22 82.45 169.16 85.14 174.56 86.08 169.21 86.9 171.32 89.71 168.57 87.56 167.74 92.9 166.95 87.62 164.25 89.71 166.17 86.79 160.86 86.13 166.12 85.42 164.3 82.39 166.9 84.43 167.64 78.65"/><polygon class="cls-4" points="1386.11 146.99 1383.62 144.49 1386.42 146.81 1385.69 144.63 1386.8 146.67 1387.01 143.33 1387.21 146.6 1388.32 144.67 1387.59 146.81 1390.29 144.49 1387.8 147.1 1390.15 146.39 1388.04 147.38 1391.64 147.59 1387.77 147.8 1390.32 148.89 1387.8 148.12 1390.25 150.72 1387.56 148.47 1388.35 150.68 1387.25 148.57 1387.01 152.06 1386.87 148.57 1385.8 150.54 1386.45 148.4 1383.69 150.79 1386.14 148.19 1383.86 148.92 1386.07 147.83 1382.17 147.66 1386.04 147.45 1383.83 146.43 1386.11 146.99"/><path class="cls-4" d="m637.59,116.96c.08.64.2,1.66.29,2.92.2,2.62.06,3.21.54,3.8.43.53,1.39.63,3.29.83,1.07.11,1.96.15,2.55.17-.57.08-1.46.2-2.55.28-2.19.15-2.73-.03-3.24.5-.25.26-.44.63-.69,3.47-.1,1.21-.16,2.21-.2,2.92-.01-.71-.05-1.72-.15-2.92-.24-2.86-.56-3.28-.74-3.47-.47-.49-.97-.44-2.95-.61-1.33-.11-2.42-.24-3.14-.33.34-.02,1.53-.08,3.19-.17,2.16-.11,2.6-.13,3-.55.37-.4.47-.89.64-3.85.07-1.17.11-2.18.15-2.97v-.02Z"/><path class="cls-4" d="m1590.52,186.06c.04.29.1.75.15,1.31.1,1.18.03,1.45.27,1.71.22.24.7.28,1.65.37.54.05.98.07,1.28.07-.29.04-.73.09-1.28.12-1.1.07-1.37-.01-1.62.22-.13.12-.22.28-.34,1.56-.05.54-.08.99-.1,1.31,0-.32-.02-.77-.07-1.31-.12-1.29-.28-1.48-.37-1.56-.24-.22-.49-.2-1.48-.27-.67-.05-1.21-.11-1.58-.15.17,0,.77-.04,1.6-.07,1.08-.05,1.3-.06,1.5-.25.19-.18.24-.4.32-1.73.03-.53.06-.98.07-1.34h0Z"/><path class="cls-4" d="m1592.33,192.99c.04.23.09.6.13,1.06.09.95.03,1.17.24,1.38.19.19.62.23,1.46.3.48.04.87.05,1.13.06-.25.03-.65.07-1.13.1-.97.05-1.21-.01-1.44.18-.11.09-.2.23-.3,1.26-.05.44-.07.81-.09,1.06,0-.26-.02-.63-.07-1.06-.11-1.04-.25-1.2-.33-1.26-.21-.18-.43-.16-1.31-.22-.59-.04-1.07-.09-1.39-.12.15,0,.68-.03,1.41-.06.96-.04,1.15-.05,1.33-.2.17-.15.21-.33.28-1.4.03-.43.05-.8.07-1.08h.01Z"/><path class="cls-4" d="m1595.86,188.77c.02.16.06.41.08.73.05.65.02.8.15.95.12.13.38.16.91.21.3.03.54.04.7.04-.16.02-.4.05-.7.07-.6.04-.75,0-.89.12-.07.06-.12.16-.19.87-.03.3-.04.55-.05.73,0-.18-.01-.43-.04-.73-.07-.72-.15-.82-.2-.87-.13-.12-.27-.11-.81-.15-.37-.03-.67-.06-.87-.08.09,0,.42-.02.88-.04.6-.03.72-.03.83-.14.1-.1.13-.22.18-.96.02-.29.03-.55.04-.74h-.02Z"/><polygon class="cls-4" points="190.92 972.28 190.61 975.68 187.69 974.36 190.17 976.35 187.69 978.25 190.59 976.96 190.92 980.15 191.25 976.96 194.06 978.25 191.58 976.35 194.14 974.45 191.28 975.71 190.92 972.28"/><polygon class="cls-4" points="862.77 871.6 862.08 880.06 855.43 876.78 861.08 881.74 855.43 886.47 862.02 883.27 862.77 891.2 863.52 883.27 869.92 886.47 864.28 881.74 870.11 877.01 863.59 880.14 862.77 871.6"/><polygon class="cls-4" points="164.34 765.28 166.32 767.45 164.09 765.43 164.67 767.33 163.78 765.55 163.62 768.46 163.45 765.61 162.57 767.3 163.15 765.43 161 767.45 162.98 765.19 161.11 765.8 162.79 764.94 159.92 764.76 163.01 764.57 160.97 763.62 162.98 764.3 161.03 762.03 163.18 763.99 162.54 762.06 163.43 763.9 163.62 760.87 163.73 763.9 164.58 762.18 164.06 764.05 166.27 761.97 164.31 764.24 166.13 763.59 164.36 764.54 167.48 764.7 164.39 764.88 166.16 765.77 164.34 765.28"/><path class="cls-4" d="m1819.01,439.98c-.06-.4-.14-1.04-.21-1.83-.14-1.64-.04-2.02-.39-2.38-.31-.33-1-.4-2.37-.52-.77-.07-1.41-.09-1.84-.1.41-.05,1.05-.13,1.84-.17,1.57-.09,1.96.02,2.33-.31.18-.16.32-.4.49-2.18.08-.76.12-1.39.14-1.83,0,.45.03,1.08.11,1.83.17,1.8.4,2.06.53,2.18.34.31.7.28,2.12.38.96.07,1.74.15,2.26.21-.24.01-1.1.05-2.3.1-1.55.07-1.87.08-2.16.35-.27.25-.34.56-.46,2.42-.05.74-.08,1.37-.11,1.87l.02-.02Z"/><polygon class="cls-4" points="1415.88 426.18 1416.26 422.27 1419.92 423.79 1416.81 421.5 1419.92 419.32 1416.29 420.79 1415.88 417.14 1415.46 420.79 1411.94 419.32 1415.05 421.5 1411.83 423.68 1415.43 422.24 1415.88 426.18"/><polygon class="cls-4" points="1540.49 485.5 1540.88 481.67 1544.63 483.15 1541.45 480.91 1544.63 478.77 1540.92 480.22 1540.49 476.62 1540.07 480.22 1536.46 478.77 1539.65 480.91 1536.36 483.05 1540.03 481.63 1540.49 485.5"/><polygon class="cls-4" points="693.69 158.96 690.15 155.05 694.13 158.68 693.1 155.27 694.67 158.46 694.97 153.24 695.26 158.35 696.83 155.33 695.8 158.68 699.63 155.05 696.1 159.13 699.44 158.02 696.44 159.57 701.55 159.9 696.05 160.23 699.68 161.93 696.1 160.72 699.58 164.79 695.75 161.27 696.88 164.74 695.31 161.44 694.97 166.88 694.77 161.44 693.25 164.52 694.18 161.16 690.25 164.9 693.74 160.83 690.5 161.99 693.64 160.28 688.09 160.01 693.59 159.68 690.45 158.08 693.69 158.96"/><polygon class="cls-4" points="1014.3 99.18 1013.61 107.64 1006.96 104.36 1012.61 109.32 1006.96 114.05 1013.55 110.85 1014.3 118.78 1015.05 110.85 1021.45 114.05 1015.81 109.32 1021.64 104.59 1015.12 107.72 1014.3 99.18"/><polygon class="cls-4" points="1597.68 310.69 1593.17 305.27 1598.25 310.31 1596.93 305.58 1598.94 310 1599.32 302.75 1599.69 309.85 1601.7 305.65 1600.38 310.31 1605.27 305.27 1600.76 310.92 1605.02 309.39 1601.2 311.53 1607.72 311.98 1600.7 312.44 1605.34 314.81 1600.76 313.13 1605.21 318.77 1600.32 313.89 1601.76 318.7 1599.75 314.12 1599.32 321.67 1599.06 314.12 1597.12 318.39 1598.31 313.74 1593.29 318.93 1597.75 313.28 1593.61 314.88 1597.62 312.52 1590.53 312.14 1597.56 311.68 1593.55 309.47 1597.68 310.69"/><polygon class="cls-4" points="411.52 863.52 411.22 866.92 408.29 865.61 410.77 867.6 408.29 869.5 411.19 868.21 411.52 871.4 411.85 868.21 414.66 869.5 412.18 867.6 414.75 865.7 411.88 866.95 411.52 863.52"/><polygon class="cls-4" points="1774.73 408.22 1775.11 404.38 1778.86 405.87 1775.68 403.62 1778.86 401.48 1775.15 402.93 1774.73 399.34 1774.3 402.93 1770.7 401.48 1773.88 403.62 1770.59 405.77 1774.27 404.35 1774.73 408.22"/></g><g id="lune"><path class="cls-5" d="m1716.03,193.32c0-28.85,25.23-52.33,56.66-53.05-13.85-11.27-32.18-18.13-52.28-18.13-43.2,0-78.22,31.68-78.22,70.75s35.02,70.75,78.22,70.75c19.61,0,37.54-6.53,51.27-17.32-30.96-1.19-55.66-24.47-55.66-53.01h.01Z"/><polygon class="cls-4" points="145.26 809.6 144.88 812.22 143 812.87 144.88 813.69 145.29 816.22 145.77 813.61 147.63 812.99 145.8 812.3 145.26 809.6"/><polygon class="cls-4" points="146.65 806.15 146.43 807.68 145.38 808.06 146.43 808.54 146.66 810.03 146.93 808.5 147.97 808.14 146.95 807.73 146.65 806.15"/><polygon class="cls-4" points="148.23 808.47 147.93 810.39 146.43 810.87 147.93 811.48 148.26 813.34 148.64 811.41 150.12 810.96 148.66 810.45 148.23 808.47"/><polygon class="cls-4" points="1789.42 4.31 1790.45 15.05 1793.82 11.1 1791.29 15.93 1797.92 17.61 1791.35 19.09 1793.94 24.11 1790.57 20.27 1789.54 29.83 1788.58 20.37 1785.27 24.11 1787.62 18.89 1781.11 17.71 1787.56 16.43 1785.33 11.01 1788.52 14.65 1789.42 4.31"/><polygon class="cls-4" points="1597.2 792.73 1596.13 791.39 1597.33 792.64 1597.02 791.47 1597.5 792.56 1597.59 790.77 1597.68 792.52 1598.15 791.48 1597.84 792.64 1599 791.39 1597.93 792.79 1598.94 792.41 1598.03 792.94 1599.57 793.05 1597.91 793.16 1599.01 793.75 1597.93 793.33 1598.98 794.73 1597.82 793.52 1598.17 794.71 1597.69 793.58 1597.59 795.45 1597.53 793.58 1597.07 794.64 1597.35 793.48 1596.16 794.77 1597.22 793.37 1596.24 793.77 1597.19 793.18 1595.51 793.09 1597.17 792.98 1596.22 792.43 1597.2 792.73"/><path class="cls-4" d="m1311.75,220.39c.04.48.11,1.23.16,2.17.11,1.95.03,2.39.3,2.82.24.39.76.47,1.8.61.59.08,1.08.11,1.4.12-.31.06-.8.15-1.4.2-1.2.11-1.5-.02-1.78.37-.14.19-.24.47-.38,2.58-.06.9-.09,1.64-.11,2.17,0-.53-.03-1.28-.08-2.17-.13-2.13-.31-2.44-.4-2.58-.26-.37-.53-.33-1.62-.45-.73-.08-1.33-.18-1.72-.25.19-.01.84-.06,1.75-.12,1.18-.08,1.42-.09,1.64-.41.21-.3.26-.66.35-2.86.04-.87.06-1.62.08-2.21h0Z"/><path class="cls-4" d="m77.59,438.92c.03.24.06.63.09,1.1.06.99.02,1.21.17,1.43.13.2.43.24,1.01.31.33.04.6.06.78.06-.17.03-.45.08-.78.1-.67.06-.83-.01-.99.19-.08.1-.14.24-.21,1.31-.03.46-.05.83-.06,1.1,0-.27-.01-.65-.05-1.1-.07-1.08-.17-1.24-.23-1.31-.14-.19-.3-.17-.9-.23-.41-.04-.74-.09-.96-.12.1,0,.47-.03.98-.06.66-.04.79-.05.92-.21.11-.15.14-.34.2-1.45.02-.44.03-.82.05-1.12h-.02Z"/><path class="cls-4" d="m78.69,444.73c.02.2.05.51.08.89.05.8.02.98.15,1.16.12.16.38.19.89.25.29.03.53.05.69.05-.15.03-.39.06-.69.08-.59.05-.74,0-.88.15-.07.08-.12.19-.19,1.06-.03.37-.04.68-.05.89,0-.22-.01-.52-.04-.89-.06-.88-.15-1-.2-1.06-.13-.15-.26-.14-.8-.19-.36-.03-.65-.07-.85-.1.09,0,.41-.02.86-.05.58-.03.7-.04.81-.17.1-.12.13-.27.17-1.18.02-.36.03-.67.04-.91v.02Z"/><path class="cls-4" d="m80.84,441.19c.01.13.03.35.05.61.03.55,0,.67.09.8.07.11.23.13.55.17.18.02.33.03.43.03-.1.02-.25.04-.43.06-.37.03-.46,0-.55.1-.04.05-.07.13-.12.73-.02.25-.03.46-.03.61,0-.15,0-.36-.02-.61-.04-.6-.09-.69-.12-.73-.08-.1-.16-.09-.5-.13-.22-.02-.41-.05-.53-.07.06,0,.26-.02.54-.03.36-.02.44-.03.5-.12.06-.08.08-.19.11-.81.01-.25.02-.46.02-.62h.01Z"/><polygon class="cls-4" points="31.27 868.45 31.14 870.28 29.88 869.57 30.95 870.64 29.88 871.66 31.13 870.97 31.27 872.68 31.41 870.97 32.62 871.66 31.55 870.64 32.65 869.62 31.42 870.29 31.27 868.45"/><polygon class="cls-4" points="127.57 995.4 127.44 997.22 126.19 996.52 127.25 997.58 126.19 998.6 127.43 997.91 127.57 999.62 127.72 997.91 128.92 998.6 127.86 997.58 128.96 996.57 127.73 997.24 127.57 995.4"/><polygon class="cls-4" points="1842.46 996.76 1842.67 995.57 1843.73 995.28 1842.67 994.91 1842.44 993.76 1842.17 994.94 1841.12 995.22 1842.15 995.54 1842.46 996.76"/><polygon class="cls-4" points="1841.68 998.32 1841.79 997.63 1842.39 997.45 1841.79 997.24 1841.67 996.56 1841.52 997.26 1840.93 997.42 1841.51 997.6 1841.68 998.32"/><polygon class="cls-4" points="1840.78 997.27 1840.95 996.4 1841.8 996.18 1840.95 995.91 1840.77 995.06 1840.55 995.94 1839.72 996.14 1840.54 996.37 1840.78 997.27"/><polygon class="cls-4" points="1683.21 1061.13 1682.95 1059.11 1682.1 1059.85 1682.74 1058.95 1681.07 1058.63 1682.72 1058.35 1682.07 1057.41 1682.92 1058.13 1683.18 1056.33 1683.42 1058.11 1684.26 1057.41 1683.67 1058.39 1685.31 1058.61 1683.68 1058.85 1684.24 1059.87 1683.44 1059.19 1683.21 1061.13"/><polygon class="cls-4" points="262.85 1040.16 263.71 1041.33 262.75 1040.25 263 1041.27 262.62 1040.31 262.55 1041.87 262.48 1040.35 262.1 1041.25 262.34 1040.25 261.42 1041.33 262.27 1040.12 261.47 1040.44 262.19 1039.98 260.96 1039.89 262.29 1039.79 261.41 1039.28 262.27 1039.64 261.43 1038.42 262.36 1039.47 262.08 1038.44 262.46 1039.43 262.55 1037.8 262.59 1039.43 262.96 1038.51 262.74 1039.51 263.68 1038.39 262.84 1039.61 263.62 1039.26 262.87 1039.77 264.2 1039.85 262.88 1039.95 263.64 1040.43 262.85 1040.16"/><path class="cls-4" d="m1760.51,994.84c-.03-.22-.06-.56-.09-.98-.06-.88-.02-1.08-.17-1.28-.13-.18-.43-.21-1.02-.28-.33-.04-.61-.05-.79-.06.18-.03.45-.07.79-.09.68-.05.84.01,1-.17.08-.09.14-.21.21-1.17.03-.41.05-.74.06-.98,0,.24.01.58.05.98.07.96.17,1.1.23,1.17.15.17.3.15.91.2.41.04.75.08.97.11-.1,0-.47.03-.99.06-.67.04-.8.04-.93.19-.12.13-.15.3-.2,1.3-.02.4-.04.74-.05,1h.02Z"/><polygon class="cls-4" points="1535.45 1065.65 1535.58 1063.83 1536.84 1064.53 1535.77 1063.46 1536.84 1062.45 1535.6 1063.14 1535.45 1061.43 1535.31 1063.14 1534.1 1062.45 1535.17 1063.46 1534.07 1064.48 1535.3 1063.81 1535.45 1065.65"/><polygon class="cls-4" points="1845.52 150.32 1845.68 148.26 1847.29 149.06 1845.93 147.86 1847.29 146.71 1845.7 147.49 1845.52 145.56 1845.33 147.49 1843.78 146.71 1845.15 147.86 1843.74 149.01 1845.32 148.25 1845.52 150.32"/><polygon class="cls-4" points="1884.47 876.05 1884.68 874.86 1885.75 874.57 1884.68 874.19 1884.46 873.05 1884.18 874.23 1883.14 874.51 1884.17 874.82 1884.47 876.05"/><polygon class="cls-4" points="1883.69 877.61 1883.81 876.91 1884.4 876.74 1883.81 876.52 1883.68 875.85 1883.53 876.55 1882.95 876.71 1883.52 876.89 1883.69 877.61"/><polygon class="cls-4" points="1882.8 876.56 1882.96 875.69 1883.81 875.47 1882.96 875.2 1882.78 874.35 1882.57 875.22 1881.73 875.43 1882.55 875.66 1882.8 876.56"/><polygon class="cls-4" points="1736.85 955.24 1736.59 953.22 1735.74 953.96 1736.38 953.06 1734.71 952.74 1736.36 952.46 1735.71 951.52 1736.56 952.24 1736.82 950.44 1737.06 952.22 1737.9 951.52 1737.31 952.5 1738.95 952.72 1737.32 952.96 1737.88 953.98 1737.08 953.3 1736.85 955.24"/><polygon class="cls-4" points="1535.76 1051.54 1536.61 1052.71 1535.65 1051.62 1535.9 1052.64 1535.52 1051.69 1535.45 1053.25 1535.38 1051.72 1535 1052.62 1535.25 1051.62 1534.33 1052.71 1535.18 1051.49 1534.37 1051.82 1535.1 1051.36 1533.86 1051.26 1535.19 1051.16 1534.31 1050.65 1535.18 1051.01 1534.34 1049.8 1535.26 1050.85 1534.99 1049.81 1535.37 1050.8 1535.45 1049.17 1535.5 1050.8 1535.87 1049.88 1535.64 1050.88 1536.59 1049.76 1535.75 1050.98 1536.53 1050.64 1535.77 1051.14 1537.11 1051.23 1535.78 1051.33 1536.54 1051.8 1535.76 1051.54"/><path class="cls-4" d="m1864.53,167.35c-.03-.22-.06-.56-.09-.98-.06-.88-.02-1.08-.17-1.28-.13-.18-.43-.21-1.02-.28-.33-.04-.61-.05-.79-.06.18-.03.45-.07.79-.09.68-.05.84.01,1-.17.08-.09.14-.21.21-1.17.03-.41.05-.74.06-.98,0,.24.01.58.05.98.07.96.17,1.1.23,1.17.15.17.3.15.91.2.41.04.75.08.97.11-.1,0-.47.03-.99.06-.67.04-.8.04-.93.19-.12.13-.15.3-.2,1.3-.02.4-.04.74-.05,1h.02Z"/><path class="cls-4" d="m1918.79,986.97c-.02-.15-.04-.39-.06-.69-.04-.62-.01-.76-.12-.9-.1-.12-.31-.15-.72-.2-.24-.03-.43-.04-.56-.04.13-.02.32-.05.56-.07.48-.04.6,0,.71-.12.06-.06.1-.15.15-.82.02-.29.04-.52.04-.69,0,.17.01.41.03.69.05.68.12.78.16.82.1.12.21.11.65.14.29.03.53.06.69.08-.07,0-.34.02-.7.04-.47.03-.57.03-.66.13-.08.09-.1.21-.14.91-.01.28-.03.52-.03.7v.02Z"/><path class="cls-4" d="m1917.99,983.32c-.02-.12-.04-.32-.06-.56-.04-.5-.01-.62-.11-.73-.08-.1-.27-.12-.64-.16-.21-.02-.38-.03-.5-.03.11-.02.28-.04.5-.05.43-.03.53,0,.63-.1.05-.05.09-.12.13-.67.02-.23.03-.42.04-.56,0,.14,0,.33.03.56.05.55.11.63.14.67.09.09.19.09.57.12.26.02.47.05.61.06-.07,0-.3.02-.62.03-.42.02-.51.02-.58.11-.07.08-.09.17-.12.74-.01.23-.02.42-.03.57h.01Z"/><path class="cls-4" d="m1916.44,985.54c0-.08-.02-.22-.04-.38-.02-.34,0-.42-.07-.5-.05-.07-.17-.08-.4-.11-.13-.01-.24-.02-.31-.02.07-.01.18-.03.31-.04.26-.02.33,0,.39-.07.03-.03.05-.08.08-.46.01-.16.02-.29.02-.38,0,.09,0,.23.02.38.03.38.07.43.09.46.06.06.12.06.36.08.16.01.29.03.38.04-.04,0-.19.01-.39.02-.26.01-.31.02-.36.07-.05.05-.06.12-.08.51,0,.15-.01.29-.02.39h.02Z"/><polygon class="cls-4" points="1550 890.75 1550.17 888.7 1551.78 889.49 1550.41 888.29 1551.78 887.14 1550.18 887.92 1550 885.99 1549.82 887.92 1548.27 887.14 1549.63 888.29 1548.22 889.44 1549.8 888.68 1550 890.75"/><polygon class="cls-4" points="1844.7 35.93 1844.86 33.39 1846.44 34.38 1845.1 32.89 1846.44 31.48 1844.88 32.44 1844.7 30.07 1844.52 32.44 1843.01 31.48 1844.34 32.89 1842.96 34.31 1844.51 33.37 1844.7 35.93"/><polygon class="cls-4" points="167.16 412.41 166.86 414.3 165.39 414.77 166.86 415.36 167.18 417.19 167.56 415.3 169.02 414.86 167.58 414.36 167.16 412.41"/><polygon class="cls-4" points="168.24 409.93 168.08 411.03 167.26 411.31 168.08 411.65 168.26 412.72 168.47 411.62 169.28 411.36 168.48 411.07 168.24 409.93"/><polygon class="cls-4" points="169.49 411.6 169.25 412.99 168.08 413.33 169.25 413.77 169.51 415.11 169.81 413.72 170.97 413.4 169.82 413.03 169.49 411.6"/><polygon class="cls-4" points="84.14 348.59 84.5 351.81 85.68 350.63 84.79 352.08 87.11 352.58 84.81 353.02 85.72 354.52 84.54 353.37 84.18 356.24 83.84 353.4 82.69 354.52 83.51 352.96 81.23 352.61 83.49 352.22 82.71 350.6 83.82 351.69 84.14 348.59"/><polygon class="cls-4" points="1640.39 830.24 1639.32 828.9 1640.52 830.15 1640.21 828.98 1640.68 830.07 1640.77 828.28 1640.86 830.04 1641.34 829 1641.03 830.15 1642.18 828.9 1641.11 830.3 1642.12 829.92 1641.22 830.45 1642.76 830.56 1641.1 830.68 1642.2 831.26 1641.11 830.85 1642.17 832.24 1641.01 831.04 1641.35 832.22 1640.88 831.09 1640.77 832.96 1640.71 831.09 1640.25 832.15 1640.54 831 1639.35 832.28 1640.4 830.89 1639.42 831.28 1640.37 830.7 1638.7 830.6 1640.36 830.49 1639.41 829.94 1640.39 830.24"/><path class="cls-4" d="m285.95,369.14c.04.34.09.89.13,1.56.08,1.4.03,1.72.23,2.04.19.28.6.34,1.41.44.46.06.84.08,1.1.09-.25.05-.63.11-1.1.15-.94.08-1.17-.02-1.39.27-.11.14-.19.34-.3,1.86-.04.65-.07,1.19-.08,1.56,0-.38-.02-.92-.06-1.56-.1-1.54-.24-1.76-.32-1.86-.2-.26-.42-.24-1.27-.32-.57-.06-1.04-.13-1.35-.18.15,0,.66-.04,1.37-.09.93-.06,1.11-.07,1.29-.3.16-.21.2-.48.27-2.07.03-.63.05-1.17.06-1.59h0Z"/><path class="cls-4" d="m1728.17,851.2c.02.15.04.4.06.7.04.63.01.78.12.92.09.13.3.15.71.2.23.03.42.04.55.04-.12.02-.31.05-.55.07-.47.04-.59,0-.7.12-.05.06-.1.15-.15.84-.02.29-.03.53-.04.7,0-.17-.01-.41-.03-.7-.05-.69-.12-.79-.16-.84-.1-.12-.21-.11-.63-.15-.29-.03-.52-.06-.68-.08.07,0,.33-.02.69-.04.46-.03.56-.03.64-.13s.1-.22.14-.93c.01-.28.02-.53.03-.72h0Z"/><path class="cls-4" d="m1728.95,854.91c.02.13.04.32.06.57.04.51.01.63.1.74.08.1.26.12.63.16.2.02.37.03.49.03-.11.02-.28.04-.49.05-.42.03-.52,0-.62.1-.05.05-.08.12-.13.68-.02.24-.03.43-.04.57,0-.14,0-.34-.03-.57-.05-.56-.11-.64-.14-.68-.09-.1-.18-.09-.56-.12-.25-.02-.46-.05-.6-.06.06,0,.29-.02.61-.03.41-.02.49-.02.57-.11.07-.08.09-.17.12-.75.01-.23.02-.43.03-.58h0Z"/><path class="cls-4" d="m1730.46,852.65c0,.09.02.22.03.39.02.35,0,.43.06.51.05.07.16.08.39.11.13.01.23.02.3.02-.07.01-.17.03-.3.04-.26.02-.32,0-.38.07-.03.03-.05.08-.08.46-.01.16-.02.3-.02.39,0-.1,0-.23-.02-.39-.03-.38-.07-.44-.09-.46-.06-.07-.12-.06-.35-.08-.16-.01-.29-.03-.37-.04.04,0,.18-.01.38-.02.26-.01.31-.02.35-.07.04-.05.06-.12.08-.52,0-.16.01-.29.02-.4h0Z"/><polygon class="cls-4" points="67.14 1017.83 67.01 1019.65 65.75 1018.94 66.82 1020.01 65.75 1021.03 66.99 1020.34 67.14 1022.05 67.28 1020.34 68.49 1021.03 67.42 1020.01 68.52 1018.99 67.29 1019.67 67.14 1017.83"/><polygon class="cls-4" points="355.65 963.83 355.35 968.38 352.5 966.62 354.92 969.28 352.5 971.81 355.33 970.09 355.65 974.35 355.97 970.09 358.72 971.81 356.3 969.28 358.8 966.74 356 968.42 355.65 963.83"/><polygon class="cls-4" points="55.72 906.82 56.57 907.98 55.61 906.9 55.86 907.92 55.48 906.97 55.41 908.53 55.34 907 54.96 907.9 55.21 906.9 54.29 907.98 55.14 906.77 54.34 907.1 55.06 906.64 53.83 906.54 55.15 906.44 54.28 905.93 55.14 906.29 54.3 905.08 55.22 906.13 54.95 905.09 55.33 906.08 55.41 904.45 55.46 906.08 55.83 905.16 55.6 906.16 56.55 905.04 55.71 906.26 56.49 905.91 55.73 906.42 57.07 906.51 55.74 906.6 56.5 907.08 55.72 906.82"/><path class="cls-4" d="m1837.29,216.37c-.03-.22-.06-.56-.09-.98-.06-.88-.02-1.08-.17-1.28-.13-.18-.43-.21-1.02-.28-.33-.04-.61-.05-.79-.06.18-.03.45-.07.79-.09.68-.05.84.01,1-.17.08-.09.14-.21.21-1.17.03-.41.05-.74.06-.98,0,.24.01.58.05.98.07.96.17,1.1.23,1.17.15.17.3.15.91.2.41.04.75.08.97.11-.1,0-.47.03-.99.06-.67.04-.8.04-.93.19-.12.13-.15.3-.2,1.3-.02.4-.04.74-.05,1h.02Z"/><polygon class="cls-4" points="1653.17 979.97 1653.34 977.87 1654.91 978.68 1653.57 977.46 1654.91 976.29 1653.35 977.08 1653.17 975.12 1652.99 977.08 1651.48 976.29 1652.82 977.46 1651.44 978.63 1652.98 977.85 1653.17 979.97"/><polygon class="cls-4" points="379.69 70.78 379.85 68.72 381.46 69.52 380.1 68.32 381.46 67.17 379.87 67.95 379.69 66.02 379.5 67.95 377.96 67.17 379.32 68.32 377.91 69.47 379.49 68.71 379.69 70.78"/><polygon class="cls-4" points="310.04 391.66 308.52 389.57 310.23 391.52 309.79 389.69 310.46 391.4 310.59 388.59 310.72 391.34 311.39 389.72 310.95 391.52 312.59 389.57 311.08 391.75 312.51 391.16 311.22 391.99 313.42 392.16 311.05 392.34 312.61 393.26 311.08 392.61 312.57 394.79 310.93 392.9 311.41 394.76 310.74 392.99 310.59 395.91 310.51 392.99 309.85 394.64 310.25 392.84 308.57 394.85 310.06 392.67 308.67 393.29 310.02 392.37 307.64 392.22 310 392.05 308.65 391.19 310.04 391.66"/><polygon class="cls-4" points="1491.72 33.6 1491.43 38.14 1488.57 36.38 1490.99 39.04 1488.57 41.58 1491.4 39.86 1491.72 44.12 1492.05 39.86 1494.79 41.58 1492.37 39.04 1494.87 36.51 1492.07 38.18 1491.72 33.6"/><polygon class="cls-4" points="1731.25 918.03 1729.31 915.13 1731.49 917.83 1730.92 915.29 1731.78 917.66 1731.95 913.78 1732.11 917.58 1732.97 915.33 1732.4 917.83 1734.5 915.13 1732.57 918.15 1734.4 917.34 1732.75 918.48 1735.55 918.73 1732.54 918.97 1734.53 920.24 1732.57 919.34 1734.48 922.37 1732.38 919.75 1733 922.33 1732.13 919.87 1731.95 923.92 1731.84 919.87 1731 922.16 1731.51 919.67 1729.36 922.45 1731.27 919.42 1729.49 920.28 1731.22 919.01 1728.17 918.81 1731.19 918.56 1729.47 917.38 1731.25 918.03"/><polygon class="cls-4" points="161.87 959.5 161.74 961.33 160.48 960.62 161.55 961.69 160.48 962.71 161.73 962.02 161.87 963.73 162.01 962.02 163.22 962.71 162.15 961.69 163.26 960.67 162.02 961.34 161.87 959.5"/><polygon class="cls-4" points="1818.27 199.34 1818.44 197.28 1820.05 198.08 1818.68 196.87 1820.05 195.72 1818.45 196.5 1818.27 194.57 1818.09 196.5 1816.54 195.72 1817.91 196.87 1816.5 198.02 1818.07 197.26 1818.27 199.34"/></g><g id="nuage"><g class="cls-1"><path class="cls-3" d="m391.16,831.94c-1.18-60.24-64.28-108.79-141.97-108.79-14.46,0-28.41,1.69-41.55,4.81-31.6-44.68-102.52-75.81-184.95-75.81-111.84,0-202.5,57.31-202.5,128,0,30.73,17.14,58.93,45.7,80.99-21.26,8.45-35.7,24.99-35.7,44.01,0,27.61,30.44,50,68,50s68-22.39,68-50c0-.69-.03-1.38-.07-2.07,14.71,2.7,30.11,4.38,45.99,4.9,14.1,30.59,48.22,52.17,88.08,52.17,30.46,0,57.57-12.6,74.96-32.2,21.56,10.27,46.91,16.2,74.04,16.2,20.62,0,40.21-3.42,57.89-9.57,16.29,14.96,41.64,24.57,70.11,24.57,49.15,0,89-28.65,89-64,0-31.93-32.51-58.39-75.03-63.21h0Z"/><path class="cls-3" d="m1340.43,1001.24c2.43-60.24,132.66-108.79,292.97-108.79,29.83,0,58.62,1.69,85.74,4.81,65.21-44.68,211.56-75.81,381.66-75.81,230.79,0,417.88,57.31,417.88,128,0,30.73-35.37,58.93-94.3,80.99,43.87,8.45,73.67,24.99,73.67,44.01,0,27.61-62.83,50-140.32,50s-140.32-22.39-140.32-50c0-.69.07-1.38.15-2.07-30.36,2.7-62.13,4.38-94.91,4.9-29.09,30.59-99.51,52.17-181.76,52.17-62.86,0-118.8-12.6-154.68-32.2-44.49,10.27-96.81,16.2-152.8,16.2-42.55,0-82.98-3.42-119.46-9.57-33.62,14.96-85.93,24.57-144.68,24.57-101.43,0-183.66-28.65-183.66-64,0-31.93,67.09-58.39,154.83-63.21h0Z"/><path class="cls-3" d="m1615.79,719.54c1.29-45.53,70.35-82.23,155.36-82.23,15.82,0,31.09,1.27,45.47,3.64,34.58-33.77,112.19-57.3,202.39-57.3,122.38,0,221.59,43.32,221.59,96.75,0,23.23-18.76,44.54-50.01,61.22,23.26,6.39,39.06,18.89,39.06,33.26,0,20.87-33.32,37.79-74.41,37.79s-74.41-16.92-74.41-37.79c0-.52.04-1.04.08-1.56-16.1,2.04-32.95,3.31-50.33,3.7-15.43,23.12-52.77,39.44-96.39,39.44-33.33,0-63-9.53-82.02-24.34-23.59,7.76-51.34,12.24-81.03,12.24-22.56,0-44-2.59-63.35-7.24-17.83,11.31-45.57,18.57-76.72,18.57-53.79,0-97.39-21.66-97.39-48.38,0-24.13,35.58-44.14,82.1-47.78h0Z"/></g></g></svg>