<?xml version="1.0" encoding="UTF-8"?><svg id="Calque_1" xmlns="http://www.w3.org/2000/svg" xmlns:xlink="http://www.w3.org/1999/xlink" viewBox="0 0 30 30"><defs><style>.cls-1{fill:none;}.cls-1,.cls-2,.cls-3,.cls-4,.cls-5,.cls-6,.cls-7{stroke:#1a1a1a;stroke-linecap:round;stroke-linejoin:round;stroke-width:.75px;}.cls-2{fill:url(#Dégradé_sans_nom_2);}.cls-8{fill:url(#Dégradé_sans_nom_6);}.cls-8,.cls-9{stroke-width:0px;}.cls-9{fill:url(#Dégradé_sans_nom_7);}.cls-3{fill:url(#Dégradé_sans_nom_12);}.cls-4{fill:url(#Dégradé_sans_nom_13);}.cls-5{fill:url(#Dégradé_sans_nom_13-2);}.cls-6{fill:#fafafa;}.cls-7{fill:red;}</style><radialGradient id="Dégradé_sans_nom_6" cx="7.84" cy="10.56" fx="7.84" fy="10.56" r="5.47" gradientUnits="userSpaceOnUse"><stop offset="0" stop-color="#955aae"/><stop offset=".27" stop-color="#9258aa"/><stop offset=".48" stop-color="#8a53a0"/><stop offset=".68" stop-color="#7d4b8f"/><stop offset=".86" stop-color="#6b3f77"/><stop offset=".93" stop-color="#643b6e"/></radialGradient><radialGradient id="Dégradé_sans_nom_7" cx="14.21" cy="17.43" fx="14.21" fy="17.43" r="10.2" gradientUnits="userSpaceOnUse"><stop offset="0" stop-color="#955aae"/><stop offset=".46" stop-color="#9359ac"/><stop offset=".62" stop-color="#8e55a5"/><stop offset=".74" stop-color="#855099"/><stop offset=".83" stop-color="#784788"/><stop offset=".91" stop-color="#673d72"/><stop offset=".93" stop-color="#643b6e"/></radialGradient><linearGradient id="Dégradé_sans_nom_12" x1="8.05" y1="10.84" x2="6.07" y2="7.51" gradientUnits="userSpaceOnUse"><stop offset="0" stop-color="#ba8dca"/><stop offset=".85" stop-color="#775c7d"/></linearGradient><linearGradient id="Dégradé_sans_nom_2" x1="13.96" y1="11.92" x2="14" y2="9.19" gradientUnits="userSpaceOnUse"><stop offset=".05" stop-color="#ba8dca"/><stop offset=".31" stop-color="#ab82b9"/><stop offset=".82" stop-color="#85668e"/><stop offset="1" stop-color="#775c7d"/></linearGradient><linearGradient id="Dégradé_sans_nom_13" x1="11.39" y1="10.94" x2="11.22" y2="9.9" gradientUnits="userSpaceOnUse"><stop offset="0" stop-color="#ba8dca"/><stop offset=".27" stop-color="#ab82b9"/><stop offset=".81" stop-color="#85668e"/><stop offset="1" stop-color="#775c7d"/></linearGradient><linearGradient id="Dégradé_sans_nom_13-2" x1="103.47" y1="10.95" x2="103.31" y2="9.9" gradientTransform="translate(120.48) rotate(-180) scale(1 -1)" xlink:href="#Dégradé_sans_nom_13"/></defs><polygon class="cls-8" points="4.68 15.62 3.16 10.37 4.32 6.04 5.99 5.5 9.97 7.18 12.53 9.59 4.68 15.62"/><path class="cls-9" d="m24.07,17.43c.02.15.37,3.34-1.76,5.75-2.07,2.35-5.14,2.4-8.09,2.45-2.68.05-4.93.08-6.97-1.54-1.91-1.52-3.25-4.18-2.87-6.65.2-1.28.84-2.62,1.76-4.1.78-1.26,1.1-1.88,2.05-2.63,1.94-1.54,4.43-1.45,6.04-1.46,1.62-.01,3.94-.03,5.96,1.52,1.22.93,1.8,2.31,2.39,3.35.61,1.07,1.31,1.89,1.49,3.32Z"/><path class="cls-3" d="m10.73,9.49c-1.76-1.38-4.06-2.8-4.72-2.17-.74.72-.9,1.92-.74,3.38.11.99.48,2.23.85,2.71.45-.61.82-1.7,1.99-2.61,1.08-.84,2.11-1.27,2.62-1.32Z"/><path class="cls-2" d="m12.92,9.26c.02.22.16,2.9,1.08,2.91,1.08.01,1.05-2.73,1.08-2.94"/><path class="cls-4" d="m10.73,9.91c.01.47.15,1.37.81,1.21.29-.13.31-.93.13-1.54"/><path class="cls-5" d="m17.66,9.92c-.01.47-.15,1.37-.81,1.21-.29-.13-.31-.93-.13-1.54"/><path class="cls-1" d="m5.12,14.25c-.13.3-2.03,4.93.53,8.35,2.09,2.8,5.7,2.81,8.27,2.82,2.36,0,7.43.03,9.44-3.62,1.31-2.38.64-5.09.1-6.56-.18-.49-.35-.85-.43-1"/><path class="cls-1" d="m12.32,9.04c-3.3-2.96-6.35-4.21-7.77-3.19-.61.44-.78,1.19-.98,2.13-.64,2.96.24,5.64.99,7.28"/><path class="cls-1" d="m11.07,9.59c.59-.28,1.75-.74,3.27-.72,1.4.02,2.47.44,3.05.72"/><ellipse class="cls-1" cx="14.23" cy="15.82" rx=".66" ry=".19"/><path class="cls-1" d="m14.23,16.29c0,1.41-.48,2.35-1,2.4-.42.04-.8-.51-.91-.67"/><path class="cls-1" d="m14.22,16.37c0,1.41.48,2.35,1,2.4.42.04.8-.51.91-.67"/><line class="cls-1" x1="8.89" y1="15.62" x2="8.89" y2="16.94"/><line class="cls-1" x1="18.98" y1="15.62" x2="18.98" y2="16.94"/><path class="cls-1" d="m.74,19.54c.58-.44,1.72-1.18,3.28-1.36,1.8-.2,3.19.47,3.82.83"/><path class="cls-1" d="m.61,21.72c.48-.59,1.47-1.62,3.05-2.23,1.82-.7,3.44-.44,4.18-.27"/><path class="cls-1" d="m.86,24.29c.38-.7,1.18-1.97,2.68-2.96,1.73-1.15,3.45-1.3,4.25-1.32"/><path class="cls-1" d="m27.34,18.96c-.58-.44-1.72-1.18-3.28-1.36-1.8-.2-3.19.47-3.82.83"/><path class="cls-1" d="m27.47,21.14c-.48-.59-1.47-1.62-3.05-2.23-1.82-.7-3.44-.44-4.18-.27"/><path class="cls-1" d="m27.23,23.71c-.38-.7-1.18-1.97-2.68-2.96-1.73-1.15-3.45-1.3-4.25-1.32"/><polygon class="cls-7" points="16.45 8.25 18.94 11.24 19.5 11.74 20.39 12.13 22.81 12.82 23.89 13.14 24.21 12.47 24.27 11.8 24.04 11.14 23.85 10.97 24.21 9.86 24.95 8.68 26.02 7.79 26.91 7.43 26.82 6.99 26.86 6.58 26.7 6.09 26.81 5.62 27.01 5.35 26.29 5.02 25.35 4.67 24.04 4.41 22.73 4.38 21.84 4.47 20.64 4.78 19.74 5.22 18.81 5.78 18.02 6.41 17.28 7.15 16.45 8.25"/><path class="cls-6" d="m16.47,8.25c-.47-.57-1.14-.73-1.49-.5-.41.27-.59,1.2.02,1.97.64.82,1.2,1.48,1.62,1.97,1.25,1.44,1.6,1.68,1.83,1.81.63.38,1.25.55,2.13.79.73.2,1,.21,1.7.43.68.21,1.21.45,1.55.62.71-.04,1.23-.6,1.22-1.13,0-.36-.25-.69-.6-.87-.58-.19-1.43-.46-2.47-.76-1.69-.48-2.01-.5-2.54-.88-.53-.38-.59-.62-1.72-1.99-.52-.63-.96-1.13-1.26-1.45Z"/><path class="cls-6" d="m26.88,6.58c-.11.36-.02.74.24.96.31.27.79.28,1.16,0,.43.08.86-.15,1.03-.52.13-.3.09-.65-.11-.92.14-.39.02-.81-.28-1.04-.34-.25-.83-.21-1.16.12-.33-.07-.67.07-.87.34-.23.31-.24.74,0,1.05Z"/><path class="cls-1" d="m26.99,5.37c-.53-.31-2.61-1.43-5.36-.83-3.23.71-4.89,3.27-5.16,3.71"/><path class="cls-1" d="m21.25,9.83c.94.09,1.58.44,1.91.65.22.14.44.29.64.47.24.22.44.49.49.86.09.55-.26,1.14-.39,1.34"/><path class="cls-1" d="m26.9,7.42c-.35.11-1.22.44-1.96,1.3-.82.95-.98,1.97-1.03,2.33"/></svg>