<?xml version="1.0" encoding="UTF-8"?><svg id="Calque_1" xmlns="http://www.w3.org/2000/svg" viewBox="0 0 30 30"><defs><style>.cls-1,.cls-2{fill:none;}.cls-1,.cls-2,.cls-3{stroke:#1a1a1a;stroke-linecap:round;stroke-linejoin:round;}.cls-2,.cls-3{stroke-width:.75px;}.cls-4,.cls-5,.cls-6{stroke-width:0px;}.cls-3,.cls-5{fill:#1a1a1a;}.cls-6{fill:#fbfbfb;}</style></defs><polygon class="cls-5" points="4.75 15.06 3.14 9.27 4.37 4.51 6.15 3.91 10.38 5.77 13.1 8.42 4.75 15.06"/><polygon class="cls-5" points="24.58 15.69 26.32 9.43 25.09 4.68 23.31 4.07 19.08 5.93 16.36 8.58 24.58 15.69"/><path class="cls-3" d="m25.38,17.05c.02.16.4,3.68-1.87,6.33-2.21,2.58-5.47,2.64-8.6,2.7-2.85.05-5.24.09-7.41-1.7-2.03-1.67-3.46-4.6-3.06-7.32.21-1.41.9-2.89,1.87-4.51.83-1.39,1.17-2.07,2.18-2.9,2.06-1.7,4.71-1.6,6.42-1.61,1.72-.01,4.19-.03,6.34,1.67,1.29,1.02,1.91,2.55,2.55,3.69.65,1.17,1.39,2.09,1.58,3.66Z"/><path class="cls-1" d="m16.54,7.81c3.51-3.26,6.75-4.63,8.26-3.52.65.48.83,1.31,1.05,2.34.68,3.26-.49,6.82-1.29,8.63"/><path class="cls-1" d="m12.88,7.81c-3.51-3.26-6.75-4.63-8.26-3.52-.65.48-.83,1.31-1.05,2.34-.68,3.26.55,6.82,1.35,8.63"/><path class="cls-2" d="m11.55,8.42c.63-.31,1.86-.82,3.48-.79,1.49.02,2.63.49,3.24.79"/><path class="cls-2" d="m.85,19.76c.61-.49,1.83-1.3,3.49-1.49,1.92-.22,3.39.52,4.06.91"/><path class="cls-2" d="m.71,22.16c.51-.65,1.57-1.79,3.24-2.45,1.94-.77,3.66-.49,4.45-.3"/><path class="cls-2" d="m.97,25c.4-.77,1.26-2.17,2.85-3.26,1.84-1.26,3.67-1.43,4.52-1.46"/><path class="cls-2" d="m29.15,19.12c-.61-.49-1.83-1.3-3.49-1.49-1.92-.22-3.39.52-4.06.91"/><path class="cls-2" d="m29.29,21.52c-.51-.65-1.57-1.79-3.24-2.45-1.94-.77-3.66-.49-4.45-.3"/><path class="cls-2" d="m29.03,24.36c-.4-.77-1.26-2.17-2.85-3.26-1.84-1.26-3.67-1.43-4.52-1.46"/><path class="cls-6" d="m24.24,15.4c-.05,1.8-1.56,3.14-1.95,3.49-1.62,1.43-3.61,1.47-7.53,1.49-3.53.02-5.32,0-6.88-1.23-.42-.33-2.02-1.6-2.15-3.4-.23-3.27,4.5-6.93,9.01-7.06,4.59-.14,9.58,3.36,9.49,6.71Z"/><polygon class="cls-6" points="12.03 19.95 12.32 21.43 13.32 20.06 12.03 19.95"/><polygon class="cls-6" points="16.87 19.96 16.57 21.44 15.58 20.07 16.87 19.96"/><polygon class="cls-6" points="12.57 21.5 16.36 21.5 15.81 22.52 13.02 22.52 12.57 21.5"/><path class="cls-4" d="m11.56,12.73c.72,0,1.53,1.04,1.53,1.79s-.81.91-1.53.91-1.61-.05-1.61-.79.89-1.9,1.61-1.9Z"/><path class="cls-4" d="m17.74,12.73c-.72,0-1.53,1.04-1.53,1.79s.81.91,1.53.91,1.61-.05,1.61-.79-.89-1.9-1.61-1.9Z"/><path class="cls-4" d="m14.72,18.7c.74-.06,1.12-1.21.9-1.46-.12-.13-.32.07-.93.02-.54-.04-.88-.22-1.03-.05-.03.03-.06.09-.06.22.02.47.47,1.3,1.12,1.26Z"/></svg>