<?xml version="1.0" encoding="UTF-8"?><svg id="Calque_1" xmlns="http://www.w3.org/2000/svg" xmlns:xlink="http://www.w3.org/1999/xlink" viewBox="0 0 30.01 22.2"><defs><style>.cls-1{fill:none;}.cls-1,.cls-2,.cls-3,.cls-4,.cls-5,.cls-6,.cls-7,.cls-8{stroke:#1a1a1a;stroke-linecap:round;stroke-linejoin:round;stroke-width:.75px;}.cls-2{fill:url(#Dégradé_sans_nom_2);}.cls-9{fill:url(#Dégradé_sans_nom_6);}.cls-9,.cls-10{stroke-width:0px;}.cls-10{fill:url(#Dégradé_sans_nom_7);}.cls-3{fill:url(#Dégradé_sans_nom_12);}.cls-4{fill:url(#Dégradé_sans_nom_13);}.cls-5{fill:url(#Dégradé_sans_nom_13-2);}.cls-6{fill:#393adb;}.cls-7{fill:#fbfbfb;}.cls-8{fill:#e7df15;}</style><radialGradient id="Dégradé_sans_nom_6" cx="7.71" cy="6.74" fx="7.71" fy="6.74" r="5.55" gradientUnits="userSpaceOnUse"><stop offset="0" stop-color="#8e5daa"/><stop offset=".27" stop-color="#8b5ba6"/><stop offset=".48" stop-color="#83569c"/><stop offset=".68" stop-color="#764d8b"/><stop offset=".87" stop-color="#644173"/><stop offset=".93" stop-color="#5e3d6b"/></radialGradient><radialGradient id="Dégradé_sans_nom_7" cx="14.18" cy="13.72" fx="14.18" fy="13.72" r="10.35" gradientUnits="userSpaceOnUse"><stop offset="0" stop-color="#8e5daa"/><stop offset=".46" stop-color="#8c5ca8"/><stop offset=".62" stop-color="#8758a1"/><stop offset=".74" stop-color="#7e5295"/><stop offset=".83" stop-color="#714a84"/><stop offset=".91" stop-color="#613f6f"/><stop offset=".93" stop-color="#5e3d6b"/></radialGradient><linearGradient id="Dégradé_sans_nom_12" x1="7.93" y1="7.03" x2="5.91" y2="3.65" gradientUnits="userSpaceOnUse"><stop offset="0" stop-color="#b490c7"/><stop offset=".85" stop-color="#735d7b"/></linearGradient><linearGradient id="Dégradé_sans_nom_2" x1="13.93" y1="8.12" x2="13.96" y2="5.35" gradientUnits="userSpaceOnUse"><stop offset=".05" stop-color="#b490c7"/><stop offset=".31" stop-color="#a584b6"/><stop offset=".82" stop-color="#80678b"/><stop offset="1" stop-color="#735d7b"/></linearGradient><linearGradient id="Dégradé_sans_nom_13" x1="11.31" y1="7.14" x2="11.15" y2="6.07" gradientUnits="userSpaceOnUse"><stop offset="0" stop-color="#b490c7"/><stop offset=".28" stop-color="#a584b6"/><stop offset=".82" stop-color="#80678b"/><stop offset="1" stop-color="#735d7b"/></linearGradient><linearGradient id="Dégradé_sans_nom_13-2" x1="103.47" y1="7.14" x2="103.31" y2="6.08" gradientTransform="translate(120.48) rotate(-180) scale(1 -1)" xlink:href="#Dégradé_sans_nom_13"/></defs><polygon class="cls-9" points="4.5 11.88 2.96 6.55 4.14 2.16 5.83 1.61 9.87 3.32 12.47 5.76 4.5 11.88"/><path class="cls-10" d="m24.18,13.71c.02.15.38,3.39-1.78,5.83-2.11,2.38-5.22,2.43-8.21,2.48-2.72.05-5,.08-7.07-1.57-1.94-1.54-3.3-4.24-2.92-6.75.2-1.3.85-2.66,1.78-4.16.79-1.28,1.12-1.91,2.08-2.67,1.97-1.57,4.49-1.47,6.13-1.48,1.64-.01,3.99-.03,6.05,1.54,1.23.94,1.82,2.35,2.43,3.4.62,1.08,1.33,1.92,1.51,3.37Z"/><path class="cls-3" d="m10.64,5.65c-1.79-1.4-4.12-2.85-4.79-2.2-.76.73-.92,1.94-.76,3.43.11,1,.49,2.27.86,2.75.46-.62.84-1.73,2.02-2.65,1.1-.85,2.14-1.29,2.66-1.34Z"/><path class="cls-2" d="m12.87,5.42c.03.22.16,2.94,1.09,2.96,1.09.01,1.06-2.77,1.09-2.98"/><path class="cls-4" d="m10.64,6.09c.01.47.15,1.39.82,1.23.3-.13.31-.95.14-1.57"/><path class="cls-5" d="m17.68,6.09c-.01.47-.15,1.39-.82,1.23-.3-.14-.31-.95-.14-1.57"/><path class="cls-1" d="m4.95,10.49c-.13.31-2.06,5.01.54,8.48,2.13,2.84,5.78,2.85,8.4,2.86,2.39,0,7.54.03,9.59-3.67,1.33-2.41.65-5.17.1-6.66-.19-.5-.36-.86-.43-1.01"/><path class="cls-1" d="m12.26,5.2C8.9,2.19,5.81.93,4.37,1.96c-.62.44-.79,1.21-1,2.16-.65,3.01.24,5.72,1.01,7.38"/><path class="cls-1" d="m10.99,5.76c.6-.29,1.78-.75,3.32-.73,1.42.02,2.51.45,3.09.73"/><ellipse class="cls-1" cx="14.19" cy="12.08" rx=".68" ry=".19"/><path class="cls-1" d="m14.19,12.56c0,1.43-.49,2.38-1.01,2.44-.42.04-.82-.52-.92-.68"/><path class="cls-1" d="m14.19,12.64c0,1.43.49,2.38,1.01,2.44.42.04.82-.52.92-.68"/><line class="cls-1" x1="8.78" y1="11.88" x2="8.78" y2="13.22"/><line class="cls-1" x1="19.01" y1="11.88" x2="19.01" y2="13.22"/><path class="cls-1" d="m.5,15.86c.58-.45,1.74-1.2,3.33-1.38,1.83-.2,3.24.48,3.87.84"/><path class="cls-1" d="m.38,18.07c.49-.6,1.5-1.65,3.1-2.26,1.85-.71,3.49-.45,4.24-.27"/><path class="cls-1" d="m.62,20.69c.38-.71,1.2-2,2.72-3.01,1.76-1.16,3.5-1.32,4.32-1.34"/><path class="cls-1" d="m27.51,15.27c-.58-.45-1.74-1.2-3.33-1.38-1.83-.2-3.24.48-3.87.84"/><path class="cls-1" d="m27.64,17.48c-.49-.6-1.5-1.65-3.1-2.26-1.85-.71-3.49-.45-4.24-.27"/><path class="cls-1" d="m27.39,20.1c-.38-.71-1.2-2-2.72-3.01-1.76-1.16-3.5-1.32-4.32-1.34"/><polygon class="cls-6" points="16.52 4.32 19.05 7.36 19.61 7.86 20.52 8.26 22.97 8.96 24.07 9.29 24.39 8.61 24.46 7.93 24.22 7.26 24.03 7.08 24.4 5.95 25.15 4.76 26.23 3.85 27.14 3.49 27.05 3.04 27.09 2.62 26.92 2.13 27.03 1.65 27.24 1.38 26.51 1.04 25.55 .69 24.22 .42 22.89 .39 21.99 .48 20.78 .8 19.86 1.24 18.92 1.81 18.11 2.45 17.36 3.2 16.52 4.32"/><path class="cls-7" d="m16.52,4.32c-.47-.58-1.16-.74-1.51-.51-.42.27-.59,1.22.02,2,.65.83,1.22,1.5,1.65,2,1.27,1.47,1.63,1.7,1.86,1.84.64.38,1.27.55,2.17.8.74.2,1.01.21,1.73.44.69.22,1.22.46,1.57.63.72-.04,1.25-.61,1.24-1.15,0-.36-.25-.7-.61-.88-.59-.19-1.45-.47-2.51-.77-1.72-.49-2.04-.51-2.58-.9-.53-.38-.6-.63-1.75-2.02-.53-.64-.98-1.14-1.28-1.47Z"/><path class="cls-8" d="m17.68,5.09l.38-.2.15-.44c.06-.19.28-.28.44-.19l.39.21c.08.04.17.07.26.09l.37.07c.15.03.24.18.19.33l-.14.49c-.03.11-.04.23-.02.34l.05.32c.03.16-.09.32-.26.33l-.37.02c-.14,0-.27.07-.36.18l-.16.16-1.04-1.28c-.11-.15-.06-.35.11-.44Z"/><path class="cls-8" d="m20.83,8.09l.55-.29c.06-.03.11-.07.15-.11l.36-.34c.13-.12.32-.11.42.02l.29.38c.05.07.12.12.19.17l.3.17c.14.08.17.28.05.41l-.31.35-2.19-.58.05-.08s.07-.09.12-.11Z"/><path class="cls-8" d="m24.07.39c-.05.08-.4.64-.21,1.3.24.81,1.06,1,1.1,1.01-.67.51-1.59.43-2.11-.16-.5-.57-.5-1.47.02-2.1.4-.02.8-.03,1.2-.05Z"/><path class="cls-7" d="m27.09,2.62c-.11.36-.02.75.24.98.31.28.8.29,1.18,0,.44.08.87-.15,1.05-.53.14-.3.09-.66-.11-.93.14-.39.02-.82-.28-1.05-.34-.25-.85-.21-1.18.12-.33-.07-.68.07-.89.34-.23.31-.24.75,0,1.07Z"/><path class="cls-1" d="m27.2,1.39c-.54-.31-2.65-1.46-5.44-.84-3.28.72-4.96,3.32-5.24,3.77"/><path class="cls-1" d="m21.38,5.92c.95.09,1.6.44,1.94.66.22.14.45.3.65.48.25.23.44.5.5.87.09.56-.26,1.16-.39,1.36"/><path class="cls-1" d="m27.11,3.48c-.36.11-1.24.44-1.99,1.32-.83.96-1,2-1.04,2.37"/></svg>