<?xml version="1.0" encoding="UTF-8"?><svg id="Calque_1" xmlns="http://www.w3.org/2000/svg" viewBox="0 0 1920 1080"><defs><style>.cls-1{fill:#69bf00;}.cls-1,.cls-2{stroke:#1a1a1a;stroke-miterlimit:10;stroke-width:4px;}.cls-2{fill:#d2a900;}</style></defs><path class="cls-2" d="m1919.97,1079.83H-.03v-119c81.86-20.14,203.05-43.6,351-48,131.54-3.91,146.58,11.33,336,22,317.67,17.89,347.54-20.92,594,10,97.87,12.28,136.23,23.81,232,26,77.25,1.77,123.61-4.09,288-8,51.08-1.21,92.69-1.74,119-2v119Z"/><polygon class="cls-2" points="1429.97 1007.83 1578.97 750.83 1771.24 996.01 1714.97 1039.83 1429.97 1007.83"/><line class="cls-2" x1="1578.97" y1="750.83" x2="1713.97" y2="1039.83"/><path class="cls-1" d="m353.5,895.67v14.34h-37.97v-85.57h31.59c5.24,0,9.48-4.19,9.48-9.35v-18.74c0-5.16-4.24-9.35-9.48-9.35h0c-5.24,0-9.48,4.19-9.48,9.35v9.68h-22.11v-18.85c0-5.16-4.24-9.35-9.48-9.35h-36.06c-5.24,0-9.48,4.19-9.48,9.35v80.81h-41.07v-14.34c0-5.16-4.24-9.35-9.48-9.35h-3.51c-5.24,0-9.48,4.19-9.48,9.35v27.91c0,5.16,4.24,9.35,9.48,9.35h54.06v81.57c0,5.16,4.24,9.35,9.48,9.35h36.06c5.24,0,9.48-4.19,9.48-9.35v-39.55h50.96c5.24,0,9.48-4.19,9.48-9.35v-27.91c0-5.16-4.24-9.35-9.48-9.35h-3.51c-5.24,0-9.48,4.19-9.48,9.35Z"/><path class="cls-1" d="m894.89,922.52v9.45h25.2v-56.42h-20.97c-3.48,0-6.29-2.76-6.29-6.16v-12.36c0-3.4,2.82-6.16,6.29-6.16h0c3.48,0,6.29,2.76,6.29,6.16v6.38h14.68v-12.43c0-3.4,2.82-6.16,6.29-6.16h23.93c3.48,0,6.29,2.76,6.29,6.16v53.28h27.26v-9.45c0-3.4,2.82-6.16,6.29-6.16h2.33c3.48,0,6.29,2.76,6.29,6.16v18.4c0,3.4-2.82,6.16-6.29,6.16h-35.89v53.78c0,3.4-2.82,6.16-6.29,6.16h-23.93c-3.48,0-6.29-2.76-6.29-6.16v-26.08h-33.83c-3.48,0-6.29-2.76-6.29-6.16v-18.4c0-3.4,2.82-6.16,6.29-6.16h2.33c3.48,0,6.29,2.76,6.29,6.16Z"/><path class="cls-1" d="m738.82,928.71v5.95h16.64v-35.5h-13.84c-2.29,0-4.15-1.74-4.15-3.88v-7.77c0-2.14,1.86-3.88,4.15-3.88h0c2.29,0,4.15,1.74,4.15,3.88v4.01h9.69v-7.82c0-2.14,1.86-3.88,4.15-3.88h15.8c2.29,0,4.15,1.74,4.15,3.88v33.52h18v-5.95c0-2.14,1.86-3.88,4.15-3.88h1.54c2.29,0,4.15,1.74,4.15,3.88v11.58c0,2.14-1.86,3.88-4.15,3.88h-23.69v33.84c0,2.14-1.86,3.88-4.15,3.88h-15.8c-2.29,0-4.15-1.74-4.15-3.88v-16.41h-22.33c-2.29,0-4.15-1.74-4.15-3.88v-11.58c0-2.14,1.86-3.88,4.15-3.88h1.54c2.29,0,4.15,1.74,4.15,3.88Z"/></svg>