<?xml version="1.0" encoding="UTF-8"?><svg id="Calque_1" xmlns="http://www.w3.org/2000/svg" viewBox="0 0 1920 1080"><defs><style>.cls-1{fill:#fbfbfb;}.cls-1,.cls-2{stroke:#fbfbfb;stroke-miterlimit:10;}.cls-2{fill:#fbd84f;}</style></defs><g id="_étoiles"><polygon class="cls-1" points="357.71 588.99 356.84 593.87 352.45 595.09 356.84 596.62 357.78 601.35 358.91 596.46 363.23 595.32 358.97 594.02 357.71 588.99"/><polygon class="cls-1" points="360.94 582.56 360.45 585.42 358 586.13 360.45 587.02 360.97 589.79 361.6 586.93 364.02 586.27 361.64 585.51 360.94 582.56"/><polygon class="cls-1" points="364.64 586.88 363.94 590.47 360.44 591.37 363.94 592.49 364.69 595.97 365.59 592.38 369.03 591.54 365.64 590.58 364.64 586.88"/><polygon class="cls-1" points="1692.42 49.55 1694.8 69.58 1702.66 62.23 1696.77 71.23 1712.2 74.35 1696.91 77.11 1702.94 86.48 1695.08 79.31 1692.7 97.14 1690.45 79.5 1682.74 86.48 1688.21 76.74 1673.06 74.54 1688.07 72.15 1682.88 62.04 1690.31 68.84 1692.42 49.55"/><polygon class="cls-1" points="1270.41 82.04 1267.92 79.54 1270.72 81.86 1270 79.68 1271.1 81.72 1271.31 78.38 1271.52 81.65 1272.62 79.72 1271.9 81.86 1274.59 79.54 1272.1 82.14 1274.45 81.44 1272.34 82.42 1275.94 82.64 1272.07 82.85 1274.63 83.94 1272.1 83.16 1274.56 85.77 1271.86 83.51 1272.66 85.73 1271.55 83.62 1271.31 87.1 1271.17 83.62 1270.1 85.59 1270.76 83.44 1267.99 85.84 1270.44 83.23 1268.16 83.97 1270.38 82.88 1266.47 82.71 1270.34 82.49 1268.13 81.47 1270.41 82.04"/><path class="cls-1" d="m580.07,452.48c.1.89.26,2.3.38,4.04.25,3.63.07,4.46.69,5.26.55.73,1.78.88,4.2,1.14,1.37.15,2.5.21,3.26.23-.73.12-1.86.28-3.26.38-2.79.21-3.48-.04-4.14.69-.32.36-.57.88-.88,4.81-.13,1.67-.21,3.06-.25,4.04-.02-.99-.06-2.38-.19-4.04-.31-3.97-.71-4.55-.94-4.81-.6-.68-1.24-.62-3.76-.84-1.7-.15-3.09-.33-4.01-.46.43-.02,1.96-.11,4.08-.23,2.76-.15,3.32-.18,3.83-.76.48-.55.6-1.24.82-5.34.09-1.63.15-3.03.19-4.12h-.02Z"/><path class="cls-1" d="m137.25,252.09c.06.45.14,1.17.21,2.05.14,1.84.04,2.26.38,2.67.31.37.99.44,2.34.58.77.08,1.4.1,1.82.12-.41.06-1.04.14-1.82.19-1.56.11-1.94-.02-2.31.35-.18.18-.32.45-.49,2.44-.07.85-.12,1.56-.14,2.05,0-.5-.03-1.21-.1-2.05-.17-2.01-.4-2.31-.52-2.44-.33-.35-.69-.31-2.1-.43-.95-.08-1.72-.17-2.24-.23.24-.01,1.09-.06,2.27-.12,1.54-.08,1.85-.09,2.13-.39.27-.28.33-.63.45-2.71.05-.83.08-1.54.1-2.09h.02Z"/><path class="cls-1" d="m139.81,262.92c.05.36.13.94.19,1.66.12,1.49.04,1.83.34,2.17.27.3.88.36,2.07.47.68.06,1.23.08,1.61.09-.36.05-.92.11-1.61.16-1.38.09-1.72-.02-2.04.28-.16.15-.28.36-.43,1.98-.07.69-.1,1.26-.12,1.66,0-.41-.03-.98-.09-1.66-.15-1.63-.35-1.87-.46-1.98-.3-.28-.61-.25-1.85-.35-.84-.06-1.52-.13-1.98-.19.21-.01.96-.05,2.01-.09,1.36-.06,1.63-.07,1.89-.31.24-.23.3-.51.4-2.2.04-.67.07-1.25.09-1.69h-.02Z"/><path class="cls-1" d="m144.84,256.32c.03.25.08.65.12,1.14.08,1.02.02,1.26.21,1.48.17.21.55.25,1.29.32.42.04.77.06,1,.06-.22.03-.57.08-1,.11-.86.06-1.07-.01-1.27.19-.1.1-.17.25-.27,1.35-.04.47-.06.86-.08,1.14,0-.28-.02-.67-.06-1.14-.09-1.12-.22-1.28-.29-1.35-.18-.19-.38-.17-1.16-.24-.52-.04-.95-.09-1.23-.13.13,0,.6-.03,1.25-.06.85-.04,1.02-.05,1.17-.21s.18-.35.25-1.5c.03-.46.04-.85.06-1.16h.01Z"/><polygon class="cls-1" points="92.26 698.74 91.96 702.14 89.04 700.82 91.52 702.82 89.04 704.72 91.93 703.43 92.26 706.62 92.6 703.43 95.41 704.72 92.93 702.82 95.49 700.92 92.62 702.17 92.26 698.74"/><polygon class="cls-1" points="316.52 935.46 316.22 938.86 313.3 937.54 315.78 939.53 313.3 941.43 316.19 940.14 316.52 943.33 316.86 940.14 319.67 941.43 317.19 939.53 319.75 937.63 316.88 938.89 316.52 935.46"/><polygon class="cls-1" points="1655.23 915.61 1655.73 913.4 1658.2 912.85 1655.73 912.16 1655.2 910.02 1654.56 912.23 1652.12 912.75 1654.53 913.33 1655.23 915.61"/><polygon class="cls-1" points="1653.42 918.52 1653.69 917.23 1655.08 916.91 1653.69 916.5 1653.4 915.25 1653.04 916.54 1651.68 916.85 1653.02 917.19 1653.42 918.52"/><polygon class="cls-1" points="1651.33 916.57 1651.73 914.94 1653.7 914.54 1651.73 914.03 1651.3 912.45 1650.8 914.08 1648.85 914.46 1650.77 914.89 1651.33 916.57"/><polygon class="cls-1" points="1284.4 1035.65 1283.8 1031.88 1281.82 1033.27 1283.31 1031.57 1279.42 1030.99 1283.27 1030.47 1281.75 1028.71 1283.73 1030.05 1284.33 1026.7 1284.9 1030.02 1286.84 1028.71 1285.46 1030.54 1289.28 1030.95 1285.5 1031.4 1286.81 1033.3 1284.93 1032.02 1284.4 1035.65"/><polygon class="cls-1" points="631.55 1018.93 633.53 1021.11 631.3 1019.08 631.88 1020.98 631 1019.21 630.83 1022.12 630.67 1019.27 629.78 1020.95 630.36 1019.08 628.21 1021.11 630.2 1018.84 628.32 1019.45 630 1018.59 627.14 1018.41 630.23 1018.23 628.18 1017.28 630.2 1017.95 628.24 1015.68 630.39 1017.64 629.76 1015.71 630.64 1017.55 630.83 1014.52 630.94 1017.55 631.8 1015.84 631.27 1017.7 633.48 1015.62 631.52 1017.89 633.34 1017.24 631.58 1018.19 634.69 1018.35 631.6 1018.53 633.37 1019.42 631.55 1018.93"/><path class="cls-1" d="m1464.41,912.03c-.06-.4-.14-1.04-.21-1.83-.14-1.64-.04-2.02-.39-2.38-.31-.33-1-.4-2.37-.52-.77-.07-1.41-.09-1.84-.1.41-.05,1.05-.13,1.84-.17,1.57-.09,1.96.02,2.33-.31.18-.16.32-.4.49-2.18.08-.76.12-1.39.14-1.83,0,.45.03,1.08.11,1.83.17,1.8.4,2.06.53,2.18.34.31.7.28,2.12.38.96.07,1.74.15,2.26.21-.24.01-1.1.05-2.3.1-1.55.07-1.87.08-2.16.35-.27.25-.34.56-.46,2.42-.05.74-.08,1.37-.11,1.87l.02-.02Z"/><polygon class="cls-1" points="940.33 1044.08 940.63 1040.67 943.56 1041.99 941.07 1040 943.56 1038.1 940.66 1039.39 940.33 1036.2 940 1039.39 937.19 1038.1 939.67 1040 937.1 1041.9 939.97 1040.64 940.33 1044.08"/><polygon class="cls-1" points="1823.04 321.82 1823.42 317.99 1827.17 319.47 1823.99 317.23 1827.17 315.09 1823.46 316.54 1823.04 312.94 1822.61 316.54 1819.01 315.09 1822.19 317.23 1818.9 319.37 1822.58 317.95 1823.04 321.82"/><polygon class="cls-1" points="1753.07 690.52 1753.57 688.31 1756.04 687.76 1753.57 687.07 1753.04 684.93 1752.4 687.14 1749.96 687.66 1752.37 688.24 1753.07 690.52"/><polygon class="cls-1" points="1751.26 693.43 1751.53 692.14 1752.91 691.82 1751.53 691.41 1751.24 690.16 1750.88 691.45 1749.52 691.76 1750.86 692.1 1751.26 693.43"/><polygon class="cls-1" points="1749.17 691.48 1749.56 689.85 1751.54 689.44 1749.56 688.94 1749.14 687.36 1748.64 688.99 1746.69 689.37 1748.61 689.8 1749.17 691.48"/><polygon class="cls-1" points="1409.31 838.2 1408.71 834.43 1406.73 835.81 1408.22 834.12 1404.33 833.53 1408.18 833.02 1406.66 831.25 1408.64 832.6 1409.24 829.25 1409.81 832.57 1411.75 831.25 1410.37 833.08 1414.19 833.5 1410.41 833.95 1411.72 835.85 1409.84 834.57 1409.31 838.2"/><polygon class="cls-1" points="941.04 1017.76 943.03 1019.94 940.79 1017.92 941.37 1019.82 940.49 1018.04 940.32 1020.95 940.16 1018.1 939.28 1019.79 939.85 1017.92 937.7 1019.94 939.69 1017.67 937.81 1018.28 939.5 1017.43 936.63 1017.24 939.72 1017.06 937.68 1016.11 939.69 1016.78 937.73 1014.52 939.88 1016.48 939.25 1014.55 940.13 1016.38 940.32 1013.35 940.43 1016.38 941.29 1014.67 940.76 1016.54 942.97 1014.45 941.01 1016.72 942.83 1016.08 941.07 1017.03 944.18 1017.18 941.1 1017.36 942.86 1018.25 941.04 1017.76"/><path class="cls-1" d="m1867.32,353.58c-.06-.4-.14-1.04-.21-1.83-.14-1.64-.04-2.02-.39-2.38-.31-.33-1-.4-2.37-.52-.77-.07-1.41-.09-1.84-.1.41-.05,1.05-.13,1.84-.17,1.57-.09,1.96.02,2.33-.31.18-.16.32-.4.49-2.18.08-.76.12-1.39.14-1.83,0,.45.03,1.08.11,1.83.17,1.8.4,2.06.53,2.18.34.31.7.28,2.12.38.96.07,1.74.15,2.26.21-.24.01-1.1.05-2.3.1-1.55.07-1.87.08-2.16.35-.27.25-.34.56-.46,2.42-.05.74-.08,1.37-.11,1.87l.02-.02Z"/><path class="cls-1" d="m1832.98,897.35c-.04-.28-.1-.73-.15-1.29-.1-1.16-.03-1.42-.28-1.68-.22-.23-.71-.28-1.69-.36-.55-.05-1.01-.07-1.31-.07.29-.04.75-.09,1.31-.12,1.12-.07,1.4.01,1.66-.22.13-.11.23-.28.35-1.53.05-.53.08-.98.1-1.29,0,.31.02.76.08,1.29.12,1.27.29,1.45.38,1.53.24.22.5.2,1.51.27.68.05,1.24.1,1.61.15-.17,0-.79.04-1.64.07-1.11.05-1.33.06-1.54.24-.19.18-.24.4-.33,1.7-.03.52-.06.97-.08,1.31h.02Z"/><path class="cls-1" d="m1831.14,890.55c-.04-.23-.09-.59-.13-1.04-.09-.94-.03-1.15-.24-1.36-.2-.19-.63-.23-1.49-.3-.49-.04-.89-.05-1.16-.06.26-.03.66-.07,1.16-.1.99-.05,1.24.01,1.47-.18.11-.09.2-.23.31-1.24.05-.43.07-.79.09-1.04,0,.25.02.61.07,1.04.11,1.03.25,1.17.33,1.24.21.18.44.16,1.34.22.6.04,1.1.08,1.42.12-.15,0-.69.03-1.45.06-.98.04-1.18.05-1.36.2-.17.14-.21.32-.29,1.38-.03.42-.05.78-.07,1.06h0Z"/><path class="cls-1" d="m1827.52,894.69c-.02-.16-.06-.41-.08-.72-.06-.64-.02-.79-.15-.93-.12-.13-.39-.16-.93-.2-.3-.03-.55-.04-.72-.04.16-.02.41-.05.72-.07.62-.04.77,0,.91-.12.07-.06.12-.16.19-.85.03-.3.05-.54.06-.72,0,.17.01.42.04.72.07.7.16.8.21.85.13.12.27.11.83.15.38.03.68.06.89.08-.1,0-.43.02-.9.04-.61.03-.73.03-.85.13-.11.1-.13.22-.18.94-.02.29-.03.54-.04.73h0Z"/><polygon class="cls-1" points="1160.49 264.82 1160.88 260.99 1164.63 262.47 1161.45 260.23 1164.63 258.08 1160.92 259.54 1160.49 255.94 1160.07 259.54 1156.46 258.08 1159.64 260.23 1156.36 262.37 1160.03 260.95 1160.49 264.82"/><polygon class="cls-1" points="1821.13 108.51 1821.51 103.79 1825.18 105.62 1822.07 102.85 1825.18 100.22 1821.55 102 1821.13 97.58 1820.72 102 1817.2 100.22 1820.31 102.85 1817.09 105.49 1820.69 103.75 1821.13 108.51"/><polygon class="cls-1" points="345.84 202.65 345.15 206.17 341.71 207.05 345.15 208.15 345.88 211.56 346.77 208.04 350.16 207.22 346.82 206.28 345.84 202.65"/><polygon class="cls-1" points="348.36 198.02 347.98 200.07 346.06 200.59 347.98 201.23 348.39 203.23 348.88 201.17 350.77 200.69 348.91 200.14 348.36 198.02"/><polygon class="cls-1" points="351.26 201.13 350.71 203.72 347.97 204.37 350.71 205.18 351.3 207.68 352 205.1 354.7 204.49 352.04 203.8 351.26 201.13"/><polygon class="cls-1" points="152.51 83.65 153.34 89.65 156.09 87.45 154.03 90.14 159.43 91.08 154.08 91.9 156.19 94.71 153.44 92.56 152.61 97.9 151.82 92.62 149.12 94.71 151.04 91.79 145.73 91.13 150.99 90.42 149.17 87.39 151.77 89.43 152.51 83.65"/><polygon class="cls-1" points="1370.98 151.99 1368.49 149.49 1371.29 151.81 1370.56 149.63 1371.67 151.67 1371.88 148.33 1372.08 151.6 1373.19 149.67 1372.46 151.81 1375.16 149.49 1372.67 152.1 1375.02 151.39 1372.91 152.38 1376.51 152.59 1372.64 152.8 1375.19 153.89 1372.67 153.12 1375.12 155.72 1372.43 153.47 1373.22 155.68 1372.12 153.57 1371.88 157.06 1371.74 153.57 1370.67 155.54 1371.32 153.4 1368.56 155.79 1371.01 153.19 1368.73 153.92 1370.94 152.83 1367.04 152.66 1370.91 152.45 1368.7 151.43 1370.98 151.99"/><path class="cls-1" d="m622.46,121.96c.08.64.2,1.66.29,2.92.2,2.62.06,3.21.54,3.8.43.53,1.39.63,3.29.83,1.07.11,1.96.15,2.55.17-.57.08-1.46.2-2.55.28-2.19.15-2.73-.03-3.24.5-.25.26-.44.63-.69,3.47-.1,1.21-.16,2.21-.2,2.92-.01-.71-.05-1.72-.15-2.92-.24-2.86-.56-3.28-.74-3.47-.47-.49-.97-.44-2.95-.61-1.33-.11-2.42-.24-3.14-.33.34-.02,1.53-.08,3.19-.17,2.16-.11,2.6-.13,3-.55.37-.4.47-.89.64-3.85.07-1.17.11-2.18.15-2.97v-.02Z"/><path class="cls-1" d="m1575.39,191.06c.04.29.1.75.15,1.31.1,1.18.03,1.45.27,1.71.22.24.7.28,1.65.37.54.05.98.07,1.28.07-.29.04-.73.09-1.28.12-1.1.07-1.37-.01-1.62.22-.13.12-.22.28-.34,1.56-.05.54-.08.99-.1,1.31,0-.32-.02-.77-.07-1.31-.12-1.29-.28-1.48-.37-1.56-.24-.22-.49-.2-1.48-.27-.67-.05-1.21-.11-1.58-.15.17,0,.77-.04,1.6-.07,1.08-.05,1.3-.06,1.5-.25.19-.18.24-.4.32-1.73.03-.53.06-.98.07-1.34h0Z"/><path class="cls-1" d="m1577.2,197.99c.04.23.09.6.13,1.06.09.95.03,1.17.24,1.38.19.19.62.23,1.46.3.48.04.87.05,1.13.06-.25.03-.65.07-1.13.1-.97.05-1.21-.01-1.44.18-.11.09-.2.23-.3,1.26-.05.44-.07.81-.09,1.06,0-.26-.02-.63-.07-1.06-.11-1.04-.25-1.2-.33-1.26-.21-.18-.43-.16-1.31-.22-.59-.04-1.07-.09-1.39-.12.15,0,.68-.03,1.41-.06.96-.04,1.15-.05,1.33-.2.17-.15.21-.33.28-1.4.03-.43.05-.8.07-1.08h.01Z"/><path class="cls-1" d="m1580.73,193.77c.02.16.06.41.08.73.05.65.02.8.15.95.12.13.38.16.91.21.3.03.54.04.7.04-.16.02-.4.05-.7.07-.6.04-.75,0-.89.12-.07.06-.12.16-.19.87-.03.3-.04.55-.05.73,0-.18-.01-.43-.04-.73-.07-.72-.15-.82-.2-.87-.13-.12-.27-.11-.81-.15-.37-.03-.67-.06-.87-.08.09,0,.42-.02.88-.04.6-.03.72-.03.83-.14.1-.1.13-.22.18-.96.02-.29.03-.55.04-.74h-.02Z"/><polygon class="cls-1" points="175.79 977.28 175.48 980.68 172.56 979.36 175.04 981.35 172.56 983.25 175.46 981.96 175.79 985.15 176.12 981.96 178.93 983.25 176.45 981.35 179.01 979.45 176.15 980.71 175.79 977.28"/><polygon class="cls-1" points="847.64 876.6 846.95 885.06 840.3 881.78 845.95 886.74 840.3 891.47 846.89 888.27 847.64 896.2 848.39 888.27 854.79 891.47 849.15 886.74 854.98 882.01 848.46 885.14 847.64 876.6"/><polygon class="cls-1" points="149.21 770.28 151.19 772.45 148.96 770.43 149.54 772.33 148.65 770.55 148.49 773.46 148.32 770.61 147.44 772.3 148.02 770.43 145.87 772.45 147.85 770.19 145.98 770.8 147.66 769.94 144.79 769.76 147.88 769.57 145.84 768.62 147.85 769.3 145.9 767.03 148.05 768.99 147.41 767.06 148.3 768.9 148.49 765.87 148.6 768.9 149.45 767.18 148.93 769.05 151.14 766.97 149.18 769.24 151 768.59 149.23 769.54 152.35 769.7 149.26 769.88 151.03 770.77 149.21 770.28"/><path class="cls-1" d="m1803.88,444.98c-.06-.4-.14-1.04-.21-1.83-.14-1.64-.04-2.02-.39-2.38-.31-.33-1-.4-2.37-.52-.77-.07-1.41-.09-1.84-.1.41-.05,1.05-.13,1.84-.17,1.57-.09,1.96.02,2.33-.31.18-.16.32-.4.49-2.18.08-.76.12-1.39.14-1.83,0,.45.03,1.08.11,1.83.17,1.8.4,2.06.53,2.18.34.31.7.28,2.12.38.96.07,1.74.15,2.26.21-.24.01-1.1.05-2.3.1-1.55.07-1.87.08-2.16.35-.27.25-.34.56-.46,2.42-.05.74-.08,1.37-.11,1.87l.02-.02Z"/><polygon class="cls-1" points="1400.75 431.18 1401.13 427.27 1404.79 428.79 1401.68 426.5 1404.79 424.32 1401.16 425.79 1400.75 422.14 1400.33 425.79 1396.81 424.32 1399.92 426.5 1396.7 428.68 1400.3 427.24 1400.75 431.18"/><polygon class="cls-1" points="1525.36 490.5 1525.75 486.67 1529.5 488.15 1526.32 485.91 1529.5 483.77 1525.79 485.22 1525.36 481.62 1524.94 485.22 1521.33 483.77 1524.52 485.91 1521.23 488.05 1524.9 486.63 1525.36 490.5"/><polygon class="cls-1" points="678.56 163.96 675.02 160.05 679 163.68 677.97 160.27 679.54 163.46 679.84 158.24 680.13 163.35 681.7 160.33 680.67 163.68 684.5 160.05 680.97 164.13 684.31 163.02 681.31 164.57 686.42 164.9 680.92 165.23 684.55 166.93 680.97 165.72 684.45 169.79 680.62 166.27 681.75 169.74 680.18 166.44 679.84 171.88 679.64 166.44 678.12 169.52 679.05 166.16 675.12 169.9 678.61 165.83 675.37 166.99 678.51 165.28 672.96 165.01 678.46 164.68 675.32 163.08 678.56 163.96"/><polygon class="cls-1" points="999.17 104.18 998.48 112.64 991.83 109.36 997.48 114.32 991.83 119.05 998.42 115.85 999.17 123.78 999.92 115.85 1006.32 119.05 1000.68 114.32 1006.51 109.59 999.99 112.72 999.17 104.18"/><polygon class="cls-1" points="1582.55 315.69 1578.04 310.27 1583.12 315.31 1581.8 310.58 1583.81 315 1584.19 307.75 1584.56 314.85 1586.57 310.65 1585.25 315.31 1590.14 310.27 1585.63 315.92 1589.89 314.39 1586.07 316.53 1592.59 316.98 1585.57 317.44 1590.21 319.81 1585.63 318.13 1590.08 323.77 1585.19 318.89 1586.63 323.7 1584.62 319.12 1584.19 326.67 1583.93 319.12 1581.99 323.39 1583.18 318.74 1578.16 323.93 1582.62 318.28 1578.48 319.88 1582.49 317.52 1575.4 317.14 1582.43 316.68 1578.42 314.47 1582.55 315.69"/><polygon class="cls-1" points="396.39 868.52 396.09 871.92 393.16 870.61 395.64 872.6 393.16 874.5 396.06 873.21 396.39 876.4 396.72 873.21 399.53 874.5 397.05 872.6 399.62 870.7 396.75 871.95 396.39 868.52"/><polygon class="cls-1" points="1759.6 413.22 1759.98 409.38 1763.73 410.87 1760.55 408.62 1763.73 406.48 1760.02 407.93 1759.6 404.34 1759.17 407.93 1755.57 406.48 1758.75 408.62 1755.46 410.77 1759.14 409.35 1759.6 413.22"/></g><g id="Calque_5"><path class="cls-2" d="m1700.9,198.32c0-28.85,25.23-52.33,56.66-53.05-13.85-11.27-32.18-18.13-52.28-18.13-43.2,0-78.22,31.68-78.22,70.75s35.02,70.75,78.22,70.75c19.61,0,37.54-6.53,51.27-17.32-30.96-1.19-55.66-24.47-55.66-53.01h.01Z"/><polygon class="cls-1" points="130.13 814.6 129.75 817.22 127.87 817.87 129.75 818.69 130.16 821.22 130.64 818.61 132.5 817.99 130.67 817.3 130.13 814.6"/><polygon class="cls-1" points="131.52 811.15 131.3 812.68 130.25 813.06 131.3 813.54 131.53 815.03 131.8 813.5 132.84 813.14 131.82 812.73 131.52 811.15"/><polygon class="cls-1" points="133.1 813.47 132.8 815.39 131.3 815.87 132.8 816.48 133.13 818.34 133.51 816.41 134.99 815.96 133.53 815.45 133.1 813.47"/><polygon class="cls-1" points="1774.29 9.31 1775.32 20.05 1778.69 16.1 1776.16 20.93 1782.79 22.61 1776.22 24.09 1778.81 29.11 1775.44 25.27 1774.41 34.83 1773.45 25.37 1770.14 29.11 1772.49 23.89 1765.98 22.71 1772.43 21.43 1770.2 16.01 1773.39 19.65 1774.29 9.31"/><polygon class="cls-1" points="1582.07 797.73 1581 796.39 1582.2 797.64 1581.89 796.47 1582.37 797.56 1582.46 795.77 1582.55 797.52 1583.02 796.48 1582.71 797.64 1583.87 796.39 1582.8 797.79 1583.81 797.41 1582.9 797.94 1584.44 798.05 1582.78 798.16 1583.88 798.75 1582.8 798.33 1583.85 799.73 1582.69 798.52 1583.04 799.71 1582.56 798.58 1582.46 800.45 1582.4 798.58 1581.94 799.64 1582.22 798.48 1581.03 799.77 1582.09 798.37 1581.11 798.77 1582.06 798.18 1580.38 798.09 1582.04 797.98 1581.09 797.43 1582.07 797.73"/><path class="cls-1" d="m1296.62,225.39c.04.48.11,1.23.16,2.17.11,1.95.03,2.39.3,2.82.24.39.76.47,1.8.61.59.08,1.08.11,1.4.12-.31.06-.8.15-1.4.2-1.2.11-1.5-.02-1.78.37-.14.19-.24.47-.38,2.58-.06.9-.09,1.64-.11,2.17,0-.53-.03-1.28-.08-2.17-.13-2.13-.31-2.44-.4-2.58-.26-.37-.53-.33-1.62-.45-.73-.08-1.33-.18-1.72-.25.19-.01.84-.06,1.75-.12,1.18-.08,1.42-.09,1.64-.41.21-.3.26-.66.35-2.86.04-.87.06-1.62.08-2.21h0Z"/><path class="cls-1" d="m62.46,443.92c.03.24.06.63.09,1.1.06.99.02,1.21.17,1.43.13.2.43.24,1.01.31.33.04.6.06.78.06-.17.03-.45.08-.78.1-.67.06-.83-.01-.99.19-.08.1-.14.24-.21,1.31-.03.46-.05.83-.06,1.1,0-.27,0-.65-.05-1.1-.07-1.08-.17-1.24-.23-1.31-.14-.19-.3-.17-.9-.23-.41-.04-.74-.09-.96-.12.1,0,.47-.03.98-.06.66-.04.79-.05.92-.21.11-.15.14-.34.2-1.45.02-.44.03-.82.05-1.12h-.02Z"/><path class="cls-1" d="m63.56,449.73c.02.2.05.51.08.89.05.8.02.98.15,1.16.12.16.38.19.89.25.29.03.53.05.69.05-.15.03-.39.06-.69.08-.59.05-.74,0-.88.15-.07.08-.12.19-.19,1.06-.03.37-.04.68-.05.89,0-.22,0-.52-.04-.89-.06-.88-.15-1-.2-1.06-.13-.15-.26-.14-.8-.19-.36-.03-.65-.07-.85-.1.09,0,.41-.02.86-.05.58-.03.7-.04.81-.17.1-.12.13-.27.17-1.18.02-.36.03-.67.04-.91v.02Z"/><path class="cls-1" d="m65.71,446.19c0,.13.03.35.05.61.03.55,0,.67.09.8.07.11.23.13.55.17.18.02.33.03.43.03-.1.02-.25.04-.43.06-.37.03-.46,0-.55.1-.04.05-.07.13-.12.73-.02.25-.03.46-.03.61,0-.15,0-.36-.02-.61-.04-.6-.09-.69-.12-.73-.08-.1-.16-.09-.5-.13-.22-.02-.41-.05-.53-.07.06,0,.26-.02.54-.03.36-.02.44-.03.5-.12.06-.08.08-.19.11-.81,0-.25.02-.46.02-.62h0Z"/><polygon class="cls-1" points="16.14 873.45 16.01 875.28 14.75 874.57 15.82 875.64 14.75 876.66 16 875.97 16.14 877.68 16.28 875.97 17.49 876.66 16.42 875.64 17.52 874.62 16.29 875.29 16.14 873.45"/><polygon class="cls-1" points="112.44 1000.4 112.31 1002.22 111.06 1001.52 112.12 1002.58 111.06 1003.6 112.3 1002.91 112.44 1004.62 112.59 1002.91 113.79 1003.6 112.73 1002.58 113.83 1001.57 112.6 1002.24 112.44 1000.4"/><polygon class="cls-1" points="1827.33 1001.76 1827.54 1000.57 1828.6 1000.28 1827.54 999.91 1827.31 998.76 1827.04 999.94 1825.99 1000.22 1827.02 1000.54 1827.33 1001.76"/><polygon class="cls-1" points="1826.55 1003.32 1826.66 1002.63 1827.26 1002.45 1826.66 1002.24 1826.54 1001.56 1826.39 1002.26 1825.8 1002.42 1826.38 1002.6 1826.55 1003.32"/><polygon class="cls-1" points="1825.65 1002.27 1825.82 1001.4 1826.67 1001.18 1825.82 1000.91 1825.64 1000.06 1825.42 1000.94 1824.59 1001.14 1825.41 1001.37 1825.65 1002.27"/><polygon class="cls-1" points="1668.08 1066.13 1667.82 1064.11 1666.97 1064.85 1667.61 1063.95 1665.94 1063.63 1667.59 1063.35 1666.94 1062.41 1667.79 1063.13 1668.05 1061.33 1668.29 1063.11 1669.13 1062.41 1668.54 1063.39 1670.18 1063.61 1668.55 1063.85 1669.11 1064.87 1668.31 1064.19 1668.08 1066.13"/><polygon class="cls-1" points="247.72 1045.16 248.58 1046.33 247.62 1045.25 247.87 1046.27 247.49 1045.31 247.42 1046.87 247.35 1045.35 246.97 1046.25 247.21 1045.25 246.29 1046.33 247.14 1045.12 246.34 1045.44 247.06 1044.98 245.83 1044.89 247.16 1044.79 246.28 1044.28 247.14 1044.64 246.3 1043.42 247.23 1044.47 246.95 1043.44 247.33 1044.43 247.42 1042.8 247.46 1044.43 247.83 1043.51 247.61 1044.51 248.55 1043.39 247.71 1044.61 248.49 1044.26 247.74 1044.77 249.07 1044.85 247.75 1044.95 248.51 1045.43 247.72 1045.16"/><path class="cls-1" d="m1745.38,999.84c-.03-.22-.06-.56-.09-.98-.06-.88-.02-1.08-.17-1.28-.13-.18-.43-.21-1.02-.28-.33-.04-.61-.05-.79-.06.18-.03.45-.07.79-.09.68-.05.84.01,1-.17.08-.09.14-.21.21-1.17.03-.41.05-.74.06-.98,0,.24.01.58.05.98.07.96.17,1.1.23,1.17.15.17.3.15.91.2.41.04.75.08.97.11-.1,0-.47.03-.99.06-.67.04-.8.04-.93.19-.12.13-.15.3-.2,1.3-.02.4-.04.74-.05,1h.02Z"/><polygon class="cls-1" points="1520.32 1070.65 1520.45 1068.83 1521.71 1069.53 1520.64 1068.46 1521.71 1067.45 1520.47 1068.14 1520.32 1066.43 1520.18 1068.14 1518.97 1067.45 1520.04 1068.46 1518.94 1069.48 1520.17 1068.81 1520.32 1070.65"/><polygon class="cls-1" points="1830.39 155.32 1830.55 153.26 1832.16 154.06 1830.8 152.86 1832.16 151.71 1830.57 152.49 1830.39 150.56 1830.2 152.49 1828.65 151.71 1830.02 152.86 1828.61 154.01 1830.19 153.25 1830.39 155.32"/><polygon class="cls-1" points="1869.34 881.05 1869.55 879.86 1870.62 879.57 1869.55 879.19 1869.33 878.05 1869.05 879.23 1868.01 879.51 1869.04 879.82 1869.34 881.05"/><polygon class="cls-1" points="1868.56 882.61 1868.68 881.91 1869.27 881.74 1868.68 881.52 1868.55 880.85 1868.4 881.55 1867.82 881.71 1868.39 881.89 1868.56 882.61"/><polygon class="cls-1" points="1867.67 881.56 1867.83 880.69 1868.68 880.47 1867.83 880.2 1867.65 879.35 1867.44 880.22 1866.6 880.43 1867.42 880.66 1867.67 881.56"/><polygon class="cls-1" points="1721.72 960.24 1721.46 958.22 1720.61 958.96 1721.25 958.06 1719.58 957.74 1721.23 957.46 1720.58 956.52 1721.43 957.24 1721.69 955.44 1721.93 957.22 1722.77 956.52 1722.18 957.5 1723.82 957.72 1722.19 957.96 1722.75 958.98 1721.95 958.3 1721.72 960.24"/><polygon class="cls-1" points="1520.63 1056.54 1521.48 1057.71 1520.52 1056.62 1520.77 1057.64 1520.39 1056.69 1520.32 1058.25 1520.25 1056.72 1519.87 1057.62 1520.12 1056.62 1519.2 1057.71 1520.05 1056.49 1519.24 1056.82 1519.97 1056.36 1518.73 1056.26 1520.06 1056.16 1519.18 1055.65 1520.05 1056.01 1519.21 1054.8 1520.13 1055.85 1519.86 1054.81 1520.24 1055.8 1520.32 1054.17 1520.37 1055.8 1520.74 1054.88 1520.51 1055.88 1521.46 1054.76 1520.62 1055.98 1521.4 1055.64 1520.64 1056.14 1521.98 1056.23 1520.65 1056.33 1521.41 1056.8 1520.63 1056.54"/><path class="cls-1" d="m1849.4,172.35c-.03-.22-.06-.56-.09-.98-.06-.88-.02-1.08-.17-1.28-.13-.18-.43-.21-1.02-.28-.33-.04-.61-.05-.79-.06.18-.03.45-.07.79-.09.68-.05.84.01,1-.17.08-.09.14-.21.21-1.17.03-.41.05-.74.06-.98,0,.24.01.58.05.98.07.96.17,1.1.23,1.17.15.17.3.15.91.2.41.04.75.08.97.11-.1,0-.47.03-.99.06-.67.04-.8.04-.93.19-.12.13-.15.3-.2,1.3-.02.4-.04.74-.05,1h.02Z"/><path class="cls-1" d="m1903.66,991.97c-.02-.15-.04-.39-.06-.69-.04-.62-.01-.76-.12-.9-.1-.12-.31-.15-.72-.2-.24-.03-.43-.04-.56-.04.13-.02.32-.05.56-.07.48-.04.6,0,.71-.12.06-.06.1-.15.15-.82.02-.29.04-.52.04-.69,0,.17.01.41.03.69.05.68.12.78.16.82.1.12.21.11.65.14.29.03.53.06.69.08-.07,0-.34.02-.7.04-.47.03-.57.03-.66.13-.08.09-.1.21-.14.91-.01.28-.03.52-.03.7v.02Z"/><path class="cls-1" d="m1902.86,988.32c-.02-.12-.04-.32-.06-.56-.04-.5-.01-.62-.11-.73-.08-.1-.27-.12-.64-.16-.21-.02-.38-.03-.5-.03.11-.02.28-.04.5-.05.43-.03.53,0,.63-.1.05-.05.09-.12.13-.67.02-.23.03-.42.04-.56,0,.14,0,.33.03.56.05.55.11.63.14.67.09.09.19.09.57.12.26.02.47.05.61.06-.07,0-.3.02-.62.03-.42.02-.51.02-.58.11-.07.08-.09.17-.12.74-.01.23-.02.42-.03.57h.01Z"/><path class="cls-1" d="m1901.31,990.54c0-.08-.02-.22-.04-.38-.02-.34,0-.42-.07-.5-.05-.07-.17-.08-.4-.11-.13-.01-.24-.02-.31-.02.07-.01.18-.03.31-.04.26-.02.33,0,.39-.07.03-.03.05-.08.08-.46.01-.16.02-.29.02-.38,0,.09,0,.23.02.38.03.38.07.43.09.46.06.06.12.06.36.08.16.01.29.03.38.04-.04,0-.19.01-.39.02-.26.01-.31.02-.36.07s-.06.12-.08.51c0,.15-.01.29-.02.39h.02Z"/><polygon class="cls-1" points="1534.87 895.75 1535.04 893.7 1536.65 894.49 1535.28 893.29 1536.65 892.14 1535.05 892.92 1534.87 890.99 1534.69 892.92 1533.14 892.14 1534.5 893.29 1533.09 894.44 1534.67 893.68 1534.87 895.75"/><polygon class="cls-1" points="1829.57 40.93 1829.73 38.39 1831.31 39.38 1829.97 37.89 1831.31 36.48 1829.75 37.44 1829.57 35.07 1829.39 37.44 1827.88 36.48 1829.21 37.89 1827.83 39.31 1829.38 38.37 1829.57 40.93"/><polygon class="cls-1" points="152.03 417.41 151.73 419.3 150.26 419.77 151.73 420.36 152.05 422.19 152.43 420.3 153.89 419.86 152.45 419.36 152.03 417.41"/><polygon class="cls-1" points="153.11 414.93 152.95 416.03 152.13 416.31 152.95 416.65 153.13 417.72 153.34 416.62 154.15 416.36 153.35 416.07 153.11 414.93"/><polygon class="cls-1" points="154.36 416.6 154.12 417.99 152.95 418.33 154.12 418.77 154.38 420.11 154.68 418.72 155.84 418.4 154.69 418.03 154.36 416.6"/><polygon class="cls-1" points="69.01 353.59 69.37 356.81 70.55 355.63 69.66 357.08 71.98 357.58 69.68 358.02 70.59 359.52 69.41 358.37 69.05 361.24 68.71 358.4 67.56 359.52 68.38 357.96 66.1 357.61 68.36 357.22 67.58 355.6 68.69 356.69 69.01 353.59"/><polygon class="cls-1" points="1625.26 835.24 1624.19 833.9 1625.39 835.15 1625.08 833.98 1625.55 835.07 1625.64 833.28 1625.73 835.04 1626.21 834 1625.9 835.15 1627.05 833.9 1625.98 835.3 1626.99 834.92 1626.09 835.45 1627.63 835.56 1625.97 835.68 1627.07 836.26 1625.98 835.85 1627.04 837.24 1625.88 836.04 1626.22 837.22 1625.75 836.09 1625.64 837.96 1625.58 836.09 1625.12 837.15 1625.41 836 1624.22 837.28 1625.27 835.89 1624.29 836.28 1625.24 835.7 1623.57 835.6 1625.23 835.49 1624.28 834.94 1625.26 835.24"/><path class="cls-1" d="m270.82,374.14c.04.34.09.89.13,1.56.08,1.4.03,1.72.23,2.04.19.28.6.34,1.41.44.46.06.84.08,1.1.09-.25.05-.63.11-1.1.15-.94.08-1.17-.02-1.39.27-.11.14-.19.34-.3,1.86-.04.65-.07,1.19-.08,1.56,0-.38-.02-.92-.06-1.56-.1-1.54-.24-1.76-.32-1.86-.2-.26-.42-.24-1.27-.32-.57-.06-1.04-.13-1.35-.18.15,0,.66-.04,1.37-.09.93-.06,1.11-.07,1.29-.3.16-.21.2-.48.27-2.07.03-.63.05-1.17.06-1.59h0Z"/><path class="cls-1" d="m1713.04,856.2c.02.15.04.4.06.7.04.63.01.78.12.92.09.13.3.15.71.2.23.03.42.04.55.04-.12.02-.31.05-.55.07-.47.04-.59,0-.7.12-.05.06-.1.15-.15.84-.02.29-.03.53-.04.7,0-.17-.01-.41-.03-.7-.05-.69-.12-.79-.16-.84-.1-.12-.21-.11-.63-.15-.29-.03-.52-.06-.68-.08.07,0,.33-.02.69-.04.46-.03.56-.03.64-.13s.1-.22.14-.93c.01-.28.02-.53.03-.72h0Z"/><path class="cls-1" d="m1713.82,859.91c.02.13.04.32.06.57.04.51.01.63.1.74.08.1.26.12.63.16.2.02.37.03.49.03-.11.02-.28.04-.49.05-.42.03-.52,0-.62.1-.05.05-.08.12-.13.68-.02.24-.03.43-.04.57,0-.14,0-.34-.03-.57-.05-.56-.11-.64-.14-.68-.09-.1-.18-.09-.56-.12-.25-.02-.46-.05-.6-.06.06,0,.29-.02.61-.03.41-.02.49-.02.57-.11.07-.08.09-.17.12-.75.01-.23.02-.43.03-.58h0Z"/><path class="cls-1" d="m1715.33,857.65c0,.09.02.22.03.39.02.35,0,.43.06.51.05.07.16.08.39.11.13.01.23.02.3.02-.07.01-.17.03-.3.04-.26.02-.32,0-.38.07-.03.03-.05.08-.08.46-.01.16-.02.3-.02.39,0-.1,0-.23-.02-.39-.03-.38-.07-.44-.09-.46-.06-.07-.12-.06-.35-.08-.16-.01-.29-.03-.37-.04.04,0,.18-.01.38-.02.26-.01.31-.02.35-.07.04-.05.06-.12.08-.52,0-.16.01-.29.02-.4h0Z"/><polygon class="cls-1" points="52.01 1022.83 51.88 1024.65 50.62 1023.94 51.69 1025.01 50.62 1026.03 51.86 1025.34 52.01 1027.05 52.15 1025.34 53.36 1026.03 52.29 1025.01 53.39 1023.99 52.16 1024.67 52.01 1022.83"/><polygon class="cls-1" points="340.52 968.83 340.22 973.38 337.37 971.62 339.79 974.28 337.37 976.81 340.2 975.09 340.52 979.35 340.84 975.09 343.59 976.81 341.17 974.28 343.67 971.74 340.87 973.42 340.52 968.83"/><polygon class="cls-1" points="40.59 911.82 41.44 912.98 40.48 911.9 40.73 912.92 40.35 911.97 40.28 913.53 40.21 912 39.83 912.9 40.08 911.9 39.16 912.98 40.01 911.77 39.21 912.1 39.93 911.64 38.7 911.54 40.02 911.44 39.15 910.93 40.01 911.29 39.17 910.08 40.09 911.13 39.82 910.09 40.2 911.08 40.28 909.45 40.33 911.08 40.7 910.16 40.47 911.16 41.42 910.04 40.58 911.26 41.36 910.91 40.6 911.42 41.94 911.51 40.61 911.6 41.37 912.08 40.59 911.82"/><path class="cls-1" d="m1822.16,221.37c-.03-.22-.06-.56-.09-.98-.06-.88-.02-1.08-.17-1.28-.13-.18-.43-.21-1.02-.28-.33-.04-.61-.05-.79-.06.18-.03.45-.07.79-.09.68-.05.84.01,1-.17.08-.09.14-.21.21-1.17.03-.41.05-.74.06-.98,0,.24.01.58.05.98.07.96.17,1.1.23,1.17.15.17.3.15.91.2.41.04.75.08.97.11-.1,0-.47.03-.99.06-.67.04-.8.04-.93.19-.12.13-.15.3-.2,1.3-.02.4-.04.74-.05,1h.02Z"/><polygon class="cls-1" points="1638.04 984.97 1638.21 982.87 1639.78 983.68 1638.44 982.46 1639.78 981.29 1638.22 982.08 1638.04 980.12 1637.86 982.08 1636.35 981.29 1637.69 982.46 1636.31 983.63 1637.85 982.85 1638.04 984.97"/><polygon class="cls-1" points="364.56 75.78 364.72 73.72 366.33 74.52 364.97 73.32 366.33 72.17 364.74 72.95 364.56 71.02 364.37 72.95 362.83 72.17 364.19 73.32 362.78 74.47 364.36 73.71 364.56 75.78"/><polygon class="cls-1" points="294.91 396.66 293.39 394.57 295.1 396.52 294.66 394.69 295.33 396.4 295.46 393.59 295.59 396.34 296.26 394.72 295.82 396.52 297.46 394.57 295.95 396.75 297.38 396.16 296.09 396.99 298.29 397.16 295.92 397.34 297.48 398.26 295.95 397.61 297.44 399.79 295.8 397.9 296.28 399.76 295.61 397.99 295.46 400.91 295.38 397.99 294.72 399.64 295.12 397.84 293.44 399.85 294.93 397.67 293.54 398.29 294.89 397.37 292.51 397.22 294.87 397.05 293.52 396.19 294.91 396.66"/><polygon class="cls-1" points="1476.59 38.6 1476.3 43.14 1473.44 41.38 1475.86 44.04 1473.44 46.58 1476.27 44.86 1476.59 49.12 1476.92 44.86 1479.66 46.58 1477.24 44.04 1479.74 41.51 1476.94 43.18 1476.59 38.6"/><polygon class="cls-1" points="1716.12 923.03 1714.18 920.13 1716.36 922.83 1715.79 920.29 1716.65 922.66 1716.82 918.78 1716.98 922.58 1717.84 920.33 1717.27 922.83 1719.37 920.13 1717.44 923.15 1719.27 922.34 1717.62 923.48 1720.42 923.73 1717.41 923.97 1719.4 925.24 1717.44 924.34 1719.35 927.37 1717.25 924.75 1717.87 927.33 1717 924.87 1716.82 928.92 1716.71 924.87 1715.87 927.16 1716.38 924.67 1714.23 927.45 1716.14 924.42 1714.36 925.28 1716.09 924.01 1713.04 923.81 1716.06 923.56 1714.34 922.38 1716.12 923.03"/><polygon class="cls-1" points="146.74 964.5 146.61 966.33 145.35 965.62 146.42 966.69 145.35 967.71 146.6 967.02 146.74 968.73 146.88 967.02 148.09 967.71 147.02 966.69 148.13 965.67 146.89 966.34 146.74 964.5"/><polygon class="cls-1" points="1803.14 204.34 1803.31 202.28 1804.92 203.08 1803.55 201.87 1804.92 200.72 1803.32 201.5 1803.14 199.57 1802.96 201.5 1801.41 200.72 1802.78 201.87 1801.37 203.02 1802.94 202.26 1803.14 204.34"/></g></svg>