<?xml version="1.0" encoding="UTF-8"?><svg id="Calque_1" xmlns="http://www.w3.org/2000/svg" xmlns:xlink="http://www.w3.org/1999/xlink" viewBox="0 0 1920 1080"><defs><style>.cls-1{clip-path:url(#clippath);}.cls-2{fill:none;}.cls-2,.cls-3,.cls-4,.cls-5{stroke-width:0px;}.cls-3{fill:#fcde4a;}.cls-4{fill:#f42200;}.cls-5{fill:#ff9d1f;}</style><clipPath id="clippath"><rect class="cls-2" y="629" width="1920" height="451"/></clipPath></defs><g class="cls-1"><path class="cls-4" d="m2085.19,1047.41l-18.49-114.66-24.57,81.68-1.54-.83c-6.08-3.28-11.99-4.95-17.56-4.95-3.19,0-6.27.53-9.24,1.57-2.21-3.1-4.67-5.84-7.36-8.16l-27.32-23.53c.54-.8,1.36-1.91,2-2.77,2.97-4.01,12.02-16.21,6.28-32.68-2.5-7.22-7.19-11.52-12.53-11.52-1.88,0-3.49.52-4.68.98-2.42.92-5.83,2.19-10.07,3.77l-12.92,4.82-.63.34c-15.07,8.21-29.06,20.15-41.58,35.5-1.37,1.69-2.74,3.43-4.08,5.19l-17.51,4.44c-6.61,1.67-12.79,5.13-18.44,10.31-1.26-.76-2.55-1.44-3.88-2.03l-4.02-1.8,5.72-9.01-19.3,2.94-27.04-12.09,2.44,15.84-31.91,4.87c-9.12,1.39-17.95,4.76-26.37,10.05-2.07-6.05-4.55-11.97-7.48-17.91l-.91-1.84-1.13-1.48c-4.36-5.72-8.98-11.21-13.71-16.33-8.84-9.57-14.15-14.98-20.26-14.98-1.29,0-2.55.26-3.76.75-1.38-2.87-2.87-5.66-4.46-8.37l-58.15-98.52,11.22,129.04-10.51,3.95c-12.48,4.69-24.06,13.12-34.42,25.05-3.65,4.2-7.11,8.81-10.35,13.78-.32-.06-.64-.11-.97-.15-.83-.11-1.65-.16-2.47-.16s-1.6.05-2.39.15l-4.53-6.18,14.75-20.45-25.64,5.6-8.01-10.93-4.55,13.68-42.73,9.33-12.41-76.96-24.57,81.68-1.54-.83c-6.08-3.28-11.99-4.95-17.56-4.95-3.19,0-6.27.53-9.24,1.57-2.21-3.1-4.67-5.84-7.36-8.16l-27.32-23.53c.54-.8,1.36-1.91,2-2.77,2.97-4.01,12.02-16.21,6.28-32.68-2.5-7.22-7.19-11.52-12.53-11.52-1.88,0-3.49.52-4.68.98-2.42.92-5.83,2.19-10.07,3.77l-12.92,4.82-.63.34c-15.07,8.21-29.06,20.15-41.58,35.5-1.37,1.69-2.74,3.43-4.08,5.19l-17.51,4.44c-6.61,1.67-12.79,5.13-18.44,10.31-1.26-.76-2.55-1.44-3.88-2.03l-4.02-1.8,5.72-9.01-19.3,2.94-27.04-12.09,2.44,15.84-31.91,4.87c-9.12,1.39-17.95,4.76-26.37,10.05-2.07-6.05-4.55-11.97-7.48-17.91l-.91-1.84-1.13-1.48c-4.36-5.72-8.98-11.21-13.71-16.33-8.84-9.57-14.15-14.98-20.26-14.98-1.29,0-2.55.26-3.76.75-1.38-2.87-2.87-5.66-4.46-8.37l-58.15-98.52,11.22,129.04-10.51,3.95c-12.48,4.69-24.06,13.12-34.42,25.05-3.65,4.2-7.11,8.81-10.35,13.78-.32-.06-.64-.11-.97-.15-.83-.11-1.65-.16-2.47-.16s-1.6.05-2.39.15l-4.53-6.18,14.75-20.45-25.64,5.6-8.01-10.93-4.55,13.68-8.49,1.85-11.2-69.49-23.16,76.99-7.59,1.66c-4.45-1.82-8.78-2.75-12.93-2.75-3.19,0-6.27.53-9.24,1.57-2.21-3.1-4.67-5.84-7.36-8.16l-27.32-23.53c.54-.8,1.36-1.91,2-2.77,2.97-4.01,12.02-16.21,6.28-32.68-2.5-7.22-7.19-11.52-12.53-11.52-1.88,0-3.49.52-4.68.98-2.42.92-5.83,2.19-10.07,3.77l-12.92,4.82-.63.34c-15.07,8.21-29.06,20.15-41.58,35.5-1.37,1.69-2.74,3.43-4.08,5.19l-17.51,4.44c-6.61,1.67-12.79,5.13-18.44,10.31-1.26-.76-2.55-1.44-3.88-2.03l-4.02-1.8,5.72-9.01-19.3,2.94-27.04-12.09,2.44,15.84-31.91,4.87c-9.12,1.39-17.95,4.76-26.37,10.05-2.07-6.05-4.55-11.97-7.48-17.91l-.91-1.84-1.13-1.48c-4.36-5.72-8.98-11.21-13.71-16.33-8.84-9.57-14.15-14.98-20.26-14.98-1.29,0-2.55.26-3.76.75-1.38-2.87-2.87-5.66-4.46-8.37l-58.15-98.52,11.22,129.04-10.51,3.95c-12.48,4.69-24.06,13.12-34.42,25.05-3.65,4.2-7.11,8.81-10.35,13.78-.32-.06-.64-.11-.97-.15-.83-.11-1.65-.16-2.47-.16s-1.6.05-2.39.15l-4.53-6.18,14.75-20.45-25.64,5.6-8.01-10.93-4.55,13.68-42.73,9.33-12.41-76.96-24.57,81.68-1.54-.83c-6.08-3.28-11.99-4.95-17.56-4.95-3.19,0-6.27.53-9.24,1.57-2.21-3.1-4.67-5.84-7.36-8.16l-27.32-23.53c.54-.8,1.36-1.91,2-2.77,2.97-4.01,12.02-16.21,6.28-32.68-2.5-7.22-7.19-11.52-12.53-11.52-1.88,0-3.49.52-4.68.98-2.42.92-5.83,2.19-10.07,3.77l-12.92,4.82-.63.34c-15.07,8.21-29.06,20.15-41.58,35.5-1.37,1.69-2.74,3.43-4.08,5.19l-17.51,4.44c-6.61,1.67-12.79,5.13-18.44,10.31-1.26-.76-2.55-1.44-3.88-2.03l-4.02-1.8,5.72-9.01-19.3,2.94-27.04-12.09,2.44,15.84-31.91,4.87c-9.12,1.39-17.95,4.76-26.37,10.05-2.07-6.05-4.55-11.97-7.48-17.91l-.91-1.84-1.13-1.48c-4.36-5.72-8.98-11.21-13.71-16.33-8.84-9.57-14.15-14.98-20.26-14.98-1.29,0-2.55.26-3.76.75-1.38-2.87-2.87-5.66-4.46-8.37l-58.15-98.52,11.22,129.04-10.51,3.95c-12.48,4.69-24.06,13.12-34.42,25.05-3.65,4.2-7.11,8.81-10.35,13.78-.32-.06-.64-.11-.97-.15-.83-.11-1.65-.16-2.47-.16s-1.6.05-2.39.15l-4.53-6.18,14.75-20.45-25.64,5.6-8.01-10.93-4.55,13.68-51.92,11.34c-10.36,2.26-25.58,9.09-39.24,28.75-5.76,8.29-10.64,18.03-14.49,28.94l-22.79,64.59h2233.66l8.1-15.04c4.92-9.15,8.53-20.15,10.42-31.81,2.1-12.98,2.11-26.72,0-39.74Z"/><path class="cls-5" d="m2072.09,1046.69l-9.24-57.33-16.05,53.35c-.2.65-.41,1.29-.64,1.9-3.35-2.26-6.97-3.45-10.58-3.45-.21,0-.43,0-.65.01l1.33-13.19c-4.68-2.53-9.14-3.81-13.24-3.81-4.94,0-9.47,1.82-13.45,5.41-2.09-5.97-5.36-10.96-9.56-14.58l-18.54-15.97-.42,10.18c-4.68-2.8-9.47-4.21-14.28-4.21-1.29,0-2.59.11-3.87.31-2.3.38-4.44,1.06-6.45,1.96,1.08-2.73,2.28-5.33,3.59-7.82,1.47-2.79,2.94-5.12,4.27-7.05-1.43-19.02,1.34-28.73,4.46-34.11,2.53-4.36,7.29-9.32,6.76-10.82-.26-.76-1.73-.2-2.25,0-4.45,1.69-12.27,4.57-22.39,8.37-13.68,7.45-26.36,18.27-37.7,32.18-2.2,2.7-4.35,5.52-6.45,8.45l-21.26,5.39c-6.21,1.57-11.9,5.23-16.93,10.88-.91,1.03-1.78,2.09-2.6,3.18-2.21-2.49-5.01-4.74-8.54-6.31l-22.32-9.98,3.36,27.41c-4.39.94-7.87,2.83-10.63,5.19-2.89-4.62-6.83-8.31-11.78-11.05l10.09-15.91-37.9,5.78c-10.88,1.66-21.28,6.59-30.91,14.64-1.23,1.03-2.44,2.1-3.63,3.22-.81-4.15-1.71-7.66-2.39-10.32-2.52-9.81-5.85-17.53-8.81-23.51-2.84-3.72-7.17-9.15-12.72-15.15-6.38-6.9-12.07-12.99-13.53-10.82-1.7,2.52,4.73,12.74,4.51,28.87-.09,6.23-1.14,11.32-2.03,14.71.08.83.21,4.51-.73,6-.09.14-.18.26-.28.37-1.62-.34-3.26-.51-4.89-.51h-.31c.59-9.31.61-18.8-1.24-29.82-2.14-12.72-6.26-24.31-12.23-34.47l-29.08-49.27,5.85,67.27c.01.13.54,6.59-.08,14.7l-21.19,7.97c-10.75,4.04-20.71,11.29-29.61,21.55-5.16,5.94-9.86,12.8-14.04,20.46-1.73-1.4-3.81-2.5-6.28-2.82-.46-.06-.92-.09-1.38-.09-1.78,0-3.99.44-6.41,1.95-.89-1.56-1.77-2.89-2.57-3.97l-12.81-17.48-7.91,23.79c-1.13,3.39-2.56,6.44-4.25,9.07-1.81,2.81-3.75,4.86-5.56,6.33-.58-.32-1.16-.61-1.75-.87-2.25-.98-4.57-1.48-6.92-1.48-.38,0-.77.01-1.15.04l.22-9.78c-1.13-.34-2.27-.58-3.41-.72l17.11-23.72-45.06,9.84c-.86.19-1.78.43-2.72.7l-6.19-38.38-15.63,51.98c-.77.79-1.53,1.62-2.3,2.49-2.99-1.75-6.17-2.67-9.33-2.67-.21,0-.43,0-.65.01l1.33-13.19c-4.68-2.53-9.14-3.81-13.24-3.81-4.94,0-9.47,1.82-13.45,5.41-2.09-5.97-5.36-10.96-9.56-14.58l-18.54-15.97-.42,10.18c-4.68-2.8-9.47-4.21-14.28-4.21-1.29,0-2.59.11-3.87.31-2.3.38-4.44,1.06-6.44,1.96,1.08-2.73,2.28-5.33,3.59-7.82,1.47-2.79,2.94-5.12,4.27-7.05-1.43-19.02,1.34-28.73,4.46-34.11,2.53-4.36,7.29-9.32,6.76-10.82-.26-.76-1.73-.2-2.25,0-4.45,1.69-12.27,4.57-22.39,8.37-13.68,7.45-26.36,18.27-37.7,32.18-2.2,2.7-4.35,5.52-6.45,8.45l-21.26,5.39c-6.21,1.57-11.9,5.23-16.93,10.88-.91,1.03-1.78,2.09-2.6,3.18-2.21-2.49-5.01-4.74-8.54-6.31l-22.32-9.98,3.36,27.41c-4.39.94-7.87,2.83-10.63,5.19-2.89-4.62-6.83-8.31-11.78-11.05l10.09-15.91-37.9,5.78c-10.88,1.66-21.28,6.59-30.91,14.64-1.23,1.03-2.44,2.1-3.63,3.22-.81-4.15-1.71-7.66-2.39-10.32-2.52-9.81-5.85-17.53-8.81-23.51-2.84-3.72-7.17-9.15-12.72-15.15-6.38-6.9-12.07-12.99-13.53-10.82-1.7,2.52,4.73,12.74,4.51,28.87-.09,6.23-1.14,11.32-2.03,14.71.08.83.21,4.51-.73,6-.09.14-.18.26-.28.37-1.62-.34-3.26-.51-4.89-.51h-.31c.59-9.31.61-18.8-1.24-29.82-2.14-12.72-6.26-24.31-12.23-34.47l-29.08-49.27,5.85,67.27c.01.13.54,6.59-.08,14.7l-21.19,7.97c-10.75,4.04-20.71,11.29-29.61,21.55-5.16,5.94-9.86,12.8-14.04,20.46-1.73-1.4-3.81-2.5-6.28-2.82-.46-.06-.92-.09-1.38-.09-1.78,0-3.99.44-6.41,1.95-.89-1.56-1.77-2.89-2.57-3.97l-12.81-17.48-7.91,23.79c-1.13,3.39-2.56,6.44-4.25,9.07-1.81,2.81-3.75,4.86-5.56,6.33-.58-.32-1.16-.61-1.75-.87-.91-.39-1.83-.69-2.75-.93-.18-1.76-.39-3.51-.67-5.24l-2.19-13.59,11.47-15.9-13.55,2.96-4.97-30.8-10.26,34.13-16.28,3.55c-.42.09-.85.2-1.28.31-4.23-2.1-8.26-3.18-12-3.18-4.94,0-9.47,1.82-13.45,5.41-2.09-5.97-5.36-10.96-9.56-14.58l-18.54-15.97-.42,10.18c-4.68-2.8-9.47-4.21-14.28-4.21-1.29,0-2.59.11-3.87.31-2.3.38-4.44,1.06-6.44,1.96,1.08-2.73,2.28-5.33,3.59-7.82,1.47-2.79,2.94-5.12,4.27-7.05-1.43-19.02,1.34-28.73,4.46-34.11,2.53-4.36,7.29-9.32,6.76-10.82-.26-.76-1.73-.2-2.25,0-4.45,1.69-12.27,4.57-22.39,8.37-13.68,7.45-26.36,18.27-37.7,32.18-2.2,2.7-4.35,5.52-6.45,8.45l-21.26,5.39c-6.21,1.57-11.9,5.23-16.93,10.88-.91,1.03-1.78,2.09-2.6,3.18-2.21-2.49-5.01-4.74-8.54-6.31l-22.32-9.98,3.36,27.41c-4.39.94-7.87,2.83-10.63,5.19-2.89-4.62-6.83-8.31-11.78-11.05l10.09-15.91-37.9,5.78c-10.88,1.66-21.28,6.59-30.91,14.64-1.23,1.03-2.44,2.1-3.63,3.22-.81-4.15-1.71-7.66-2.39-10.32-2.52-9.81-5.85-17.53-8.81-23.51-2.84-3.72-7.17-9.15-12.72-15.15-6.38-6.9-12.07-12.99-13.53-10.82-1.7,2.52,4.73,12.74,4.51,28.87-.09,6.23-1.14,11.32-2.03,14.71.08.83.21,4.51-.73,6-.09.14-.18.26-.28.37-1.62-.34-3.26-.51-4.89-.51h-.31c.59-9.31.61-18.8-1.24-29.82-2.14-12.72-6.26-24.31-12.23-34.47l-29.08-49.27,5.85,67.27c.01.13.54,6.59-.08,14.7l-21.19,7.97c-10.75,4.04-20.71,11.29-29.61,21.55-5.16,5.94-9.86,12.8-14.04,20.46-1.73-1.4-3.81-2.5-6.28-2.82-.46-.06-.92-.09-1.38-.09-1.78,0-3.99.44-6.41,1.95-.89-1.56-1.77-2.89-2.57-3.97l-12.81-17.48-7.91,23.79c-1.13,3.39-2.56,6.44-4.25,9.07-1.81,2.81-3.75,4.86-5.56,6.33-.58-.32-1.16-.61-1.75-.87-2.25-.98-4.57-1.48-6.92-1.48-.38,0-.77.01-1.15.04l.22-9.78c-1.13-.34-2.27-.58-3.41-.72l17.11-23.72-45.06,9.84c-.86.19-1.78.43-2.72.7l-6.19-38.38-15.63,51.98c-.77.79-1.53,1.62-2.3,2.49-2.99-1.75-6.17-2.67-9.33-2.67-.21,0-.43,0-.65.01l1.33-13.19c-4.68-2.53-9.14-3.81-13.24-3.81-4.94,0-9.47,1.82-13.45,5.41-2.09-5.97-5.36-10.96-9.56-14.58l-18.54-15.97-.42,10.18c-4.68-2.8-9.47-4.21-14.28-4.21-1.29,0-2.59.11-3.87.31-2.3.38-4.44,1.06-6.44,1.96,1.08-2.73,2.28-5.33,3.59-7.82,1.47-2.79,2.94-5.12,4.27-7.05-1.43-19.02,1.34-28.73,4.46-34.11,2.53-4.36,7.29-9.32,6.76-10.82-.26-.76-1.73-.2-2.25,0-4.45,1.69-12.27,4.57-22.39,8.37-13.68,7.45-26.36,18.27-37.7,32.18-2.2,2.7-4.35,5.52-6.45,8.45l-21.26,5.39c-6.21,1.57-11.9,5.23-16.93,10.88-.91,1.03-1.78,2.09-2.6,3.18-2.21-2.49-5.01-4.74-8.54-6.31l-22.32-9.98,3.36,27.41c-4.39.94-7.87,2.83-10.63,5.19-2.89-4.62-6.83-8.31-11.78-11.05l10.09-15.91-37.9,5.78c-10.88,1.66-21.28,6.59-30.91,14.64-1.23,1.03-2.44,2.1-3.63,3.22-.81-4.15-1.71-7.66-2.39-10.32-2.52-9.81-5.85-17.53-8.81-23.51-2.84-3.72-7.17-9.15-12.72-15.15-6.38-6.9-12.07-12.99-13.53-10.82-1.7,2.52,4.73,12.74,4.51,28.87-.09,6.23-1.14,11.32-2.03,14.71.08.83.21,4.51-.73,6-.09.14-.18.26-.28.37-1.62-.34-3.26-.51-4.89-.51h-.31c.59-9.31.61-18.8-1.24-29.82-2.14-12.72-6.26-24.31-12.23-34.47l-29.08-49.27,5.85,67.27c.01.13.54,6.59-.08,14.7l-21.19,7.97c-10.75,4.04-20.71,11.29-29.61,21.55-5.16,5.94-9.86,12.8-14.04,20.46-1.73-1.4-3.81-2.5-6.28-2.82-.46-.06-.92-.09-1.38-.09-1.78,0-3.99.44-6.41,1.95-.89-1.56-1.77-2.89-2.57-3.97l-12.81-17.48-7.91,23.79c-1.13,3.39-2.56,6.44-4.25,9.07-1.81,2.81-3.75,4.86-5.56,6.33-.58-.32-1.16-.61-1.75-.87-2.25-.98-4.57-1.48-6.92-1.48-.38,0-.77.01-1.15.04l.22-9.78c-1.13-.34-2.27-.58-3.41-.72l17.11-23.72-45.06,9.84c-8.48,1.85-20.91,7.41-32.02,23.4-4.67,6.72-8.62,14.62-11.75,23.49l-11.39,32.29h2204.29l4.05-7.52c3.58-6.65,6.2-14.65,7.58-23.12,1.53-9.43,1.53-19.42,0-28.89Z"/><path class="cls-3" d="m2058.99,1045.98c-1.11,3.67-3.15,9.25-6.76,14.43-2.45,3.51-4.88,5.77-6.76,7.22-1.91,1.8-3.92,1.39-4.51,0-.65-1.52-.03-5.16,2.25-7.22-.93-1-4.34-4.4-9.02-3.61-4.06.69-6.71,4.12-7.62,5.41-1.98-3.41-2.53-8.36-1.4-12.63,1.14-4.34,3.81-7.19,6.76-7.22-8.21-4.43-12.95-2.59-15.78,0-3.93,3.59-5.3,9.63-11.27,14.43-2.7,2.17-5.15,3.13-6.76,3.61-.03-1.68-.06-4.18,0-7.22.2-10.44,1.12-13.83,0-18.04-.56-2.1-1.73-4.82-4.51-7.22-.12,2.83-.68,10.81-4.51,18.04-5.1,9.63-12.15,10.67-13.53,10.82-1.19-1.5-2.86-3.86-4.51-7.22-2.48-5.05-5.97-12.18-4.51-18.04,1.26-5.05,5.94-8.11,11.27-7.22-6.02-4.17-10.94-4.03-13.53-3.61-7.81,1.28-13.16,8.16-18.04,14.43-4.68,6.01-7.85,12.1-9.78,16.24-.69-9.21-1.44-29.95,5.27-52.32,4.16-13.88,9.67-23.29,13.53-28.87-9.1,4.95-21.34,13.55-33.82,28.87-6.97,8.55-12.51,17.35-16.84,25.26-7.71,7.93-14.79,8.25-16.98,3.61-.27-.58-1.61-3.65,0-10.82-2.68.68-6.98,2.39-11.27,7.22-8.75,9.83-10.83,25.05-11.27,28.87-.61-1.51-1.51-3.97-2.25-7.22-1.58-6.94-.83-10.43-2.25-14.43-.84-2.35-2.59-5.35-6.76-7.22.27,1.73,1.74,11.99-2.25,21.65-3.09,7.49-7.61,10.1-9.02,10.82-2.46-.56-4.32-3.64-4.51-7.22-.15-2.79.73-5.54,2.25-7.22-5.75,1.23-8.02,4.42-9.02,7.22-.93,2.63-.79,5.06-2.25,10.82-.8,3.16-1.65,5.62-2.25,7.22-2.66-2.02-5.91-5.4-6.76-10.83-.68-4.34.67-6.9,0-10.82-.56-3.3-2.53-7.49-9.02-10.82.06,1,.76,15.89-6.76,25.26-5.1,6.35-12.03,7.73-18.04,3.61-4.67.1-6.21-2.37-6.76-3.61-2.66-5.93,1.1-19.68,10.15-33.93-5.99.91-15.55,3.59-25.93,12.28-8.34,6.98-14.26,15.36-18.04,21.65.21-1.06.69-3.93,0-7.22-.76-3.6-2.47-5.58-3.57-6.53.8-10.37-1.63-19.88-3.2-25.95-1.17-4.53-3.2-11.08-6.76-18.04.16,1.36,1.68,15.44-4.51,25.26-3.34,5.31-7.29,6.76-9.02,7.22-2.25-.86-6.39-1.92-11.27,0-7.78,3.06-12.19,11.6-13.53,14.43,2.48-10.95,3.8-20.81,4.51-28.87,1.07-12.04,1.89-21.27,0-32.47-.95-5.63-3.18-15.35-9.02-25.26.17,1.77,3.47,40.68-13.53,61.34-6.64,8.08-13.79,10.21-18.04,10.83-.75-1.89-2.01-5.67-2.25-10.83-.34-7.22,1.53-12.57,2.25-14.43-5.86,2.21-15.2,6.98-24.8,18.04-7.55,8.7-12.62,18.23-15.78,25.26-3.14,3.88-5.31,4.19-6.76,3.61-3.07-1.23-3.92-6.85-6.76-7.22-1.8-.23-3.39,1.75-4.51,3.61.3,1.47.7,4.3,0,7.22-1.15,4.77-4.8,7.87-9.02,7.22.4-2.02,1.34-7.71,0-14.43-1.18-5.89-3.48-9.41-4.51-10.82-1.35,4.07-3.48,9.33-6.76,14.43-5.86,9.11-12.26,12.85-15.78,14.43-.9-1.11-2.41-2.7-4.51-3.61-3.02-1.31-5.56-.51-6.76,0-2.28.24-4.17-1.52-4.51-3.61-.42-2.55,1.3-6.65,4.51-7.22-1.57-.47-3.96-.85-6.76,0-4.59,1.38-7.66,5.25-9.02,7.22-.08-.34-.66-2.75-2.25-3.61-1.03-.55-1.92-.17-2.25,0,0,.54-.12,4.7-2.25,7.22-1.9,2.24-4.62,2.27-6.76,0-.82-1.54-1.84-3.96-2.25-7.22-1.26-9.82,4.17-17.57,4.51-18.04-3.02.66-8.32,2.27-14.18,6.73-.13-1.25-.28-2.31-.41-3.12-.42,1.38-.96,3.03-1.68,4.83-2.83,2.45-5.73,5.57-8.53,9.6-1.89,2.71-3.48,5.49-4.84,8.2-1.36.52-2.55.04-2.99-.98-.65-1.52-.03-5.16,2.25-7.22-.93-1-4.34-4.4-9.02-3.61-4.06.69-6.71,4.12-7.62,5.41-1.98-3.41-2.53-8.36-1.4-12.63,1.14-4.34,3.81-7.19,6.76-7.22-8.21-4.43-12.95-2.59-15.78,0-3.93,3.59-5.3,9.63-11.27,14.43-2.7,2.17-5.15,3.13-6.76,3.61-.03-1.68-.06-4.18,0-7.22.2-10.44,1.12-13.83,0-18.04-.56-2.1-1.73-4.82-4.51-7.22-.12,2.83-.68,10.81-4.51,18.04-5.1,9.63-12.15,10.67-13.53,10.82-1.19-1.5-2.86-3.86-4.51-7.22-2.48-5.05-5.97-12.18-4.51-18.04,1.26-5.05,5.94-8.11,11.27-7.22-6.02-4.17-10.94-4.03-13.53-3.61-7.81,1.28-13.16,8.16-18.04,14.43-4.68,6.01-7.85,12.1-9.78,16.24-.69-9.21-1.44-29.95,5.27-52.32,4.16-13.88,9.67-23.29,13.53-28.87-9.1,4.95-21.34,13.55-33.82,28.87-6.97,8.55-12.51,17.35-16.84,25.26-7.71,7.93-14.79,8.25-16.98,3.61-.27-.58-1.61-3.65,0-10.82-2.68.68-6.98,2.39-11.27,7.22-8.75,9.83-10.83,25.05-11.27,28.87-.61-1.51-1.51-3.97-2.25-7.22-1.58-6.94-.83-10.43-2.25-14.43-.84-2.35-2.59-5.35-6.76-7.22.27,1.73,1.74,11.99-2.25,21.65-3.09,7.49-7.61,10.1-9.02,10.82-2.46-.56-4.32-3.64-4.51-7.22-.15-2.79.73-5.54,2.25-7.22-5.75,1.23-8.02,4.42-9.02,7.22-.93,2.63-.79,5.06-2.25,10.82-.8,3.16-1.65,5.62-2.25,7.22-2.66-2.02-5.91-5.4-6.76-10.83-.68-4.34.67-6.9,0-10.82-.56-3.3-2.53-7.49-9.02-10.82.06,1,.76,15.89-6.76,25.26-5.1,6.35-12.03,7.73-18.04,3.61-4.67.1-6.21-2.37-6.76-3.61-2.66-5.93,1.1-19.68,10.15-33.93-5.99.91-15.55,3.59-25.93,12.28-8.34,6.98-14.26,15.36-18.04,21.65.21-1.06.69-3.93,0-7.22-.76-3.6-2.47-5.58-3.57-6.53.8-10.37-1.63-19.88-3.2-25.95-1.17-4.53-3.2-11.08-6.76-18.04.16,1.36,1.68,15.44-4.51,25.26-3.34,5.31-7.29,6.76-9.02,7.22-2.25-.86-6.39-1.92-11.27,0-7.78,3.06-12.19,11.6-13.53,14.43,2.48-10.95,3.8-20.81,4.51-28.87,1.07-12.04,1.89-21.27,0-32.47-.95-5.63-3.18-15.35-9.02-25.26.17,1.77,3.47,40.68-13.53,61.34-6.64,8.08-13.79,10.21-18.04,10.83-.75-1.89-2.01-5.67-2.25-10.83-.34-7.22,1.53-12.57,2.25-14.43-5.86,2.21-15.2,6.98-24.8,18.04-7.55,8.7-12.62,18.23-15.78,25.26-3.14,3.88-5.31,4.19-6.76,3.61-3.07-1.23-3.92-6.85-6.76-7.22-1.8-.23-3.39,1.75-4.51,3.61.3,1.47.7,4.3,0,7.22-1.15,4.77-4.8,7.87-9.02,7.22.4-2.02,1.34-7.71,0-14.43-1.18-5.89-3.48-9.41-4.51-10.82-1.35,4.07-3.48,9.33-6.76,14.43-5.86,9.11-12.26,12.85-15.78,14.43-.9-1.11-2.41-2.7-4.51-3.61-3.02-1.31-5.56-.51-6.76,0-2.28.24-4.17-1.52-4.51-3.61-.42-2.55,1.3-6.65,4.51-7.22-1.33-.4-3.25-.72-5.51-.3.12-4.66-.35-8.4-.69-10.53-1.11,3.67-3.15,9.25-6.76,14.43-.24.34-.48.67-.72.99-.79.85-1.41,1.66-1.88,2.32-.08.09-.15.17-.23.26-.1-.43-.69-2.72-2.24-3.56-1.03-.55-1.92-.17-2.25,0,0,.54-.12,4.7-2.25,7.22-.3.35-.62.63-.95.87-.33-.21-.59-.5-.74-.87-.65-1.52-.03-5.16,2.25-7.22-.93-1-4.34-4.4-9.02-3.61-.26.04-.5.13-.74.19.15-8.15,4.39-14.21,4.69-14.63-2.7.59-7.24,1.94-12.36,5.42,1.33-3.3,3.64-5.39,6.16-5.42-8.21-4.43-12.95-2.59-15.78,0-3.93,3.59-5.3,9.63-11.27,14.43-2.7,2.17-5.15,3.13-6.76,3.61-.03-1.68-.06-4.18,0-7.22.2-10.44,1.12-13.83,0-18.04-.56-2.1-1.73-4.82-4.51-7.22-.12,2.83-.68,10.81-4.51,18.04-5.1,9.63-12.15,10.67-13.53,10.82-1.19-1.5-2.86-3.86-4.51-7.22-2.48-5.05-5.97-12.18-4.51-18.04,1.26-5.05,5.94-8.11,11.27-7.22-6.02-4.17-10.94-4.03-13.53-3.61-7.81,1.28-13.16,8.16-18.04,14.43-4.68,6.01-7.85,12.1-9.78,16.24-.69-9.21-1.44-29.95,5.27-52.32,4.16-13.88,9.67-23.29,13.53-28.87-9.1,4.95-21.34,13.55-33.82,28.87-6.97,8.55-12.51,17.35-16.84,25.26-7.71,7.93-14.79,8.25-16.98,3.61-.27-.58-1.61-3.65,0-10.82-2.68.68-6.98,2.39-11.27,7.22-8.75,9.83-10.83,25.05-11.27,28.87-.61-1.51-1.51-3.97-2.25-7.22-1.58-6.94-.83-10.43-2.25-14.43-.84-2.35-2.59-5.35-6.76-7.22.27,1.73,1.74,11.99-2.25,21.65-3.09,7.49-7.61,10.1-9.02,10.82-2.46-.56-4.32-3.64-4.51-7.22-.15-2.79.73-5.54,2.25-7.22-5.75,1.23-8.02,4.42-9.02,7.22-.93,2.63-.79,5.06-2.25,10.82-.8,3.16-1.65,5.62-2.25,7.22-2.66-2.02-5.91-5.4-6.76-10.83-.68-4.34.67-6.9,0-10.82-.56-3.3-2.53-7.49-9.02-10.82.06,1,.76,15.89-6.76,25.26-5.1,6.35-12.03,7.73-18.04,3.61-4.67.1-6.21-2.37-6.76-3.61-2.66-5.93,1.1-19.68,10.15-33.93-5.99.91-15.55,3.59-25.93,12.28-8.34,6.98-14.26,15.36-18.04,21.65.21-1.06.69-3.93,0-7.22-.76-3.6-2.47-5.58-3.57-6.53.8-10.37-1.63-19.88-3.2-25.95-1.17-4.53-3.2-11.08-6.76-18.04.16,1.36,1.68,15.44-4.51,25.26-3.34,5.31-7.29,6.76-9.02,7.22-2.25-.86-6.39-1.92-11.27,0-7.78,3.06-12.19,11.6-13.53,14.43,2.48-10.95,3.8-20.81,4.51-28.87,1.07-12.04,1.89-21.27,0-32.47-.95-5.63-3.18-15.35-9.02-25.26.17,1.77,3.47,40.68-13.53,61.34-6.64,8.08-13.79,10.21-18.04,10.83-.75-1.89-2.01-5.67-2.25-10.83-.34-7.22,1.53-12.57,2.25-14.43-5.86,2.21-15.2,6.98-24.8,18.04-7.55,8.7-12.62,18.23-15.78,25.26-3.14,3.88-5.31,4.19-6.76,3.61-3.07-1.23-3.92-6.85-6.76-7.22-1.8-.23-3.39,1.75-4.51,3.61.3,1.47.7,4.3,0,7.22-1.15,4.77-4.8,7.87-9.02,7.22.4-2.02,1.34-7.71,0-14.43-1.18-5.89-3.48-9.41-4.51-10.82-1.35,4.07-3.48,9.33-6.76,14.43-5.86,9.11-12.26,12.85-15.78,14.43-.9-1.11-2.41-2.7-4.51-3.61-3.02-1.31-5.56-.51-6.76,0-2.28.24-4.17-1.52-4.51-3.61-.42-2.55,1.3-6.65,4.51-7.22-1.57-.47-3.96-.85-6.76,0-4.59,1.38-7.66,5.25-9.02,7.22-.08-.34-.66-2.75-2.25-3.61-1.03-.55-1.92-.17-2.25,0,0,.54-.12,4.7-2.25,7.22-1.9,2.24-4.62,2.27-6.76,0-.82-1.54-1.84-3.96-2.25-7.22-1.26-9.82,4.17-17.57,4.51-18.04-3.02.66-8.32,2.27-14.18,6.73-.13-1.25-.28-2.31-.41-3.12-.42,1.38-.96,3.03-1.68,4.83-2.83,2.45-5.73,5.57-8.53,9.6-1.89,2.71-3.48,5.49-4.84,8.2-1.36.52-2.55.04-2.99-.98-.65-1.52-.03-5.16,2.25-7.22-.93-1-4.34-4.4-9.02-3.61-4.06.69-6.71,4.12-7.62,5.41-1.98-3.41-2.53-8.36-1.4-12.63,1.14-4.34,3.81-7.19,6.76-7.22-8.21-4.43-12.95-2.59-15.78,0-3.93,3.59-5.3,9.63-11.27,14.43-2.7,2.17-5.15,3.13-6.76,3.61-.03-1.68-.06-4.18,0-7.22.2-10.44,1.12-13.83,0-18.04-.56-2.1-1.73-4.82-4.51-7.22-.12,2.83-.68,10.81-4.51,18.04-5.1,9.63-12.15,10.67-13.53,10.82-1.19-1.5-2.86-3.86-4.51-7.22-2.48-5.05-5.97-12.18-4.51-18.04,1.26-5.05,5.94-8.11,11.27-7.22-6.02-4.17-10.94-4.03-13.53-3.61-7.81,1.28-13.16,8.16-18.04,14.43-4.68,6.01-7.85,12.1-9.78,16.24-.69-9.21-1.44-29.95,5.27-52.32,4.16-13.88,9.67-23.29,13.53-28.87-9.1,4.95-21.34,13.55-33.82,28.87-6.97,8.55-12.51,17.35-16.84,25.26-7.71,7.93-14.79,8.25-16.98,3.61-.27-.58-1.61-3.65,0-10.82-2.68.68-6.98,2.39-11.27,7.22-8.75,9.83-10.83,25.05-11.27,28.87-.61-1.51-1.51-3.97-2.25-7.22-1.58-6.94-.83-10.43-2.25-14.43-.84-2.35-2.59-5.35-6.76-7.22.27,1.73,1.74,11.99-2.25,21.65-3.09,7.49-7.61,10.1-9.02,10.82-2.46-.56-4.32-3.64-4.51-7.22-.15-2.79.73-5.54,2.25-7.22-5.75,1.23-8.02,4.42-9.02,7.22-.93,2.63-.79,5.06-2.25,10.82-.8,3.16-1.65,5.62-2.25,7.22-2.66-2.02-5.91-5.4-6.76-10.83-.68-4.34.67-6.9,0-10.82-.56-3.3-2.53-7.49-9.02-10.82.06,1,.76,15.89-6.76,25.26-5.1,6.35-12.03,7.73-18.04,3.61-4.67.1-6.21-2.37-6.76-3.61-2.66-5.93,1.1-19.68,10.15-33.93-5.99.91-15.55,3.59-25.93,12.28-8.34,6.98-14.26,15.36-18.04,21.65.21-1.06.69-3.93,0-7.22-.76-3.6-2.47-5.58-3.57-6.53.8-10.37-1.63-19.88-3.2-25.95-1.17-4.53-3.2-11.08-6.76-18.04.16,1.36,1.68,15.44-4.51,25.26-3.34,5.31-7.29,6.76-9.02,7.22-2.25-.86-6.39-1.92-11.27,0-7.78,3.06-12.19,11.6-13.53,14.43,2.48-10.95,3.8-20.81,4.51-28.87,1.07-12.04,1.89-21.27,0-32.47-.95-5.63-3.18-15.35-9.02-25.26.17,1.77,3.47,40.68-13.53,61.34-6.64,8.08-13.79,10.21-18.04,10.83-.75-1.89-2.01-5.67-2.25-10.83-.34-7.22,1.53-12.57,2.25-14.43-5.86,2.21-15.2,6.98-24.8,18.04-7.55,8.7-12.62,18.23-15.78,25.26-3.14,3.88-5.31,4.19-6.76,3.61-3.07-1.23-3.92-6.85-6.76-7.22-1.8-.23-3.39,1.75-4.51,3.61.3,1.47.7,4.3,0,7.22-1.15,4.77-4.8,7.87-9.02,7.22.4-2.02,1.34-7.71,0-14.43-1.18-5.89-3.48-9.41-4.51-10.82-1.35,4.07-3.48,9.33-6.76,14.43-5.86,9.11-12.26,12.85-15.78,14.43-.9-1.11-2.41-2.7-4.51-3.61-3.02-1.31-5.56-.51-6.76,0-2.28.24-4.17-1.52-4.51-3.61-.42-2.55,1.3-6.65,4.51-7.22-1.57-.47-3.96-.85-6.76,0-4.59,1.38-7.66,5.25-9.02,7.22-.08-.34-.66-2.75-2.25-3.61-1.03-.55-1.92-.17-2.25,0,0,.54-.12,4.7-2.25,7.22-1.9,2.24-4.62,2.27-6.76,0-.82-1.54-1.84-3.96-2.25-7.22-1.26-9.82,4.17-17.57,4.51-18.04-4.81,1.05-15.39,4.5-24.8,18.04-4.34,6.24-7.18,12.84-9.02,18.04h2174.91c1.32-2.44,3.57-7.3,4.73-14.43,1.31-8.1.51-14.86,0-18.04Zm-1931.62,14.43c.66-1.57,1.56-4.02,2.25-7.22-.5,3.62-1.64,6.06-2.25,7.22Zm548.96,0c.66-1.57,1.56-4.02,2.25-7.22-.5,3.62-1.64,6.06-2.25,7.22Zm513.52,0c.66-1.57,1.56-4.02,2.25-7.22-.5,3.62-1.64,6.06-2.25,7.22Zm548.96,0c.66-1.57,1.56-4.02,2.25-7.22-.5,3.62-1.64,6.06-2.25,7.22Z"/></g></svg>