<?xml version="1.0" encoding="UTF-8"?><svg id="Calque_1" xmlns="http://www.w3.org/2000/svg" xmlns:xlink="http://www.w3.org/1999/xlink" viewBox="0 0 308.88 446.32"><defs><style>.cls-1{fill:url(#Dégradé_sans_nom_6);}.cls-1,.cls-2,.cls-3,.cls-4,.cls-5,.cls-6,.cls-7,.cls-8,.cls-9,.cls-10,.cls-11{stroke-miterlimit:10;}.cls-1,.cls-4,.cls-5,.cls-6,.cls-7,.cls-8,.cls-9,.cls-10{stroke:#1d1d1b;}.cls-1,.cls-12{stroke-width:10px;}.cls-13{fill:url(#Dégradé_sans_nom_9);stroke-miterlimit:10;stroke-width:1px;}.cls-13,.cls-2,.cls-3,.cls-14,.cls-15,.cls-16,.cls-17,.cls-18,.cls-19,.cls-20,.cls-12,.cls-21,.cls-11{stroke:#1a1a1a;}.cls-2{fill:url(#Dégradé_sans_nom_13);}.cls-3{fill:url(#Dégradé_sans_nom_19);}.cls-14{fill:url(#Dégradé_sans_nom_16);stroke-miterlimit:10;stroke-width:1px;}.cls-4{fill:url(#Dégradé_sans_nom_4);}.cls-4,.cls-5,.cls-6,.cls-7,.cls-10,.cls-11{stroke-width:5px;}.cls-5{fill:url(#Dégradé_sans_nom_2);}.cls-6{fill:url(#Dégradé_sans_nom_3);}.cls-7{fill:url(#Dégradé_sans_nom_5);}.cls-15{fill:url(#Dégradé_sans_nom_12);}.cls-15,.cls-16{stroke-miterlimit:10;stroke-width:1px;}.cls-16{fill:url(#Dégradé_sans_nom_18);}.cls-17{fill:url(#Dégradé_sans_nom_17);stroke-miterlimit:10;stroke-width:1px;}.cls-18{fill:url(#Dégradé_sans_nom_11);stroke-miterlimit:10;stroke-width:1px;}.cls-19{fill:url(#Dégradé_sans_nom_15);stroke-miterlimit:10;stroke-width:1px;}.cls-20{fill:url(#Dégradé_sans_nom_10);stroke-miterlimit:10;stroke-width:1px;}.cls-22{fill:url(#Dégradé_sans_nom_8);}.cls-22,.cls-23,.cls-24,.cls-25,.cls-26,.cls-27,.cls-28,.cls-29,.cls-30,.cls-31,.cls-32{stroke-width:0px;}.cls-23{fill:url(#Dégradé_sans_nom_7);}.cls-12,.cls-8,.cls-21,.cls-10,.cls-11{fill:none;stroke-linecap:round;}.cls-12,.cls-21{stroke-linejoin:round;}.cls-8{stroke-width:2px;}.cls-9{fill:url(#Dégradé_sans_nom);stroke-width:4px;}.cls-21{stroke-width:15px;}.cls-24{fill:url(#Dégradé_sans_nom_14);}.cls-25{fill:url(#Dégradé_sans_nom_24);}.cls-26{fill:url(#Dégradé_sans_nom_20);}.cls-27{fill:url(#Dégradé_sans_nom_27);}.cls-28{fill:url(#Dégradé_sans_nom_22);}.cls-29{fill:url(#Dégradé_sans_nom_21);}.cls-30{fill:url(#Dégradé_sans_nom_26);}.cls-31{fill:url(#Dégradé_sans_nom_25);}.cls-32{fill:url(#Dégradé_sans_nom_23);}</style><radialGradient id="Dégradé_sans_nom" cx="-1696.52" cy="-197.68" fx="-1696.52" fy="-197.68" r="120.5" gradientTransform="translate(-12.62 -421.12) rotate(-117.12) scale(.44 .4) skewX(.6)" gradientUnits="userSpaceOnUse"><stop offset="0" stop-color="#8d5da9"/><stop offset=".23" stop-color="#8759a1"/><stop offset=".57" stop-color="#784e8d"/><stop offset=".98" stop-color="#5f3d6c"/><stop offset="1" stop-color="#5e3d6b"/></radialGradient><radialGradient id="Dégradé_sans_nom_2" cx="1080.17" cy="1028.62" fx="1080.17" fy="1028.62" r="72.68" gradientTransform="translate(-319.62 -96.76) scale(.4 .48)" gradientUnits="userSpaceOnUse"><stop offset="0" stop-color="#8d5da9"/><stop offset=".23" stop-color="#8759a1"/><stop offset=".57" stop-color="#784e8d"/><stop offset=".98" stop-color="#5f3d6c"/><stop offset="1" stop-color="#5e3d6b"/></radialGradient><radialGradient id="Dégradé_sans_nom_3" cx="159.06" cy="351.49" fx="159.06" fy="351.49" r="22.96" gradientTransform="translate(18.41 96.06) scale(.72 .96)" gradientUnits="userSpaceOnUse"><stop offset="0" stop-color="#8d5da9"/><stop offset=".23" stop-color="#8759a1"/><stop offset=".57" stop-color="#784e8d"/><stop offset=".98" stop-color="#5f3d6c"/><stop offset="1" stop-color="#5e3d6b"/></radialGradient><radialGradient id="Dégradé_sans_nom_4" cx="1213.7" cy="1029.34" fx="1213.7" fy="1029.34" r="72.68" gradientTransform="translate(-319.62 -96.81) scale(.4 .48)" gradientUnits="userSpaceOnUse"><stop offset="0" stop-color="#8d5da9"/><stop offset=".23" stop-color="#8759a1"/><stop offset=".57" stop-color="#784e8d"/><stop offset=".98" stop-color="#5f3d6c"/><stop offset="1" stop-color="#5e3d6b"/></radialGradient><radialGradient id="Dégradé_sans_nom_5" cx="234.7" cy="351.85" fx="234.7" fy="351.85" r="22.96" gradientTransform="translate(18.41 96) scale(.72 .96)" gradientUnits="userSpaceOnUse"><stop offset="0" stop-color="#8d5da9"/><stop offset=".23" stop-color="#8759a1"/><stop offset=".57" stop-color="#784e8d"/><stop offset=".98" stop-color="#5f3d6c"/><stop offset="1" stop-color="#5e3d6b"/></radialGradient><radialGradient id="Dégradé_sans_nom_6" cx="309.61" cy="233.72" fx="309.61" fy="233.72" r="123.72" gradientTransform="translate(-44.64 67.31) scale(.6 .88)" gradientUnits="userSpaceOnUse"><stop offset="0" stop-color="#8d5da9"/><stop offset=".23" stop-color="#8759a1"/><stop offset=".57" stop-color="#784e8d"/><stop offset=".98" stop-color="#5f3d6c"/><stop offset="1" stop-color="#5e3d6b"/></radialGradient><radialGradient id="Dégradé_sans_nom_7" cx="309.1" cy="130.07" fx="309.1" fy="130.07" r="84.15" gradientTransform="translate(-44.64 121.33) scale(.6 1.15)" gradientUnits="userSpaceOnUse"><stop offset="0" stop-color="#b38fc6"/><stop offset=".24" stop-color="#b08cc2"/><stop offset=".42" stop-color="#a786b8"/><stop offset=".59" stop-color="#997aa7"/><stop offset=".75" stop-color="#856b90"/><stop offset=".87" stop-color="#735d7b"/></radialGradient><radialGradient id="Dégradé_sans_nom_8" cx="-1890.46" cy="812.34" fx="-1890.46" fy="812.34" r="117.2" gradientTransform="translate(49 -636.24) rotate(-64.6) scale(.41 .45) skewX(1.83)" gradientUnits="userSpaceOnUse"><stop offset="0" stop-color="#8d5da9"/><stop offset=".24" stop-color="#8a5aa5"/><stop offset=".47" stop-color="#805499"/><stop offset=".7" stop-color="#724a85"/><stop offset=".93" stop-color="#5e3d6b"/></radialGradient><radialGradient id="Dégradé_sans_nom_9" cx="-2126.88" cy="122.57" fx="-2126.88" fy="122.57" r="9.62" gradientTransform="translate(1021.92 177.24) rotate(2.41) scale(.47 .63) skewX(1.93)" gradientUnits="userSpaceOnUse"><stop offset="0" stop-color="#b38fc6"/><stop offset=".24" stop-color="#b08cc2"/><stop offset=".42" stop-color="#a786b8"/><stop offset=".59" stop-color="#997aa7"/><stop offset=".75" stop-color="#856b90"/><stop offset=".87" stop-color="#735d7b"/></radialGradient><radialGradient id="Dégradé_sans_nom_10" cx="-1657.84" cy="274.88" fx="-1657.84" fy="274.88" r="9.62" gradientTransform="translate(927.61 66.2) rotate(3.34) scale(.55 .68) skewX(2.05)" gradientUnits="userSpaceOnUse"><stop offset="0" stop-color="#b38fc6"/><stop offset=".24" stop-color="#b08cc2"/><stop offset=".42" stop-color="#a786b8"/><stop offset=".59" stop-color="#997aa7"/><stop offset=".75" stop-color="#856b90"/><stop offset=".87" stop-color="#735d7b"/></radialGradient><radialGradient id="Dégradé_sans_nom_11" cx="-1526.96" cy="339.2" fx="-1526.96" fy="339.2" r="9.62" gradientTransform="translate(866.37 7.65) rotate(3.33) scale(.55 .68) skewX(2.01)" gradientUnits="userSpaceOnUse"><stop offset="0" stop-color="#b38fc6"/><stop offset=".24" stop-color="#b08cc2"/><stop offset=".42" stop-color="#a786b8"/><stop offset=".59" stop-color="#997aa7"/><stop offset=".75" stop-color="#856b90"/><stop offset=".87" stop-color="#735d7b"/></radialGradient><radialGradient id="Dégradé_sans_nom_12" cx="-1067.6" cy="616.73" fx="-1067.6" fy="616.73" r="9.62" gradientTransform="translate(541.37 -192.6) rotate(1.75) scale(.47 .64) skewX(1.31)" gradientUnits="userSpaceOnUse"><stop offset="0" stop-color="#b38fc6"/><stop offset=".24" stop-color="#b08cc2"/><stop offset=".42" stop-color="#a786b8"/><stop offset=".59" stop-color="#997aa7"/><stop offset=".75" stop-color="#856b90"/><stop offset=".87" stop-color="#735d7b"/></radialGradient><radialGradient id="Dégradé_sans_nom_13" cx="-1890.56" cy="843.99" fx="-1890.56" fy="843.99" r="21.11" gradientTransform="translate(55.65 -633.2) rotate(-64.6) scale(.41 .4) skewX(1.62)" gradientUnits="userSpaceOnUse"><stop offset="0" stop-color="#b38fc6"/><stop offset=".24" stop-color="#b08cc2"/><stop offset=".42" stop-color="#a786b8"/><stop offset=".59" stop-color="#997aa7"/><stop offset=".75" stop-color="#856b90"/><stop offset=".87" stop-color="#735d7b"/></radialGradient><radialGradient id="Dégradé_sans_nom_14" cx="-2550.34" cy="-595.61" fx="-2550.34" fy="-595.61" r="117.35" gradientTransform="translate(-442.12 -622.59) rotate(-115.4) scale(.41 -.45) skewX(1.83)" gradientUnits="userSpaceOnUse"><stop offset="0" stop-color="#8d5da9"/><stop offset=".24" stop-color="#8a5aa5"/><stop offset=".47" stop-color="#805499"/><stop offset=".7" stop-color="#724a85"/><stop offset=".93" stop-color="#5e3d6b"/></radialGradient><radialGradient id="Dégradé_sans_nom_15" cx="-2281.17" cy="-1036.63" fx="-2281.17" fy="-1036.63" r="9.62" gradientTransform="translate(-415.42 -842.98) rotate(-92.41) scale(.47 -.63) skewX(1.93)" gradientUnits="userSpaceOnUse"><stop offset="0" stop-color="#b38fc6"/><stop offset=".24" stop-color="#b08cc2"/><stop offset=".42" stop-color="#a786b8"/><stop offset=".59" stop-color="#997aa7"/><stop offset=".75" stop-color="#856b90"/><stop offset=".87" stop-color="#735d7b"/></radialGradient><radialGradient id="Dégradé_sans_nom_16" cx="-2101.71" cy="-723.26" fx="-2101.71" fy="-723.26" r="9.62" gradientTransform="translate(-266.33 -935.24) rotate(-93.34) scale(.55 -.68) skewX(2.05)" gradientUnits="userSpaceOnUse"><stop offset="0" stop-color="#b38fc6"/><stop offset=".24" stop-color="#b08cc2"/><stop offset=".42" stop-color="#a786b8"/><stop offset=".59" stop-color="#997aa7"/><stop offset=".75" stop-color="#856b90"/><stop offset=".87" stop-color="#735d7b"/></radialGradient><radialGradient id="Dégradé_sans_nom_17" cx="-2067.56" cy="-617.29" fx="-2067.56" fy="-617.29" r="9.62" gradientTransform="translate(-199.89 -936.09) rotate(-93.33) scale(.55 -.68) skewX(2.01)" gradientUnits="userSpaceOnUse"><stop offset="0" stop-color="#b38fc6"/><stop offset=".24" stop-color="#b08cc2"/><stop offset=".42" stop-color="#a786b8"/><stop offset=".59" stop-color="#997aa7"/><stop offset=".75" stop-color="#856b90"/><stop offset=".87" stop-color="#735d7b"/></radialGradient><radialGradient id="Dégradé_sans_nom_18" cx="-2142.78" cy="-129.87" fx="-2142.78" fy="-129.87" r="9.62" gradientTransform="translate(153.57 -816.66) rotate(-91.75) scale(.47 -.64) skewX(1.31)" gradientUnits="userSpaceOnUse"><stop offset="0" stop-color="#b38fc6"/><stop offset=".24" stop-color="#b08cc2"/><stop offset=".42" stop-color="#a786b8"/><stop offset=".59" stop-color="#997aa7"/><stop offset=".75" stop-color="#856b90"/><stop offset=".87" stop-color="#735d7b"/></radialGradient><radialGradient id="Dégradé_sans_nom_19" cx="-2550.72" cy="-641.36" fx="-2550.72" fy="-641.36" r="21.11" gradientTransform="translate(-405.31 -639.02) rotate(-115.4) scale(.41 -.4) skewX(1.63)" gradientUnits="userSpaceOnUse"><stop offset="0" stop-color="#b38fc6"/><stop offset=".24" stop-color="#b08cc2"/><stop offset=".42" stop-color="#a786b8"/><stop offset=".59" stop-color="#997aa7"/><stop offset=".75" stop-color="#856b90"/><stop offset=".87" stop-color="#735d7b"/></radialGradient><radialGradient id="Dégradé_sans_nom_20" cx="44.41" cy="-38.65" fx="44.41" fy="-38.65" r="61.71" gradientTransform="translate(52.3 81.39) scale(.8 .82)" gradientUnits="userSpaceOnUse"><stop offset="0" stop-color="#8d5da9"/><stop offset=".27" stop-color="#8a5ba5"/><stop offset=".49" stop-color="#82569b"/><stop offset=".69" stop-color="#764d8a"/><stop offset=".88" stop-color="#634172"/><stop offset=".93" stop-color="#5e3d6b"/></radialGradient><radialGradient id="Dégradé_sans_nom_21" cx="-1288.92" cy="-37" fx="-1288.92" fy="-37" r="61.71" gradientTransform="translate(-821.34 81.39) rotate(-180) scale(.8 -.82)" gradientUnits="userSpaceOnUse"><stop offset="0" stop-color="#8d5da9"/><stop offset=".27" stop-color="#8a5ba5"/><stop offset=".49" stop-color="#82569b"/><stop offset=".69" stop-color="#764d8a"/><stop offset=".88" stop-color="#634172"/><stop offset=".93" stop-color="#5e3d6b"/></radialGradient><radialGradient id="Dégradé_sans_nom_22" cx="116.24" cy="38.89" fx="116.24" fy="38.89" r="115.01" gradientTransform="translate(52.3 81.39) scale(.8 .82)" gradientUnits="userSpaceOnUse"><stop offset="0" stop-color="#8d5da9"/><stop offset=".46" stop-color="#8b5ca7"/><stop offset=".62" stop-color="#8658a0"/><stop offset=".74" stop-color="#7d5294"/><stop offset=".84" stop-color="#704983"/><stop offset=".92" stop-color="#603e6e"/><stop offset=".93" stop-color="#5e3d6b"/></radialGradient><linearGradient id="Dégradé_sans_nom_23" x1="97.6" y1="52.35" x2="79.32" y2="21.7" gradientTransform="translate(0 2)" gradientUnits="userSpaceOnUse"><stop offset="0" stop-color="#b38fc6"/><stop offset=".85" stop-color="#735d7b"/></linearGradient><linearGradient id="Dégradé_sans_nom_24" x1="151.2" y1="62.14" x2="151.55" y2="36.99" gradientTransform="translate(0 2)" gradientUnits="userSpaceOnUse"><stop offset="0" stop-color="#b38fc6"/><stop offset=".28" stop-color="#a483b5"/><stop offset=".83" stop-color="#7f678a"/><stop offset="1" stop-color="#735d7b"/></linearGradient><linearGradient id="Dégradé_sans_nom_25" x1="127.82" y1="53.16" x2="126.33" y2="43.53" gradientTransform="translate(0 2)" gradientUnits="userSpaceOnUse"><stop offset="0" stop-color="#b38fc6"/><stop offset=".28" stop-color="#a483b5"/><stop offset=".83" stop-color="#7f678a"/><stop offset="1" stop-color="#735d7b"/></linearGradient><linearGradient id="Dégradé_sans_nom_26" x1="-1194.32" y1="53.04" x2="-1212.6" y2="22.38" gradientTransform="translate(-985.4 2) rotate(-180) scale(1 -1)" gradientUnits="userSpaceOnUse"><stop offset="0" stop-color="#b38fc6"/><stop offset=".85" stop-color="#735d7b"/></linearGradient><linearGradient id="Dégradé_sans_nom_27" x1="-1040.81" y1="53.21" x2="-1042.3" y2="43.58" gradientTransform="translate(-862.02 2) rotate(-180) scale(1 -1)" gradientUnits="userSpaceOnUse"><stop offset="0" stop-color="#b38fc6"/><stop offset=".28" stop-color="#a483b5"/><stop offset=".83" stop-color="#7f678a"/><stop offset="1" stop-color="#735d7b"/></linearGradient></defs><path class="cls-9" d="m207.99,296.94c1.94,3.78,3.87,7.57,5.81,11.35,5-12.33,11.25-16.2,16.1-17.43,10.63-2.69,18.38,6.36,26.22,1.58,7.76-4.72,4.22-16.05,11.41-18.44,7.29-2.42,13.92,8.21,22.85,6.84,6.33-.97,9.94-7.37,12.03-12.8,4.85-16.47,7.17-27.04-.47-29.07-4.39-1.17-4.2,3.41-7.94,12.64-2.08,5.57-2.49,14.84-8.13,16.71-7.86,2.6-16.06-9.93-24.14-7.15-7.03,2.42-3.71,12.9-11.61,18.05-7.54,4.91-14.37-2.13-24.72.6-4.97,1.31-11.69,5.12-17.4,17.12h-.01Z"/><rect class="cls-5" x="110.54" y="360.25" width="30.82" height="78.37"/><path class="cls-6" d="m147.07,434.54c-.48,5.67-12.94,9.26-22.2,8.98-7.97-.24-19.57-3.53-20.05-8.98-.48-5.55,10.62-13.07,21.12-13.06,10.46,0,21.59,7.49,21.12,13.06h.01Z"/><path class="cls-8" d="m113.07,434.13c.3.33.56,7.12.35,7.4"/><path class="cls-8" d="m139.56,434.3c-.3.33-.56,7.12-.35,7.4"/><path class="cls-8" d="m129.53,434.95c.31.84.42,6.9.16,7.7"/><path class="cls-8" d="m122.52,435.09c-.31.84-.42,6.9-.16,7.7"/><rect class="cls-4" x="164.7" y="360.54" width="30.82" height="78.37"/><path class="cls-7" d="m201.23,434.83c-.48,5.67-12.94,9.26-22.2,8.98-7.97-.24-19.57-3.53-20.05-8.98-.48-5.55,10.62-13.07,21.12-13.06,10.46,0,21.59,7.49,21.12,13.06h.01Z"/><path class="cls-8" d="m167.22,434.42c.3.33.56,7.12.35,7.4"/><path class="cls-8" d="m193.72,434.59c-.3.33-.56,7.12-.35,7.4"/><path class="cls-8" d="m183.69,435.24c.31.84.42,6.9.16,7.7"/><path class="cls-8" d="m176.67,435.39c-.31.84-.42,6.9-.16,7.7"/><path class="cls-1" d="m223.73,255.96c.07.9.14,1.7.15,1.98.93,12.78,2.87,60.17-22.15,90.53-11.2,13.59-27.39,21.16-50.13,21.16s-39.74-7.67-50.88-21.45c-20.68-25.56-21.08-63.96-21.24-92.23-.12-20.38,2.58-30.45,3.64-34.08,4.83-16.49,12.97-22.36,27.88-42.45,1.22-1.63,32.34,10.2,41.21,9.8,7.65-.34,42.42-11.43,42.42-11.43,18.59,23.99,22.53,32.21,24.24,40.82.6,3.02,3.28,17.91,4.85,37.35h.01Z"/><path class="cls-23" d="m151.61,341.88c-12.52,0-21.95-12.42-26.45-19.84-14.43-23.76-15.48-49.82-15.37-62.79.09-10.92.41-48.84,15.76-56.29,6.34-3.08,9.05,2.06,25.46,2.16,17.01.11,20.06-5.37,26.66-2.16,15.32,7.45,15.65,45.02,15.76,56.29.13,13.95-1.21,39.48-15.37,62.79-4.5,7.4-13.92,19.84-26.45,19.84h0Z"/><path class="cls-22" d="m89.14,245.66c-5.19-6.46,13.63-30.43,14.46-30.46-14.1-5.03-26.04-9.52-35.94-13.16-3.93-1.44-10.18-3.73-16.21-9.35-2.89-2.69-4.85-5.33-6.04-7.13-2.34-5.37-7.48-8.35-12.14-7.52-3.59.64-5.79,3.35-6.46,4.25-4.96-4.6-12.15-4.43-15.85-.75-2.54,2.53-3.28,6.57-2.17,10.36-.67.29-5.47,2.46-6.39,6.73-1.04,4.82,3.2,10.89,10.78,12.37-.43,1.61-1.05,5.01.74,7.79,2.79,4.33,10.62,5.8,18.37,1.86,2.24.15,5.64.52,9.63,1.58,5.76,1.52,9.76,3.67,11.69,4.69,7.24,3.87,19.62,10.3,35.54,18.74h-.01Z"/><ellipse class="cls-13" cx="23.68" cy="213.94" rx="3.7" ry="5.75" transform="translate(-191.52 218.28) rotate(-84.84)"/><ellipse class="cls-20" cx="13.99" cy="200.99" rx="4.39" ry="6.19" transform="translate(-179.96 146.41) rotate(-70.3)"/><ellipse class="cls-18" cx="19.69" cy="188.97" rx="4.4" ry="6.18" transform="translate(-160.01 127.27) rotate(-65.1)"/><ellipse class="cls-15" cx="35.76" cy="187.66" rx="3.77" ry="5.64" transform="translate(-115.1 70.47) rotate(-41.37)"/><path class="cls-2" d="m32.47,195.9c-.13-.07-.26-.15-.39-.2-2.25-1-5.22.59-6.62,3.53-1.39,2.94-.7,6.13,1.55,7.12.14.06.28.11.42.16.06,1.36.89,2.64,2.24,3.23,1.95.86,4.27,0,5.18-1.93.26-.55.37-1.12.36-1.68.51-.5.99-1.18,1.38-1.99s.6-1.62.66-2.31c.44-.36.82-.82,1.08-1.36.92-1.93.08-4.18-1.88-5.04-1.35-.6-2.89-.36-4.01.49h.02v-.02Z"/><path class="cls-10" d="m103.6,215.19l-27.85-10.17-12.56-4.74c-2.72-1.3-6.14-3.24-9.67-6.12-3.69-3.03-6.32-6.12-8.11-8.6-1.78-4.47-6-7.35-10.47-7.24-4.67.11-7.64,3.41-8.13,3.98-3.09-3.68-8.47-4.71-12.81-2.5-4.47,2.28-6.7,7.42-5.21,12.11-.37.18-5.73,2.93-6.25,7.99-.51,4.98,3.89,10.26,10.63,11.11-.18,1.04-.82,5.47,2,8.75,3.44,4.01,10.78,4.82,17.11.9,2.43,0,5.68.21,9.36,1.17,3.3.86,5.96,2.04,7.94,3.1,13.18,6.91,26.37,13.82,39.56,20.74"/><path class="cls-24" d="m214.6,245.85c5.19-6.46-13.63-30.43-14.46-30.46,14.1-5.03,26.04-9.52,35.94-13.16,3.93-1.44,10.18-3.73,16.21-9.35,2.89-2.69,4.85-5.33,6.04-7.13,2.34-5.37,7.48-8.35,12.14-7.52,3.59.64,5.79,3.35,6.46,4.25,4.96-4.6,12.15-4.43,15.85-.75,2.54,2.53,3.28,6.57,2.17,10.36.67.29,5.47,2.46,6.39,6.73,1.04,4.82-3.2,10.89-10.78,12.37.43,1.61,1.05,5.01-.74,7.79-2.79,4.33-10.62,5.8-18.37,1.86-2.24.15-5.64.52-9.63,1.58-5.76,1.52-9.76,3.67-11.69,4.69-7.24,3.87-19.62,10.3-35.54,18.74h.01Z"/><ellipse class="cls-19" cx="280.06" cy="214.15" rx="5.75" ry="3.7" transform="translate(-18.12 26.06) rotate(-5.16)"/><ellipse class="cls-14" cx="289.77" cy="201.11" rx="6.19" ry="4.39" transform="translate(-50.83 109.45) rotate(-19.7)"/><ellipse class="cls-17" cx="283.99" cy="189.33" rx="6.18" ry="4.4" transform="translate(-53.32 137.17) rotate(-24.9)"/><ellipse class="cls-16" cx="267.98" cy="188" rx="5.64" ry="3.77" transform="translate(-50.22 264.86) rotate(-48.63)"/><path class="cls-3" d="m271.27,196.1c.13-.07.26-.15.39-.2,2.25-1,5.22.59,6.62,3.53,1.39,2.94.7,6.13-1.55,7.12-.14.06-.28.11-.42.16-.06,1.36-.89,2.64-2.24,3.23-1.95.86-4.27,0-5.18-1.93-.26-.55-.37-1.12-.36-1.68-.51-.5-.99-1.18-1.38-1.99s-.6-1.62-.66-2.31c-.44-.36-.82-.82-1.08-1.36-.92-1.93-.08-4.18,1.88-5.04,1.35-.6,2.89-.36,4.01.49h-.02v-.02Z"/><path class="cls-10" d="m200.13,215.39l27.85-10.17,12.56-4.74c2.72-1.3,6.14-3.24,9.67-6.12,3.69-3.03,6.32-6.12,8.11-8.6,1.78-4.47,6-7.35,10.47-7.24,4.67.11,7.64,3.41,8.13,3.98,3.09-3.68,8.47-4.71,12.81-2.5,4.47,2.28,6.7,7.42,5.21,12.11.37.18,5.73,2.93,6.25,7.99.51,4.98-3.89,10.26-10.63,11.11.18,1.04.82,5.47-2,8.75-3.44,4.01-10.78,4.82-17.11.9-2.43,0-5.68.21-9.36,1.17-3.3.86-5.96,2.04-7.94,3.1-13.18,6.91-26.37,13.82-39.56,20.74"/><polygon class="cls-26" points="66.9 98.18 53.14 49.83 63.68 10.05 78.85 5 114.91 20.52 138.15 42.71 66.9 98.18"/><polygon class="cls-29" points="237.17 99.52 250.92 51.17 240.38 11.38 225.22 6.35 189.16 21.87 165.91 44.05 237.17 99.52"/><path class="cls-28" d="m242.93,114.83c.17,1.37,3.39,30.74-15.94,52.9-18.83,21.6-46.64,22.07-73.4,22.53-24.31.42-44.71.77-63.26-14.2-17.32-13.98-29.51-38.46-26.08-61.23,1.77-11.76,7.64-24.13,15.94-37.72,7.08-11.59,9.98-17.29,18.59-24.25,17.59-14.21,40.17-13.37,54.81-13.47,14.66-.1,35.72-.24,54.08,13.96,11.03,8.53,16.31,21.31,21.73,30.86,5.57,9.81,11.88,17.45,13.52,30.61h.01Z"/><path class="cls-32" d="m121.84,41.73c-16.01-12.73-36.86-25.82-42.86-19.96-6.76,6.61-8.21,17.63-6.76,31.1.97,9.07,4.35,20.57,7.73,24.98,4.1-5.63,7.48-15.67,18.11-24,9.84-7.71,19.16-11.69,23.78-12.12h0Z"/><path class="cls-25" d="m141.76,39.65c.23,2.04,1.45,26.71,9.78,26.82,9.78.12,9.51-25.1,9.78-27.06"/><path class="cls-31" d="m121.84,45.65c.12,4.29,1.33,12.61,7.36,11.14,2.66-1.22,2.8-8.59,1.21-14.2"/><path class="cls-30" d="m184.68,42.42c16.01-12.73,36.86-25.82,42.86-19.96,6.76,6.61,8.21,17.63,6.76,31.1-.97,9.07-4.35,20.57-7.73,24.98-4.1-5.63-7.48-15.67-18.11-24-9.84-7.71-19.16-11.69-23.78-12.12h0Z"/><path class="cls-27" d="m184.77,45.69c-.12,4.29-1.33,12.61-7.36,11.14-2.66-1.22-2.8-8.59-1.21-14.2"/><path class="cls-12" d="m70.94,85.57c-1.18,2.79-18.4,45.42,4.83,76.9,19.01,25.76,51.72,25.88,75.09,25.96,21.38.07,67.45.24,85.71-33.31,11.93-21.9,5.84-46.87.9-60.37-1.67-4.54-3.2-7.79-3.87-9.18"/><path class="cls-12" d="m167.47,37.59C197.44,10.35,225.08-1.13,237.97,8.2c5.54,4.01,7.11,10.96,8.93,19.59,5.77,27.27-2.17,51.9-9,66.98"/><path class="cls-12" d="m136.27,37.59C106.3,10.35,78.66-1.13,65.77,8.2c-5.54,4.01-7.11,10.96-8.93,19.59-5.77,27.27,2.17,51.9,9,66.98"/><path class="cls-12" d="m124.92,42.71c5.34-2.6,15.87-6.83,29.7-6.61,12.7.2,22.41,4.07,27.65,6.61"/><ellipse class="cls-21" cx="153.59" cy="100.01" rx="6.04" ry="1.71"/><path class="cls-12" d="m153.59,104.37c0,12.99-4.39,21.63-9.05,22.1-3.8.38-7.3-4.69-8.27-6.13"/><path class="cls-12" d="m153.54,105.08c0,12.99,4.39,21.63,9.05,22.1,3.8.38,7.3-4.69,8.27-6.13"/><line class="cls-21" x1="105.18" y1="98.18" x2="105.18" y2="110.36"/><line class="cls-21" x1="196.7" y1="98.2" x2="196.7" y2="110.38"/><path class="cls-11" d="m31.18,134.3c5.23-4.07,15.57-10.91,29.75-12.49,16.36-1.83,28.96,4.33,34.63,7.63"/><path class="cls-11" d="m30.03,154.35c4.39-5.41,13.38-14.96,27.69-20.52,16.52-6.42,31.19-4.07,37.93-2.49"/><path class="cls-11" d="m32.23,178.08c3.41-6.45,10.73-18.13,24.34-27.27,15.72-10.55,31.32-11.99,38.59-12.17"/><path class="cls-11" d="m272.66,128.95c-5.23-4.07-15.57-10.91-29.75-12.49-16.36-1.83-28.96,4.33-34.63,7.63"/><path class="cls-11" d="m273.81,148.99c-4.39-5.41-13.38-14.96-27.69-20.52-16.52-6.42-31.19-4.07-37.93-2.49"/><path class="cls-11" d="m271.6,172.72c-3.41-6.45-10.73-18.13-24.34-27.27-15.72-10.55-31.32-11.99-38.59-12.17"/></svg>