<?xml version="1.0" encoding="UTF-8"?><svg id="Calque_1" xmlns="http://www.w3.org/2000/svg" xmlns:xlink="http://www.w3.org/1999/xlink" viewBox="0 0 1920 1080"><defs><style>.cls-1{clip-path:url(#clippath);}.cls-2{stroke-width:0px;}.cls-2,.cls-3,.cls-4{fill:none;}.cls-5{fill:#9d69e6;}.cls-5,.cls-6,.cls-7,.cls-8,.cls-9,.cls-3,.cls-4,.cls-10,.cls-11,.cls-12{stroke:#1a1a1a;}.cls-5,.cls-7,.cls-8,.cls-9,.cls-3,.cls-10,.cls-11,.cls-12{stroke-linecap:round;stroke-linejoin:round;}.cls-5,.cls-3{stroke-width:2px;}.cls-6{fill:#d694e6;}.cls-6,.cls-7,.cls-4{stroke-width:4px;}.cls-6,.cls-4{stroke-miterlimit:10;}.cls-7{fill:#de979e;}.cls-8{stroke-width:4px;}.cls-8,.cls-9{fill:#decc4b;}.cls-9{stroke-width:4px;}.cls-10{fill:#006800;}.cls-10,.cls-11,.cls-12{stroke-width:3px;}.cls-11{fill:#008600;}.cls-12{fill:#00b300;}</style><clipPath id="clippath"><rect class="cls-2" x="-.5" y="626.81" width="1921" height="453"/></clipPath></defs><path class="cls-4" d="m202,886.31c-8.41,10-17.03,22.29-24.26,37.04-24.58,50.09-18.07,97.63-12.87,120.9"/><ellipse class="cls-9" cx="232.32" cy="848.76" rx="8.65" ry="15" transform="translate(-618.89 625.57) rotate(-60)"/><path class="cls-7" d="m201.96,816.03c-3.32,2.32-15.97,11.76-19.96,29.28-5.35,23.5,9.47,41.41,11.19,43.41,5.15-7.22,10.67-16.01,15.81-26.41,6.05-12.24,10.05-23.62,12.74-33.24-.27-1.15-1.81-7.11-7.74-10.76-5.36-3.3-10.71-2.52-12.04-2.28Z"/><path class="cls-7" d="m264.46,901.67c-3.33,2.3-16.57,10.89-34.39,8.55-23.9-3.14-35.54-23.26-36.82-25.56,8.55-2.32,18.72-4.45,30.25-5.66,13.58-1.42,25.64-1.22,35.6-.41.99.66,6.04,4.16,7.4,11,1.23,6.17-1.36,10.92-2.04,12.09h0Z"/><path class="cls-7" d="m271.76,862.86c-1.44,3.78-7.51,18.35-23.54,26.49-21.49,10.92-42.47.9-44.83-.27,5.74-6.75,12.93-14.25,21.76-21.77,10.39-8.85,20.46-15.5,29.13-20.46,1.19-.02,7.33.02,12.32,4.89,4.5,4.39,5.05,9.78,5.15,11.12h0Z"/><path class="cls-7" d="m211.37,830.98c-3.5,1.61-16.92,8.22-22.43,22.54-7.39,19.21,5.77,35.81,7.3,37.67,5.76-5.53,12.03-12.35,18.05-20.56,7.09-9.66,12.08-18.81,15.61-26.62-.17-1-1.17-6.16-6.75-9.85-5.04-3.33-10.43-3.23-11.78-3.18h0Z"/><path class="cls-7" d="m257.95,859.01c-1.44,3.78-7.51,18.35-23.54,26.49-21.49,10.92-38.06,3.99-40.42,2.82,5.74-6.75,9.17-15.48,18-23,10.39-8.85,19.81-17.36,28.48-22.32,1.19-.02,7.33.02,12.32,4.89,4.5,4.39,5.05,9.78,5.15,11.12h.01Z"/><path class="cls-4" d="m1226.18,886.32c-8.41,10-17.03,22.29-24.26,37.04-24.58,50.09-18.07,97.63-12.87,120.9"/><path class="cls-4" d="m769.68,843.31c-8.41,11.7-17.03,26.09-24.26,43.35-24.58,58.63-18.07,114.27-12.87,141.51"/><path class="cls-6" d="m1214.58,917.41c.07.35.19.86.37,1.47,1.18,4.03,4.75,10.99,9.92,11.24,2.78.14,3.02-1.82,8.34-3.25,5.38-1.44,6.51.18,8.93-1.31,4.6-2.83,4.51-11.14,3.26-15.96-.16-.61-.32-1.11-.44-1.45l-.14-.14c-1.66-3.82-23.21-21.91-23.21-21.91-1.36,4.39-2.66,9.07-3.81,14.03-1.42,6.12-2.46,11.89-3.21,17.27h-.01Z"/><path class="cls-6" d="m1192.74,903.1c-.19.3-.48.74-.78,1.3-2.01,3.69-4.41,11.13-.94,14.96,1.87,2.07,3.42.85,8.19,3.61,4.82,2.78,4.48,4.73,7.24,5.39,5.26,1.25,11.07-4.69,13.59-8.98.32-.54.56-1.01.71-1.34v-.2c1.53-3.88-.92-31.9-.92-31.9-4.07,2.14-8.29,4.54-12.61,7.22-5.33,3.32-10.15,6.67-14.48,9.94h0Z"/><path class="cls-6" d="m1187.43,877.55c-.35.07-.86.19-1.47.37-4.03,1.18-10.99,4.75-11.24,9.92-.14,2.78,1.82,3.02,3.25,8.34,1.44,5.38-.18,6.51,1.31,8.93,2.83,4.6,11.14,4.51,15.96,3.26.61-.16,1.11-.32,1.45-.44l.14-.14c3.82-1.66,21.91-23.21,21.91-23.21-4.39-1.36-9.07-2.66-14.03-3.81-6.12-1.42-11.89-2.46-17.27-3.21h-.01Z"/><path class="cls-6" d="m1201.74,855.71c-.3-.19-.74-.48-1.3-.78-3.69-2.01-11.13-4.41-14.96-.94-2.07,1.87-.85,3.42-3.61,8.19-2.78,4.82-4.73,4.48-5.39,7.24-1.25,5.26,4.69,11.07,8.98,13.59.54.32,1.01.56,1.34.71h.2c3.88,1.53,31.9-.92,31.9-.92-2.14-4.07-4.54-8.29-7.22-12.61-3.32-5.33-6.67-10.15-9.94-14.48h0Z"/><path class="cls-6" d="m1227.29,850.39c-.07-.35-.19-.86-.37-1.47-1.18-4.03-4.75-10.99-9.92-11.24-2.78-.14-3.02,1.82-8.34,3.25-5.38,1.44-6.51-.18-8.93,1.31-4.6,2.83-4.51,11.14-3.26,15.96.16.61.32,1.11.44,1.45l.14.14c1.66,3.82,23.21,21.91,23.21,21.91,1.36-4.39,2.66-9.07,3.81-14.03,1.42-6.12,2.46-11.89,3.21-17.27h.01Z"/><path class="cls-6" d="m1249.12,864.7c.19-.3.48-.74.78-1.3,2.01-3.69,4.41-11.13.94-14.96-1.87-2.07-3.42-.85-8.19-3.61-4.82-2.78-4.48-4.73-7.24-5.39-5.26-1.25-11.07,4.69-13.59,8.98-.32.54-.56,1.01-.71,1.34v.2c-1.53,3.88.92,31.9.92,31.9,4.07-2.14,8.29-4.54,12.61-7.22,5.33-3.32,10.15-6.67,14.48-9.94h0Z"/><path class="cls-6" d="m1254.44,890.26c.35-.07.86-.19,1.47-.37,4.03-1.18,10.99-4.75,11.24-9.92.14-2.78-1.82-3.02-3.25-8.34-1.44-5.38.18-6.51-1.31-8.93-2.83-4.6-11.14-4.51-15.96-3.26-.61.16-1.11.32-1.45.44l-.14.14c-3.82,1.66-21.91,23.21-21.91,23.21,4.39,1.36,9.07,2.66,14.03,3.81,6.12,1.42,11.89,2.46,17.27,3.21h.01Z"/><path class="cls-6" d="m1240.13,912.09c.3.19.74.48,1.3.78,3.69,2.01,11.13,4.41,14.96.94,2.07-1.87.85-3.42,3.61-8.19,2.78-4.82,4.73-4.48,5.39-7.24,1.25-5.26-4.69-11.07-8.98-13.59-.54-.32-1.01-.56-1.34-.71h-.2c-3.88-1.53-31.9.92-31.9.92,2.14,4.07,4.54,8.29,7.22,12.61,3.32,5.33,6.67,10.15,9.94,14.48h0Z"/><path class="cls-5" d="m767.85,861.31c.97,3.49,3.21,5.92,5.01,5.42s2.46-3.74,1.49-7.23c.97,3.49,3.21,5.92,5.01,5.42s2.46-3.74,1.49-7.23c-.74-2.65-11.73-16.98-11.73-16.98,0,0-2.02,17.94-1.28,20.59h.01Z"/><path class="cls-5" d="m755.95,856.62c-1.27,3.4-.88,6.68.87,7.33s4.19-1.57,5.46-4.97c-1.27,3.4-.88,6.68.87,7.33s4.19-1.57,5.46-4.97c.96-2.58.49-20.63.49-20.63,0,0-12.18,13.33-13.14,15.91h-.01Z"/><path class="cls-5" d="m749.09,845.84c-3.02,2-4.64,4.89-3.61,6.44s4.31,1.19,7.34-.81c-3.02,2-4.64,4.89-3.61,6.44s4.31,1.19,7.34-.81c2.29-1.52,12.52-16.4,12.52-16.4,0,0-17.69,3.63-19.98,5.15h0Z"/><path class="cls-5" d="m749.87,833.08c-3.62-.16-6.62,1.23-6.7,3.09s2.79,3.5,6.41,3.65c-3.62-.16-6.62,1.23-6.7,3.09s2.79,3.5,6.41,3.65c2.75.12,19.77-5.91,19.77-5.91,0,0-16.44-7.46-19.19-7.58h0Z"/><path class="cls-5" d="m758,823.21c-2.84-2.25-6.08-2.9-7.24-1.44s.2,4.47,3.04,6.73c-2.84-2.25-6.08-2.9-7.24-1.44s.2,4.47,3.04,6.73c2.15,1.71,19.46,6.84,19.46,6.84,0,0-8.91-15.7-11.07-17.41h.01Z"/><path class="cls-5" d="m770.38,820.01c-.97-3.49-3.21-5.92-5.01-5.42s-2.46,3.74-1.49,7.23c-.97-3.49-3.21-5.92-5.01-5.42s-2.46,3.74-1.49,7.23c.74,2.65,11.73,16.98,11.73,16.98,0,0,2.02-17.94,1.28-20.59h-.01Z"/><path class="cls-5" d="m782.27,824.7c1.27-3.4.88-6.68-.87-7.33s-4.19,1.57-5.46,4.97c1.27-3.4.88-6.68-.87-7.33s-4.19,1.57-5.46,4.97c-.96,2.58-.49,20.63-.49,20.63,0,0,12.18-13.33,13.14-15.91h.01Z"/><path class="cls-5" d="m789.14,835.48c3.02-2,4.64-4.89,3.61-6.44s-4.31-1.19-7.34.81c3.02-2,4.64-4.89,3.61-6.44s-4.31-1.19-7.34.81c-2.29,1.52-12.52,16.4-12.52,16.4,0,0,17.69-3.63,19.98-5.15h0Z"/><path class="cls-5" d="m788.36,848.24c3.62.16,6.62-1.23,6.7-3.09s-2.79-3.5-6.41-3.65c3.62.16,6.62-1.23,6.7-3.09s-2.79-3.5-6.41-3.65c-2.75-.12-19.77,5.91-19.77,5.91,0,0,16.44,7.46,19.19,7.58h0Z"/><path class="cls-5" d="m780.23,858.1c2.84,2.25,6.08,2.9,7.24,1.44s-.2-4.47-3.04-6.73c2.84,2.25,6.08,2.9,7.24,1.44s-.2-4.47-3.04-6.73c-2.15-1.71-19.46-6.84-19.46-6.84,0,0,8.91,15.7,11.07,17.41h-.01Z"/><line class="cls-3" x1="769.11" y1="840.66" x2="785" y2="853.31"/><path class="cls-4" d="m1649.3,889.74c8.41,10,17.03,22.29,24.26,37.04,24.58,50.09,18.07,97.63,12.87,120.9"/><ellipse class="cls-8" cx="1618.98" cy="852.18" rx="15" ry="8.65" transform="translate(-209.19 923.66) rotate(-30)"/><path class="cls-7" d="m1649.34,819.45c3.32,2.32,15.97,11.76,19.96,29.28,5.35,23.5-9.47,41.41-11.19,43.41-5.15-7.22-10.67-16.01-15.81-26.41-6.05-12.24-10.05-23.62-12.74-33.24.27-1.15,1.81-7.11,7.74-10.76,5.36-3.3,10.71-2.52,12.04-2.28Z"/><path class="cls-7" d="m1586.84,905.09c3.33,2.3,16.57,10.89,34.39,8.55,23.9-3.14,35.54-23.26,36.82-25.56-8.55-2.32-18.72-4.45-30.25-5.66-13.58-1.42-25.64-1.22-35.6-.41-.99.66-6.04,4.16-7.4,11-1.23,6.17,1.36,10.92,2.04,12.09h0Z"/><path class="cls-7" d="m1579.54,866.28c1.44,3.78,7.51,18.35,23.54,26.49,21.49,10.92,42.47.9,44.83-.27-5.74-6.75-12.93-14.25-21.76-21.77-10.39-8.85-20.46-15.5-29.13-20.46-1.19-.02-7.33.02-12.32,4.89-4.5,4.39-5.05,9.78-5.15,11.12h-.01Z"/><path class="cls-7" d="m1639.93,834.41c3.5,1.61,16.92,8.22,22.43,22.54,7.39,19.21-5.77,35.81-7.3,37.67-5.76-5.53-12.03-12.35-18.05-20.56-7.09-9.66-12.08-18.81-15.61-26.62.17-1,1.17-6.16,6.75-9.85,5.04-3.33,10.43-3.23,11.78-3.18Z"/><path class="cls-7" d="m1593.35,862.43c1.44,3.78,7.51,18.35,23.54,26.49,21.49,10.92,38.06,3.99,40.42,2.82-5.74-6.75-9.17-15.48-18-23-10.39-8.85-19.81-17.36-28.48-22.32-1.19-.02-7.33.02-12.32,4.89-4.5,4.39-5.05,9.78-5.15,11.12h-.01Z"/><path class="cls-4" d="m625.12,889.74c8.41,10,17.03,22.29,24.26,37.04,24.58,50.09,18.07,97.63,12.87,120.9"/><path class="cls-4" d="m1081.62,846.74c8.41,11.7,17.03,26.09,24.26,43.35,24.58,58.63,18.07,114.27,12.87,141.51"/><path class="cls-6" d="m636.73,920.84c-.07.35-.19.86-.37,1.47-1.18,4.03-4.75,10.99-9.92,11.24-2.78.14-3.02-1.82-8.34-3.25-5.38-1.44-6.51.18-8.93-1.31-4.6-2.83-4.51-11.14-3.26-15.96.16-.61.32-1.11.44-1.45l.14-.14c1.66-3.82,23.21-21.91,23.21-21.91,1.36,4.39,2.66,9.07,3.81,14.03,1.42,6.12,2.46,11.89,3.21,17.27h0Z"/><path class="cls-6" d="m658.56,906.53c.19.3.48.74.78,1.3,2.01,3.69,4.41,11.13.94,14.96-1.87,2.07-3.42.85-8.19,3.61-4.82,2.78-4.48,4.73-7.24,5.39-5.26,1.25-11.07-4.69-13.59-8.98-.32-.54-.56-1.01-.71-1.34v-.2c-1.53-3.88.92-31.9.92-31.9,4.07,2.14,8.29,4.54,12.61,7.22,5.33,3.32,10.15,6.67,14.48,9.94h0Z"/><path class="cls-6" d="m663.88,880.97c.35.07.86.19,1.47.37,4.03,1.18,10.99,4.75,11.24,9.92.14,2.78-1.82,3.02-3.25,8.34-1.44,5.38.18,6.51-1.31,8.93-2.83,4.6-11.14,4.51-15.96,3.26-.61-.16-1.11-.32-1.45-.44l-.14-.14c-3.82-1.66-21.91-23.21-21.91-23.21,4.39-1.36,9.07-2.66,14.03-3.81,6.12-1.42,11.89-2.46,17.27-3.21h.01Z"/><path class="cls-6" d="m649.57,859.14c.3-.19.74-.48,1.3-.78,3.69-2.01,11.13-4.41,14.96-.94,2.07,1.87.85,3.42,3.61,8.19,2.78,4.82,4.73,4.48,5.39,7.24,1.25,5.26-4.69,11.07-8.98,13.59-.54.32-1.01.56-1.34.71h-.2c-3.88,1.53-31.9-.92-31.9-.92,2.14-4.07,4.54-8.29,7.22-12.61,3.32-5.33,6.67-10.15,9.94-14.48h0Z"/><path class="cls-6" d="m624.01,853.82c.07-.35.19-.86.37-1.47,1.18-4.03,4.75-10.99,9.92-11.24,2.78-.14,3.02,1.82,8.34,3.25,5.38,1.44,6.51-.18,8.93,1.31,4.6,2.83,4.51,11.14,3.26,15.96-.16.61-.32,1.11-.44,1.45l-.14.14c-1.66,3.82-23.21,21.91-23.21,21.91-1.36-4.39-2.66-9.07-3.81-14.03-1.42-6.12-2.46-11.89-3.21-17.27h0Z"/><path class="cls-6" d="m602.18,868.13c-.19-.3-.48-.74-.78-1.3-2.01-3.69-4.41-11.13-.94-14.96,1.87-2.07,3.42-.85,8.19-3.61,4.82-2.78,4.48-4.73,7.24-5.39,5.26-1.25,11.07,4.69,13.59,8.98.32.54.56,1.01.71,1.34v.2c1.53,3.88-.92,31.9-.92,31.9-4.07-2.14-8.29-4.54-12.61-7.22-5.33-3.32-10.15-6.67-14.48-9.94h0Z"/><path class="cls-6" d="m596.86,893.69c-.35-.07-.86-.19-1.47-.37-4.03-1.18-10.99-4.75-11.24-9.92-.14-2.78,1.82-3.02,3.25-8.34,1.44-5.38-.18-6.51,1.31-8.93,2.83-4.6,11.14-4.51,15.96-3.26.61.16,1.11.32,1.45.44l.14.14c3.82,1.66,21.91,23.21,21.91,23.21-4.39,1.36-9.07,2.66-14.03,3.81-6.12,1.42-11.89,2.46-17.27,3.21h-.01Z"/><path class="cls-6" d="m611.17,915.52c-.3.19-.74.48-1.3.78-3.69,2.01-11.13,4.41-14.96.94-2.07-1.87-.85-3.42-3.61-8.19-2.78-4.82-4.73-4.48-5.39-7.24-1.25-5.26,4.69-11.07,8.98-13.59.54-.32,1.01-.56,1.34-.71h.2c3.88-1.53,31.9.92,31.9.92-2.14,4.07-4.54,8.29-7.22,12.61-3.32,5.33-6.67,10.15-9.94,14.48h0Z"/><path class="cls-5" d="m1083.45,864.73c-.97,3.49-3.21,5.92-5.01,5.42s-2.46-3.74-1.49-7.23c-.97,3.49-3.21,5.92-5.01,5.42s-2.46-3.74-1.49-7.23c.74-2.65,11.73-16.98,11.73-16.98,0,0,2.02,17.94,1.28,20.59h-.01Z"/><path class="cls-5" d="m1095.35,860.04c1.27,3.4.88,6.68-.87,7.33s-4.19-1.57-5.46-4.97c1.27,3.4.88,6.68-.87,7.33s-4.19-1.57-5.46-4.97c-.96-2.58-.49-20.63-.49-20.63,0,0,12.18,13.33,13.14,15.91h0Z"/><path class="cls-5" d="m1102.22,849.26c3.02,2,4.64,4.89,3.61,6.44s-4.31,1.19-7.34-.81c3.02,2,4.64,4.89,3.61,6.44s-4.31,1.19-7.34-.81c-2.29-1.52-12.52-16.4-12.52-16.4,0,0,17.69,3.63,19.98,5.15h0Z"/><path class="cls-5" d="m1101.44,836.5c3.62-.16,6.62,1.23,6.7,3.09s-2.79,3.5-6.41,3.65c3.62-.16,6.62,1.23,6.7,3.09s-2.79,3.5-6.41,3.65c-2.75.12-19.77-5.91-19.77-5.91,0,0,16.44-7.46,19.19-7.58h0Z"/><path class="cls-5" d="m1093.3,826.64c2.84-2.25,6.08-2.9,7.24-1.44s-.2,4.47-3.04,6.73c2.84-2.25,6.08-2.9,7.24-1.44s-.2,4.47-3.04,6.73c-2.15,1.71-19.46,6.84-19.46,6.84,0,0,8.91-15.7,11.07-17.41h0Z"/><path class="cls-5" d="m1080.92,823.43c.97-3.49,3.21-5.92,5.01-5.42s2.46,3.74,1.49,7.23c.97-3.49,3.21-5.92,5.01-5.42s2.46,3.74,1.49,7.23c-.74,2.65-11.73,16.98-11.73,16.98,0,0-2.02-17.94-1.28-20.59h.01Z"/><path class="cls-5" d="m1069.03,828.12c-1.27-3.4-.88-6.68.87-7.33s4.19,1.57,5.46,4.97c-1.27-3.4-.88-6.68.87-7.33s4.19,1.57,5.46,4.97c.96,2.58.49,20.63.49,20.63,0,0-12.18-13.33-13.14-15.91h0Z"/><path class="cls-5" d="m1062.16,838.9c-3.02-2-4.64-4.89-3.61-6.44s4.31-1.19,7.34.81c-3.02-2-4.64-4.89-3.61-6.44s4.31-1.19,7.34.81c2.29,1.52,12.52,16.4,12.52,16.4,0,0-17.69-3.63-19.98-5.15h0Z"/><path class="cls-5" d="m1062.94,851.67c-3.62.16-6.62-1.23-6.7-3.09s2.79-3.5,6.41-3.65c-3.62.16-6.62-1.23-6.7-3.09s2.79-3.5,6.41-3.65c2.75-.12,19.77,5.91,19.77,5.91,0,0-16.44,7.46-19.19,7.58h0Z"/><path class="cls-5" d="m1071.08,861.53c-2.84,2.25-6.08,2.9-7.24,1.44s.2-4.47,3.04-6.73c-2.84,2.25-6.08,2.9-7.24,1.44s.2-4.47,3.04-6.73c2.15-1.71,19.46-6.84,19.46-6.84,0,0-8.91,15.7-11.07,17.41h0Z"/><line class="cls-3" x1="1082.19" y1="844.08" x2="1066.3" y2="856.74"/><path class="cls-4" d="m1783.25,922.06c8.41,10,17.03,22.29,24.26,37.04,24.58,50.09,18.07,97.63,12.87,120.9"/><ellipse class="cls-8" cx="1752.93" cy="884.5" rx="15" ry="8.65" transform="translate(-207.4 994.97) rotate(-30)"/><path class="cls-7" d="m1783.3,851.77c3.32,2.32,15.97,11.76,19.96,29.28,5.35,23.5-9.47,41.41-11.19,43.41-5.15-7.22-10.67-16.01-15.81-26.41-6.05-12.24-10.05-23.62-12.74-33.24.27-1.15,1.81-7.11,7.74-10.76,5.36-3.3,10.71-2.52,12.04-2.28Z"/><path class="cls-7" d="m1720.79,937.41c3.33,2.3,16.57,10.89,34.39,8.55,23.9-3.14,35.54-23.26,36.82-25.56-8.55-2.32-18.72-4.45-30.25-5.66-13.58-1.42-25.64-1.22-35.6-.41-.99.66-6.04,4.16-7.4,11-1.23,6.17,1.36,10.92,2.04,12.09h0Z"/><path class="cls-7" d="m1713.49,898.6c1.44,3.78,7.51,18.35,23.54,26.49,21.49,10.92,42.47.9,44.83-.27-5.74-6.75-12.93-14.25-21.76-21.77-10.39-8.85-20.46-15.5-29.13-20.46-1.19-.02-7.33.02-12.32,4.89-4.5,4.39-5.05,9.78-5.15,11.12h-.01Z"/><path class="cls-7" d="m1773.88,866.73c3.5,1.61,16.92,8.22,22.43,22.54,7.39,19.21-5.77,35.81-7.3,37.67-5.76-5.53-12.03-12.35-18.05-20.56-7.09-9.66-12.08-18.81-15.61-26.62.17-1,1.17-6.16,6.75-9.85,5.04-3.33,10.43-3.23,11.78-3.18Z"/><path class="cls-7" d="m1727.3,894.75c1.44,3.78,7.51,18.35,23.54,26.49,21.49,10.92,38.06,3.99,40.42,2.82-5.74-6.75-9.17-15.48-18-23-10.39-8.85-19.81-17.36-28.48-22.32-1.19-.02-7.33.02-12.32,4.89-4.5,4.39-5.05,9.78-5.15,11.12h-.01Z"/><path class="cls-4" d="m1031.25,929.06c8.41,9.37,17.03,20.88,24.26,34.69,24.58,46.92,18.07,91.45,12.87,113.25"/><ellipse class="cls-8" cx="1000.93" cy="891.5" rx="15" ry="8.65" transform="translate(-311.65 619.9) rotate(-30)"/><path class="cls-7" d="m1031.3,858.77c3.32,2.32,15.97,11.76,19.96,29.28,5.35,23.5-9.47,41.41-11.19,43.41-5.15-7.22-10.67-16.01-15.81-26.41-6.05-12.24-10.05-23.62-12.74-33.24.27-1.15,1.81-7.11,7.74-10.76,5.36-3.3,10.71-2.52,12.04-2.28Z"/><path class="cls-7" d="m968.79,944.41c3.33,2.3,16.57,10.89,34.39,8.55,23.9-3.14,35.54-23.26,36.82-25.56-8.55-2.32-18.72-4.45-30.25-5.66-13.58-1.42-25.64-1.22-35.6-.41-.99.66-6.04,4.16-7.4,11-1.23,6.17,1.36,10.92,2.04,12.09h0Z"/><path class="cls-7" d="m961.49,905.6c1.44,3.78,7.51,18.35,23.54,26.49,21.49,10.92,42.47.9,44.83-.27-5.74-6.75-12.93-14.25-21.76-21.77-10.39-8.85-20.46-15.5-29.13-20.46-1.19-.02-7.33.02-12.32,4.89-4.5,4.39-5.05,9.78-5.15,11.12h-.01Z"/><path class="cls-7" d="m1021.88,873.73c3.5,1.61,16.92,8.22,22.43,22.54,7.39,19.21-5.77,35.81-7.3,37.67-5.76-5.53-12.03-12.35-18.05-20.56-7.09-9.66-12.08-18.81-15.61-26.62.17-1,1.17-6.16,6.75-9.85,5.04-3.33,10.43-3.23,11.78-3.18Z"/><path class="cls-7" d="m975.3,901.75c1.44,3.78,7.51,18.35,23.54,26.49,21.49,10.92,38.06,3.99,40.42,2.82-5.74-6.75-9.17-15.48-18-23-10.39-8.85-19.81-17.36-28.48-22.32-1.19-.02-7.33.02-12.32,4.89-4.5,4.39-5.05,9.78-5.15,11.12h-.01Z"/><g id="herbes"><g class="cls-1"><path class="cls-10" d="m469.2,1079.31c-5.48-22.34-10.4-62.08,12.84-104.04,5.55-10.03,11.97-18.83,18.53-26.46-6.36,15.3-12.49,34.62-15.31,57.24-3.66,29.38-.53,54.54,3.73,73.26h-19.79Z"/><path class="cls-11" d="m490.44,1079.31c-4.88-19.44-9.25-54.03,11.42-90.54,4.94-8.73,10.65-16.39,16.49-23.03-5.66,13.31-11.11,30.13-13.62,49.81-3.26,25.57-.48,47.46,3.32,63.76h-17.61Z"/><path class="cls-11" d="m400.54,1079.31c4.88-16.28,9.25-45.24-11.42-75.8-4.94-7.31-10.65-13.72-16.49-19.28,5.66,11.15,11.11,25.23,13.62,41.7,3.26,21.41.48,39.74-3.32,53.38h17.61Z"/><path class="cls-11" d="m597.07,1079.31c-4.88-14.91-9.25-41.43,11.42-69.43,4.94-6.69,15.8-9.8,21.64-14.89-9.68,8-16.26,20.33-18.77,35.43-3.26,19.61-.48,36.39,3.32,48.89h-17.61Z"/><path class="cls-10" d="m581.41,1079.31c3.39-18.35,27.57-55.16,7.57-87.39-5.05-8.14-10.38-9.95-16.95-16,6.36,12.12,7.67,5.47,10.49,23.39,3.66,23.28-16.64,65.17-20.9,80.01h19.79Z"/><path class="cls-12" d="m365.68,1079.31c5.99-13.75,11.36-38.21-14.03-64.03-6.07-6.17-13.08-11.59-20.25-16.29,6.95,9.41,13.64,21.31,16.72,35.23,4,18.08.58,33.57-4.07,45.09h21.63Z"/><path class="cls-12" d="m546.28,1079.31c-5.99-13.75-11.36-38.21,14.03-64.03,6.07-6.17,13.08-11.59,20.25-16.29-6.95,9.41-13.64,21.31-16.72,35.23-4,18.08-.58,33.57,4.07,45.09h-21.63Z"/><path class="cls-12" d="m439.21,1079.31c2.98-15.01,5.65-41.72-6.97-69.92-3.02-6.74-6.5-12.65-10.07-17.79,3.46,10.28,6.78,23.27,8.31,38.47,1.99,19.75.29,36.65-2.02,49.24h10.75Z"/><path class="cls-11" d="m468.37,1079.31c3.82-19.44,7.24-54.03-8.94-90.54-3.87-8.73-8.33-16.39-12.9-23.03,4.43,13.31,8.69,30.13,10.66,49.81,2.55,25.57.37,47.46-2.59,63.76h13.78,0Z"/><path class="cls-10" d="m528.11,1079.31c-5.48-16.91-10.4-46.99,12.84-78.75,5.55-7.59,11.97-14.25,18.53-20.03-6.36,11.58-12.49,26.21-15.31,43.32-3.66,22.24-.53,41.28,3.73,55.46h-19.79Z"/><path class="cls-11" d="m529.91,1079.31c2.9-14.91,5.49-41.43-6.78-69.43-2.93-6.69-9.37-9.8-12.84-14.89,5.75,8,9.65,20.33,11.14,35.43,1.93,19.61.28,36.39-1.97,48.89h10.45Z"/><path class="cls-10" d="m506.62,1079.31c-4.87-18.17-9.24-50.51,11.41-84.64,4.94-8.16,10.63-15.32,16.47-21.53-5.66,12.44-11.09,28.16-13.6,46.56-3.26,23.9-.47,44.37,3.31,59.6h-17.59,0Z"/><path class="cls-11" d="m384.24,1079.31c4.88-14.91,9.25-41.43-11.42-69.43-4.94-6.69-15.8-9.8-21.64-14.89,9.68,8,16.26,20.33,18.77,35.43,3.26,19.61.48,36.39-3.32,48.89h17.61Z"/><path class="cls-10" d="m399.9,1079.31c-3.39-18.35-27.57-55.16-7.57-87.39,5.05-8.14,10.38-9.95,16.95-16-6.36,12.12-7.67,5.47-10.49,23.39-3.66,23.28,16.64,65.17,20.9,80.01h-19.79Z"/><path class="cls-12" d="m435.03,1079.31c5.99-13.75,11.36-38.21-14.03-64.03-6.07-6.17-13.08-11.59-20.25-16.29,6.95,9.41,13.64,21.31,16.72,35.23,4,18.08.58,33.57-4.07,45.09h21.63Z"/><path class="cls-10" d="m453.2,1079.31c5.48-16.91,10.4-46.99-12.84-78.75-5.55-7.59-11.97-14.25-18.53-20.03,6.36,11.58,12.49,26.21,15.31,43.32,3.66,22.24.53,41.28-3.73,55.46h19.79Z"/><path class="cls-10" d="m702.64,1079.31c-5.48-22.34-10.4-62.08,12.84-104.04,5.55-10.03,11.97-18.83,18.53-26.46-6.36,15.3-12.49,34.62-15.31,57.24-3.66,29.38-.53,54.54,3.73,73.26h-19.79Z"/><path class="cls-11" d="m723.88,1079.31c-4.88-19.44-9.25-54.03,11.42-90.54,4.94-8.73,10.65-16.39,16.49-23.03-5.66,13.31-11.11,30.13-13.62,49.81-3.26,25.57-.48,47.46,3.32,63.76h-17.61Z"/><path class="cls-11" d="m633.98,1079.31c4.88-16.28,9.25-45.24-11.42-75.8-4.94-7.31-10.65-13.72-16.49-19.28,5.66,11.15,11.11,25.23,13.62,41.7,3.26,21.41.48,39.74-3.32,53.38h17.61Z"/><path class="cls-11" d="m830.51,1079.31c-4.88-14.91-9.25-41.43,11.42-69.43,4.94-6.69,15.8-9.8,21.64-14.89-9.68,8-16.26,20.33-18.77,35.43-3.26,19.61-.48,36.39,3.32,48.89h-17.61Z"/><path class="cls-10" d="m814.84,1079.31c3.39-18.35,27.57-55.16,7.57-87.39-5.05-8.14-10.38-9.95-16.95-16,6.36,12.12,7.67,5.47,10.49,23.39,3.66,23.28-16.64,65.17-20.9,80.01h19.79Z"/><path class="cls-12" d="m599.11,1079.31c5.99-13.75,11.36-38.21-14.03-64.03-6.07-6.17-13.08-11.59-20.25-16.29,6.95,9.41,13.64,21.31,16.72,35.23,4,18.08.58,33.57-4.07,45.09h21.63Z"/><path class="cls-12" d="m779.71,1079.31c-5.99-13.75-11.36-38.21,14.03-64.03,6.07-6.17,13.08-11.59,20.25-16.29-6.95,9.41-13.64,21.31-16.72,35.23-4,18.08-.58,33.57,4.07,45.09h-21.63Z"/><path class="cls-12" d="m672.64,1079.31c2.98-15.01,5.65-41.72-6.97-69.92-3.02-6.74-6.5-12.65-10.07-17.79,3.46,10.28,6.78,23.27,8.31,38.47,1.99,19.75.29,36.65-2.02,49.24h10.75Z"/><path class="cls-11" d="m701.8,1079.31c3.82-19.44,7.24-54.03-8.94-90.54-3.87-8.73-8.33-16.39-12.9-23.03,4.43,13.31,8.69,30.13,10.66,49.81,2.55,25.57.37,47.46-2.59,63.76h13.78,0Z"/><path class="cls-10" d="m761.55,1079.31c-5.48-16.91-10.4-46.99,12.84-78.75,5.55-7.59,11.97-14.25,18.53-20.03-6.36,11.58-12.49,26.21-15.31,43.32-3.66,22.24-.53,41.28,3.73,55.46h-19.79Z"/><path class="cls-11" d="m763.34,1079.31c2.9-14.91,5.49-41.43-6.78-69.43-2.93-6.69-9.37-9.8-12.84-14.89,5.75,8,9.65,20.33,11.14,35.43,1.93,19.61.28,36.39-1.97,48.89h10.45Z"/><path class="cls-10" d="m740.06,1079.31c-4.87-18.17-9.24-50.51,11.41-84.64,4.94-8.16,10.63-15.32,16.47-21.53-5.66,12.44-11.09,28.16-13.6,46.56-3.26,23.9-.47,44.37,3.31,59.6h-17.59,0Z"/><path class="cls-11" d="m617.67,1079.31c4.88-14.91,9.25-41.43-11.42-69.43-4.94-6.69-15.8-9.8-21.64-14.89,9.68,8,16.26,20.33,18.77,35.43,3.26,19.61.48,36.39-3.32,48.89h17.61Z"/><path class="cls-10" d="m633.34,1079.31c-3.39-18.35-27.57-55.16-7.57-87.39,5.05-8.14,10.38-9.95,16.95-16-6.36,12.12-7.67,5.47-10.49,23.39-3.66,23.28,16.64,65.17,20.9,80.01h-19.79Z"/><path class="cls-12" d="m668.47,1079.31c5.99-13.75,11.36-38.21-14.03-64.03-6.07-6.17-13.08-11.59-20.25-16.29,6.95,9.41,13.64,21.31,16.72,35.23,4,18.08.58,33.57-4.07,45.09h21.63Z"/><path class="cls-10" d="m686.63,1079.31c5.48-16.91,10.4-46.99-12.84-78.75-5.55-7.59-11.97-14.25-18.53-20.03,6.36,11.58,12.49,26.21,15.31,43.32,3.66,22.24.53,41.28-3.73,55.46h19.79Z"/><path class="cls-10" d="m-.2,1079.31c-5.48-22.34-10.4-62.08,12.84-104.04,5.55-10.03,11.97-18.83,18.53-26.46-6.36,15.3-12.49,34.62-15.31,57.24-3.66,29.38-.53,54.54,3.73,73.26H-.2h0Z"/><path class="cls-11" d="m21.04,1079.31c-4.88-19.44-9.25-54.03,11.42-90.54,4.94-8.73,10.65-16.39,16.49-23.03-5.66,13.31-11.11,30.13-13.62,49.81-3.26,25.57-.48,47.46,3.32,63.76h-17.61Z"/><path class="cls-11" d="m127.67,1079.31c-4.88-14.91-9.25-41.43,11.42-69.43,4.94-6.69,15.8-9.8,21.64-14.89-9.68,8-16.26,20.33-18.77,35.43-3.26,19.61-.48,36.39,3.32,48.89h-17.61Z"/><path class="cls-10" d="m112.01,1079.31c3.39-18.35,27.57-55.16,7.57-87.39-5.05-8.14-10.38-9.95-16.95-16,6.36,12.12,7.67,5.47,10.49,23.39,3.66,23.28-16.64,65.17-20.9,80.01h19.79,0Z"/><path class="cls-12" d="m76.88,1079.31c-5.99-13.75-11.36-38.21,14.03-64.03,6.07-6.17,13.08-11.59,20.25-16.29-6.95,9.41-13.64,21.31-16.72,35.23-4,18.08-.58,33.57,4.07,45.09h-21.63Z"/><path class="cls-11" d="m-1.03,1079.31c3.82-19.44,7.24-54.03-8.94-90.54-3.87-8.73-8.33-16.39-12.9-23.03,4.43,13.31,8.69,30.13,10.66,49.81,2.55,25.57.37,47.46-2.59,63.76H-1.02h0Z"/><path class="cls-10" d="m58.71,1079.31c-5.48-16.91-10.4-46.99,12.84-78.75,5.55-7.59,11.97-14.25,18.53-20.03-6.36,11.58-12.49,26.21-15.31,43.32-3.66,22.24-.53,41.28,3.73,55.46h-19.79,0Z"/><path class="cls-11" d="m60.51,1079.31c2.9-14.91,5.49-41.43-6.78-69.43-2.93-6.69-9.37-9.8-12.84-14.89,5.75,8,9.65,20.33,11.14,35.43,1.93,19.61.28,36.39-1.97,48.89h10.45Z"/><path class="cls-10" d="m37.22,1079.31c-4.87-18.17-9.24-50.51,11.41-84.64,4.94-8.16,10.63-15.32,16.47-21.53-5.66,12.44-11.09,28.16-13.6,46.56-3.26,23.9-.47,44.37,3.31,59.6h-17.59Z"/><path class="cls-10" d="m233.24,1079.31c-5.48-22.34-10.4-62.08,12.84-104.04,5.55-10.03,11.97-18.83,18.53-26.46-6.36,15.3-12.49,34.62-15.31,57.24-3.66,29.38-.53,54.54,3.73,73.26h-19.79Z"/><path class="cls-11" d="m254.48,1079.31c-4.88-19.44-9.25-54.03,11.42-90.54,4.94-8.73,10.65-16.39,16.49-23.03-5.66,13.31-11.11,30.13-13.62,49.81-3.26,25.57-.48,47.46,3.32,63.76h-17.61Z"/><path class="cls-11" d="m164.58,1079.31c4.88-16.28,9.25-45.24-11.42-75.8-4.94-7.31-10.65-13.72-16.49-19.28,5.66,11.15,11.11,25.23,13.62,41.7,3.26,21.41.48,39.74-3.32,53.38h17.61Z"/><path class="cls-11" d="m361.11,1079.31c-4.88-14.91-9.25-41.43,11.42-69.43,4.94-6.69,15.8-9.8,21.64-14.89-9.68,8-16.26,20.33-18.77,35.43-3.26,19.61-.48,36.39,3.32,48.89h-17.61Z"/><path class="cls-10" d="m345.44,1079.31c3.39-18.35,27.57-55.16,7.57-87.39-5.05-8.14-10.38-9.95-16.95-16,6.36,12.12,7.67,5.47,10.49,23.39,3.66,23.28-16.64,65.17-20.9,80.01h19.79Z"/><path class="cls-12" d="m129.71,1079.31c5.99-13.75,11.36-38.21-14.03-64.03-6.07-6.17-13.08-11.59-20.25-16.29,6.95,9.41,13.64,21.31,16.72,35.23,4,18.08.58,33.57-4.07,45.09h21.63Z"/><path class="cls-12" d="m310.31,1079.31c-5.99-13.75-11.36-38.21,14.03-64.03,6.07-6.17,13.08-11.59,20.25-16.29-6.95,9.41-13.64,21.31-16.72,35.23-4,18.08-.58,33.57,4.07,45.09h-21.63Z"/><path class="cls-12" d="m203.24,1079.31c2.98-15.01,5.65-41.72-6.97-69.92-3.02-6.74-6.5-12.65-10.07-17.79,3.46,10.28,6.78,23.27,8.31,38.47,1.99,19.75.29,36.65-2.02,49.24h10.75Z"/><path class="cls-11" d="m232.4,1079.31c3.82-19.44,7.24-54.03-8.94-90.54-3.87-8.73-8.33-16.39-12.9-23.03,4.43,13.31,8.69,30.13,10.66,49.81,2.55,25.57.37,47.46-2.59,63.76h13.78-.01Z"/><path class="cls-10" d="m292.15,1079.31c-5.48-16.91-10.4-46.99,12.84-78.75,5.55-7.59,11.97-14.25,18.53-20.03-6.36,11.58-12.49,26.21-15.31,43.32-3.66,22.24-.53,41.28,3.73,55.46h-19.79Z"/><path class="cls-11" d="m293.94,1079.31c2.9-14.91,5.49-41.43-6.78-69.43-2.93-6.69-9.37-9.8-12.84-14.89,5.75,8,9.65,20.33,11.14,35.43,1.93,19.61.28,36.39-1.97,48.89h10.45,0Z"/><path class="cls-10" d="m270.66,1079.31c-4.87-18.17-9.24-50.51,11.41-84.64,4.94-8.16,10.63-15.32,16.47-21.53-5.66,12.44-11.09,28.16-13.6,46.56-3.26,23.9-.47,44.37,3.31,59.6h-17.59Z"/><path class="cls-11" d="m148.27,1079.31c4.88-14.91,9.25-41.43-11.42-69.43-4.94-6.69-15.8-9.8-21.64-14.89,9.68,8,16.26,20.33,18.77,35.43,3.26,19.61.48,36.39-3.32,48.89h17.61Z"/><path class="cls-10" d="m163.94,1079.31c-3.39-18.35-27.57-55.16-7.57-87.39,5.05-8.14,10.38-9.95,16.95-16-6.36,12.12-7.67,5.47-10.49,23.39-3.66,23.28,16.64,65.17,20.9,80.01h-19.79Z"/><path class="cls-12" d="m199.07,1079.31c5.99-13.75,11.36-38.21-14.03-64.03-6.07-6.17-13.08-11.59-20.25-16.29,6.95,9.41,13.64,21.31,16.72,35.23,4,18.08.58,33.57-4.07,45.09h21.63Z"/><path class="cls-10" d="m217.23,1079.31c5.48-16.91,10.4-46.99-12.84-78.75-5.55-7.59-11.97-14.25-18.53-20.03,6.36,11.58,12.49,26.21,15.31,43.32,3.66,22.24.53,41.28-3.73,55.46h19.79Z"/><path class="cls-10" d="m1405.5,1079.31c-5.48-22.34-10.4-62.08,12.84-104.04,5.55-10.03,11.97-18.83,18.53-26.46-6.36,15.3-12.49,34.62-15.31,57.24-3.66,29.38-.53,54.54,3.73,73.26h-19.79,0Z"/><path class="cls-11" d="m1426.74,1079.31c-4.88-19.44-9.25-54.03,11.42-90.54,4.94-8.73,10.65-16.39,16.49-23.03-5.66,13.31-11.11,30.13-13.62,49.81-3.26,25.57-.48,47.46,3.32,63.76h-17.61Z"/><path class="cls-11" d="m1336.84,1079.31c4.88-16.28,9.25-45.24-11.42-75.8-4.94-7.31-10.65-13.72-16.49-19.28,5.66,11.15,11.11,25.23,13.62,41.7,3.26,21.41.48,39.74-3.32,53.38h17.61Z"/><path class="cls-11" d="m1533.37,1079.31c-4.88-14.91-9.25-41.43,11.42-69.43,4.94-6.69,15.8-9.8,21.64-14.89-9.68,8-16.26,20.33-18.77,35.43-3.26,19.61-.48,36.39,3.32,48.89h-17.61Z"/><path class="cls-10" d="m1517.7,1079.31c3.39-18.35,27.57-55.16,7.57-87.39-5.05-8.14-10.38-9.95-16.95-16,6.36,12.12,7.67,5.47,10.49,23.39,3.66,23.28-16.64,65.17-20.9,80.01h19.79Z"/><path class="cls-12" d="m1301.97,1079.31c5.99-13.75,11.36-38.21-14.03-64.03-6.07-6.17-13.08-11.59-20.25-16.29,6.95,9.41,13.64,21.31,16.72,35.23,4,18.08.58,33.57-4.07,45.09h21.63Z"/><path class="cls-12" d="m1482.57,1079.31c-5.99-13.75-11.36-38.21,14.03-64.03,6.07-6.17,13.08-11.59,20.25-16.29-6.95,9.41-13.64,21.31-16.72,35.23-4,18.08-.58,33.57,4.07,45.09h-21.63Z"/><path class="cls-12" d="m1375.5,1079.31c2.98-15.01,5.65-41.72-6.97-69.92-3.02-6.74-6.5-12.65-10.07-17.79,3.46,10.28,6.78,23.27,8.31,38.47,1.99,19.75.29,36.65-2.02,49.24h10.75,0Z"/><path class="cls-11" d="m1404.66,1079.31c3.82-19.44,7.24-54.03-8.94-90.54-3.87-8.73-8.33-16.39-12.9-23.03,4.43,13.31,8.69,30.13,10.66,49.81,2.55,25.57.37,47.46-2.59,63.76h13.78-.01Z"/><path class="cls-10" d="m1464.41,1079.31c-5.48-16.91-10.4-46.99,12.84-78.75,5.55-7.59,11.97-14.25,18.53-20.03-6.36,11.58-12.49,26.21-15.31,43.32-3.66,22.24-.53,41.28,3.73,55.46h-19.79,0Z"/><path class="cls-11" d="m1466.2,1079.31c2.9-14.91,5.49-41.43-6.78-69.43-2.93-6.69-9.37-9.8-12.84-14.89,5.75,8,9.65,20.33,11.14,35.43,1.93,19.61.28,36.39-1.97,48.89h10.45Z"/><path class="cls-10" d="m1442.92,1079.31c-4.87-18.17-9.24-50.51,11.41-84.64,4.94-8.16,10.63-15.32,16.47-21.53-5.66,12.44-11.09,28.16-13.6,46.56-3.26,23.9-.47,44.37,3.31,59.6h-17.59Z"/><path class="cls-11" d="m1320.53,1079.31c4.88-14.91,9.25-41.43-11.42-69.43-4.94-6.69-15.8-9.8-21.64-14.89,9.68,8,16.26,20.33,18.77,35.43,3.26,19.61.48,36.39-3.32,48.89h17.61Z"/><path class="cls-10" d="m1336.2,1079.31c-3.39-18.35-27.57-55.16-7.57-87.39,5.05-8.14,10.38-9.95,16.95-16-6.36,12.12-7.67,5.47-10.49,23.39-3.66,23.28,16.64,65.17,20.9,80.01h-19.79Z"/><path class="cls-12" d="m1371.33,1079.31c5.99-13.75,11.36-38.21-14.03-64.03-6.07-6.17-13.08-11.59-20.25-16.29,6.95,9.41,13.64,21.31,16.72,35.23,4,18.08.58,33.57-4.07,45.09h21.63Z"/><path class="cls-10" d="m1389.49,1079.31c5.48-16.91,10.4-46.99-12.84-78.75-5.55-7.59-11.97-14.25-18.53-20.03,6.36,11.58,12.49,26.21,15.31,43.32,3.66,22.24.53,41.28-3.73,55.46h19.79,0Z"/><path class="cls-10" d="m1638.93,1079.31c-5.48-22.34-10.4-62.08,12.84-104.04,5.55-10.03,11.97-18.83,18.53-26.46-6.36,15.3-12.49,34.62-15.31,57.24-3.66,29.38-.53,54.54,3.73,73.26h-19.79,0Z"/><path class="cls-11" d="m1660.17,1079.31c-4.88-19.44-9.25-54.03,11.42-90.54,4.94-8.73,10.65-16.39,16.49-23.03-5.66,13.31-11.11,30.13-13.62,49.81-3.26,25.57-.48,47.46,3.32,63.76h-17.61Z"/><path class="cls-11" d="m1570.27,1079.31c4.88-16.28,9.25-45.24-11.42-75.8-4.94-7.31-10.65-13.72-16.49-19.28,5.66,11.15,11.11,25.23,13.62,41.7,3.26,21.41.48,39.74-3.32,53.38h17.61Z"/><path class="cls-11" d="m1766.8,1079.31c-4.88-14.91-9.25-41.43,11.42-69.43,4.94-6.69,15.8-9.8,21.64-14.89-9.68,8-16.26,20.33-18.77,35.43-3.26,19.61-.48,36.39,3.32,48.89h-17.61Z"/><path class="cls-10" d="m1751.14,1079.31c3.39-18.35,27.57-55.16,7.57-87.39-5.05-8.14-10.38-9.95-16.95-16,6.36,12.12,7.67,5.47,10.49,23.39,3.66,23.28-16.64,65.17-20.9,80.01h19.79Z"/><path class="cls-12" d="m1535.41,1079.31c5.99-13.75,11.36-38.21-14.03-64.03-6.07-6.17-13.08-11.59-20.25-16.29,6.95,9.41,13.64,21.31,16.72,35.23,4,18.08.58,33.57-4.07,45.09h21.63Z"/><path class="cls-12" d="m1716.01,1079.31c-5.99-13.75-11.36-38.21,14.03-64.03,6.07-6.17,13.08-11.59,20.25-16.29-6.95,9.41-13.64,21.31-16.72,35.23-4,18.08-.58,33.57,4.07,45.09h-21.63Z"/><path class="cls-12" d="m1608.94,1079.31c2.98-15.01,5.65-41.72-6.97-69.92-3.02-6.74-6.5-12.65-10.07-17.79,3.46,10.28,6.78,23.27,8.31,38.47,1.99,19.75.29,36.65-2.02,49.24h10.75,0Z"/><path class="cls-11" d="m1638.1,1079.31c3.82-19.44,7.24-54.03-8.94-90.54-3.87-8.73-8.33-16.39-12.9-23.03,4.43,13.31,8.69,30.13,10.66,49.81,2.55,25.57.37,47.46-2.59,63.76h13.78-.01Z"/><path class="cls-10" d="m1697.84,1079.31c-5.48-16.91-10.4-46.99,12.84-78.75,5.55-7.59,11.97-14.25,18.53-20.03-6.36,11.58-12.49,26.21-15.31,43.32-3.66,22.24-.53,41.28,3.73,55.46h-19.79,0Z"/><path class="cls-11" d="m1699.64,1079.31c2.9-14.91,5.49-41.43-6.78-69.43-2.93-6.69-9.37-9.8-12.84-14.89,5.75,8,9.65,20.33,11.14,35.43,1.93,19.61.28,36.39-1.97,48.89h10.45Z"/><path class="cls-10" d="m1676.35,1079.31c-4.87-18.17-9.24-50.51,11.41-84.64,4.94-8.16,10.63-15.32,16.47-21.53-5.66,12.44-11.09,28.16-13.6,46.56-3.26,23.9-.47,44.37,3.31,59.6h-17.59Z"/><path class="cls-11" d="m1553.97,1079.31c4.88-14.91,9.25-41.43-11.42-69.43-4.94-6.69-15.8-9.8-21.64-14.89,9.68,8,16.26,20.33,18.77,35.43,3.26,19.61.48,36.39-3.32,48.89h17.61Z"/><path class="cls-10" d="m1569.63,1079.31c-3.39-18.35-27.57-55.16-7.57-87.39,5.05-8.14,10.38-9.95,16.95-16-6.36,12.12-7.67,5.47-10.49,23.39-3.66,23.28,16.64,65.17,20.9,80.01h-19.79Z"/><path class="cls-12" d="m1604.76,1079.31c5.99-13.75,11.36-38.21-14.03-64.03-6.07-6.17-13.08-11.59-20.25-16.29,6.95,9.41,13.64,21.31,16.72,35.23,4,18.08.58,33.57-4.07,45.09h21.63Z"/><path class="cls-10" d="m1622.93,1079.31c5.48-16.91,10.4-46.99-12.84-78.75-5.55-7.59-11.97-14.25-18.53-20.03,6.36,11.58,12.49,26.21,15.31,43.32,3.66,22.24.53,41.28-3.73,55.46h19.79,0Z"/><path class="cls-10" d="m936.1,1079.31c-5.48-22.34-10.4-62.08,12.84-104.04,5.55-10.03,11.97-18.83,18.53-26.46-6.36,15.3-12.49,34.62-15.31,57.24-3.66,29.38-.53,54.54,3.73,73.26h-19.79,0Z"/><path class="cls-11" d="m957.34,1079.31c-4.88-19.44-9.25-54.03,11.42-90.54,4.94-8.73,10.65-16.39,16.49-23.03-5.66,13.31-11.11,30.13-13.62,49.81-3.26,25.57-.48,47.46,3.32,63.76h-17.61Z"/><path class="cls-11" d="m867.43,1079.31c4.88-16.28,9.25-45.24-11.42-75.8-4.94-7.31-10.65-13.72-16.49-19.28,5.66,11.15,11.11,25.23,13.62,41.7,3.26,21.41.48,39.74-3.32,53.38h17.61Z"/><path class="cls-11" d="m1063.97,1079.31c-4.88-14.91-9.25-41.43,11.42-69.43,4.94-6.69,15.8-9.8,21.64-14.89-9.68,8-16.26,20.33-18.77,35.43-3.26,19.61-.48,36.39,3.32,48.89h-17.61Z"/><path class="cls-10" d="m1048.3,1079.31c3.39-18.35,27.57-55.16,7.57-87.39-5.05-8.14-10.38-9.95-16.95-16,6.36,12.12,7.67,5.47,10.49,23.39,3.66,23.28-16.64,65.17-20.9,80.01h19.79Z"/><path class="cls-12" d="m832.57,1079.31c5.99-13.75,11.36-38.21-14.03-64.03-6.07-6.17-13.08-11.59-20.25-16.29,6.95,9.41,13.64,21.31,16.72,35.23,4,18.08.58,33.57-4.07,45.09h21.63Z"/><path class="cls-12" d="m1013.17,1079.31c-5.99-13.75-11.36-38.21,14.03-64.03,6.07-6.17,13.08-11.59,20.25-16.29-6.95,9.41-13.64,21.31-16.72,35.23-4,18.08-.58,33.57,4.07,45.09h-21.63Z"/><path class="cls-12" d="m906.1,1079.31c2.98-15.01,5.65-41.72-6.97-69.92-3.02-6.74-6.5-12.65-10.07-17.79,3.46,10.28,6.78,23.27,8.31,38.47,1.99,19.75.29,36.65-2.02,49.24h10.75,0Z"/><path class="cls-11" d="m935.26,1079.31c3.82-19.44,7.24-54.03-8.94-90.54-3.87-8.73-8.33-16.39-12.9-23.03,4.43,13.31,8.69,30.13,10.66,49.81,2.55,25.57.37,47.46-2.59,63.76h13.78-.01Z"/><path class="cls-10" d="m995.01,1079.31c-5.48-16.91-10.4-46.99,12.84-78.75,5.55-7.59,11.97-14.25,18.53-20.03-6.36,11.58-12.49,26.21-15.31,43.32-3.66,22.24-.53,41.28,3.73,55.46h-19.79,0Z"/><path class="cls-11" d="m996.8,1079.31c2.9-14.91,5.49-41.43-6.78-69.43-2.93-6.69-9.37-9.8-12.84-14.89,5.75,8,9.65,20.33,11.14,35.43,1.93,19.61.28,36.39-1.97,48.89h10.45Z"/><path class="cls-10" d="m973.52,1079.31c-4.87-18.17-9.24-50.51,11.41-84.64,4.94-8.16,10.63-15.32,16.47-21.53-5.66,12.44-11.09,28.16-13.6,46.56-3.26,23.9-.47,44.37,3.31,59.6h-17.59Z"/><path class="cls-11" d="m851.13,1079.31c4.88-14.91,9.25-41.43-11.42-69.43-4.94-6.69-15.8-9.8-21.64-14.89,9.68,8,16.26,20.33,18.77,35.43,3.26,19.61.48,36.39-3.32,48.89h17.61Z"/><path class="cls-10" d="m866.8,1079.31c-3.39-18.35-27.57-55.16-7.57-87.39,5.05-8.14,10.38-9.95,16.95-16-6.36,12.12-7.67,5.47-10.49,23.39-3.66,23.28,16.64,65.17,20.9,80.01h-19.79Z"/><path class="cls-12" d="m901.93,1079.31c5.99-13.75,11.36-38.21-14.03-64.03-6.07-6.17-13.08-11.59-20.25-16.29,6.95,9.41,13.64,21.31,16.72,35.23,4,18.08.58,33.57-4.07,45.09h21.63Z"/><path class="cls-10" d="m920.09,1079.31c5.48-16.91,10.4-46.99-12.84-78.75-5.55-7.59-11.97-14.25-18.53-20.03,6.36,11.58,12.49,26.21,15.31,43.32,3.66,22.24.53,41.28-3.73,55.46h19.79,0Z"/><path class="cls-10" d="m1169.53,1079.31c-5.48-22.34-10.4-62.08,12.84-104.04,5.55-10.03,11.97-18.83,18.53-26.46-6.36,15.3-12.49,34.62-15.31,57.24-3.66,29.38-.53,54.54,3.73,73.26h-19.79,0Z"/><path class="cls-11" d="m1190.77,1079.31c-4.88-19.44-9.25-54.03,11.42-90.54,4.94-8.73,10.65-16.39,16.49-23.03-5.66,13.31-11.11,30.13-13.62,49.81-3.26,25.57-.48,47.46,3.32,63.76h-17.61Z"/><path class="cls-11" d="m1100.87,1079.31c4.88-16.28,9.25-45.24-11.42-75.8-4.94-7.31-10.65-13.72-16.49-19.28,5.66,11.15,11.11,25.23,13.62,41.7,3.26,21.41.48,39.74-3.32,53.38h17.61Z"/><path class="cls-11" d="m1297.4,1079.31c-4.88-14.91-9.25-41.43,11.42-69.43,4.94-6.69,15.8-9.8,21.64-14.89-9.68,8-16.26,20.33-18.77,35.43-3.26,19.61-.48,36.39,3.32,48.89h-17.61Z"/><path class="cls-10" d="m1281.74,1079.31c3.39-18.35,27.57-55.16,7.57-87.39-5.05-8.14-10.38-9.95-16.95-16,6.36,12.12,7.67,5.47,10.49,23.39,3.66,23.28-16.64,65.17-20.9,80.01h19.79Z"/><path class="cls-12" d="m1066,1079.31c5.99-13.75,11.36-38.21-14.03-64.03-6.07-6.17-13.08-11.59-20.25-16.29,6.95,9.41,13.64,21.31,16.72,35.23,4,18.08.58,33.57-4.07,45.09h21.63Z"/><path class="cls-12" d="m1246.61,1079.31c-5.99-13.75-11.36-38.21,14.03-64.03,6.07-6.17,13.08-11.59,20.25-16.29-6.95,9.41-13.64,21.31-16.72,35.23-4,18.08-.58,33.57,4.07,45.09h-21.63Z"/><path class="cls-12" d="m1139.54,1079.31c2.98-15.01,5.65-41.72-6.97-69.92-3.02-6.74-6.5-12.65-10.07-17.79,3.46,10.28,6.78,23.27,8.31,38.47,1.99,19.75.29,36.65-2.02,49.24h10.75,0Z"/><path class="cls-11" d="m1168.7,1079.31c3.82-19.44,7.24-54.03-8.94-90.54-3.87-8.73-8.33-16.39-12.9-23.03,4.43,13.31,8.69,30.13,10.66,49.81,2.55,25.57.37,47.46-2.59,63.76h13.78-.01Z"/><path class="cls-10" d="m1228.44,1079.31c-5.48-16.91-10.4-46.99,12.84-78.75,5.55-7.59,11.97-14.25,18.53-20.03-6.36,11.58-12.49,26.21-15.31,43.32-3.66,22.24-.53,41.28,3.73,55.46h-19.79,0Z"/><path class="cls-11" d="m1230.24,1079.31c2.9-14.91,5.49-41.43-6.78-69.43-2.93-6.69-9.37-9.8-12.84-14.89,5.75,8,9.65,20.33,11.14,35.43,1.93,19.61.28,36.39-1.97,48.89h10.45Z"/><path class="cls-10" d="m1206.95,1079.31c-4.87-18.17-9.24-50.51,11.41-84.64,4.94-8.16,10.63-15.32,16.47-21.53-5.66,12.44-11.09,28.16-13.6,46.56-3.26,23.9-.47,44.37,3.31,59.6h-17.59Z"/><path class="cls-11" d="m1084.57,1079.31c4.88-14.91,9.25-41.43-11.42-69.43-4.94-6.69-15.8-9.8-21.64-14.89,9.68,8,16.26,20.33,18.77,35.43,3.26,19.61.48,36.39-3.32,48.89h17.61Z"/><path class="cls-10" d="m1100.23,1079.31c-3.39-18.35-27.57-55.16-7.57-87.39,5.05-8.14,10.38-9.95,16.95-16-6.36,12.12-7.67,5.47-10.49,23.39-3.66,23.28,16.64,65.17,20.9,80.01h-19.79Z"/><path class="cls-12" d="m1135.36,1079.31c5.99-13.75,11.36-38.21-14.03-64.03-6.07-6.17-13.08-11.59-20.25-16.29,6.95,9.41,13.64,21.31,16.72,35.23,4,18.08.58,33.57-4.07,45.09h21.63Z"/><path class="cls-10" d="m1153.52,1079.31c5.48-16.91,10.4-46.99-12.84-78.75-5.55-7.59-11.97-14.25-18.53-20.03,6.36,11.58,12.49,26.21,15.31,43.32,3.66,22.24.53,41.28-3.73,55.46h19.79,0Z"/><path class="cls-10" d="m1835.17,1079.31c-5.48-22.34-10.4-62.08,12.84-104.04,5.55-10.03,11.97-18.83,18.53-26.46-6.36,15.3-12.49,34.62-15.31,57.24-3.66,29.38-.53,54.54,3.73,73.26h-19.79,0Z"/><path class="cls-11" d="m1856.41,1079.31c-4.88-19.44-9.25-54.03,11.42-90.54,4.94-8.73,10.65-16.39,16.49-23.03-5.66,13.31-11.11,30.13-13.62,49.81-3.26,25.57-.48,47.46,3.32,63.76h-17.61Z"/><path class="cls-11" d="m1766.51,1079.31c4.88-16.28,9.25-45.24-11.42-75.8-4.94-7.31-10.65-13.72-16.49-19.28,5.66,11.15,11.11,25.23,13.62,41.7,3.26,21.41.48,39.74-3.32,53.38h17.61Z"/><path class="cls-12" d="m1912.25,1079.31c-5.99-13.75-11.36-38.21,14.03-64.03,6.07-6.17,13.08-11.59,20.25-16.29-6.95,9.41-13.64,21.31-16.72,35.23-4,18.08-.58,33.57,4.07,45.09h-21.63Z"/><path class="cls-12" d="m1805.18,1079.31c2.98-15.01,5.65-41.72-6.97-69.92-3.02-6.74-6.5-12.65-10.07-17.79,3.46,10.28,6.78,23.27,8.31,38.47,1.99,19.75.29,36.65-2.02,49.24h10.75,0Z"/><path class="cls-11" d="m1834.34,1079.31c3.82-19.44,7.24-54.03-8.94-90.54-3.87-8.73-8.33-16.39-12.9-23.03,4.43,13.31,8.69,30.13,10.66,49.81,2.55,25.57.37,47.46-2.59,63.76h13.78-.01Z"/><path class="cls-10" d="m1894.09,1079.31c-5.48-16.91-10.4-46.99,12.84-78.75,5.55-7.59,11.97-14.25,18.53-20.03-6.36,11.58-12.49,26.21-15.31,43.32-3.66,22.24-.53,41.28,3.73,55.46h-19.79,0Z"/><path class="cls-11" d="m1895.88,1079.31c2.9-14.91,5.49-41.43-6.78-69.43-2.93-6.69-9.37-9.8-12.84-14.89,5.75,8,9.65,20.33,11.14,35.43,1.93,19.61.28,36.39-1.97,48.89h10.45Z"/><path class="cls-10" d="m1872.59,1079.31c-4.87-18.17-9.24-50.51,11.41-84.64,4.94-8.16,10.63-15.32,16.47-21.53-5.66,12.44-11.09,28.16-13.6,46.56-3.26,23.9-.47,44.37,3.31,59.6h-17.59Z"/><path class="cls-11" d="m1750.21,1079.31c4.88-14.91,9.25-41.43-11.42-69.43-4.94-6.69-15.8-9.8-21.64-14.89,9.68,8,16.26,20.33,18.77,35.43,3.26,19.61.48,36.39-3.32,48.89h17.61Z"/><path class="cls-10" d="m1765.87,1079.31c-3.39-18.35-27.57-55.16-7.57-87.39,5.05-8.14,10.38-9.95,16.95-16-6.36,12.12-7.67,5.47-10.49,23.39-3.66,23.28,16.64,65.17,20.9,80.01h-19.79Z"/><path class="cls-12" d="m1801,1079.31c5.99-13.75,11.36-38.21-14.03-64.03-6.07-6.17-13.08-11.59-20.25-16.29,6.95,9.41,13.64,21.31,16.72,35.23,4,18.08.58,33.57-4.07,45.09h21.63Z"/><path class="cls-10" d="m1819.17,1079.31c5.48-16.91,10.4-46.99-12.84-78.75-5.55-7.59-11.97-14.25-18.53-20.03,6.36,11.58,12.49,26.21,15.31,43.32,3.66,22.24.53,41.28-3.73,55.46h19.79,0Z"/><path class="cls-11" d="m1727.08,1079.31c-4.88-14.91-9.25-41.43,11.42-69.43,4.94-6.69,15.8-9.8,21.64-14.89-9.68,8-16.26,20.33-18.77,35.43-3.26,19.61-.48,36.39,3.32,48.89h-17.61Z"/></g></g></svg>