<?xml version="1.0" encoding="UTF-8"?><svg id="Calque_1" xmlns="http://www.w3.org/2000/svg" xmlns:xlink="http://www.w3.org/1999/xlink" viewBox="0 0 1920 1080"><defs><style>.cls-1{clip-path:url(#clippath);}.cls-2{fill:none;stroke-width:0px;}.cls-3{fill:#006800;}.cls-3,.cls-4,.cls-5{stroke:#1a1a1a;stroke-linecap:round;stroke-linejoin:round;stroke-width:3px;}.cls-4{fill:#008600;}.cls-5{fill:#00b300;}</style><clipPath id="clippath"><rect class="cls-2" x="-.5" y="627" width="1921" height="453"/></clipPath></defs><g class="cls-1"><path class="cls-3" d="m469.2,1079.5c-5.48-22.34-10.4-62.08,12.84-104.04,5.55-10.03,11.97-18.83,18.53-26.46-6.36,15.3-12.49,34.62-15.31,57.24-3.66,29.38-.53,54.54,3.73,73.26h-19.79Z"/><path class="cls-4" d="m490.44,1079.5c-4.88-19.44-9.25-54.03,11.42-90.54,4.94-8.73,10.65-16.39,16.49-23.03-5.66,13.31-11.11,30.13-13.62,49.81-3.26,25.57-.48,47.46,3.32,63.76h-17.61Z"/><path class="cls-4" d="m400.54,1079.5c4.88-16.28,9.25-45.24-11.42-75.8-4.94-7.31-10.65-13.72-16.49-19.28,5.66,11.15,11.11,25.23,13.62,41.7,3.26,21.41.48,39.74-3.32,53.38h17.61Z"/><path class="cls-4" d="m597.07,1079.5c-4.88-14.91-9.25-41.43,11.42-69.43,4.94-6.69,15.8-9.8,21.64-14.89-9.68,8-16.26,20.33-18.77,35.43-3.26,19.61-.48,36.39,3.32,48.89h-17.61Z"/><path class="cls-3" d="m581.41,1079.5c3.39-18.35,27.57-55.16,7.57-87.39-5.05-8.14-10.38-9.95-16.95-16,6.36,12.12,7.67,5.47,10.49,23.39,3.66,23.28-16.64,65.17-20.9,80.01h19.79Z"/><path class="cls-5" d="m365.68,1079.5c5.99-13.75,11.36-38.21-14.03-64.03-6.07-6.17-13.08-11.59-20.25-16.29,6.95,9.41,13.64,21.31,16.72,35.23,4,18.08.58,33.57-4.07,45.09h21.63Z"/><path class="cls-5" d="m546.28,1079.5c-5.99-13.75-11.36-38.21,14.03-64.03,6.07-6.17,13.08-11.59,20.25-16.29-6.95,9.41-13.64,21.31-16.72,35.23-4,18.08-.58,33.57,4.07,45.09h-21.63Z"/><path class="cls-5" d="m439.21,1079.5c2.98-15.01,5.65-41.72-6.97-69.92-3.02-6.74-6.5-12.65-10.07-17.79,3.46,10.28,6.78,23.27,8.31,38.47,1.99,19.75.29,36.65-2.02,49.24h10.75Z"/><path class="cls-4" d="m468.37,1079.5c3.82-19.44,7.24-54.03-8.94-90.54-3.87-8.73-8.33-16.39-12.9-23.03,4.43,13.31,8.69,30.13,10.66,49.81,2.55,25.57.37,47.46-2.59,63.76h13.78,0Z"/><path class="cls-3" d="m528.11,1079.5c-5.48-16.91-10.4-46.99,12.84-78.75,5.55-7.59,11.97-14.25,18.53-20.03-6.36,11.58-12.49,26.21-15.31,43.32-3.66,22.24-.53,41.28,3.73,55.46h-19.79Z"/><path class="cls-4" d="m529.91,1079.5c2.9-14.91,5.49-41.43-6.78-69.43-2.93-6.69-9.37-9.8-12.84-14.89,5.75,8,9.65,20.33,11.14,35.43,1.93,19.61.28,36.39-1.97,48.89h10.45Z"/><path class="cls-3" d="m506.62,1079.5c-4.87-18.17-9.24-50.51,11.41-84.64,4.94-8.16,10.63-15.32,16.47-21.53-5.66,12.44-11.09,28.16-13.6,46.56-3.26,23.9-.47,44.37,3.31,59.6h-17.59,0Z"/><path class="cls-4" d="m384.24,1079.5c4.88-14.91,9.25-41.43-11.42-69.43-4.94-6.69-15.8-9.8-21.64-14.89,9.68,8,16.26,20.33,18.77,35.43,3.26,19.61.48,36.39-3.32,48.89h17.61Z"/><path class="cls-3" d="m399.9,1079.5c-3.39-18.35-27.57-55.16-7.57-87.39,5.05-8.14,10.38-9.95,16.95-16-6.36,12.12-7.67,5.47-10.49,23.39-3.66,23.28,16.64,65.17,20.9,80.01h-19.79Z"/><path class="cls-5" d="m435.03,1079.5c5.99-13.75,11.36-38.21-14.03-64.03-6.07-6.17-13.08-11.59-20.25-16.29,6.95,9.41,13.64,21.31,16.72,35.23,4,18.08.58,33.57-4.07,45.09h21.63Z"/><path class="cls-3" d="m453.2,1079.5c5.48-16.91,10.4-46.99-12.84-78.75-5.55-7.59-11.97-14.25-18.53-20.03,6.36,11.58,12.49,26.21,15.31,43.32,3.66,22.24.53,41.28-3.73,55.46h19.79Z"/><path class="cls-3" d="m702.64,1079.5c-5.48-22.34-10.4-62.08,12.84-104.04,5.55-10.03,11.97-18.83,18.53-26.46-6.36,15.3-12.49,34.62-15.31,57.24-3.66,29.38-.53,54.54,3.73,73.26h-19.79Z"/><path class="cls-4" d="m723.88,1079.5c-4.88-19.44-9.25-54.03,11.42-90.54,4.94-8.73,10.65-16.39,16.49-23.03-5.66,13.31-11.11,30.13-13.62,49.81-3.26,25.57-.48,47.46,3.32,63.76h-17.61Z"/><path class="cls-4" d="m633.98,1079.5c4.88-16.28,9.25-45.24-11.42-75.8-4.94-7.31-10.65-13.72-16.49-19.28,5.66,11.15,11.11,25.23,13.62,41.7,3.26,21.41.48,39.74-3.32,53.38h17.61Z"/><path class="cls-4" d="m830.51,1079.5c-4.88-14.91-9.25-41.43,11.42-69.43,4.94-6.69,15.8-9.8,21.64-14.89-9.68,8-16.26,20.33-18.77,35.43-3.26,19.61-.48,36.39,3.32,48.89h-17.61Z"/><path class="cls-3" d="m814.84,1079.5c3.39-18.35,27.57-55.16,7.57-87.39-5.05-8.14-10.38-9.95-16.95-16,6.36,12.12,7.67,5.47,10.49,23.39,3.66,23.28-16.64,65.17-20.9,80.01h19.79Z"/><path class="cls-5" d="m599.11,1079.5c5.99-13.75,11.36-38.21-14.03-64.03-6.07-6.17-13.08-11.59-20.25-16.29,6.95,9.41,13.64,21.31,16.72,35.23,4,18.08.58,33.57-4.07,45.09h21.63Z"/><path class="cls-5" d="m779.71,1079.5c-5.99-13.75-11.36-38.21,14.03-64.03,6.07-6.17,13.08-11.59,20.25-16.29-6.95,9.41-13.64,21.31-16.72,35.23-4,18.08-.58,33.57,4.07,45.09h-21.63Z"/><path class="cls-5" d="m672.64,1079.5c2.98-15.01,5.65-41.72-6.97-69.92-3.02-6.74-6.5-12.65-10.07-17.79,3.46,10.28,6.78,23.27,8.31,38.47,1.99,19.75.29,36.65-2.02,49.24h10.75Z"/><path class="cls-4" d="m701.8,1079.5c3.82-19.44,7.24-54.03-8.94-90.54-3.87-8.73-8.33-16.39-12.9-23.03,4.43,13.31,8.69,30.13,10.66,49.81,2.55,25.57.37,47.46-2.59,63.76h13.78,0Z"/><path class="cls-3" d="m761.55,1079.5c-5.48-16.91-10.4-46.99,12.84-78.75,5.55-7.59,11.97-14.25,18.53-20.03-6.36,11.58-12.49,26.21-15.31,43.32-3.66,22.24-.53,41.28,3.73,55.46h-19.79Z"/><path class="cls-4" d="m763.34,1079.5c2.9-14.91,5.49-41.43-6.78-69.43-2.93-6.69-9.37-9.8-12.84-14.89,5.75,8,9.65,20.33,11.14,35.43,1.93,19.61.28,36.39-1.97,48.89h10.45Z"/><path class="cls-3" d="m740.06,1079.5c-4.87-18.17-9.24-50.51,11.41-84.64,4.94-8.16,10.63-15.32,16.47-21.53-5.66,12.44-11.09,28.16-13.6,46.56-3.26,23.9-.47,44.37,3.31,59.6h-17.59,0Z"/><path class="cls-4" d="m617.67,1079.5c4.88-14.91,9.25-41.43-11.42-69.43-4.94-6.69-15.8-9.8-21.64-14.89,9.68,8,16.26,20.33,18.77,35.43,3.26,19.61.48,36.39-3.32,48.89h17.61Z"/><path class="cls-3" d="m633.34,1079.5c-3.39-18.35-27.57-55.16-7.57-87.39,5.05-8.14,10.38-9.95,16.95-16-6.36,12.12-7.67,5.47-10.49,23.39-3.66,23.28,16.64,65.17,20.9,80.01h-19.79Z"/><path class="cls-5" d="m668.47,1079.5c5.99-13.75,11.36-38.21-14.03-64.03-6.07-6.17-13.08-11.59-20.25-16.29,6.95,9.41,13.64,21.31,16.72,35.23,4,18.08.58,33.57-4.07,45.09h21.63Z"/><path class="cls-3" d="m686.63,1079.5c5.48-16.91,10.4-46.99-12.84-78.75-5.55-7.59-11.97-14.25-18.53-20.03,6.36,11.58,12.49,26.21,15.31,43.32,3.66,22.24.53,41.28-3.73,55.46h19.79Z"/><path class="cls-3" d="m-.2,1079.5c-5.48-22.34-10.4-62.08,12.84-104.04,5.55-10.03,11.97-18.83,18.53-26.46-6.36,15.3-12.49,34.62-15.31,57.24-3.66,29.38-.53,54.54,3.73,73.26H-.2h0Z"/><path class="cls-4" d="m21.04,1079.5c-4.88-19.44-9.25-54.03,11.42-90.54,4.94-8.73,10.65-16.39,16.49-23.03-5.66,13.31-11.11,30.13-13.62,49.81-3.26,25.57-.48,47.46,3.32,63.76h-17.61Z"/><path class="cls-4" d="m127.67,1079.5c-4.88-14.91-9.25-41.43,11.42-69.43,4.94-6.69,15.8-9.8,21.64-14.89-9.68,8-16.26,20.33-18.77,35.43-3.26,19.61-.48,36.39,3.32,48.89h-17.61Z"/><path class="cls-3" d="m112.01,1079.5c3.39-18.35,27.57-55.16,7.57-87.39-5.05-8.14-10.38-9.95-16.95-16,6.36,12.12,7.67,5.47,10.49,23.39,3.66,23.28-16.64,65.17-20.9,80.01h19.79,0Z"/><path class="cls-5" d="m76.88,1079.5c-5.99-13.75-11.36-38.21,14.03-64.03,6.07-6.17,13.08-11.59,20.25-16.29-6.95,9.41-13.64,21.31-16.72,35.23-4,18.08-.58,33.57,4.07,45.09h-21.63Z"/><path class="cls-4" d="m-1.03,1079.5c3.82-19.44,7.24-54.03-8.94-90.54-3.87-8.73-8.33-16.39-12.9-23.03,4.43,13.31,8.69,30.13,10.66,49.81,2.55,25.57.37,47.46-2.59,63.76H-1.02h0Z"/><path class="cls-3" d="m58.71,1079.5c-5.48-16.91-10.4-46.99,12.84-78.75,5.55-7.59,11.97-14.25,18.53-20.03-6.36,11.58-12.49,26.21-15.31,43.32-3.66,22.24-.53,41.28,3.73,55.46h-19.79,0Z"/><path class="cls-4" d="m60.51,1079.5c2.9-14.91,5.49-41.43-6.78-69.43-2.93-6.69-9.37-9.8-12.84-14.89,5.75,8,9.65,20.33,11.14,35.43,1.93,19.61.28,36.39-1.97,48.89h10.45Z"/><path class="cls-3" d="m37.22,1079.5c-4.87-18.17-9.24-50.51,11.41-84.64,4.94-8.16,10.63-15.32,16.47-21.53-5.66,12.44-11.09,28.16-13.6,46.56-3.26,23.9-.47,44.37,3.31,59.6h-17.59Z"/><path class="cls-3" d="m233.24,1079.5c-5.48-22.34-10.4-62.08,12.84-104.04,5.55-10.03,11.97-18.83,18.53-26.46-6.36,15.3-12.49,34.62-15.31,57.24-3.66,29.38-.53,54.54,3.73,73.26h-19.79Z"/><path class="cls-4" d="m254.48,1079.5c-4.88-19.44-9.25-54.03,11.42-90.54,4.94-8.73,10.65-16.39,16.49-23.03-5.66,13.31-11.11,30.13-13.62,49.81-3.26,25.57-.48,47.46,3.32,63.76h-17.61Z"/><path class="cls-4" d="m164.58,1079.5c4.88-16.28,9.25-45.24-11.42-75.8-4.94-7.31-10.65-13.72-16.49-19.28,5.66,11.15,11.11,25.23,13.62,41.7,3.26,21.41.48,39.74-3.32,53.38h17.61Z"/><path class="cls-4" d="m361.11,1079.5c-4.88-14.91-9.25-41.43,11.42-69.43,4.94-6.69,15.8-9.8,21.64-14.89-9.68,8-16.26,20.33-18.77,35.43-3.26,19.61-.48,36.39,3.32,48.89h-17.61Z"/><path class="cls-3" d="m345.44,1079.5c3.39-18.35,27.57-55.16,7.57-87.39-5.05-8.14-10.38-9.95-16.95-16,6.36,12.12,7.67,5.47,10.49,23.39,3.66,23.28-16.64,65.17-20.9,80.01h19.79Z"/><path class="cls-5" d="m129.71,1079.5c5.99-13.75,11.36-38.21-14.03-64.03-6.07-6.17-13.08-11.59-20.25-16.29,6.95,9.41,13.64,21.31,16.72,35.23,4,18.08.58,33.57-4.07,45.09h21.63Z"/><path class="cls-5" d="m310.31,1079.5c-5.99-13.75-11.36-38.21,14.03-64.03,6.07-6.17,13.08-11.59,20.25-16.29-6.95,9.41-13.64,21.31-16.72,35.23-4,18.08-.58,33.57,4.07,45.09h-21.63Z"/><path class="cls-5" d="m203.24,1079.5c2.98-15.01,5.65-41.72-6.97-69.92-3.02-6.74-6.5-12.65-10.07-17.79,3.46,10.28,6.78,23.27,8.31,38.47,1.99,19.75.29,36.65-2.02,49.24h10.75Z"/><path class="cls-4" d="m232.4,1079.5c3.82-19.44,7.24-54.03-8.94-90.54-3.87-8.73-8.33-16.39-12.9-23.03,4.43,13.31,8.69,30.13,10.66,49.81,2.55,25.57.37,47.46-2.59,63.76h13.78-.01Z"/><path class="cls-3" d="m292.15,1079.5c-5.48-16.91-10.4-46.99,12.84-78.75,5.55-7.59,11.97-14.25,18.53-20.03-6.36,11.58-12.49,26.21-15.31,43.32-3.66,22.24-.53,41.28,3.73,55.46h-19.79Z"/><path class="cls-4" d="m293.94,1079.5c2.9-14.91,5.49-41.43-6.78-69.43-2.93-6.69-9.37-9.8-12.84-14.89,5.75,8,9.65,20.33,11.14,35.43,1.93,19.61.28,36.39-1.97,48.89h10.45,0Z"/><path class="cls-3" d="m270.66,1079.5c-4.87-18.17-9.24-50.51,11.41-84.64,4.94-8.16,10.63-15.32,16.47-21.53-5.66,12.44-11.09,28.16-13.6,46.56-3.26,23.9-.47,44.37,3.31,59.6h-17.59Z"/><path class="cls-4" d="m148.27,1079.5c4.88-14.91,9.25-41.43-11.42-69.43-4.94-6.69-15.8-9.8-21.64-14.89,9.68,8,16.26,20.33,18.77,35.43,3.26,19.61.48,36.39-3.32,48.89h17.61Z"/><path class="cls-3" d="m163.94,1079.5c-3.39-18.35-27.57-55.16-7.57-87.39,5.05-8.14,10.38-9.95,16.95-16-6.36,12.12-7.67,5.47-10.49,23.39-3.66,23.28,16.64,65.17,20.9,80.01h-19.79Z"/><path class="cls-5" d="m199.07,1079.5c5.99-13.75,11.36-38.21-14.03-64.03-6.07-6.17-13.08-11.59-20.25-16.29,6.95,9.41,13.64,21.31,16.72,35.23,4,18.08.58,33.57-4.07,45.09h21.63Z"/><path class="cls-3" d="m217.23,1079.5c5.48-16.91,10.4-46.99-12.84-78.75-5.55-7.59-11.97-14.25-18.53-20.03,6.36,11.58,12.49,26.21,15.31,43.32,3.66,22.24.53,41.28-3.73,55.46h19.79Z"/><path class="cls-3" d="m1405.5,1079.5c-5.48-22.34-10.4-62.08,12.84-104.04,5.55-10.03,11.97-18.83,18.53-26.46-6.36,15.3-12.49,34.62-15.31,57.24-3.66,29.38-.53,54.54,3.73,73.26h-19.79,0Z"/><path class="cls-4" d="m1426.74,1079.5c-4.88-19.44-9.25-54.03,11.42-90.54,4.94-8.73,10.65-16.39,16.49-23.03-5.66,13.31-11.11,30.13-13.62,49.81-3.26,25.57-.48,47.46,3.32,63.76h-17.61Z"/><path class="cls-4" d="m1336.84,1079.5c4.88-16.28,9.25-45.24-11.42-75.8-4.94-7.31-10.65-13.72-16.49-19.28,5.66,11.15,11.11,25.23,13.62,41.7,3.26,21.41.48,39.74-3.32,53.38h17.61Z"/><path class="cls-4" d="m1533.37,1079.5c-4.88-14.91-9.25-41.43,11.42-69.43,4.94-6.69,15.8-9.8,21.64-14.89-9.68,8-16.26,20.33-18.77,35.43-3.26,19.61-.48,36.39,3.32,48.89h-17.61Z"/><path class="cls-3" d="m1517.7,1079.5c3.39-18.35,27.57-55.16,7.57-87.39-5.05-8.14-10.38-9.95-16.95-16,6.36,12.12,7.67,5.47,10.49,23.39,3.66,23.28-16.64,65.17-20.9,80.01h19.79Z"/><path class="cls-5" d="m1301.97,1079.5c5.99-13.75,11.36-38.21-14.03-64.03-6.07-6.17-13.08-11.59-20.25-16.29,6.95,9.41,13.64,21.31,16.72,35.23,4,18.08.58,33.57-4.07,45.09h21.63Z"/><path class="cls-5" d="m1482.57,1079.5c-5.99-13.75-11.36-38.21,14.03-64.03,6.07-6.17,13.08-11.59,20.25-16.29-6.95,9.41-13.64,21.31-16.72,35.23-4,18.08-.58,33.57,4.07,45.09h-21.63Z"/><path class="cls-5" d="m1375.5,1079.5c2.98-15.01,5.65-41.72-6.97-69.92-3.02-6.74-6.5-12.65-10.07-17.79,3.46,10.28,6.78,23.27,8.31,38.47,1.99,19.75.29,36.65-2.02,49.24h10.75,0Z"/><path class="cls-4" d="m1404.66,1079.5c3.82-19.44,7.24-54.03-8.94-90.54-3.87-8.73-8.33-16.39-12.9-23.03,4.43,13.31,8.69,30.13,10.66,49.81,2.55,25.57.37,47.46-2.59,63.76h13.78-.01Z"/><path class="cls-3" d="m1464.41,1079.5c-5.48-16.91-10.4-46.99,12.84-78.75,5.55-7.59,11.97-14.25,18.53-20.03-6.36,11.58-12.49,26.21-15.31,43.32-3.66,22.24-.53,41.28,3.73,55.46h-19.79,0Z"/><path class="cls-4" d="m1466.2,1079.5c2.9-14.91,5.49-41.43-6.78-69.43-2.93-6.69-9.37-9.8-12.84-14.89,5.75,8,9.65,20.33,11.14,35.43,1.93,19.61.28,36.39-1.97,48.89h10.45Z"/><path class="cls-3" d="m1442.92,1079.5c-4.87-18.17-9.24-50.51,11.41-84.64,4.94-8.16,10.63-15.32,16.47-21.53-5.66,12.44-11.09,28.16-13.6,46.56-3.26,23.9-.47,44.37,3.31,59.6h-17.59Z"/><path class="cls-4" d="m1320.53,1079.5c4.88-14.91,9.25-41.43-11.42-69.43-4.94-6.69-15.8-9.8-21.64-14.89,9.68,8,16.26,20.33,18.77,35.43,3.26,19.61.48,36.39-3.32,48.89h17.61Z"/><path class="cls-3" d="m1336.2,1079.5c-3.39-18.35-27.57-55.16-7.57-87.39,5.05-8.14,10.38-9.95,16.95-16-6.36,12.12-7.67,5.47-10.49,23.39-3.66,23.28,16.64,65.17,20.9,80.01h-19.79Z"/><path class="cls-5" d="m1371.33,1079.5c5.99-13.75,11.36-38.21-14.03-64.03-6.07-6.17-13.08-11.59-20.25-16.29,6.95,9.41,13.64,21.31,16.72,35.23,4,18.08.58,33.57-4.07,45.09h21.63Z"/><path class="cls-3" d="m1389.49,1079.5c5.48-16.91,10.4-46.99-12.84-78.75-5.55-7.59-11.97-14.25-18.53-20.03,6.36,11.58,12.49,26.21,15.31,43.32,3.66,22.24.53,41.28-3.73,55.46h19.79,0Z"/><path class="cls-3" d="m1638.93,1079.5c-5.48-22.34-10.4-62.08,12.84-104.04,5.55-10.03,11.97-18.83,18.53-26.46-6.36,15.3-12.49,34.62-15.31,57.24-3.66,29.38-.53,54.54,3.73,73.26h-19.79,0Z"/><path class="cls-4" d="m1660.17,1079.5c-4.88-19.44-9.25-54.03,11.42-90.54,4.94-8.73,10.65-16.39,16.49-23.03-5.66,13.31-11.11,30.13-13.62,49.81-3.26,25.57-.48,47.46,3.32,63.76h-17.61Z"/><path class="cls-4" d="m1570.27,1079.5c4.88-16.28,9.25-45.24-11.42-75.8-4.94-7.31-10.65-13.72-16.49-19.28,5.66,11.15,11.11,25.23,13.62,41.7,3.26,21.41.48,39.74-3.32,53.38h17.61Z"/><path class="cls-4" d="m1766.8,1079.5c-4.88-14.91-9.25-41.43,11.42-69.43,4.94-6.69,15.8-9.8,21.64-14.89-9.68,8-16.26,20.33-18.77,35.43-3.26,19.61-.48,36.39,3.32,48.89h-17.61Z"/><path class="cls-3" d="m1751.14,1079.5c3.39-18.35,27.57-55.16,7.57-87.39-5.05-8.14-10.38-9.95-16.95-16,6.36,12.12,7.67,5.47,10.49,23.39,3.66,23.28-16.64,65.17-20.9,80.01h19.79Z"/><path class="cls-5" d="m1535.41,1079.5c5.99-13.75,11.36-38.21-14.03-64.03-6.07-6.17-13.08-11.59-20.25-16.29,6.95,9.41,13.64,21.31,16.72,35.23,4,18.08.58,33.57-4.07,45.09h21.63Z"/><path class="cls-5" d="m1716.01,1079.5c-5.99-13.75-11.36-38.21,14.03-64.03,6.07-6.17,13.08-11.59,20.25-16.29-6.95,9.41-13.64,21.31-16.72,35.23-4,18.08-.58,33.57,4.07,45.09h-21.63Z"/><path class="cls-5" d="m1608.94,1079.5c2.98-15.01,5.65-41.72-6.97-69.92-3.02-6.74-6.5-12.65-10.07-17.79,3.46,10.28,6.78,23.27,8.31,38.47,1.99,19.75.29,36.65-2.02,49.24h10.75,0Z"/><path class="cls-4" d="m1638.1,1079.5c3.82-19.44,7.24-54.03-8.94-90.54-3.87-8.73-8.33-16.39-12.9-23.03,4.43,13.31,8.69,30.13,10.66,49.81,2.55,25.57.37,47.46-2.59,63.76h13.78-.01Z"/><path class="cls-3" d="m1697.84,1079.5c-5.48-16.91-10.4-46.99,12.84-78.75,5.55-7.59,11.97-14.25,18.53-20.03-6.36,11.58-12.49,26.21-15.31,43.32-3.66,22.24-.53,41.28,3.73,55.46h-19.79,0Z"/><path class="cls-4" d="m1699.64,1079.5c2.9-14.91,5.49-41.43-6.78-69.43-2.93-6.69-9.37-9.8-12.84-14.89,5.75,8,9.65,20.33,11.14,35.43,1.93,19.61.28,36.39-1.97,48.89h10.45Z"/><path class="cls-3" d="m1676.35,1079.5c-4.87-18.17-9.24-50.51,11.41-84.64,4.94-8.16,10.63-15.32,16.47-21.53-5.66,12.44-11.09,28.16-13.6,46.56-3.26,23.9-.47,44.37,3.31,59.6h-17.59Z"/><path class="cls-4" d="m1553.97,1079.5c4.88-14.91,9.25-41.43-11.42-69.43-4.94-6.69-15.8-9.8-21.64-14.89,9.68,8,16.26,20.33,18.77,35.43,3.26,19.61.48,36.39-3.32,48.89h17.61Z"/><path class="cls-3" d="m1569.63,1079.5c-3.39-18.35-27.57-55.16-7.57-87.39,5.05-8.14,10.38-9.95,16.95-16-6.36,12.12-7.67,5.47-10.49,23.39-3.66,23.28,16.64,65.17,20.9,80.01h-19.79Z"/><path class="cls-5" d="m1604.76,1079.5c5.99-13.75,11.36-38.21-14.03-64.03-6.07-6.17-13.08-11.59-20.25-16.29,6.95,9.41,13.64,21.31,16.72,35.23,4,18.08.58,33.57-4.07,45.09h21.63Z"/><path class="cls-3" d="m1622.93,1079.5c5.48-16.91,10.4-46.99-12.84-78.75-5.55-7.59-11.97-14.25-18.53-20.03,6.36,11.58,12.49,26.21,15.31,43.32,3.66,22.24.53,41.28-3.73,55.46h19.79,0Z"/><path class="cls-3" d="m936.1,1079.5c-5.48-22.34-10.4-62.08,12.84-104.04,5.55-10.03,11.97-18.83,18.53-26.46-6.36,15.3-12.49,34.62-15.31,57.24-3.66,29.38-.53,54.54,3.73,73.26h-19.79,0Z"/><path class="cls-4" d="m957.34,1079.5c-4.88-19.44-9.25-54.03,11.42-90.54,4.94-8.73,10.65-16.39,16.49-23.03-5.66,13.31-11.11,30.13-13.62,49.81-3.26,25.57-.48,47.46,3.32,63.76h-17.61Z"/><path class="cls-4" d="m867.43,1079.5c4.88-16.28,9.25-45.24-11.42-75.8-4.94-7.31-10.65-13.72-16.49-19.28,5.66,11.15,11.11,25.23,13.62,41.7,3.26,21.41.48,39.74-3.32,53.38h17.61Z"/><path class="cls-4" d="m1063.97,1079.5c-4.88-14.91-9.25-41.43,11.42-69.43,4.94-6.69,15.8-9.8,21.64-14.89-9.68,8-16.26,20.33-18.77,35.43-3.26,19.61-.48,36.39,3.32,48.89h-17.61Z"/><path class="cls-3" d="m1048.3,1079.5c3.39-18.35,27.57-55.16,7.57-87.39-5.05-8.14-10.38-9.95-16.95-16,6.36,12.12,7.67,5.47,10.49,23.39,3.66,23.28-16.64,65.17-20.9,80.01h19.79Z"/><path class="cls-5" d="m832.57,1079.5c5.99-13.75,11.36-38.21-14.03-64.03-6.07-6.17-13.08-11.59-20.25-16.29,6.95,9.41,13.64,21.31,16.72,35.23,4,18.08.58,33.57-4.07,45.09h21.63Z"/><path class="cls-5" d="m1013.17,1079.5c-5.99-13.75-11.36-38.21,14.03-64.03,6.07-6.17,13.08-11.59,20.25-16.29-6.95,9.41-13.64,21.31-16.72,35.23-4,18.08-.58,33.57,4.07,45.09h-21.63Z"/><path class="cls-5" d="m906.1,1079.5c2.98-15.01,5.65-41.72-6.97-69.92-3.02-6.74-6.5-12.65-10.07-17.79,3.46,10.28,6.78,23.27,8.31,38.47,1.99,19.75.29,36.65-2.02,49.24h10.75,0Z"/><path class="cls-4" d="m935.26,1079.5c3.82-19.44,7.24-54.03-8.94-90.54-3.87-8.73-8.33-16.39-12.9-23.03,4.43,13.31,8.69,30.13,10.66,49.81,2.55,25.57.37,47.46-2.59,63.76h13.78-.01Z"/><path class="cls-3" d="m995.01,1079.5c-5.48-16.91-10.4-46.99,12.84-78.75,5.55-7.59,11.97-14.25,18.53-20.03-6.36,11.58-12.49,26.21-15.31,43.32-3.66,22.24-.53,41.28,3.73,55.46h-19.79,0Z"/><path class="cls-4" d="m996.8,1079.5c2.9-14.91,5.49-41.43-6.78-69.43-2.93-6.69-9.37-9.8-12.84-14.89,5.75,8,9.65,20.33,11.14,35.43,1.93,19.61.28,36.39-1.97,48.89h10.45Z"/><path class="cls-3" d="m973.52,1079.5c-4.87-18.17-9.24-50.51,11.41-84.64,4.94-8.16,10.63-15.32,16.47-21.53-5.66,12.44-11.09,28.16-13.6,46.56-3.26,23.9-.47,44.37,3.31,59.6h-17.59Z"/><path class="cls-4" d="m851.13,1079.5c4.88-14.91,9.25-41.43-11.42-69.43-4.94-6.69-15.8-9.8-21.64-14.89,9.68,8,16.26,20.33,18.77,35.43,3.26,19.61.48,36.39-3.32,48.89h17.61Z"/><path class="cls-3" d="m866.8,1079.5c-3.39-18.35-27.57-55.16-7.57-87.39,5.05-8.14,10.38-9.95,16.95-16-6.36,12.12-7.67,5.47-10.49,23.39-3.66,23.28,16.64,65.17,20.9,80.01h-19.79Z"/><path class="cls-5" d="m901.93,1079.5c5.99-13.75,11.36-38.21-14.03-64.03-6.07-6.17-13.08-11.59-20.25-16.29,6.95,9.41,13.64,21.31,16.72,35.23,4,18.08.58,33.57-4.07,45.09h21.63Z"/><path class="cls-3" d="m920.09,1079.5c5.48-16.91,10.4-46.99-12.84-78.75-5.55-7.59-11.97-14.25-18.53-20.03,6.36,11.58,12.49,26.21,15.31,43.32,3.66,22.24.53,41.28-3.73,55.46h19.79,0Z"/><path class="cls-3" d="m1169.53,1079.5c-5.48-22.34-10.4-62.08,12.84-104.04,5.55-10.03,11.97-18.83,18.53-26.46-6.36,15.3-12.49,34.62-15.31,57.24-3.66,29.38-.53,54.54,3.73,73.26h-19.79,0Z"/><path class="cls-4" d="m1190.77,1079.5c-4.88-19.44-9.25-54.03,11.42-90.54,4.94-8.73,10.65-16.39,16.49-23.03-5.66,13.31-11.11,30.13-13.62,49.81-3.26,25.57-.48,47.46,3.32,63.76h-17.61Z"/><path class="cls-4" d="m1100.87,1079.5c4.88-16.28,9.25-45.24-11.42-75.8-4.94-7.31-10.65-13.72-16.49-19.28,5.66,11.15,11.11,25.23,13.62,41.7,3.26,21.41.48,39.74-3.32,53.38h17.61Z"/><path class="cls-4" d="m1297.4,1079.5c-4.88-14.91-9.25-41.43,11.42-69.43,4.94-6.69,15.8-9.8,21.64-14.89-9.68,8-16.26,20.33-18.77,35.43-3.26,19.61-.48,36.39,3.32,48.89h-17.61Z"/><path class="cls-3" d="m1281.74,1079.5c3.39-18.35,27.57-55.16,7.57-87.39-5.05-8.14-10.38-9.95-16.95-16,6.36,12.12,7.67,5.47,10.49,23.39,3.66,23.28-16.64,65.17-20.9,80.01h19.79Z"/><path class="cls-5" d="m1066,1079.5c5.99-13.75,11.36-38.21-14.03-64.03-6.07-6.17-13.08-11.59-20.25-16.29,6.95,9.41,13.64,21.31,16.72,35.23,4,18.08.58,33.57-4.07,45.09h21.63Z"/><path class="cls-5" d="m1246.61,1079.5c-5.99-13.75-11.36-38.21,14.03-64.03,6.07-6.17,13.08-11.59,20.25-16.29-6.95,9.41-13.64,21.31-16.72,35.23-4,18.08-.58,33.57,4.07,45.09h-21.63Z"/><path class="cls-5" d="m1139.54,1079.5c2.98-15.01,5.65-41.72-6.97-69.92-3.02-6.74-6.5-12.65-10.07-17.79,3.46,10.28,6.78,23.27,8.31,38.47,1.99,19.75.29,36.65-2.02,49.24h10.75,0Z"/><path class="cls-4" d="m1168.7,1079.5c3.82-19.44,7.24-54.03-8.94-90.54-3.87-8.73-8.33-16.39-12.9-23.03,4.43,13.31,8.69,30.13,10.66,49.81,2.55,25.57.37,47.46-2.59,63.76h13.78-.01Z"/><path class="cls-3" d="m1228.44,1079.5c-5.48-16.91-10.4-46.99,12.84-78.75,5.55-7.59,11.97-14.25,18.53-20.03-6.36,11.58-12.49,26.21-15.31,43.32-3.66,22.24-.53,41.28,3.73,55.46h-19.79,0Z"/><path class="cls-4" d="m1230.24,1079.5c2.9-14.91,5.49-41.43-6.78-69.43-2.93-6.69-9.37-9.8-12.84-14.89,5.75,8,9.65,20.33,11.14,35.43,1.93,19.61.28,36.39-1.97,48.89h10.45Z"/><path class="cls-3" d="m1206.95,1079.5c-4.87-18.17-9.24-50.51,11.41-84.64,4.94-8.16,10.63-15.32,16.47-21.53-5.66,12.44-11.09,28.16-13.6,46.56-3.26,23.9-.47,44.37,3.31,59.6h-17.59Z"/><path class="cls-4" d="m1084.57,1079.5c4.88-14.91,9.25-41.43-11.42-69.43-4.94-6.69-15.8-9.8-21.64-14.89,9.68,8,16.26,20.33,18.77,35.43,3.26,19.61.48,36.39-3.32,48.89h17.61Z"/><path class="cls-3" d="m1100.23,1079.5c-3.39-18.35-27.57-55.16-7.57-87.39,5.05-8.14,10.38-9.95,16.95-16-6.36,12.12-7.67,5.47-10.49,23.39-3.66,23.28,16.64,65.17,20.9,80.01h-19.79Z"/><path class="cls-5" d="m1135.36,1079.5c5.99-13.75,11.36-38.21-14.03-64.03-6.07-6.17-13.08-11.59-20.25-16.29,6.95,9.41,13.64,21.31,16.72,35.23,4,18.08.58,33.57-4.07,45.09h21.63Z"/><path class="cls-3" d="m1153.52,1079.5c5.48-16.91,10.4-46.99-12.84-78.75-5.55-7.59-11.97-14.25-18.53-20.03,6.36,11.58,12.49,26.21,15.31,43.32,3.66,22.24.53,41.28-3.73,55.46h19.79,0Z"/><path class="cls-3" d="m1835.17,1079.5c-5.48-22.34-10.4-62.08,12.84-104.04,5.55-10.03,11.97-18.83,18.53-26.46-6.36,15.3-12.49,34.62-15.31,57.24-3.66,29.38-.53,54.54,3.73,73.26h-19.79,0Z"/><path class="cls-4" d="m1856.41,1079.5c-4.88-19.44-9.25-54.03,11.42-90.54,4.94-8.73,10.65-16.39,16.49-23.03-5.66,13.31-11.11,30.13-13.62,49.81-3.26,25.57-.48,47.46,3.32,63.76h-17.61Z"/><path class="cls-4" d="m1766.51,1079.5c4.88-16.28,9.25-45.24-11.42-75.8-4.94-7.31-10.65-13.72-16.49-19.28,5.66,11.15,11.11,25.23,13.62,41.7,3.26,21.41.48,39.74-3.32,53.38h17.61Z"/><path class="cls-5" d="m1912.25,1079.5c-5.99-13.75-11.36-38.21,14.03-64.03,6.07-6.17,13.08-11.59,20.25-16.29-6.95,9.41-13.64,21.31-16.72,35.23-4,18.08-.58,33.57,4.07,45.09h-21.63Z"/><path class="cls-5" d="m1805.18,1079.5c2.98-15.01,5.65-41.72-6.97-69.92-3.02-6.74-6.5-12.65-10.07-17.79,3.46,10.28,6.78,23.27,8.31,38.47,1.99,19.75.29,36.65-2.02,49.24h10.75,0Z"/><path class="cls-4" d="m1834.34,1079.5c3.82-19.44,7.24-54.03-8.94-90.54-3.87-8.73-8.33-16.39-12.9-23.03,4.43,13.31,8.69,30.13,10.66,49.81,2.55,25.57.37,47.46-2.59,63.76h13.78-.01Z"/><path class="cls-3" d="m1894.09,1079.5c-5.48-16.91-10.4-46.99,12.84-78.75,5.55-7.59,11.97-14.25,18.53-20.03-6.36,11.58-12.49,26.21-15.31,43.32-3.66,22.24-.53,41.28,3.73,55.46h-19.79,0Z"/><path class="cls-4" d="m1895.88,1079.5c2.9-14.91,5.49-41.43-6.78-69.43-2.93-6.69-9.37-9.8-12.84-14.89,5.75,8,9.65,20.33,11.14,35.43,1.93,19.61.28,36.39-1.97,48.89h10.45Z"/><path class="cls-3" d="m1872.59,1079.5c-4.87-18.17-9.24-50.51,11.41-84.64,4.94-8.16,10.63-15.32,16.47-21.53-5.66,12.44-11.09,28.16-13.6,46.56-3.26,23.9-.47,44.37,3.31,59.6h-17.59Z"/><path class="cls-4" d="m1750.21,1079.5c4.88-14.91,9.25-41.43-11.42-69.43-4.94-6.69-15.8-9.8-21.64-14.89,9.68,8,16.26,20.33,18.77,35.43,3.26,19.61.48,36.39-3.32,48.89h17.61Z"/><path class="cls-3" d="m1765.87,1079.5c-3.39-18.35-27.57-55.16-7.57-87.39,5.05-8.14,10.38-9.95,16.95-16-6.36,12.12-7.67,5.47-10.49,23.39-3.66,23.28,16.64,65.17,20.9,80.01h-19.79Z"/><path class="cls-5" d="m1801,1079.5c5.99-13.75,11.36-38.21-14.03-64.03-6.07-6.17-13.08-11.59-20.25-16.29,6.95,9.41,13.64,21.31,16.72,35.23,4,18.08.58,33.57-4.07,45.09h21.63Z"/><path class="cls-3" d="m1819.17,1079.5c5.48-16.91,10.4-46.99-12.84-78.75-5.55-7.59-11.97-14.25-18.53-20.03,6.36,11.58,12.49,26.21,15.31,43.32,3.66,22.24.53,41.28-3.73,55.46h19.79,0Z"/><path class="cls-4" d="m1727.08,1079.5c-4.88-14.91-9.25-41.43,11.42-69.43,4.94-6.69,15.8-9.8,21.64-14.89-9.68,8-16.26,20.33-18.77,35.43-3.26,19.61-.48,36.39,3.32,48.89h-17.61Z"/></g></svg>