<?xml version="1.0" encoding="UTF-8"?><svg id="Calque_1" xmlns="http://www.w3.org/2000/svg" xmlns:xlink="http://www.w3.org/1999/xlink" viewBox="0 0 1920 1080"><defs><style>.cls-1{fill:url(#Dégradé_sans_nom_19-11);}.cls-1,.cls-2,.cls-3,.cls-4,.cls-5,.cls-6,.cls-7,.cls-8,.cls-9,.cls-10,.cls-11,.cls-12,.cls-13,.cls-14,.cls-15,.cls-16,.cls-17{stroke:#1a1a1a;}.cls-1,.cls-18,.cls-12,.cls-19,.cls-20,.cls-21,.cls-22,.cls-23,.cls-24,.cls-25,.cls-26,.cls-27,.cls-15{stroke-miterlimit:10;}.cls-28{clip-path:url(#clippath);}.cls-29,.cls-30,.cls-31,.cls-32,.cls-33,.cls-34,.cls-35,.cls-36,.cls-37,.cls-38,.cls-39,.cls-40{stroke-width:0px;}.cls-29,.cls-13,.cls-14,.cls-22,.cls-23,.cls-15,.cls-17{fill:none;}.cls-2{fill:url(#Dégradé_sans_nom_19-8);stroke-miterlimit:10;stroke-width:1px;}.cls-3{fill:url(#Dégradé_sans_nom_19-7);stroke-miterlimit:10;stroke-width:1px;}.cls-4{fill:url(#Dégradé_sans_nom_19-2);stroke-miterlimit:10;stroke-width:1px;}.cls-5{fill:url(#Dégradé_sans_nom_19-5);}.cls-5,.cls-9{stroke-miterlimit:10;stroke-width:1px;}.cls-6{fill:url(#Dégradé_sans_nom_19-9);stroke-miterlimit:10;stroke-width:1px;}.cls-7{fill:url(#Dégradé_sans_nom_19-4);stroke-miterlimit:10;stroke-width:1px;}.cls-8{fill:url(#Dégradé_sans_nom_19-3);stroke-miterlimit:10;stroke-width:1px;}.cls-18{fill:url(#Dégradé_sans_nom_6);}.cls-18,.cls-10,.cls-11,.cls-14,.cls-23{stroke-width:4px;}.cls-18,.cls-19,.cls-22,.cls-23,.cls-24,.cls-25,.cls-26,.cls-27{stroke:#1d1d1b;}.cls-9{fill:url(#Dégradé_sans_nom_19-10);}.cls-30{fill:url(#Dégradé_sans_nom_14-2);}.cls-31{fill:url(#Dégradé_sans_nom_25-2);}.cls-32{fill:url(#Dégradé_sans_nom_25-3);}.cls-33{isolation:isolate;opacity:.7;}.cls-33,.cls-10,.cls-20{fill:#fbfbfb;}.cls-10,.cls-11,.cls-13,.cls-14,.cls-22,.cls-23,.cls-15,.cls-16,.cls-17{stroke-linecap:round;}.cls-10,.cls-11,.cls-13,.cls-14,.cls-16,.cls-17{stroke-linejoin:round;}.cls-11{fill:#e7df15;}.cls-12{fill:url(#Dégradé_sans_nom_19-6);}.cls-13{stroke-width:10px;}.cls-19{fill:url(#Dégradé_sans_nom_6-6);}.cls-19,.cls-16,.cls-17{stroke-width:6px;}.cls-20,.cls-21{stroke:#fbfbfb;}.cls-21{fill:#fbd84f;}.cls-22{stroke-width:2px;}.cls-24{fill:url(#Dégradé_sans_nom_6-5);}.cls-24,.cls-25,.cls-26,.cls-27,.cls-15{stroke-width:5px;}.cls-25{fill:url(#Dégradé_sans_nom_6-3);}.cls-26{fill:url(#Dégradé_sans_nom_6-2);}.cls-27{fill:url(#Dégradé_sans_nom_6-4);}.cls-16{fill:#1a1a1a;}.cls-34{fill:#393adb;}.cls-35{fill:url(#Dégradé_sans_nom_14);}.cls-36{fill:url(#Dégradé_sans_nom_19);}.cls-37{fill:url(#Dégradé_sans_nom_20);}.cls-38{fill:url(#Dégradé_sans_nom_22);}.cls-39{fill:url(#Dégradé_sans_nom_21);}.cls-40{fill:url(#Dégradé_sans_nom_25);}</style><clipPath id="clippath"><rect class="cls-29" x="-.31" y=".65" width="1921" height="1080"/></clipPath><radialGradient id="Dégradé_sans_nom_6" cx="863.34" cy="-507.72" fx="863.34" fy="-507.72" r="72.3" gradientTransform="translate(1827.15 1427.36) rotate(-117.45) scale(.54 -.49)" gradientUnits="userSpaceOnUse"><stop offset="0" stop-color="#8d5da9"/><stop offset=".23" stop-color="#8759a1"/><stop offset=".57" stop-color="#784e8d"/><stop offset=".98" stop-color="#5f3d6c"/><stop offset="1" stop-color="#5e3d6b"/></radialGradient><radialGradient id="Dégradé_sans_nom_6-2" cx="2766.04" cy="-118.47" fx="2766.04" fy="-118.47" r="43.61" gradientTransform="translate(341.39 912.3) scale(.5 -.59)" xlink:href="#Dégradé_sans_nom_6"/><radialGradient id="Dégradé_sans_nom_6-3" cx="1818.58" cy="52.63" fx="1818.58" fy="52.63" r="13.77" gradientTransform="translate(119.04 1073.53) scale(.89 -1.18)" xlink:href="#Dégradé_sans_nom_6"/><radialGradient id="Dégradé_sans_nom_6-4" cx="2846.16" cy="-118.9" fx="2846.16" fy="-118.9" r="43.61" gradientTransform="translate(341.39 912.27) scale(.5 -.59)" xlink:href="#Dégradé_sans_nom_6"/><radialGradient id="Dégradé_sans_nom_6-5" cx="1863.96" cy="52.41" fx="1863.96" fy="52.41" r="13.77" gradientTransform="translate(119.04 1073.49) scale(.89 -1.18)" xlink:href="#Dégradé_sans_nom_6"/><radialGradient id="Dégradé_sans_nom_6-6" cx="1957.42" cy="135.6" fx="1957.42" fy="135.6" r="74.23" gradientTransform="translate(281.26 1035.7) scale(.75 -1.08)" xlink:href="#Dégradé_sans_nom_6"/><radialGradient id="Dégradé_sans_nom_19" cx="1957.11" cy="98.87" fx="1957.11" fy="98.87" r="50.49" gradientTransform="translate(281.26 1026.51) scale(.75 -1.41)" gradientUnits="userSpaceOnUse"><stop offset="0" stop-color="#b38fc6"/><stop offset=".24" stop-color="#b08cc2"/><stop offset=".42" stop-color="#a786b8"/><stop offset=".59" stop-color="#997aa7"/><stop offset=".75" stop-color="#856b90"/><stop offset=".87" stop-color="#735d7b"/></radialGradient><radialGradient id="Dégradé_sans_nom_14" cx="750.94" cy="-753.82" fx="750.94" fy="-753.82" r="70.32" gradientTransform="translate(1134.18 1018.08) rotate(-64.28) scale(.5 -.56) skewX(-2.54)" gradientUnits="userSpaceOnUse"><stop offset="0" stop-color="#8d5da9"/><stop offset=".24" stop-color="#8a5aa5"/><stop offset=".47" stop-color="#805499"/><stop offset=".7" stop-color="#724a85"/><stop offset=".93" stop-color="#5e3d6b"/></radialGradient><radialGradient id="Dégradé_sans_nom_19-2" cx="426" cy="-404.45" fx="426" fy="-404.45" r="5.77" gradientTransform="translate(1425.05 518.49) rotate(2.69) scale(.57 -.78) skewX(-2.22)" xlink:href="#Dégradé_sans_nom_19"/><radialGradient id="Dégradé_sans_nom_19-3" cx="734.08" cy="-383.06" fx="734.08" fy="-383.06" r="5.77" gradientTransform="translate(1172.09 478.27) rotate(4.39) scale(.67 -.84) skewX(-2.78)" xlink:href="#Dégradé_sans_nom_19"/><radialGradient id="Dégradé_sans_nom_19-4" cx="829.23" cy="-392.24" fx="829.23" fy="-392.24" r="5.77" gradientTransform="translate(1111.26 460.09) rotate(4.6) scale(.68 -.84) skewX(-2.85)" xlink:href="#Dégradé_sans_nom_19"/><radialGradient id="Dégradé_sans_nom_19-5" cx="1236.53" cy="-435.25" fx="1236.53" fy="-435.25" r="5.77" gradientTransform="translate(958.84 443.42) rotate(3.21) scale(.58 -.79) skewX(-2.4)" xlink:href="#Dégradé_sans_nom_19"/><radialGradient id="Dégradé_sans_nom_19-6" cx="750.59" cy="-674.51" fx="750.59" fy="-674.51" r="12.67" gradientTransform="translate(1205.05 1048.98) rotate(-64.28) scale(.5 -.5) skewX(-2.25)" xlink:href="#Dégradé_sans_nom_19"/><radialGradient id="Dégradé_sans_nom_14-2" cx="50.59" cy="885.58" fx="50.59" fy="885.58" r="70.34" gradientTransform="translate(1386.8 1067.41) rotate(-115.72) scale(.5 .56) skewX(-2.54)" xlink:href="#Dégradé_sans_nom_14"/><radialGradient id="Dégradé_sans_nom_19-7" cx="261.35" cy="1028.98" fx="261.35" fy="1028.98" r="5.77" gradientTransform="translate(1055.44 1013.18) rotate(-92.69) scale(.57 .78) skewX(-2.22)" xlink:href="#Dégradé_sans_nom_19"/><radialGradient id="Dégradé_sans_nom_19-8" cx="266.42" cy="852.82" fx="266.42" fy="852.82" r="5.77" gradientTransform="translate(1156.18 1045) rotate(-94.39) scale(.67 .84) skewX(-2.78)" xlink:href="#Dégradé_sans_nom_19"/><radialGradient id="Dégradé_sans_nom_19-9" cx="253.6" cy="795.42" fx="253.6" fy="795.42" r="5.77" gradientTransform="translate(1199.86 1029.73) rotate(-94.6) scale(.68 .84) skewX(-2.85)" xlink:href="#Dégradé_sans_nom_19"/><radialGradient id="Dégradé_sans_nom_19-10" cx="101.03" cy="516.61" fx="101.03" fy="516.61" r="5.77" gradientTransform="translate(1438.3 898.17) rotate(-93.21) scale(.58 .79) skewX(-2.4)" xlink:href="#Dégradé_sans_nom_19"/><radialGradient id="Dégradé_sans_nom_19-11" cx="50.27" cy="890.71" fx="50.27" fy="890.71" r="12.67" gradientTransform="translate(1456.21 1037.02) rotate(-115.72) scale(.5) skewX(-2.25)" xlink:href="#Dégradé_sans_nom_19"/><radialGradient id="Dégradé_sans_nom_20" cx="1714.08" cy="352.02" fx="1714.08" fy="352.02" r="37.04" gradientTransform="translate(0 1082) scale(1 -1)" gradientUnits="userSpaceOnUse"><stop offset="0" stop-color="#8d5da9"/><stop offset=".27" stop-color="#8a5ba5"/><stop offset=".49" stop-color="#82569b"/><stop offset=".69" stop-color="#764d8a"/><stop offset=".88" stop-color="#634172"/><stop offset=".93" stop-color="#5e3d6b"/></radialGradient><radialGradient id="Dégradé_sans_nom_21" cx="1757.18" cy="305.49" fx="1757.18" fy="305.49" r="69" gradientTransform="translate(0 1082) scale(1 -1)" gradientUnits="userSpaceOnUse"><stop offset="0" stop-color="#8d5da9"/><stop offset=".46" stop-color="#8b5ca7"/><stop offset=".62" stop-color="#8658a0"/><stop offset=".74" stop-color="#7d5294"/><stop offset=".84" stop-color="#704983"/><stop offset=".92" stop-color="#603e6e"/><stop offset=".93" stop-color="#5e3d6b"/></radialGradient><linearGradient id="Dégradé_sans_nom_22" x1="1715.52" y1="350.08" x2="1702.08" y2="372.61" gradientTransform="translate(0 1082) scale(1 -1)" gradientUnits="userSpaceOnUse"><stop offset="0" stop-color="#b38fc6"/><stop offset=".85" stop-color="#735d7b"/></linearGradient><linearGradient id="Dégradé_sans_nom_25" x1="1755.51" y1="342.79" x2="1755.76" y2="361.27" gradientTransform="translate(0 1082) scale(1 -1)" gradientUnits="userSpaceOnUse"><stop offset="0" stop-color="#b38fc6"/><stop offset=".28" stop-color="#a483b5"/><stop offset=".83" stop-color="#7f678a"/><stop offset="1" stop-color="#735d7b"/></linearGradient><linearGradient id="Dégradé_sans_nom_25-2" x1="1738.06" y1="349.39" x2="1736.97" y2="356.46" xlink:href="#Dégradé_sans_nom_25"/><linearGradient id="Dégradé_sans_nom_25-3" x1="595.4" y1="349.35" x2="594.31" y2="356.42" gradientTransform="translate(2371.48 1082) rotate(-180)" xlink:href="#Dégradé_sans_nom_25"/></defs><g id="_étoiles"><polygon class="cls-20" points="372.84 584.99 371.97 589.87 367.58 591.09 371.97 592.62 372.91 597.35 374.04 592.46 378.36 591.32 374.1 590.02 372.84 584.99"/><polygon class="cls-20" points="376.07 578.56 375.58 581.42 373.13 582.13 375.58 583.02 376.1 585.79 376.73 582.93 379.15 582.27 376.77 581.51 376.07 578.56"/><polygon class="cls-20" points="379.77 582.88 379.07 586.47 375.57 587.37 379.07 588.49 379.82 591.97 380.72 588.38 384.16 587.54 380.77 586.58 379.77 582.88"/><polygon class="cls-20" points="1707.55 45.55 1709.93 65.58 1717.79 58.23 1711.9 67.23 1727.33 70.35 1712.04 73.11 1718.07 82.48 1710.21 75.31 1707.83 93.14 1705.58 75.5 1697.87 82.48 1703.34 72.74 1688.19 70.54 1703.2 68.15 1698.01 58.04 1705.44 64.84 1707.55 45.55"/><polygon class="cls-20" points="1285.54 78.04 1283.05 75.54 1285.85 77.86 1285.13 75.68 1286.23 77.72 1286.44 74.38 1286.65 77.65 1287.75 75.72 1287.03 77.86 1289.72 75.54 1287.23 78.14 1289.58 77.44 1287.47 78.42 1291.07 78.64 1287.2 78.85 1289.76 79.94 1287.23 79.16 1289.69 81.77 1286.99 79.51 1287.79 81.73 1286.68 79.62 1286.44 83.1 1286.3 79.62 1285.23 81.59 1285.89 79.44 1283.12 81.84 1285.57 79.23 1283.29 79.97 1285.51 78.88 1281.6 78.71 1285.47 78.49 1283.26 77.47 1285.54 78.04"/><path class="cls-20" d="m595.2,448.48c.1.89.26,2.3.38,4.04.25,3.63.07,4.46.69,5.26.55.73,1.78.88,4.2,1.14,1.37.15,2.5.21,3.26.23-.73.12-1.86.28-3.26.38-2.79.21-3.48-.04-4.14.69-.32.36-.57.88-.88,4.81-.13,1.67-.21,3.06-.25,4.04-.02-.99-.06-2.38-.19-4.04-.31-3.97-.71-4.55-.94-4.81-.6-.68-1.24-.62-3.76-.84-1.7-.15-3.09-.33-4.01-.46.43-.02,1.96-.11,4.08-.23,2.76-.15,3.32-.18,3.83-.76.48-.55.6-1.24.82-5.34.09-1.63.15-3.03.19-4.12h-.02Z"/><path class="cls-20" d="m152.38,248.09c.06.45.14,1.17.21,2.05.14,1.84.04,2.26.38,2.67.31.37.99.44,2.34.58.77.08,1.4.1,1.82.12-.41.06-1.04.14-1.82.19-1.56.11-1.94-.02-2.31.35-.18.18-.32.45-.49,2.44-.07.85-.12,1.56-.14,2.05,0-.5-.03-1.21-.1-2.05-.17-2.01-.4-2.31-.52-2.44-.33-.35-.69-.31-2.1-.43-.95-.08-1.72-.17-2.24-.23.24-.01,1.09-.06,2.27-.12,1.54-.08,1.85-.09,2.13-.39.27-.28.33-.63.45-2.71.05-.83.08-1.54.1-2.09h.02Z"/><path class="cls-20" d="m154.94,258.92c.05.36.13.94.19,1.66.12,1.49.04,1.83.34,2.17.27.3.88.36,2.07.47.68.06,1.23.08,1.61.09-.36.05-.92.11-1.61.16-1.38.09-1.72-.02-2.04.28-.16.15-.28.36-.43,1.98-.07.69-.1,1.26-.12,1.66,0-.41-.03-.98-.09-1.66-.15-1.63-.35-1.87-.46-1.98-.3-.28-.61-.25-1.85-.35-.84-.06-1.52-.13-1.98-.19.21-.01.96-.05,2.01-.09,1.36-.06,1.63-.07,1.89-.31.24-.23.3-.51.4-2.2.04-.67.07-1.25.09-1.69h-.02Z"/><path class="cls-20" d="m159.97,252.32c.03.25.08.65.12,1.14.08,1.02.02,1.26.21,1.48.17.21.55.25,1.29.32.42.04.77.06,1,.06-.22.03-.57.08-1,.11-.86.06-1.07-.01-1.27.19-.1.1-.17.25-.27,1.35-.04.47-.06.86-.08,1.14,0-.28-.02-.67-.06-1.14-.09-1.12-.22-1.28-.29-1.35-.18-.19-.38-.17-1.16-.24-.52-.04-.95-.09-1.23-.13.13,0,.6-.03,1.25-.06.85-.04,1.02-.05,1.17-.21.15-.16.18-.35.25-1.5.03-.46.04-.85.06-1.16h0Z"/><polygon class="cls-20" points="107.39 694.74 107.09 698.14 104.17 696.82 106.65 698.82 104.17 700.72 107.06 699.43 107.39 702.62 107.73 699.43 110.54 700.72 108.06 698.82 110.62 696.92 107.75 698.17 107.39 694.74"/><polygon class="cls-20" points="331.65 931.46 331.35 934.86 328.43 933.54 330.91 935.53 328.43 937.43 331.32 936.14 331.65 939.33 331.99 936.14 334.8 937.43 332.32 935.53 334.88 933.63 332.01 934.89 331.65 931.46"/><polygon class="cls-20" points="1670.36 911.61 1670.86 909.4 1673.33 908.85 1670.86 908.16 1670.33 906.02 1669.69 908.23 1667.25 908.75 1669.66 909.33 1670.36 911.61"/><polygon class="cls-20" points="1668.55 914.52 1668.82 913.23 1670.21 912.91 1668.82 912.5 1668.53 911.25 1668.17 912.54 1666.81 912.85 1668.15 913.19 1668.55 914.52"/><polygon class="cls-20" points="1666.46 912.57 1666.86 910.94 1668.83 910.54 1666.86 910.03 1666.43 908.45 1665.93 910.08 1663.98 910.46 1665.9 910.89 1666.46 912.57"/><polygon class="cls-20" points="1299.53 1031.65 1298.93 1027.88 1296.95 1029.27 1298.44 1027.57 1294.55 1026.99 1298.4 1026.47 1296.88 1024.71 1298.86 1026.05 1299.46 1022.7 1300.03 1026.02 1301.97 1024.71 1300.59 1026.54 1304.41 1026.95 1300.63 1027.4 1301.94 1029.3 1300.06 1028.02 1299.53 1031.65"/><polygon class="cls-20" points="646.68 1014.93 648.66 1017.11 646.43 1015.08 647.01 1016.98 646.13 1015.21 645.96 1018.12 645.8 1015.27 644.91 1016.95 645.49 1015.08 643.34 1017.11 645.33 1014.84 643.45 1015.45 645.13 1014.59 642.27 1014.41 645.36 1014.23 643.31 1013.28 645.33 1013.95 643.37 1011.68 645.52 1013.64 644.89 1011.71 645.77 1013.55 645.96 1010.52 646.07 1013.55 646.93 1011.84 646.4 1013.7 648.61 1011.62 646.65 1013.89 648.47 1013.24 646.71 1014.19 649.82 1014.35 646.73 1014.53 648.5 1015.42 646.68 1014.93"/><path class="cls-20" d="m1479.54,908.03c-.06-.4-.14-1.04-.21-1.83-.14-1.64-.04-2.02-.39-2.38-.31-.33-1-.4-2.37-.52-.77-.07-1.41-.09-1.84-.1.41-.05,1.05-.13,1.84-.17,1.57-.09,1.96.02,2.33-.31.18-.16.32-.4.49-2.18.08-.76.12-1.39.14-1.83,0,.45.03,1.08.11,1.83.17,1.8.4,2.06.53,2.18.34.31.7.28,2.12.38.96.07,1.74.15,2.26.21-.24.01-1.1.05-2.3.1-1.55.07-1.87.08-2.16.35-.27.25-.34.56-.46,2.42-.05.74-.08,1.37-.11,1.87l.02-.02Z"/><polygon class="cls-20" points="955.46 1040.08 955.76 1036.67 958.69 1037.99 956.2 1036 958.69 1034.1 955.79 1035.39 955.46 1032.2 955.13 1035.39 952.32 1034.1 954.8 1036 952.23 1037.9 955.1 1036.64 955.46 1040.08"/><polygon class="cls-20" points="1838.17 317.82 1838.55 313.99 1842.3 315.47 1839.12 313.23 1842.3 311.09 1838.59 312.54 1838.17 308.94 1837.74 312.54 1834.14 311.09 1837.32 313.23 1834.03 315.37 1837.71 313.95 1838.17 317.82"/><polygon class="cls-20" points="1768.2 686.52 1768.7 684.31 1771.17 683.76 1768.7 683.07 1768.17 680.93 1767.53 683.14 1765.09 683.66 1767.5 684.24 1768.2 686.52"/><polygon class="cls-20" points="1766.39 689.43 1766.66 688.14 1768.04 687.82 1766.66 687.41 1766.37 686.16 1766.01 687.45 1764.65 687.76 1765.99 688.1 1766.39 689.43"/><polygon class="cls-20" points="1764.3 687.48 1764.69 685.85 1766.67 685.44 1764.69 684.94 1764.27 683.36 1763.77 684.99 1761.82 685.37 1763.74 685.8 1764.3 687.48"/><polygon class="cls-20" points="1424.44 834.2 1423.84 830.43 1421.86 831.81 1423.35 830.12 1419.46 829.53 1423.31 829.02 1421.79 827.25 1423.77 828.6 1424.37 825.25 1424.94 828.57 1426.88 827.25 1425.5 829.08 1429.32 829.5 1425.54 829.95 1426.85 831.85 1424.97 830.57 1424.44 834.2"/><polygon class="cls-20" points="956.17 1013.76 958.16 1015.94 955.92 1013.92 956.5 1015.82 955.62 1014.04 955.45 1016.95 955.29 1014.1 954.41 1015.79 954.98 1013.92 952.83 1015.94 954.82 1013.67 952.94 1014.28 954.63 1013.43 951.76 1013.24 954.85 1013.06 952.81 1012.11 954.82 1012.78 952.86 1010.52 955.01 1012.48 954.38 1010.55 955.26 1012.38 955.45 1009.35 955.56 1012.38 956.42 1010.67 955.89 1012.54 958.1 1010.45 956.14 1012.72 957.96 1012.08 956.2 1013.03 959.31 1013.18 956.23 1013.36 957.99 1014.25 956.17 1013.76"/><path class="cls-20" d="m1882.45,349.58c-.06-.4-.14-1.04-.21-1.83-.14-1.64-.04-2.02-.39-2.38-.31-.33-1-.4-2.37-.52-.77-.07-1.41-.09-1.84-.1.41-.05,1.05-.13,1.84-.17,1.57-.09,1.96.02,2.33-.31.18-.16.32-.4.49-2.18.08-.76.12-1.39.14-1.83,0,.45.03,1.08.11,1.83.17,1.8.4,2.06.53,2.18.34.31.7.28,2.12.38.96.07,1.74.15,2.26.21-.24.01-1.1.05-2.3.1-1.55.07-1.87.08-2.16.35-.27.25-.34.56-.46,2.42-.05.74-.08,1.37-.11,1.87l.02-.02Z"/><path class="cls-20" d="m1848.11,893.35c-.04-.28-.1-.73-.15-1.29-.1-1.16-.03-1.42-.28-1.68-.22-.23-.71-.28-1.69-.36-.55-.05-1.01-.07-1.31-.07.29-.04.75-.09,1.31-.12,1.12-.07,1.4.01,1.66-.22.13-.11.23-.28.35-1.53.05-.53.08-.98.1-1.29,0,.31.02.76.08,1.29.12,1.27.29,1.45.38,1.53.24.22.5.2,1.51.27.68.05,1.24.1,1.61.15-.17,0-.79.04-1.64.07-1.11.05-1.33.06-1.54.24-.19.18-.24.4-.33,1.7-.03.52-.06.97-.08,1.31h.02Z"/><path class="cls-20" d="m1846.27,886.55c-.04-.23-.09-.59-.13-1.04-.09-.94-.03-1.15-.24-1.36-.2-.19-.63-.23-1.49-.3-.49-.04-.89-.05-1.16-.06.26-.03.66-.07,1.16-.1.99-.05,1.24.01,1.47-.18.11-.09.2-.23.31-1.24.05-.43.07-.79.09-1.04,0,.25.02.61.07,1.04.11,1.03.25,1.17.33,1.24.21.18.44.16,1.34.22.6.04,1.1.08,1.42.12-.15,0-.69.03-1.45.06-.98.04-1.18.05-1.36.2-.17.14-.21.32-.29,1.38-.03.42-.05.78-.07,1.06h0Z"/><path class="cls-20" d="m1842.65,890.69c-.02-.16-.06-.41-.08-.72-.06-.64-.02-.79-.15-.93-.12-.13-.39-.16-.93-.2-.3-.03-.55-.04-.72-.04.16-.02.41-.05.72-.07.62-.04.77,0,.91-.12.07-.06.12-.16.19-.85.03-.3.05-.54.06-.72,0,.17.01.42.04.72.07.7.16.8.21.85.13.12.27.11.83.15.38.03.68.06.89.08-.1,0-.43.02-.9.04-.61.03-.73.03-.85.13-.11.1-.13.22-.18.94-.02.29-.03.54-.04.73h0Z"/><polygon class="cls-20" points="1175.62 260.82 1176.01 256.99 1179.76 258.47 1176.58 256.23 1179.76 254.08 1176.05 255.54 1175.62 251.94 1175.2 255.54 1171.59 254.08 1174.77 256.23 1171.49 258.37 1175.16 256.95 1175.62 260.82"/><polygon class="cls-20" points="1836.26 104.51 1836.64 99.79 1840.31 101.62 1837.2 98.85 1840.31 96.22 1836.68 98 1836.26 93.58 1835.85 98 1832.33 96.22 1835.44 98.85 1832.22 101.49 1835.82 99.75 1836.26 104.51"/><polygon class="cls-20" points="360.97 198.65 360.28 202.17 356.84 203.05 360.28 204.15 361.01 207.56 361.9 204.04 365.29 203.22 361.95 202.28 360.97 198.65"/><polygon class="cls-20" points="363.49 194.02 363.11 196.07 361.19 196.59 363.11 197.23 363.52 199.23 364.01 197.17 365.9 196.69 364.04 196.14 363.49 194.02"/><polygon class="cls-20" points="366.39 197.13 365.84 199.72 363.1 200.37 365.84 201.18 366.43 203.68 367.13 201.1 369.83 200.49 367.17 199.8 366.39 197.13"/><polygon class="cls-20" points="167.64 79.65 168.47 85.65 171.22 83.45 169.16 86.14 174.56 87.08 169.21 87.9 171.32 90.71 168.57 88.56 167.74 93.9 166.95 88.62 164.25 90.71 166.17 87.79 160.86 87.13 166.12 86.42 164.3 83.39 166.9 85.43 167.64 79.65"/><polygon class="cls-20" points="1386.11 147.99 1383.62 145.49 1386.42 147.81 1385.69 145.63 1386.8 147.67 1387.01 144.33 1387.21 147.6 1388.32 145.67 1387.59 147.81 1390.29 145.49 1387.8 148.1 1390.15 147.39 1388.04 148.38 1391.64 148.59 1387.77 148.8 1390.32 149.89 1387.8 149.12 1390.25 151.72 1387.56 149.47 1388.35 151.68 1387.25 149.57 1387.01 153.06 1386.87 149.57 1385.8 151.54 1386.45 149.4 1383.69 151.79 1386.14 149.19 1383.86 149.92 1386.07 148.83 1382.17 148.66 1386.04 148.45 1383.83 147.43 1386.11 147.99"/><path class="cls-20" d="m637.59,117.96c.08.64.2,1.66.29,2.92.2,2.62.06,3.21.54,3.8.43.53,1.39.63,3.29.83,1.07.11,1.96.15,2.55.17-.57.08-1.46.2-2.55.28-2.19.15-2.73-.03-3.24.5-.25.26-.44.63-.69,3.47-.1,1.21-.16,2.21-.2,2.92-.01-.71-.05-1.72-.15-2.92-.24-2.86-.56-3.28-.74-3.47-.47-.49-.97-.44-2.95-.61-1.33-.11-2.42-.24-3.14-.33.34-.02,1.53-.08,3.19-.17,2.16-.11,2.6-.13,3-.55.37-.4.47-.89.64-3.85.07-1.17.11-2.18.15-2.97v-.02Z"/><path class="cls-20" d="m1590.52,187.06c.04.29.1.75.15,1.31.1,1.18.03,1.45.27,1.71.22.24.7.28,1.65.37.54.05.98.07,1.28.07-.29.04-.73.09-1.28.12-1.1.07-1.37-.01-1.62.22-.13.12-.22.28-.34,1.56-.05.54-.08.99-.1,1.31,0-.32-.02-.77-.07-1.31-.12-1.29-.28-1.48-.37-1.56-.24-.22-.49-.2-1.48-.27-.67-.05-1.21-.11-1.58-.15.17,0,.77-.04,1.6-.07,1.08-.05,1.3-.06,1.5-.25.19-.18.24-.4.32-1.73.03-.53.06-.98.07-1.34h0Z"/><path class="cls-20" d="m1592.33,193.99c.04.23.09.6.13,1.06.09.95.03,1.17.24,1.38.19.19.62.23,1.46.3.48.04.87.05,1.13.06-.25.03-.65.07-1.13.1-.97.05-1.21-.01-1.44.18-.11.09-.2.23-.3,1.26-.05.44-.07.81-.09,1.06,0-.26-.02-.63-.07-1.06-.11-1.04-.25-1.2-.33-1.26-.21-.18-.43-.16-1.31-.22-.59-.04-1.07-.09-1.39-.12.15,0,.68-.03,1.41-.06.96-.04,1.15-.05,1.33-.2.17-.15.21-.33.28-1.4.03-.43.05-.8.07-1.08h.01Z"/><path class="cls-20" d="m1595.86,189.77c.02.16.06.41.08.73.05.65.02.8.15.95.12.13.38.16.91.21.3.03.54.04.7.04-.16.02-.4.05-.7.07-.6.04-.75,0-.89.12-.07.06-.12.16-.19.87-.03.3-.04.55-.05.73,0-.18-.01-.43-.04-.73-.07-.72-.15-.82-.2-.87-.13-.12-.27-.11-.81-.15-.37-.03-.67-.06-.87-.08.09,0,.42-.02.88-.04.6-.03.72-.03.83-.14.1-.1.13-.22.18-.96.02-.29.03-.55.04-.74h-.02Z"/><polygon class="cls-20" points="190.92 973.28 190.61 976.68 187.69 975.36 190.17 977.35 187.69 979.25 190.59 977.96 190.92 981.15 191.25 977.96 194.06 979.25 191.58 977.35 194.14 975.45 191.28 976.71 190.92 973.28"/><polygon class="cls-20" points="862.77 872.6 862.08 881.06 855.43 877.78 861.08 882.74 855.43 887.47 862.02 884.27 862.77 892.2 863.52 884.27 869.92 887.47 864.28 882.74 870.11 878.01 863.59 881.14 862.77 872.6"/><polygon class="cls-20" points="164.34 766.28 166.32 768.45 164.09 766.43 164.67 768.33 163.78 766.55 163.62 769.46 163.45 766.61 162.57 768.3 163.15 766.43 161 768.45 162.98 766.19 161.11 766.8 162.79 765.94 159.92 765.76 163.01 765.57 160.97 764.62 162.98 765.3 161.03 763.03 163.18 764.99 162.54 763.06 163.43 764.9 163.62 761.87 163.73 764.9 164.58 763.18 164.06 765.05 166.27 762.97 164.31 765.24 166.13 764.59 164.36 765.54 167.48 765.7 164.39 765.88 166.16 766.77 164.34 766.28"/><path class="cls-20" d="m1819.01,440.98c-.06-.4-.14-1.04-.21-1.83-.14-1.64-.04-2.02-.39-2.38-.31-.33-1-.4-2.37-.52-.77-.07-1.41-.09-1.84-.1.41-.05,1.05-.13,1.84-.17,1.57-.09,1.96.02,2.33-.31.18-.16.32-.4.49-2.18.08-.76.12-1.39.14-1.83,0,.45.03,1.08.11,1.83.17,1.8.4,2.06.53,2.18.34.31.7.28,2.12.38.96.07,1.74.15,2.26.21-.24.01-1.1.05-2.3.1-1.55.07-1.87.08-2.16.35-.27.25-.34.56-.46,2.42-.05.74-.08,1.37-.11,1.87l.02-.02Z"/><polygon class="cls-20" points="1415.88 427.18 1416.26 423.27 1419.92 424.79 1416.81 422.5 1419.92 420.32 1416.29 421.79 1415.88 418.14 1415.46 421.79 1411.94 420.32 1415.05 422.5 1411.83 424.68 1415.43 423.24 1415.88 427.18"/><polygon class="cls-20" points="1540.49 486.5 1540.88 482.67 1544.63 484.15 1541.45 481.91 1544.63 479.77 1540.92 481.22 1540.49 477.62 1540.07 481.22 1536.46 479.77 1539.65 481.91 1536.36 484.05 1540.03 482.63 1540.49 486.5"/><polygon class="cls-20" points="693.69 159.96 690.15 156.05 694.13 159.68 693.1 156.27 694.67 159.46 694.97 154.24 695.26 159.35 696.83 156.33 695.8 159.68 699.63 156.05 696.1 160.13 699.44 159.02 696.44 160.57 701.55 160.9 696.05 161.23 699.68 162.93 696.1 161.72 699.58 165.79 695.75 162.27 696.88 165.74 695.31 162.44 694.97 167.88 694.77 162.44 693.25 165.52 694.18 162.16 690.25 165.9 693.74 161.83 690.5 162.99 693.64 161.28 688.09 161.01 693.59 160.68 690.45 159.08 693.69 159.96"/><polygon class="cls-20" points="1014.3 100.18 1013.61 108.64 1006.96 105.36 1012.61 110.32 1006.96 115.05 1013.55 111.85 1014.3 119.78 1015.05 111.85 1021.45 115.05 1015.81 110.32 1021.64 105.59 1015.12 108.72 1014.3 100.18"/><polygon class="cls-20" points="1597.68 311.69 1593.17 306.27 1598.25 311.31 1596.93 306.58 1598.94 311 1599.32 303.75 1599.69 310.85 1601.7 306.65 1600.38 311.31 1605.27 306.27 1600.76 311.92 1605.02 310.39 1601.2 312.53 1607.72 312.98 1600.7 313.44 1605.34 315.81 1600.76 314.13 1605.21 319.77 1600.32 314.89 1601.76 319.7 1599.75 315.12 1599.32 322.67 1599.06 315.12 1597.12 319.39 1598.31 314.74 1593.29 319.93 1597.75 314.28 1593.61 315.88 1597.62 313.52 1590.53 313.14 1597.56 312.68 1593.55 310.47 1597.68 311.69"/><polygon class="cls-20" points="411.52 864.52 411.22 867.92 408.29 866.61 410.77 868.6 408.29 870.5 411.19 869.21 411.52 872.4 411.85 869.21 414.66 870.5 412.18 868.6 414.75 866.7 411.88 867.95 411.52 864.52"/><polygon class="cls-20" points="1774.73 409.22 1775.11 405.38 1778.86 406.87 1775.68 404.62 1778.86 402.48 1775.15 403.93 1774.73 400.34 1774.3 403.93 1770.7 402.48 1773.88 404.62 1770.59 406.77 1774.27 405.35 1774.73 409.22"/></g><g id="lune"><path class="cls-21" d="m1716.03,194.32c0-28.85,25.23-52.33,56.66-53.05-13.85-11.27-32.18-18.13-52.28-18.13-43.2,0-78.22,31.68-78.22,70.75s35.02,70.75,78.22,70.75c19.61,0,37.54-6.53,51.27-17.32-30.96-1.19-55.66-24.47-55.66-53.01h.01Z"/><polygon class="cls-20" points="145.26 810.6 144.88 813.22 143 813.87 144.88 814.69 145.29 817.22 145.77 814.61 147.63 813.99 145.8 813.3 145.26 810.6"/><polygon class="cls-20" points="146.65 807.15 146.43 808.68 145.38 809.06 146.43 809.54 146.66 811.03 146.93 809.5 147.97 809.14 146.95 808.73 146.65 807.15"/><polygon class="cls-20" points="148.23 809.47 147.93 811.39 146.43 811.87 147.93 812.48 148.26 814.34 148.64 812.41 150.12 811.96 148.66 811.45 148.23 809.47"/><polygon class="cls-20" points="1789.42 5.31 1790.45 16.05 1793.82 12.1 1791.29 16.93 1797.92 18.61 1791.35 20.09 1793.94 25.11 1790.57 21.27 1789.54 30.83 1788.58 21.37 1785.27 25.11 1787.62 19.89 1781.11 18.71 1787.56 17.43 1785.33 12.01 1788.52 15.65 1789.42 5.31"/><polygon class="cls-20" points="1597.2 793.73 1596.13 792.39 1597.33 793.64 1597.02 792.47 1597.5 793.56 1597.59 791.77 1597.68 793.52 1598.15 792.48 1597.84 793.64 1599 792.39 1597.93 793.79 1598.94 793.41 1598.03 793.94 1599.57 794.05 1597.91 794.16 1599.01 794.75 1597.93 794.33 1598.98 795.73 1597.82 794.52 1598.17 795.71 1597.69 794.58 1597.59 796.45 1597.53 794.58 1597.07 795.64 1597.35 794.48 1596.16 795.77 1597.22 794.37 1596.24 794.77 1597.19 794.18 1595.51 794.09 1597.17 793.98 1596.22 793.43 1597.2 793.73"/><path class="cls-20" d="m1311.75,221.39c.04.48.11,1.23.16,2.17.11,1.95.03,2.39.3,2.82.24.39.76.47,1.8.61.59.08,1.08.11,1.4.12-.31.06-.8.15-1.4.2-1.2.11-1.5-.02-1.78.37-.14.19-.24.47-.38,2.58-.06.9-.09,1.64-.11,2.17,0-.53-.03-1.28-.08-2.17-.13-2.13-.31-2.44-.4-2.58-.26-.37-.53-.33-1.62-.45-.73-.08-1.33-.18-1.72-.25.19-.01.84-.06,1.75-.12,1.18-.08,1.42-.09,1.64-.41.21-.3.26-.66.35-2.86.04-.87.06-1.62.08-2.21h0Z"/><path class="cls-20" d="m77.59,439.92c.03.24.06.63.09,1.1.06.99.02,1.21.17,1.43.13.2.43.24,1.01.31.33.04.6.06.78.06-.17.03-.45.08-.78.1-.67.06-.83-.01-.99.19-.08.1-.14.24-.21,1.31-.03.46-.05.83-.06,1.1,0-.27-.01-.65-.05-1.1-.07-1.08-.17-1.24-.23-1.31-.14-.19-.3-.17-.9-.23-.41-.04-.74-.09-.96-.12.1,0,.47-.03.98-.06.66-.04.79-.05.92-.21.11-.15.14-.34.2-1.45.02-.44.03-.82.05-1.12h-.02Z"/><path class="cls-20" d="m78.69,445.73c.02.2.05.51.08.89.05.8.02.98.15,1.16.12.16.38.19.89.25.29.03.53.05.69.05-.15.03-.39.06-.69.08-.59.05-.74,0-.88.15-.07.08-.12.19-.19,1.06-.03.37-.04.68-.05.89,0-.22-.01-.52-.04-.89-.06-.88-.15-1-.2-1.06-.13-.15-.26-.14-.8-.19-.36-.03-.65-.07-.85-.1.09,0,.41-.02.86-.05.58-.03.7-.04.81-.17.1-.12.13-.27.17-1.18.02-.36.03-.67.04-.91v.02Z"/><path class="cls-20" d="m80.84,442.19c.01.13.03.35.05.61.03.55,0,.67.09.8.07.11.23.13.55.17.18.02.33.03.43.03-.1.02-.25.04-.43.06-.37.03-.46,0-.55.1-.04.05-.07.13-.12.73-.02.25-.03.46-.03.61,0-.15,0-.36-.02-.61-.04-.6-.09-.69-.12-.73-.08-.1-.16-.09-.5-.13-.22-.02-.41-.05-.53-.07.06,0,.26-.02.54-.03.36-.02.44-.03.5-.12.06-.08.08-.19.11-.81.01-.25.02-.46.02-.62h.01Z"/><polygon class="cls-20" points="31.27 869.45 31.14 871.28 29.88 870.57 30.95 871.64 29.88 872.66 31.13 871.97 31.27 873.68 31.41 871.97 32.62 872.66 31.55 871.64 32.65 870.62 31.42 871.29 31.27 869.45"/><polygon class="cls-20" points="127.57 996.4 127.44 998.22 126.19 997.52 127.25 998.58 126.19 999.6 127.43 998.91 127.57 1000.62 127.72 998.91 128.92 999.6 127.86 998.58 128.96 997.57 127.73 998.24 127.57 996.4"/><polygon class="cls-20" points="1842.46 997.76 1842.67 996.57 1843.73 996.28 1842.67 995.91 1842.44 994.76 1842.17 995.94 1841.12 996.22 1842.15 996.54 1842.46 997.76"/><polygon class="cls-20" points="1841.68 999.32 1841.79 998.63 1842.39 998.45 1841.79 998.24 1841.67 997.56 1841.52 998.26 1840.93 998.42 1841.51 998.6 1841.68 999.32"/><polygon class="cls-20" points="1840.78 998.27 1840.95 997.4 1841.8 997.18 1840.95 996.91 1840.77 996.06 1840.55 996.94 1839.72 997.14 1840.54 997.37 1840.78 998.27"/><polygon class="cls-20" points="1683.21 1062.13 1682.95 1060.11 1682.1 1060.85 1682.74 1059.95 1681.07 1059.63 1682.72 1059.35 1682.07 1058.41 1682.92 1059.13 1683.18 1057.33 1683.42 1059.11 1684.26 1058.41 1683.67 1059.39 1685.31 1059.61 1683.68 1059.85 1684.24 1060.87 1683.44 1060.19 1683.21 1062.13"/><polygon class="cls-20" points="262.85 1041.16 263.71 1042.33 262.75 1041.25 263 1042.27 262.62 1041.31 262.55 1042.87 262.48 1041.35 262.1 1042.25 262.34 1041.25 261.42 1042.33 262.27 1041.12 261.47 1041.44 262.19 1040.98 260.96 1040.89 262.29 1040.79 261.41 1040.28 262.27 1040.64 261.43 1039.42 262.36 1040.47 262.08 1039.44 262.46 1040.43 262.55 1038.8 262.59 1040.43 262.96 1039.51 262.74 1040.51 263.68 1039.39 262.84 1040.61 263.62 1040.26 262.87 1040.77 264.2 1040.85 262.88 1040.95 263.64 1041.43 262.85 1041.16"/><path class="cls-20" d="m1760.51,995.84c-.03-.22-.06-.56-.09-.98-.06-.88-.02-1.08-.17-1.28-.13-.18-.43-.21-1.02-.28-.33-.04-.61-.05-.79-.06.18-.03.45-.07.79-.09.68-.05.84.01,1-.17.08-.09.14-.21.21-1.17.03-.41.05-.74.06-.98,0,.24.01.58.05.98.07.96.17,1.1.23,1.17.15.17.3.15.91.2.41.04.75.08.97.11-.1,0-.47.03-.99.06-.67.04-.8.04-.93.19-.12.13-.15.3-.2,1.3-.02.4-.04.74-.05,1h.02Z"/><polygon class="cls-20" points="1535.45 1066.65 1535.58 1064.83 1536.84 1065.53 1535.77 1064.46 1536.84 1063.45 1535.6 1064.14 1535.45 1062.43 1535.31 1064.14 1534.1 1063.45 1535.17 1064.46 1534.07 1065.48 1535.3 1064.81 1535.45 1066.65"/><polygon class="cls-20" points="1845.52 151.32 1845.68 149.26 1847.29 150.06 1845.93 148.86 1847.29 147.71 1845.7 148.49 1845.52 146.56 1845.33 148.49 1843.78 147.71 1845.15 148.86 1843.74 150.01 1845.32 149.25 1845.52 151.32"/><polygon class="cls-20" points="1884.47 877.05 1884.68 875.86 1885.75 875.57 1884.68 875.19 1884.46 874.05 1884.18 875.23 1883.14 875.51 1884.17 875.82 1884.47 877.05"/><polygon class="cls-20" points="1883.69 878.61 1883.81 877.91 1884.4 877.74 1883.81 877.52 1883.68 876.85 1883.53 877.55 1882.95 877.71 1883.52 877.89 1883.69 878.61"/><polygon class="cls-20" points="1882.8 877.56 1882.96 876.69 1883.81 876.47 1882.96 876.2 1882.78 875.35 1882.57 876.22 1881.73 876.43 1882.55 876.66 1882.8 877.56"/><polygon class="cls-20" points="1736.85 956.24 1736.59 954.22 1735.74 954.96 1736.38 954.06 1734.71 953.74 1736.36 953.46 1735.71 952.52 1736.56 953.24 1736.82 951.44 1737.06 953.22 1737.9 952.52 1737.31 953.5 1738.95 953.72 1737.32 953.96 1737.88 954.98 1737.08 954.3 1736.85 956.24"/><polygon class="cls-20" points="1535.76 1052.54 1536.61 1053.71 1535.65 1052.62 1535.9 1053.64 1535.52 1052.69 1535.45 1054.25 1535.38 1052.72 1535 1053.62 1535.25 1052.62 1534.33 1053.71 1535.18 1052.49 1534.37 1052.82 1535.1 1052.36 1533.86 1052.26 1535.19 1052.16 1534.31 1051.65 1535.18 1052.01 1534.34 1050.8 1535.26 1051.85 1534.99 1050.81 1535.37 1051.8 1535.45 1050.17 1535.5 1051.8 1535.87 1050.88 1535.64 1051.88 1536.59 1050.76 1535.75 1051.98 1536.53 1051.64 1535.77 1052.14 1537.11 1052.23 1535.78 1052.33 1536.54 1052.8 1535.76 1052.54"/><path class="cls-20" d="m1864.53,168.35c-.03-.22-.06-.56-.09-.98-.06-.88-.02-1.08-.17-1.28-.13-.18-.43-.21-1.02-.28-.33-.04-.61-.05-.79-.06.18-.03.45-.07.79-.09.68-.05.84.01,1-.17.08-.09.14-.21.21-1.17.03-.41.05-.74.06-.98,0,.24.01.58.05.98.07.96.17,1.1.23,1.17.15.17.3.15.91.2.41.04.75.08.97.11-.1,0-.47.03-.99.06-.67.04-.8.04-.93.19-.12.13-.15.3-.2,1.3-.02.4-.04.74-.05,1h.02Z"/><path class="cls-20" d="m1918.79,987.97c-.02-.15-.04-.39-.06-.69-.04-.62-.01-.76-.12-.9-.1-.12-.31-.15-.72-.2-.24-.03-.43-.04-.56-.04.13-.02.32-.05.56-.07.48-.04.6,0,.71-.12.06-.06.1-.15.15-.82.02-.29.04-.52.04-.69,0,.17.01.41.03.69.05.68.12.78.16.82.1.12.21.11.65.14.29.03.53.06.69.08-.07,0-.34.02-.7.04-.47.03-.57.03-.66.13-.08.09-.1.21-.14.91-.01.28-.03.52-.03.7v.02Z"/><path class="cls-20" d="m1917.99,984.32c-.02-.12-.04-.32-.06-.56-.04-.5-.01-.62-.11-.73-.08-.1-.27-.12-.64-.16-.21-.02-.38-.03-.5-.03.11-.02.28-.04.5-.05.43-.03.53,0,.63-.1.05-.05.09-.12.13-.67.02-.23.03-.42.04-.56,0,.14,0,.33.03.56.05.55.11.63.14.67.09.09.19.09.57.12.26.02.47.05.61.06-.07,0-.3.02-.62.03-.42.02-.51.02-.58.11-.07.08-.09.17-.12.74-.01.23-.02.42-.03.57h.01Z"/><path class="cls-20" d="m1916.44,986.54c0-.08-.02-.22-.04-.38-.02-.34,0-.42-.07-.5-.05-.07-.17-.08-.4-.11-.13-.01-.24-.02-.31-.02.07-.01.18-.03.31-.04.26-.02.33,0,.39-.07.03-.03.05-.08.08-.46.01-.16.02-.29.02-.38,0,.09,0,.23.02.38.03.38.07.43.09.46.06.06.12.06.36.08.16.01.29.03.38.04-.04,0-.19.01-.39.02-.26.01-.31.02-.36.07-.05.05-.06.12-.08.51,0,.15-.01.29-.02.39h.02Z"/><polygon class="cls-20" points="1550 891.75 1550.17 889.7 1551.78 890.49 1550.41 889.29 1551.78 888.14 1550.18 888.92 1550 886.99 1549.82 888.92 1548.27 888.14 1549.63 889.29 1548.22 890.44 1549.8 889.68 1550 891.75"/><polygon class="cls-20" points="1844.7 36.93 1844.86 34.39 1846.44 35.38 1845.1 33.89 1846.44 32.48 1844.88 33.44 1844.7 31.07 1844.52 33.44 1843.01 32.48 1844.34 33.89 1842.96 35.31 1844.51 34.37 1844.7 36.93"/><polygon class="cls-20" points="167.16 413.41 166.86 415.3 165.39 415.77 166.86 416.36 167.18 418.19 167.56 416.3 169.02 415.86 167.58 415.36 167.16 413.41"/><polygon class="cls-20" points="168.24 410.93 168.08 412.03 167.26 412.31 168.08 412.65 168.26 413.72 168.47 412.62 169.28 412.36 168.48 412.07 168.24 410.93"/><polygon class="cls-20" points="169.49 412.6 169.25 413.99 168.08 414.33 169.25 414.77 169.51 416.11 169.81 414.72 170.97 414.4 169.82 414.03 169.49 412.6"/><polygon class="cls-20" points="84.14 349.59 84.5 352.81 85.68 351.63 84.79 353.08 87.11 353.58 84.81 354.02 85.72 355.52 84.54 354.37 84.18 357.24 83.84 354.4 82.69 355.52 83.51 353.96 81.23 353.61 83.49 353.22 82.71 351.6 83.82 352.69 84.14 349.59"/><polygon class="cls-20" points="1640.39 831.24 1639.32 829.9 1640.52 831.15 1640.21 829.98 1640.68 831.07 1640.77 829.28 1640.86 831.04 1641.34 830 1641.03 831.15 1642.18 829.9 1641.11 831.3 1642.12 830.92 1641.22 831.45 1642.76 831.56 1641.1 831.68 1642.2 832.26 1641.11 831.85 1642.17 833.24 1641.01 832.04 1641.35 833.22 1640.88 832.09 1640.77 833.96 1640.71 832.09 1640.25 833.15 1640.54 832 1639.35 833.28 1640.4 831.89 1639.42 832.28 1640.37 831.7 1638.7 831.6 1640.36 831.49 1639.41 830.94 1640.39 831.24"/><path class="cls-20" d="m285.95,370.14c.04.34.09.89.13,1.56.08,1.4.03,1.72.23,2.04.19.28.6.34,1.41.44.46.06.84.08,1.1.09-.25.05-.63.11-1.1.15-.94.08-1.17-.02-1.39.27-.11.14-.19.34-.3,1.86-.04.65-.07,1.19-.08,1.56,0-.38-.02-.92-.06-1.56-.1-1.54-.24-1.76-.32-1.86-.2-.26-.42-.24-1.27-.32-.57-.06-1.04-.13-1.35-.18.15,0,.66-.04,1.37-.09.93-.06,1.11-.07,1.29-.3.16-.21.2-.48.27-2.07.03-.63.05-1.17.06-1.59h0Z"/><path class="cls-20" d="m1728.17,852.2c.02.15.04.4.06.7.04.63.01.78.12.92.09.13.3.15.71.2.23.03.42.04.55.04-.12.02-.31.05-.55.07-.47.04-.59,0-.7.12-.05.06-.1.15-.15.84-.02.29-.03.53-.04.7,0-.17-.01-.41-.03-.7-.05-.69-.12-.79-.16-.84-.1-.12-.21-.11-.63-.15-.29-.03-.52-.06-.68-.08.07,0,.33-.02.69-.04.46-.03.56-.03.64-.13s.1-.22.14-.93c.01-.28.02-.53.03-.72h0Z"/><path class="cls-20" d="m1728.95,855.91c.02.13.04.32.06.57.04.51.01.63.1.74.08.1.26.12.63.16.2.02.37.03.49.03-.11.02-.28.04-.49.05-.42.03-.52,0-.62.1-.05.05-.08.12-.13.68-.02.24-.03.43-.04.57,0-.14,0-.34-.03-.57-.05-.56-.11-.64-.14-.68-.09-.1-.18-.09-.56-.12-.25-.02-.46-.05-.6-.06.06,0,.29-.02.61-.03.41-.02.49-.02.57-.11.07-.08.09-.17.12-.75.01-.23.02-.43.03-.58h0Z"/><path class="cls-20" d="m1730.46,853.65c0,.09.02.22.03.39.02.35,0,.43.06.51.05.07.16.08.39.11.13.01.23.02.3.02-.07.01-.17.03-.3.04-.26.02-.32,0-.38.07-.03.03-.05.08-.08.46-.01.16-.02.3-.02.39,0-.1,0-.23-.02-.39-.03-.38-.07-.44-.09-.46-.06-.07-.12-.06-.35-.08-.16-.01-.29-.03-.37-.04.04,0,.18-.01.38-.02.26-.01.31-.02.35-.07.04-.05.06-.12.08-.52,0-.16.01-.29.02-.4h0Z"/><polygon class="cls-20" points="67.14 1018.83 67.01 1020.65 65.75 1019.94 66.82 1021.01 65.75 1022.03 66.99 1021.34 67.14 1023.05 67.28 1021.34 68.49 1022.03 67.42 1021.01 68.52 1019.99 67.29 1020.67 67.14 1018.83"/><polygon class="cls-20" points="355.65 964.83 355.35 969.38 352.5 967.62 354.92 970.28 352.5 972.81 355.33 971.09 355.65 975.35 355.97 971.09 358.72 972.81 356.3 970.28 358.8 967.74 356 969.42 355.65 964.83"/><polygon class="cls-20" points="55.72 907.82 56.57 908.98 55.61 907.9 55.86 908.92 55.48 907.97 55.41 909.53 55.34 908 54.96 908.9 55.21 907.9 54.29 908.98 55.14 907.77 54.34 908.1 55.06 907.64 53.83 907.54 55.15 907.44 54.28 906.93 55.14 907.29 54.3 906.08 55.22 907.13 54.95 906.09 55.33 907.08 55.41 905.45 55.46 907.08 55.83 906.16 55.6 907.16 56.55 906.04 55.71 907.26 56.49 906.91 55.73 907.42 57.07 907.51 55.74 907.6 56.5 908.08 55.72 907.82"/><path class="cls-20" d="m1837.29,217.37c-.03-.22-.06-.56-.09-.98-.06-.88-.02-1.08-.17-1.28-.13-.18-.43-.21-1.02-.28-.33-.04-.61-.05-.79-.06.18-.03.45-.07.79-.09.68-.05.84.01,1-.17.08-.09.14-.21.21-1.17.03-.41.05-.74.06-.98,0,.24.01.58.05.98.07.96.17,1.1.23,1.17.15.17.3.15.91.2.41.04.75.08.97.11-.1,0-.47.03-.99.06-.67.04-.8.04-.93.19-.12.13-.15.3-.2,1.3-.02.4-.04.74-.05,1h.02Z"/><polygon class="cls-20" points="1653.17 980.97 1653.34 978.87 1654.91 979.68 1653.57 978.46 1654.91 977.29 1653.35 978.08 1653.17 976.12 1652.99 978.08 1651.48 977.29 1652.82 978.46 1651.44 979.63 1652.98 978.85 1653.17 980.97"/><polygon class="cls-20" points="379.69 71.78 379.85 69.72 381.46 70.52 380.1 69.32 381.46 68.17 379.87 68.95 379.69 67.02 379.5 68.95 377.96 68.17 379.32 69.32 377.91 70.47 379.49 69.71 379.69 71.78"/><polygon class="cls-20" points="310.04 392.66 308.52 390.57 310.23 392.52 309.79 390.69 310.46 392.4 310.59 389.59 310.72 392.34 311.39 390.72 310.95 392.52 312.59 390.57 311.08 392.75 312.51 392.16 311.22 392.99 313.42 393.16 311.05 393.34 312.61 394.26 311.08 393.61 312.57 395.79 310.93 393.9 311.41 395.76 310.74 393.99 310.59 396.91 310.51 393.99 309.85 395.64 310.25 393.84 308.57 395.85 310.06 393.67 308.67 394.29 310.02 393.37 307.64 393.22 310 393.05 308.65 392.19 310.04 392.66"/><polygon class="cls-20" points="1491.72 34.6 1491.43 39.14 1488.57 37.38 1490.99 40.04 1488.57 42.58 1491.4 40.86 1491.72 45.12 1492.05 40.86 1494.79 42.58 1492.37 40.04 1494.87 37.51 1492.07 39.18 1491.72 34.6"/><polygon class="cls-20" points="1731.25 919.03 1729.31 916.13 1731.49 918.83 1730.92 916.29 1731.78 918.66 1731.95 914.78 1732.11 918.58 1732.97 916.33 1732.4 918.83 1734.5 916.13 1732.57 919.15 1734.4 918.34 1732.75 919.48 1735.55 919.73 1732.54 919.97 1734.53 921.24 1732.57 920.34 1734.48 923.37 1732.38 920.75 1733 923.33 1732.13 920.87 1731.95 924.92 1731.84 920.87 1731 923.16 1731.51 920.67 1729.36 923.45 1731.27 920.42 1729.49 921.28 1731.22 920.01 1728.17 919.81 1731.19 919.56 1729.47 918.38 1731.25 919.03"/><polygon class="cls-20" points="161.87 960.5 161.74 962.33 160.48 961.62 161.55 962.69 160.48 963.71 161.73 963.02 161.87 964.73 162.01 963.02 163.22 963.71 162.15 962.69 163.26 961.67 162.02 962.34 161.87 960.5"/><polygon class="cls-20" points="1818.27 200.34 1818.44 198.28 1820.05 199.08 1818.68 197.87 1820.05 196.72 1818.45 197.5 1818.27 195.57 1818.09 197.5 1816.54 196.72 1817.91 197.87 1816.5 199.02 1818.07 198.26 1818.27 200.34"/></g><g id="nuage"><g class="cls-28"><path class="cls-33" d="m391.16,832.94c-1.18-60.24-64.28-108.79-141.97-108.79-14.46,0-28.41,1.69-41.55,4.81-31.6-44.68-102.52-75.81-184.95-75.81-111.84,0-202.5,57.31-202.5,128,0,30.73,17.14,58.93,45.7,80.99-21.26,8.45-35.7,24.99-35.7,44.01,0,27.61,30.44,50,68,50s68-22.39,68-50c0-.69-.03-1.38-.07-2.07,14.71,2.7,30.11,4.38,45.99,4.9,14.1,30.59,48.22,52.17,88.08,52.17,30.46,0,57.57-12.6,74.96-32.2,21.56,10.27,46.91,16.2,74.04,16.2,20.62,0,40.21-3.42,57.89-9.57,16.29,14.96,41.64,24.57,70.11,24.57,49.15,0,89-28.65,89-64,0-31.93-32.51-58.39-75.03-63.21h0Z"/><path class="cls-33" d="m1340.43,1002.24c2.43-60.24,132.66-108.79,292.97-108.79,29.83,0,58.62,1.69,85.74,4.81,65.21-44.68,211.56-75.81,381.66-75.81,230.79,0,417.88,57.31,417.88,128,0,30.73-35.37,58.93-94.3,80.99,43.87,8.45,73.67,24.99,73.67,44.01,0,27.61-62.83,50-140.32,50s-140.32-22.39-140.32-50c0-.69.07-1.38.15-2.07-30.36,2.7-62.13,4.38-94.91,4.9-29.09,30.59-99.51,52.17-181.76,52.17-62.86,0-118.8-12.6-154.68-32.2-44.49,10.27-96.81,16.2-152.8,16.2-42.55,0-82.98-3.42-119.46-9.57-33.62,14.96-85.93,24.57-144.68,24.57-101.43,0-183.66-28.65-183.66-64,0-31.93,67.09-58.39,154.83-63.21h0Z"/><path class="cls-33" d="m1615.79,720.54c1.29-45.53,70.35-82.23,155.36-82.23,15.82,0,31.09,1.27,45.47,3.64,34.58-33.77,112.19-57.3,202.39-57.3,122.38,0,221.59,43.32,221.59,96.75,0,23.23-18.76,44.54-50.01,61.22,23.26,6.39,39.06,18.89,39.06,33.26,0,20.87-33.32,37.79-74.41,37.79s-74.41-16.92-74.41-37.79c0-.52.04-1.04.08-1.56-16.1,2.04-32.95,3.31-50.33,3.7-15.43,23.12-52.77,39.44-96.39,39.44-33.33,0-63-9.53-82.02-24.34-23.59,7.76-51.34,12.24-81.03,12.24-22.56,0-44-2.59-63.35-7.24-17.83,11.31-45.57,18.57-76.72,18.57-53.79,0-97.39-21.66-97.39-48.38,0-24.13,35.58-44.14,82.1-47.78h0Z"/></g></g><g id="Calque_8"><path class="cls-18" d="m1797.84,910.31c1.44,2.78,2.89,5.56,4.33,8.34,3.73-9.06,8.39-11.91,12.01-12.81,7.93-1.98,13.71,4.67,19.55,1.17,5.78-3.47,3.15-11.79,8.51-13.55,5.44-1.78,10.38,6.04,17.03,5.03,4.72-.71,7.41-5.42,8.97-9.41,3.61-12.1,5.34-19.87-.36-21.37-3.27-.86-3.13,2.51-5.92,9.29-1.55,4.09-1.86,10.91-6.06,12.28-5.85,1.91-11.98-7.3-18-5.26-5.24,1.78-2.76,9.48-8.66,13.27-5.62,3.61-10.71-1.57-18.43.44-3.7.96-8.71,3.76-12.97,12.58h0Z"/><rect class="cls-26" x="1725.19" y="956.85" width="22.98" height="57.6"/><path class="cls-25" d="m1752.43,1011.45c-.36,4.16-9.65,6.81-16.55,6.6-5.94-.18-14.59-2.6-14.94-6.6-.36-4.08,7.91-9.61,15.75-9.6,7.8,0,16.1,5.5,15.75,9.6h-.01Z"/><path class="cls-22" d="m1727.07,1011.15c.22.24.42,5.23.27,5.44"/><path class="cls-22" d="m1746.83,1011.27c-.22.24-.42,5.23-.27,5.44"/><path class="cls-22" d="m1739.35,1011.75c.23.62.31,5.07.12,5.66"/><path class="cls-22" d="m1734.12,1011.86c-.23.62-.31,5.07-.12,5.66"/><rect class="cls-27" x="1765.57" y="957.06" width="22.98" height="57.6"/><path class="cls-24" d="m1792.8,1011.66c-.36,4.16-9.65,6.81-16.55,6.6-5.94-.18-14.59-2.6-14.94-6.6-.36-4.08,7.91-9.61,15.75-9.6,7.8,0,16.1,5.5,15.75,9.6h-.01Z"/><path class="cls-22" d="m1767.45,1011.36c.22.24.42,5.23.27,5.44"/><path class="cls-22" d="m1787.2,1011.49c-.22.24-.42,5.23-.27,5.44"/><path class="cls-22" d="m1779.72,1011.96c.23.62.31,5.07.12,5.66"/><path class="cls-22" d="m1774.49,1012.07c-.23.62-.31,5.07-.12,5.66"/><path class="cls-19" d="m1809.58,880.2c.05.66.1,1.25.12,1.46.69,9.4,2.14,44.23-16.51,66.54-8.35,9.99-20.42,15.55-37.37,15.55s-29.63-5.64-37.93-15.76c-15.41-18.78-15.71-47.01-15.83-67.79-.09-14.98,1.92-22.38,2.71-25.05,3.6-12.12,9.66-16.43,20.78-31.2.9-1.2,24.11,7.5,30.72,7.2,5.7-.25,31.63-8.4,31.63-8.4,13.86,17.63,16.8,23.67,18.07,30,.45,2.22,2.44,13.16,3.61,27.45h0Z"/><path class="cls-36" d="m1755.81,943.35c-9.34,0-16.36-9.13-19.72-14.58-10.76-17.46-11.54-36.62-11.46-46.15.07-8.03.31-35.9,11.75-41.37,4.73-2.26,6.75,1.51,18.98,1.59,12.68.08,14.95-3.95,19.88-1.59,11.42,5.47,11.67,33.09,11.75,41.37.09,10.26-.9,29.01-11.46,46.15-3.36,5.44-10.38,14.58-19.72,14.58h0Z"/><path class="cls-35" d="m1709.24,872.62c-3.87-4.74,10.16-22.36,10.78-22.39-10.51-3.7-19.41-6.99-26.8-9.67-2.93-1.06-7.59-2.74-12.08-6.87-2.16-1.98-3.61-3.92-4.5-5.24-1.75-3.95-5.58-6.14-9.05-5.53-2.68.47-4.31,2.46-4.82,3.13-3.69-3.39-9.06-3.26-11.82-.55-1.89,1.86-2.45,4.83-1.62,7.62-.5.21-4.08,1.81-4.77,4.95-.77,3.55,2.38,8.01,8.04,9.09-.32,1.18-.78,3.69.55,5.72,2.08,3.18,7.92,4.26,13.69,1.37,1.67.11,4.21.38,7.18,1.16,4.3,1.12,7.28,2.69,8.71,3.45,5.39,2.84,14.63,7.57,26.5,13.77h0Z"/><ellipse class="cls-4" cx="1660.47" cy="849.34" rx="2.72" ry="4.28" transform="translate(669.92 2429.63) rotate(-85.01)"/><ellipse class="cls-8" cx="1653.21" cy="839.8" rx="3.23" ry="4.61" transform="translate(322.28 2130.92) rotate(-71.06)"/><ellipse class="cls-7" cx="1657.58" cy="831.14" rx="3.24" ry="4.59" transform="translate(224.51 2007.87) rotate(-66.02)"/><ellipse class="cls-5" cx="1669.48" cy="830.22" rx="2.79" ry="4.17" transform="translate(-122.9 1343.81) rotate(-42.43)"/><path class="cls-12" d="m1666.98,836.05c-.09-.06-.19-.11-.29-.15-1.68-.73-3.89.43-4.93,2.59s-.52,4.5,1.16,5.23c.1.04.21.08.31.11.05,1,.66,1.94,1.67,2.38,1.45.63,3.18,0,3.86-1.42.19-.4.28-.82.27-1.23.38-.36.74-.87,1.03-1.46s.45-1.19.49-1.7c.33-.27.61-.6.8-1,.68-1.42.06-3.07-1.4-3.7-1.01-.44-2.15-.26-2.99.36h.02Z"/><path class="cls-23" d="m1720.02,850.23l-20.77-7.48-9.36-3.49c-2.03-.95-4.58-2.38-7.2-4.5-2.75-2.22-4.71-4.5-6.05-6.32-1.33-3.29-4.47-5.4-7.81-5.32-3.48.08-5.7,2.51-6.06,2.92-2.31-2.7-6.32-3.46-9.55-1.84-3.33,1.67-4.99,5.45-3.88,8.9-.27.13-4.27,2.16-4.65,5.87-.38,3.66,2.9,7.54,7.93,8.16-.13.76-.61,4.02,1.49,6.43,2.57,2.95,8.04,3.54,12.76.66,1.81,0,4.23.16,6.98.86,2.46.63,4.44,1.5,5.92,2.28,9.83,5.08,19.66,10.16,29.49,15.24"/><path class="cls-30" d="m1802.76,872.76c3.87-4.74-10.16-22.36-10.78-22.39,10.51-3.7,19.41-6.99,26.8-9.67,2.93-1.06,7.59-2.74,12.08-6.87,2.16-1.98,3.61-3.92,4.5-5.24,1.75-3.95,5.58-6.14,9.05-5.53,2.68.47,4.31,2.46,4.82,3.13,3.69-3.39,9.06-3.26,11.82-.55,1.89,1.86,2.45,4.83,1.62,7.62.5.21,4.08,1.81,4.77,4.95.77,3.55-2.38,8.01-8.04,9.09.32,1.18.78,3.69-.55,5.72-2.08,3.18-7.92,4.26-13.69,1.37-1.67.11-4.21.38-7.18,1.16-4.3,1.12-7.28,2.69-8.71,3.45-5.39,2.84-14.63,7.57-26.5,13.77h0Z"/><ellipse class="cls-3" cx="1851.59" cy="849.4" rx="4.28" ry="2.72" transform="translate(-66.87 164.27) rotate(-4.99)"/><ellipse class="cls-2" cx="1858.81" cy="839.88" rx="4.61" ry="3.23" transform="translate(-171.97 648.8) rotate(-18.94)"/><ellipse class="cls-6" cx="1854.52" cy="830.99" rx="4.59" ry="3.24" transform="translate(-177.66 825.44) rotate(-23.98)"/><ellipse class="cls-9" cx="1842.49" cy="830.03" rx="4.17" ry="2.79" transform="translate(-13.27 1629.96) rotate(-47.57)"/><path class="cls-1" d="m1845.02,836.2c.09-.06.19-.11.29-.15,1.68-.73,3.89.43,4.93,2.59s.52,4.5-1.16,5.23c-.1.04-.21.08-.31.11-.05,1-.66,1.94-1.67,2.38-1.45.63-3.18,0-3.86-1.42-.19-.4-.28-.82-.27-1.23-.38-.36-.74-.87-1.03-1.46s-.45-1.19-.49-1.7c-.33-.27-.61-.6-.8-1-.68-1.42-.06-3.07,1.4-3.7,1.01-.44,2.15-.26,2.99.36h-.02Z"/><path class="cls-23" d="m1791.98,850.38l20.77-7.48,9.36-3.49c2.03-.95,4.58-2.38,7.2-4.5,2.75-2.22,4.71-4.5,6.05-6.32,1.33-3.29,4.47-5.4,7.81-5.32,3.48.08,5.7,2.51,6.06,2.92,2.31-2.7,6.32-3.46,9.55-1.84,3.33,1.67,4.99,5.45,3.88,8.9.27.13,4.27,2.16,4.65,5.87.38,3.66-2.9,7.54-7.93,8.16.13.76.61,4.02-1.49,6.43-2.57,2.95-8.04,3.54-12.76.66-1.81,0-4.23.16-6.98.86-2.46.63-4.44,1.5-5.92,2.28-9.83,5.08-19.66,10.16-29.49,15.24"/><polygon class="cls-37" points="1692.65 764.23 1682.4 728.69 1690.25 699.45 1701.56 695.74 1728.45 707.15 1745.77 723.46 1692.65 764.23"/><path class="cls-39" d="m1823.89,776.47c.13,1.01,2.53,22.59-11.88,38.88-14.04,15.87-34.77,16.22-54.72,16.56-18.12.31-33.33.56-47.16-10.44-12.91-10.27-22-28.26-19.44-45,1.32-8.64,5.69-17.74,11.88-27.72,5.28-8.52,7.44-12.71,13.86-17.82,13.12-10.44,29.94-9.83,40.86-9.9,10.93-.07,26.63-.18,40.32,10.26,8.23,6.27,12.16,15.66,16.2,22.68,4.15,7.21,8.85,12.82,10.08,22.5h0Z"/><path class="cls-38" d="m1733.62,722.74c-11.93-9.36-27.48-18.98-31.95-14.67-5.04,4.86-6.12,12.96-5.04,22.86.73,6.67,3.24,15.12,5.76,18.36,3.06-4.14,5.58-11.52,13.5-17.64,7.34-5.67,14.28-8.59,17.73-8.91Z"/><path class="cls-40" d="m1748.47,721.21c.17,1.5,1.08,19.63,7.29,19.71,7.29.09,7.09-18.45,7.29-19.89"/><path class="cls-31" d="m1733.62,725.62c.09,3.15.99,9.27,5.49,8.19,1.98-.9,2.09-6.31.9-10.44"/><path class="cls-32" d="m1780.53,725.65c-.09,3.15-.99,9.27-5.49,8.19-1.98-.9-2.09-6.31-.9-10.44"/><path class="cls-17" d="m1695.67,754.96c-.88,2.05-13.72,33.39,3.6,56.52,14.17,18.94,38.56,19.02,55.98,19.08,15.94.05,50.28.17,63.9-24.48,8.89-16.1,4.36-34.45.67-44.37-1.24-3.34-2.38-5.72-2.89-6.75"/><path class="cls-17" d="m1744.37,719.69c-22.34-20.02-42.95-28.46-52.56-21.6-4.13,2.95-5.3,8.06-6.66,14.4-4.3,20.04,1.62,38.14,6.71,49.23"/><path class="cls-17" d="m1735.91,723.46c3.98-1.91,11.83-5.02,22.14-4.86,9.47.15,16.7,2.99,20.61,4.86"/><ellipse class="cls-16" cx="1757.29" cy="765.58" rx="4.5" ry="1.26"/><path class="cls-17" d="m1757.29,768.77c0,9.55-3.27,15.9-6.75,16.24-2.83.28-5.44-3.45-6.16-4.51"/><path class="cls-17" d="m1757.25,769.3c0,9.55,3.27,15.9,6.75,16.24,2.83.28,5.44-3.45,6.16-4.51"/><line class="cls-13" x1="1721.2" y1="764.23" x2="1721.2" y2="773.18"/><line class="cls-13" x1="1789.43" y1="764.25" x2="1789.43" y2="773.2"/><path class="cls-15" d="m1666.03,790.78c3.9-2.99,11.61-8.01,22.18-9.18,12.2-1.35,21.59,3.18,25.82,5.61"/><path class="cls-15" d="m1665.17,805.51c3.27-3.98,9.97-10.99,20.64-15.08,12.32-4.72,23.25-2.99,28.28-1.83"/><path class="cls-15" d="m1666.81,822.95c2.54-4.74,8-13.33,18.14-20.04,11.72-7.75,23.35-8.81,28.77-8.95"/><path class="cls-15" d="m1846.05,786.84c-3.9-2.99-11.61-8.01-22.18-9.18-12.2-1.35-21.59,3.18-25.82,5.61"/><path class="cls-15" d="m1846.91,801.57c-3.27-3.98-9.97-10.99-20.64-15.08-12.32-4.72-23.25-2.99-28.28-1.83"/><path class="cls-15" d="m1845.26,819.01c-2.54-4.74-8-13.33-18.14-20.04-11.72-7.75-23.35-8.81-28.77-8.95"/><polygon class="cls-34" points="1774.37 711.71 1792.46 733.02 1796.5 736.56 1802.88 739.41 1820.21 744.52 1827.95 746.93 1830.15 742.26 1830.56 737.57 1828.79 732.91 1827.47 731.68 1829.89 723.91 1835.03 715.72 1842.51 709.56 1848.85 707.18 1848.18 704.02 1848.41 701.16 1847.18 697.75 1847.92 694.45 1849.33 692.55 1844.18 690.17 1837.39 687.62 1828.05 685.61 1818.68 685.25 1812.36 685.76 1803.88 687.81 1797.47 690.8 1790.94 694.63 1785.32 698.98 1780.17 704.07 1774.37 711.71"/><path class="cls-10" d="m1774.37,711.71c-3.38-4.05-8.21-5.25-10.69-3.69-2.91,1.83-4.04,8.37.39,13.81,4.65,5.81,8.72,10.54,11.78,14,9.11,10.29,11.63,11.98,13.25,12.95,4.52,2.71,8.96,3.97,15.3,5.78,5.22,1.49,7.13,1.58,12.18,3.23,4.85,1.58,8.66,3.31,11.11,4.53,5.08-.22,8.68-4.1,8.57-7.83-.08-2.52-1.84-4.87-4.37-6.17-4.13-1.4-10.23-3.4-17.71-5.61-12.1-3.59-14.35-3.75-18.2-6.49-3.8-2.7-4.26-4.43-12.48-14.16-3.79-4.48-7-8.03-9.13-10.33v-.02Z"/><path class="cls-11" d="m1782.6,717.15l2.64-1.35,1-3.01c.43-1.28,1.91-1.88,3.08-1.23l2.77,1.52c.57.31,1.18.53,1.81.66l2.64.52c1.05.21,1.7,1.28,1.4,2.32l-.95,3.35c-.22.77-.26,1.57-.11,2.35l.41,2.21c.21,1.12-.63,2.18-1.77,2.23l-2.61.11c-.96.04-1.86.47-2.51,1.19l-1.07,1.1-7.42-8.96c-.81-1.05-.49-2.42.7-3.03v.02Z"/><path class="cls-11" d="m1805.05,738.32l3.86-1.92c.39-.19.74-.44,1.06-.73l2.47-2.3c.87-.81,2.23-.71,2.95.21l2.11,2.68c.37.47.83.87,1.35,1.17l2.15,1.24c1.01.59,1.22,1.97.43,2.85l-2.14,2.39-15.43-4.27.35-.55c.21-.32.5-.59.84-.76h0Z"/><path class="cls-11" d="m1827,685.37c-.34.53-2.73,4.37-1.31,8.96,1.74,5.63,7.56,7.03,7.83,7.09-4.64,3.46-11.11,2.81-14.82-1.36-3.56-4.01-3.64-10.22-.11-14.5,2.81-.06,5.61-.13,8.42-.19h-.01Z"/><path class="cls-10" d="m1848.41,701.16c-.74,2.51-.03,5.18,1.81,6.8,2.21,1.95,5.67,2.07,8.26.17,3.08.61,6.11-.94,7.29-3.56.93-2.07.58-4.56-.86-6.45.96-2.71.08-5.69-2.11-7.31-2.43-1.8-5.96-1.54-8.26.71-2.35-.5-4.77.38-6.18,2.26-1.6,2.13-1.6,5.16.05,7.38h0Z"/><path class="cls-14" d="m1849.05,692.67c-3.8-2.22-18.8-10.37-38.31-6.43-22.95,4.63-34.47,22.42-36.37,25.47"/><path class="cls-14" d="m1808.67,723.3c6.71.75,11.29,3.24,13.67,4.8,1.57,1.03,3.2,2.09,4.61,3.37,1.76,1.6,3.16,3.52,3.61,6.1.67,3.88-1.73,7.99-2.61,9.36"/><path class="cls-14" d="m1848.67,707.06c-2.52.74-8.66,2.92-13.85,8.9-5.71,6.57-6.8,13.72-7.07,16.28"/></g></svg>