<?xml version="1.0" encoding="UTF-8"?><svg id="Calque_1" xmlns="http://www.w3.org/2000/svg" viewBox="0 0 30 30"><defs><style>.cls-1{fill:#81c9ff;stroke:#1a1a1a;stroke-miterlimit:10;stroke-width:.5px;}</style></defs><path class="cls-1" d="m6.94,20.77c-1.34.76-2.41,1.37-3.61,2.04-.3-.51-.57-.96-.9-1.53,1.16-.68,2.25-1.32,3.58-2.1-1.35-.66-2.49-1.21-3.72-1.8.22-.54.42-1.02.67-1.62,1.47.68,2.78,1.33,4.13,1.89.41.17,1.03.26,1.39.08,1.51-.77,2.96-1.67,4.69-2.67-1.76-1.02-3.31-1.95-4.92-2.8-.28-.15-.79.04-1.15.19-1.34.58-2.66,1.21-4.1,1.87-.26-.53-.47-.97-.76-1.56,1.2-.59,2.34-1.14,3.71-1.82-1.25-.75-2.32-1.4-3.54-2.14.28-.48.54-.93.87-1.49,1.18.65,2.28,1.26,3.6,1.98-.09-1.47-.17-2.76-.26-4.14.61-.03,1.1-.06,1.72-.09.15,1.59.26,3.09.47,4.58.06.43.35.96.7,1.18,1.39.89,2.85,1.67,4.54,2.64,0-2.04.03-3.89-.03-5.74,0-.27-.4-.58-.68-.78-1.19-.87-2.4-1.71-3.73-2.65.32-.47.62-.91,1-1.45,1.1.75,2.15,1.47,3.38,2.31V1.11c.66-.04,1.18-.07,1.87-.11v4.23c1.31-.89,2.34-1.6,3.46-2.35.35.48.64.88,1.04,1.43-1.26.88-2.5,1.66-3.62,2.58-.42.35-.77,1.01-.81,1.56-.11,1.59-.04,3.2-.04,5.03,1.74-1,3.31-1.84,4.79-2.81.33-.21.47-.86.52-1.32.17-1.36.25-2.74.37-4.19h1.74c-.08,1.36-.16,2.65-.25,4.13,1.26-.69,2.37-1.31,3.58-1.97.3.51.56.96.87,1.49-1.16.69-2.22,1.33-3.52,2.1,1.3.65,2.42,1.21,3.67,1.83-.22.49-.44.97-.71,1.58-1.41-.65-2.71-1.33-4.07-1.85-.5-.19-1.25-.16-1.73.08-1.42.71-2.76,1.58-4.36,2.51,1.77,1.02,3.29,1.94,4.87,2.75.31.16.87-.03,1.26-.2,1.31-.56,2.59-1.19,4.01-1.85.26.54.49,1.01.78,1.58-1.23.59-2.37,1.14-3.75,1.8,1.3.78,2.38,1.43,3.53,2.12-.28.52-.52.95-.82,1.52-1.21-.67-2.35-1.3-3.62-1.99.08,1.45.16,2.72.24,4.11-.6.05-1.08.08-1.7.13-.13-1.45-.28-2.81-.35-4.17-.04-.86-.33-1.44-1.14-1.85-1.35-.69-2.64-1.49-4.21-2.39,0,2-.04,3.82.04,5.63.02.35.48.74.83,1,1.14.85,2.31,1.64,3.55,2.51-.34.52-.6.93-.95,1.47-1.12-.76-2.17-1.47-3.43-2.32v4.08h-1.78v-4.14c-1.31.88-2.39,1.61-3.54,2.38-.34-.48-.63-.88-1.02-1.42,1.27-.9,2.52-1.73,3.7-2.65.35-.27.72-.76.74-1.17.08-1.69.03-3.39.03-5.38-1.76,1.02-3.35,1.91-4.9,2.87-.23.15-.33.62-.37.95-.18,1.5-.31,3-.46,4.59-.6-.03-1.09-.05-1.74-.08.1-1.36.19-2.62.31-4.18Z"/></svg>