<?xml version="1.0" encoding="UTF-8"?><svg id="Calque_1" xmlns="http://www.w3.org/2000/svg" viewBox="0 0 30 30"><defs><style>.cls-1{fill:#e7cf15;}.cls-1,.cls-2{stroke:#000;stroke-linecap:round;stroke-linejoin:round;}.cls-2{fill:none;}.cls-3{fill:#7ff2ff;stroke-width:0px;}</style></defs><path class="cls-3" d="m2.99,1.01h24.39c-.49,2.03-1.36,4.78-2.92,7.72-1.51,2.83-3.16,4.89-4.45,6.27,1.22,1.17,2.79,2.94,4.23,5.44,1.9,3.31,2.74,6.48,3.14,8.56H2.99c.52-2.16,1.41-5,2.97-8.03,1.36-2.64,2.83-4.66,4.06-6.12-1.24-1.48-2.7-3.51-4.06-6.12-1.5-2.89-2.41-5.6-2.97-7.72Z"/><line class="cls-2" x1="1" y1="1" x2="28.92" y2="1"/><line class="cls-2" x1="1.08" y1="28.99" x2="29" y2="28.99"/><path class="cls-2" d="m2.99,1.01c.49,2.09,1.35,4.77,2.94,7.7,1.43,2.63,3.04,4.72,4.44,6.29-1.3,1.3-2.8,3.05-4.13,5.27-2.03,3.39-2.87,6.53-3.24,8.73"/><path class="cls-2" d="m27.37,1.01c-.49,2.09-1.35,4.77-2.94,7.7-1.43,2.63-3.04,4.72-4.44,6.29,1.3,1.3,2.8,3.05,4.13,5.27,2.03,3.39,2.87,6.53,3.24,8.73"/><path class="cls-1" d="m10.67,7.93c-.14-.51.25-1.01.84-1.07,1.06-.11,2.24-.17,3.51-.18,1.31,0,2.51.07,3.59.18.57.06.96.54.84,1.03-.13.53-.31.93-.47,1.24-.54,1-1.18,1.4-2.28,2.97-.27.39-.48.72-.62.94,0,.02-.02.03-.03.05-.2.39-.26.71-.28.94-.02.29.03.49-.12.68-.08.09-.18.16-.29.2-.21.08-.44.08-.65.03-.15-.04-.29-.11-.38-.23-.14-.19-.04-.39-.06-.73-.01-.21-.07-.52-.29-.89-.21-.32-.54-.8-.97-1.37-.6-.8-1-1.23-1.23-1.52-.39-.49-.83-1.21-1.13-2.27Z"/><path class="cls-1" d="m6.72,24.98c-.27.62.49,1.23,1.62,1.3,2.04.13,4.31.21,6.76.21,2.52,0,4.83-.09,6.91-.22,1.09-.07,1.85-.65,1.62-1.25-.24-.64-.59-1.14-.9-1.5-1.03-1.21-2.28-1.7-4.38-3.61-.53-.48-.93-.88-1.19-1.15-.02-.02-.04-.04-.05-.06-.39-.47-.51-.86-.54-1.14-.04-.36.05-.6-.24-.83-.15-.11-.35-.19-.56-.24-.4-.1-.84-.1-1.26-.03-.29.05-.56.13-.73.28-.27.23-.08.47-.12.89-.02.26-.13.63-.56,1.09-.41.39-1.04.97-1.87,1.66-1.16.97-1.92,1.5-2.37,1.85-.76.6-1.6,1.47-2.17,2.76Z"/></svg>