<?xml version="1.0" encoding="UTF-8"?><svg id="Calque_1" xmlns="http://www.w3.org/2000/svg" viewBox="0 0 30 30"><defs><style>.cls-1{stroke-width:0px;}.cls-2{fill:none;stroke:#1a1a1a;stroke-linecap:round;stroke-linejoin:round;stroke-width:3px;}</style></defs><path class="cls-1" d="m18.6,6.08l-4.84-3.45c-.29-.2-.64-.18-.9.08s-.37.68-.29,1.09c.42,2.31,1.06,4.55,1.88,6.67.22.58.46,1.15.71,1.72.21.47.74.67,1.11.37s.52-.91.29-1.42c-.47-1.05-1.47-3.2-1.47-3.2-.17-.5-1.32-2.62-.99-3.01s2.58,2.14,3.68,2.92c.37.26.9.13,1.11-.37s.1-1.14-.29-1.42h0Z"/><path class="cls-1" d="m21.94,6.5c1.61-1.15,3.23-2.3,4.84-3.45.29-.2.64-.18.9.08s.37.68.29,1.09c-.42,2.31-1.06,4.55-1.88,6.67-.22.58-.46,1.15-.71,1.72-.21.47-.74.67-1.11.37s-.52-.91-.29-1.42c.47-1.05,1.47-3.2,1.47-3.2.17-.5,1.32-2.62.99-3.01s-2.58,2.14-3.68,2.92c-.37.26-.9.13-1.11-.37s-.1-1.14.29-1.42h0Z"/><polyline class="cls-2" points="5.72 7.6 2 26.95 13.7 26.95"/><line class="cls-2" x1="17.23" y1="8.12" x2="14.24" y2="26.89"/><path class="cls-2" d="m16.33,15.75c5.15,1.51,7.84-1.07,8.02-3.07.44-5.12-3.75-4.19-6.58-4.6"/><path class="cls-2" d="m26.11,19.31c-.45-1.67-2.85-2.54-5.27-2.26-2.65.31-4.6,1.66-5.04,4.52-.4,2.6,2,4.52,2.13,4.61,2.37,1.83,8.29,2.06,8.96-1.28"/><line class="cls-2" x1="13.69" y1="26.95" x2="19.33" y2="26.95"/></svg>